<svg width="205" height="84" viewBox="0 0 205 84" fill="none" xmlns="http://www.w3.org/2000/svg">
<rect width="205" height="84" rx="40" fill="#8EC31F"/>
<path d="M75.184 56.18C74.344 56.18 73.612 55.904 72.988 55.352C72.364 54.8 72.052 53.9 72.052 52.652C72.052 52.532 72.052 52.412 72.052 52.292C72.052 52.172 72.064 52.052 72.088 51.932C71.368 53.372 70.552 54.44 69.64 55.136C68.752 55.808 67.852 56.144 66.94 56.144C66.1 56.144 65.308 55.856 64.564 55.28C63.82 54.68 63.22 53.804 62.764 52.652C62.308 51.5 62.08 50.108 62.08 48.476C62.08 46.796 62.308 45.296 62.764 43.976C63.244 42.656 63.868 41.54 64.636 40.628C65.404 39.716 66.244 39.032 67.156 38.576C68.068 38.096 68.956 37.856 69.82 37.856C70.78 37.856 71.644 38.156 72.412 38.756C73.18 39.332 73.708 40.256 73.996 41.528C74.068 41.12 74.116 40.748 74.14 40.412C74.188 40.076 74.212 39.848 74.212 39.728C74.236 39.08 74.56 38.6 75.184 38.288C75.832 37.976 76.54 37.82 77.308 37.82C77.98 37.82 78.616 37.952 79.216 38.216C79.816 38.48 80.224 38.924 80.44 39.548L80.512 39.764C80.224 40.412 79.936 41.192 79.648 42.104C79.36 43.016 79.096 43.976 78.856 44.984C78.616 45.968 78.424 46.94 78.28 47.9C78.136 48.836 78.064 49.664 78.064 50.384C78.064 51.176 78.148 51.728 78.316 52.04C78.484 52.328 78.688 52.472 78.928 52.472C79.336 52.472 79.708 52.184 80.044 51.608L80.332 51.752C80.332 52.568 80.068 53.312 79.54 53.984C79.012 54.656 78.352 55.196 77.56 55.604C76.768 55.988 75.976 56.18 75.184 56.18ZM69.316 51.608C69.94 51.608 70.624 51.056 71.368 49.952C72.136 48.824 72.796 47.216 73.348 45.128C73.396 44.912 73.444 44.708 73.492 44.516C73.54 44.3 73.576 44.096 73.6 43.904C73.216 43.016 72.808 42.392 72.376 42.032C71.968 41.648 71.56 41.456 71.152 41.456C70.552 41.456 69.988 41.78 69.46 42.428C68.956 43.052 68.536 43.844 68.2 44.804C67.888 45.764 67.732 46.724 67.732 47.684C67.732 49.004 67.876 49.988 68.164 50.636C68.476 51.284 68.86 51.608 69.316 51.608ZM85.6881 63.308C84.9921 63.308 84.3321 63.176 83.7081 62.912C83.0841 62.672 82.6521 62.3 82.4121 61.796C82.9881 59.348 83.4561 57.176 83.8161 55.28C84.2001 53.384 84.5001 51.692 84.7161 50.204C84.9321 48.716 85.0881 47.36 85.1841 46.136C85.2801 44.888 85.3401 43.688 85.3641 42.536C84.5481 42.584 83.7681 42.668 83.0241 42.788C82.2801 42.884 81.6321 43.028 81.0801 43.22L81.0081 42.968C81.7041 42.272 82.4241 41.696 83.1681 41.24C83.9121 40.76 84.6561 40.376 85.4001 40.088V37.352C85.4001 35.504 85.7721 34.004 86.5161 32.852C87.2601 31.676 88.2081 30.812 89.3601 30.26C90.5361 29.684 91.7481 29.396 92.9961 29.396C94.6521 29.396 95.8881 29.792 96.7041 30.584C97.5441 31.376 97.9641 32.264 97.9641 33.248C97.9641 33.968 97.7361 34.664 97.2801 35.336C96.8481 36.008 96.1881 36.572 95.3001 37.028C94.4121 37.46 93.2961 37.676 91.9521 37.676C92.3361 36.98 92.6241 36.284 92.8161 35.588C93.0321 34.892 93.1401 34.28 93.1401 33.752C93.1401 33.344 93.0801 33.02 92.9601 32.78C92.8401 32.516 92.6721 32.384 92.4561 32.384C92.0001 32.384 91.5561 32.96 91.1241 34.112C90.7161 35.24 90.5121 36.728 90.5121 38.576V39.26C91.2081 39.236 91.8681 39.248 92.4921 39.296C93.1401 39.344 93.7401 39.392 94.2921 39.44C94.3401 39.608 94.3761 39.788 94.4001 39.98C94.4241 40.172 94.4361 40.364 94.4361 40.556C94.4361 40.916 94.3881 41.276 94.2921 41.636C94.1961 41.996 94.0641 42.368 93.8961 42.752C93.4641 42.704 92.9721 42.656 92.4201 42.608C91.8681 42.56 91.2801 42.524 90.6561 42.5V43.292C90.6561 44.612 90.5961 46.136 90.4761 47.864C90.3801 49.592 90.1881 51.644 89.9001 54.02C89.6121 56.396 89.1681 59.228 88.5681 62.516C87.8241 63.044 86.8641 63.308 85.6881 63.308ZM101.364 56.144C100.596 56.144 99.8639 55.976 99.1679 55.64C98.4959 55.28 97.9439 54.728 97.5119 53.984C97.1039 53.24 96.8999 52.292 96.8999 51.14C96.8999 50.516 96.9599 49.7 97.0799 48.692C97.1999 47.684 97.3559 46.58 97.5479 45.38C97.7639 44.18 97.9799 42.98 98.1959 41.78C97.7159 41.804 97.2479 41.852 96.7919 41.924C96.3599 41.996 95.9279 42.08 95.4959 42.176L95.4239 41.924C95.9039 41.348 96.4079 40.856 96.9359 40.448C97.4639 40.04 98.0159 39.704 98.5919 39.44C98.9039 37.856 99.1679 36.488 99.3839 35.336C99.5999 34.16 99.7079 33.464 99.7079 33.248C99.7079 32.84 100.02 32.504 100.644 32.24C101.292 31.976 102.012 31.844 102.804 31.844C103.5 31.844 104.148 31.976 104.748 32.24C105.372 32.504 105.792 32.948 106.008 33.572C105.864 33.716 105.66 34.256 105.396 35.192C105.132 36.104 104.856 37.22 104.568 38.54C105.024 38.564 105.492 38.588 105.972 38.612C106.452 38.636 106.944 38.672 107.448 38.72C107.496 38.864 107.532 39.02 107.556 39.188C107.58 39.356 107.592 39.536 107.592 39.728C107.592 40.088 107.532 40.484 107.412 40.916C107.316 41.324 107.196 41.696 107.052 42.032C106.476 41.984 105.936 41.936 105.432 41.888C104.928 41.816 104.436 41.768 103.956 41.744C103.764 42.776 103.584 43.808 103.416 44.84C103.272 45.872 103.152 46.808 103.056 47.648C102.984 48.488 102.948 49.148 102.948 49.628C102.948 50.636 103.128 51.308 103.488 51.644C103.872 51.98 104.328 52.148 104.856 52.148C105.336 52.148 105.768 52.052 106.152 51.86C106.536 51.668 106.812 51.44 106.98 51.176L107.34 51.284C107.196 52.268 106.812 53.132 106.188 53.876C105.564 54.596 104.82 55.16 103.956 55.568C103.092 55.952 102.228 56.144 101.364 56.144ZM116.297 56.252C114.545 56.252 113.093 55.904 111.941 55.208C110.789 54.488 109.925 53.552 109.349 52.4C108.773 51.224 108.485 49.964 108.485 48.62C108.485 47.348 108.725 46.076 109.205 44.804C109.709 43.508 110.429 42.332 111.365 41.276C112.325 40.22 113.477 39.368 114.821 38.72C116.189 38.072 117.725 37.748 119.429 37.748C121.541 37.748 123.077 38.228 124.037 39.188C125.021 40.124 125.513 41.264 125.513 42.608C125.513 43.76 125.201 44.828 124.577 45.812C123.977 46.772 123.173 47.552 122.165 48.152C121.157 48.728 120.053 49.016 118.853 49.016C118.229 49.016 117.593 48.92 116.945 48.728C116.297 48.536 115.661 48.236 115.037 47.828C115.157 49.316 115.589 50.396 116.333 51.068C117.077 51.74 117.965 52.076 118.997 52.076C119.717 52.076 120.437 51.944 121.157 51.68C121.877 51.392 122.537 51.032 123.137 50.6C123.761 50.144 124.241 49.664 124.577 49.16L124.829 49.34C124.829 50.588 124.565 51.656 124.037 52.544C123.533 53.408 122.861 54.116 122.021 54.668C121.181 55.22 120.257 55.628 119.249 55.892C118.265 56.132 117.281 56.252 116.297 56.252ZM117.125 46.532C117.893 46.532 118.517 46.316 118.997 45.884C119.477 45.428 119.837 44.9 120.077 44.3C120.317 43.7 120.437 43.172 120.437 42.716C120.437 42.164 120.281 41.708 119.969 41.348C119.657 40.964 119.225 40.772 118.673 40.772C118.241 40.772 117.761 40.928 117.233 41.24C116.729 41.552 116.273 42.092 115.865 42.86C115.457 43.604 115.193 44.648 115.073 45.992C115.841 46.352 116.525 46.532 117.125 46.532ZM131.542 56.144C130.678 56.144 129.91 55.796 129.238 55.1C128.566 54.38 128.23 53.372 128.23 52.076C128.23 51.452 128.302 50.744 128.446 49.952C128.59 49.16 128.758 48.356 128.95 47.54C129.142 46.7 129.31 45.92 129.454 45.2C129.598 44.456 129.67 43.844 129.67 43.364C129.67 42.86 129.574 42.464 129.382 42.176C129.214 41.864 128.986 41.708 128.698 41.708C128.242 41.708 127.774 42.02 127.294 42.644L127.078 42.5C127.054 42.116 127.138 41.66 127.33 41.132C127.522 40.604 127.822 40.1 128.23 39.62C128.638 39.116 129.154 38.696 129.778 38.36C130.426 38.024 131.182 37.856 132.046 37.856C133.318 37.856 134.242 38.228 134.818 38.972C135.394 39.692 135.682 40.568 135.682 41.6C135.682 41.768 135.67 41.948 135.646 42.14C135.646 42.308 135.634 42.476 135.61 42.644C136.474 41.084 137.374 39.896 138.31 39.08C139.27 38.24 140.158 37.82 140.974 37.82C141.742 37.82 142.306 38.12 142.666 38.72C143.026 39.32 143.206 40.04 143.206 40.88C143.206 41.648 143.05 42.428 142.738 43.22C142.45 44.012 142.006 44.672 141.406 45.2C140.83 45.704 140.122 45.944 139.282 45.92L139.138 45.848C139.114 45.224 138.91 44.732 138.526 44.372C138.142 44.012 137.71 43.832 137.23 43.832C136.582 43.832 135.97 44.156 135.394 44.804C134.842 45.452 134.566 46.388 134.566 47.612C134.566 48.356 134.65 49.16 134.818 50.024C134.986 50.888 135.07 51.62 135.07 52.22C135.07 52.94 134.902 53.6 134.566 54.2C134.23 54.8 133.798 55.28 133.27 55.64C132.742 55.976 132.166 56.144 131.542 56.144Z" fill="white"/>
</svg>
