<svg width="205" height="84" viewBox="0 0 205 84" fill="none" xmlns="http://www.w3.org/2000/svg">
<rect width="205" height="84" rx="40" fill="#74A45E"/>
<path d="M58.548 56.144C57.588 56.144 56.712 55.94 55.92 55.532C55.128 55.1 54.48 54.476 53.976 53.66C53.952 54.116 53.784 54.536 53.472 54.92C53.16 55.304 52.572 55.496 51.708 55.496C50.748 55.496 50.04 55.232 49.584 54.704C49.128 54.176 48.9 53.48 48.9 52.616C48.9 52.088 48.972 51.332 49.116 50.348C49.26 49.34 49.428 48.212 49.62 46.964C49.836 45.716 50.04 44.42 50.232 43.076C50.448 41.732 50.628 40.424 50.772 39.152C50.916 37.88 50.988 36.74 50.988 35.732C50.988 35.06 50.952 34.472 50.88 33.968C50.808 33.464 50.676 33.068 50.484 32.78V32.564C51.036 31.964 51.612 31.52 52.212 31.232C52.812 30.92 53.388 30.764 53.94 30.764C54.756 30.764 55.452 31.088 56.028 31.736C56.604 32.384 56.892 33.416 56.892 34.832C56.892 35.528 56.82 36.512 56.676 37.784C56.532 39.032 56.352 40.28 56.136 41.528C57 40.304 57.912 39.368 58.872 38.72C59.856 38.072 60.804 37.748 61.716 37.748C62.94 37.748 63.984 38.336 64.848 39.512C65.712 40.664 66.144 42.416 66.144 44.768C66.144 46.16 65.976 47.54 65.64 48.908C65.328 50.252 64.848 51.476 64.2 52.58C63.552 53.66 62.748 54.524 61.788 55.172C60.852 55.82 59.772 56.144 58.548 56.144ZM56.748 52.508C57.516 52.508 58.164 52.172 58.692 51.5C59.244 50.828 59.652 49.976 59.916 48.944C60.204 47.888 60.348 46.808 60.348 45.704C60.348 44.984 60.288 44.3 60.168 43.652C60.048 42.98 59.868 42.44 59.628 42.032C59.388 41.6 59.076 41.384 58.692 41.384C58.02 41.384 57.252 42.176 56.388 43.76C55.548 45.32 54.888 47.54 54.408 50.42C54.84 51.812 55.62 52.508 56.748 52.508ZM75.9802 56.252C74.2282 56.252 72.7762 55.904 71.6242 55.208C70.4722 54.488 69.6082 53.552 69.0322 52.4C68.4562 51.224 68.1682 49.964 68.1682 48.62C68.1682 47.348 68.4082 46.076 68.8882 44.804C69.3922 43.508 70.1122 42.332 71.0482 41.276C72.0082 40.22 73.1602 39.368 74.5042 38.72C75.8722 38.072 77.4082 37.748 79.1122 37.748C81.2242 37.748 82.7602 38.228 83.7202 39.188C84.7042 40.124 85.1962 41.264 85.1962 42.608C85.1962 43.76 84.8842 44.828 84.2602 45.812C83.6602 46.772 82.8562 47.552 81.8482 48.152C80.8402 48.728 79.7362 49.016 78.5362 49.016C77.9122 49.016 77.2762 48.92 76.6282 48.728C75.9802 48.536 75.3442 48.236 74.7202 47.828C74.8402 49.316 75.2722 50.396 76.0162 51.068C76.7602 51.74 77.6482 52.076 78.6802 52.076C79.4002 52.076 80.1202 51.944 80.8402 51.68C81.5602 51.392 82.2202 51.032 82.8202 50.6C83.4442 50.144 83.9242 49.664 84.2602 49.16L84.5122 49.34C84.5122 50.588 84.2482 51.656 83.7202 52.544C83.2162 53.408 82.5442 54.116 81.7042 54.668C80.8642 55.22 79.9402 55.628 78.9322 55.892C77.9482 56.132 76.9642 56.252 75.9802 56.252ZM76.8082 46.532C77.5762 46.532 78.2002 46.316 78.6802 45.884C79.1602 45.428 79.5202 44.9 79.7602 44.3C80.0002 43.7 80.1202 43.172 80.1202 42.716C80.1202 42.164 79.9642 41.708 79.6522 41.348C79.3402 40.964 78.9082 40.772 78.3562 40.772C77.9242 40.772 77.4442 40.928 76.9162 41.24C76.4122 41.552 75.9562 42.092 75.5482 42.86C75.1402 43.604 74.8762 44.648 74.7562 45.992C75.5242 46.352 76.2082 46.532 76.8082 46.532ZM90.6178 63.308C89.9218 63.308 89.2618 63.176 88.6378 62.912C88.0138 62.672 87.5818 62.3 87.3418 61.796C87.9178 59.348 88.3858 57.176 88.7458 55.28C89.1298 53.384 89.4298 51.692 89.6458 50.204C89.8618 48.716 90.0178 47.36 90.1138 46.136C90.2098 44.888 90.2698 43.688 90.2938 42.536C89.4778 42.584 88.6978 42.668 87.9538 42.788C87.2098 42.884 86.5618 43.028 86.0098 43.22L85.9378 42.968C86.6338 42.272 87.3538 41.696 88.0978 41.24C88.8418 40.76 89.5858 40.376 90.3298 40.088V37.352C90.3298 35.504 90.7018 34.004 91.4458 32.852C92.1898 31.676 93.1378 30.812 94.2898 30.26C95.4658 29.684 96.6778 29.396 97.9258 29.396C99.5818 29.396 100.818 29.792 101.634 30.584C102.474 31.376 102.894 32.264 102.894 33.248C102.894 33.968 102.666 34.664 102.21 35.336C101.778 36.008 101.118 36.572 100.23 37.028C99.3418 37.46 98.2258 37.676 96.8818 37.676C97.2658 36.98 97.5538 36.284 97.7458 35.588C97.9618 34.892 98.0698 34.28 98.0698 33.752C98.0698 33.344 98.0098 33.02 97.8898 32.78C97.7698 32.516 97.6018 32.384 97.3858 32.384C96.9298 32.384 96.4858 32.96 96.0538 34.112C95.6458 35.24 95.4418 36.728 95.4418 38.576V39.26C96.1378 39.236 96.7978 39.248 97.4218 39.296C98.0698 39.344 98.6698 39.392 99.2218 39.44C99.2698 39.608 99.3058 39.788 99.3298 39.98C99.3538 40.172 99.3658 40.364 99.3658 40.556C99.3658 40.916 99.3178 41.276 99.2218 41.636C99.1258 41.996 98.9938 42.368 98.8258 42.752C98.3938 42.704 97.9018 42.656 97.3498 42.608C96.7978 42.56 96.2098 42.524 95.5858 42.5V43.292C95.5858 44.612 95.5258 46.136 95.4058 47.864C95.3098 49.592 95.1178 51.644 94.8298 54.02C94.5418 56.396 94.0978 59.228 93.4978 62.516C92.7538 63.044 91.7938 63.308 90.6178 63.308ZM107.764 56.252C105.964 56.252 104.476 55.892 103.3 55.172C102.124 54.452 101.248 53.504 100.672 52.328C100.12 51.128 99.8439 49.856 99.8439 48.512C99.8439 47.24 100.072 45.968 100.528 44.696C101.008 43.424 101.692 42.272 102.58 41.24C103.492 40.184 104.596 39.344 105.892 38.72C107.188 38.072 108.676 37.748 110.356 37.748C112.156 37.748 113.632 38.12 114.784 38.864C115.96 39.584 116.824 40.544 117.376 41.744C117.952 42.944 118.24 44.228 118.24 45.596C118.24 46.844 118.012 48.104 117.556 49.376C117.1 50.624 116.416 51.776 115.504 52.832C114.616 53.864 113.524 54.692 112.228 55.316C110.932 55.94 109.444 56.252 107.764 56.252ZM108.736 53.192C109.384 53.192 109.924 52.856 110.356 52.184C110.788 51.512 111.112 50.66 111.328 49.628C111.544 48.572 111.652 47.504 111.652 46.424C111.652 45.464 111.556 44.564 111.364 43.724C111.196 42.86 110.932 42.164 110.572 41.636C110.212 41.084 109.744 40.808 109.168 40.808C108.544 40.808 108.004 41.144 107.548 41.816C107.116 42.488 106.792 43.34 106.576 44.372C106.36 45.404 106.252 46.472 106.252 47.576C106.252 48.536 106.336 49.448 106.504 50.312C106.696 51.152 106.972 51.848 107.332 52.4C107.692 52.928 108.16 53.192 108.736 53.192ZM124.554 56.144C123.69 56.144 122.922 55.796 122.25 55.1C121.578 54.38 121.242 53.372 121.242 52.076C121.242 51.452 121.314 50.744 121.458 49.952C121.602 49.16 121.77 48.356 121.962 47.54C122.154 46.7 122.322 45.92 122.466 45.2C122.61 44.456 122.682 43.844 122.682 43.364C122.682 42.86 122.586 42.464 122.394 42.176C122.226 41.864 121.998 41.708 121.71 41.708C121.254 41.708 120.786 42.02 120.306 42.644L120.09 42.5C120.066 42.116 120.15 41.66 120.342 41.132C120.534 40.604 120.834 40.1 121.242 39.62C121.65 39.116 122.166 38.696 122.79 38.36C123.438 38.024 124.194 37.856 125.058 37.856C126.33 37.856 127.254 38.228 127.83 38.972C128.406 39.692 128.694 40.568 128.694 41.6C128.694 41.768 128.682 41.948 128.658 42.14C128.658 42.308 128.646 42.476 128.622 42.644C129.486 41.084 130.386 39.896 131.322 39.08C132.282 38.24 133.17 37.82 133.986 37.82C134.754 37.82 135.318 38.12 135.678 38.72C136.038 39.32 136.218 40.04 136.218 40.88C136.218 41.648 136.062 42.428 135.75 43.22C135.462 44.012 135.018 44.672 134.418 45.2C133.842 45.704 133.134 45.944 132.294 45.92L132.15 45.848C132.126 45.224 131.922 44.732 131.538 44.372C131.154 44.012 130.722 43.832 130.242 43.832C129.594 43.832 128.982 44.156 128.406 44.804C127.854 45.452 127.578 46.388 127.578 47.612C127.578 48.356 127.662 49.16 127.83 50.024C127.998 50.888 128.082 51.62 128.082 52.22C128.082 52.94 127.914 53.6 127.578 54.2C127.242 54.8 126.81 55.28 126.282 55.64C125.754 55.976 125.178 56.144 124.554 56.144ZM144.218 56.252C142.466 56.252 141.014 55.904 139.862 55.208C138.71 54.488 137.846 53.552 137.27 52.4C136.694 51.224 136.406 49.964 136.406 48.62C136.406 47.348 136.646 46.076 137.126 44.804C137.63 43.508 138.35 42.332 139.286 41.276C140.246 40.22 141.398 39.368 142.742 38.72C144.11 38.072 145.646 37.748 147.35 37.748C149.462 37.748 150.998 38.228 151.958 39.188C152.942 40.124 153.434 41.264 153.434 42.608C153.434 43.76 153.122 44.828 152.498 45.812C151.898 46.772 151.094 47.552 150.086 48.152C149.078 48.728 147.974 49.016 146.774 49.016C146.15 49.016 145.514 48.92 144.866 48.728C144.218 48.536 143.582 48.236 142.958 47.828C143.078 49.316 143.51 50.396 144.254 51.068C144.998 51.74 145.886 52.076 146.918 52.076C147.638 52.076 148.358 51.944 149.078 51.68C149.798 51.392 150.458 51.032 151.058 50.6C151.682 50.144 152.162 49.664 152.498 49.16L152.75 49.34C152.75 50.588 152.486 51.656 151.958 52.544C151.454 53.408 150.782 54.116 149.942 54.668C149.102 55.22 148.178 55.628 147.17 55.892C146.186 56.132 145.202 56.252 144.218 56.252ZM145.046 46.532C145.814 46.532 146.438 46.316 146.918 45.884C147.398 45.428 147.758 44.9 147.998 44.3C148.238 43.7 148.358 43.172 148.358 42.716C148.358 42.164 148.202 41.708 147.89 41.348C147.578 40.964 147.146 40.772 146.594 40.772C146.162 40.772 145.682 40.928 145.154 41.24C144.65 41.552 144.194 42.092 143.786 42.86C143.378 43.604 143.114 44.648 142.994 45.992C143.762 46.352 144.446 46.532 145.046 46.532Z" fill="white"/>
</svg>
