<svg width="448" height="448" viewBox="0 0 448 448" fill="none" xmlns="http://www.w3.org/2000/svg">
<circle cx="224" cy="224" r="224" fill="#74A45E"/>
<path d="M175.496 92.488C176.888 92.656 177.704 92.824 178.304 93.04C178.592 93.136 178.736 93.28 178.736 93.472C178.736 93.64 178.712 93.736 178.616 93.856C178.4 94.12 178.328 94.456 178.28 94.72C178.208 95.152 178.16 95.512 178.088 95.92C180.296 95.704 182 95.44 184.328 94.912C184.616 94.84 184.688 94.936 184.736 95.152C184.856 95.656 184.976 96.256 184.976 96.784C184.976 97.096 184.736 97.216 184.472 97.264C181.304 97.912 179.84 98.08 177.656 98.272C177.56 99.28 177.512 99.856 177.488 100.696C178.424 100.384 179.984 100.192 181.16 100.168C181.304 99.784 181.544 99.088 181.568 98.416C182.432 98.68 183.368 99.064 183.704 99.304C183.992 99.496 184.136 99.688 184.136 99.832C184.136 99.928 184.088 100.024 183.992 100.12C183.872 100.24 183.8 100.384 183.68 100.6C186.776 101.416 188.6 103.456 188.6 106.456C188.6 109.936 185.744 112.192 181.928 113.224C181.4 113.368 181.136 113.296 180.872 112.768C180.704 112.432 180.224 111.928 179.456 111.28C181.184 110.92 183.032 110.152 183.92 109.528C185.072 108.688 185.84 107.656 185.84 105.928C185.84 104.008 184.472 102.856 182.864 102.448C181.472 105.088 180.056 106.984 178.328 108.736C178.448 109.168 178.592 109.432 178.76 109.816C178.904 110.128 178.808 110.248 178.568 110.416C178.016 110.824 177.464 111.112 177.128 111.256C176.888 111.376 176.792 111.376 176.648 111.136C176.48 110.848 176.36 110.56 176.24 110.2C174.536 111.376 173.288 111.928 172.064 111.928C170.432 111.928 169.4 110.824 169.4 108.952C169.4 105.88 172.064 102.952 175.016 101.488C175.04 100.456 175.088 99.4 175.136 98.488C173.72 98.536 173.072 98.512 172.664 98.512C171.968 98.512 171.584 98.512 171.296 98.464C171.032 98.44 170.888 98.32 170.864 97.912C170.792 97.384 170.792 96.76 170.744 96.088C172.28 96.256 173.6 96.208 175.4 96.184C175.496 95.32 175.592 94.24 175.592 93.568C175.592 93.208 175.568 92.872 175.496 92.488ZM177.656 106.36C178.64 105.232 179.768 103.552 180.44 102.208C179.576 102.232 178.472 102.4 177.368 102.76C177.392 104.008 177.464 105.136 177.656 106.36ZM175.016 103.84C173.168 105.16 171.92 106.888 171.92 108.448C171.92 109.024 172.28 109.36 172.712 109.36C173.384 109.36 174.272 108.928 175.496 107.968C175.256 106.528 175.064 105.232 175.016 103.84ZM205.064 106.648C204.92 105.112 204.872 103.648 204.848 102.52C204.824 101.872 204.8 101.488 204.656 100.816C205.832 100.936 206.456 101.032 207.272 101.272C207.488 101.32 207.608 101.44 207.608 101.656C207.608 101.704 207.56 101.872 207.464 102.16C207.368 102.448 207.344 102.736 207.368 103.144C207.368 104.56 207.44 105.592 207.632 107.224C209.36 107.92 210.536 108.448 211.952 109.456C212.192 109.624 212.216 109.72 212.096 109.96C211.736 110.704 211.4 111.304 210.992 111.904C210.92 112.024 210.848 112.072 210.776 112.072C210.704 112.072 210.632 112.024 210.536 111.928C209.48 111.016 208.592 110.488 207.608 109.912C207.608 112.312 205.88 113.416 203.144 113.416C200.504 113.416 198.728 112.072 198.728 110.008C198.728 107.92 200.456 106.504 203.168 106.504C203.624 106.504 204.296 106.528 205.064 106.648ZM205.112 108.928C204.536 108.736 203.888 108.568 203.144 108.568C201.944 108.568 201.008 109.048 201.008 109.96C201.008 110.728 201.68 111.112 203.048 111.112C204.344 111.112 205.136 110.416 205.136 109.408C205.136 109.192 205.136 109.072 205.112 108.928ZM201.2 96.616C202.136 96.52 203.24 96.304 204.176 96.088C204.392 96.016 204.488 96.016 204.536 96.28C204.656 96.88 204.728 97.6 204.752 98.224C204.752 98.44 204.656 98.488 204.464 98.512C203.168 98.776 201.992 98.944 200.504 99.16C198.968 103.216 197.552 106.528 195.824 109.456C195.728 109.624 195.656 109.696 195.56 109.696C195.488 109.696 195.392 109.648 195.272 109.576C194.72 109.24 194.024 108.736 193.616 108.352C193.496 108.256 193.448 108.184 193.448 108.088C193.448 108.016 193.472 107.92 193.568 107.8C195.368 104.824 196.64 102.304 197.72 99.424C196.808 99.472 196.064 99.472 195.32 99.472C194.792 99.472 194.6 99.472 194 99.448C193.76 99.448 193.712 99.376 193.664 99.064C193.544 98.608 193.472 97.816 193.424 97.024C194.408 97.096 194.96 97.12 195.656 97.12C196.592 97.12 197.312 97.096 198.416 97C198.704 95.992 198.872 95.176 199.04 94.312C199.184 93.472 199.184 93.112 199.184 92.368C200.216 92.512 201.248 92.656 201.992 92.872C202.232 92.92 202.376 93.064 202.376 93.232C202.376 93.424 202.304 93.544 202.16 93.688C202.016 93.88 201.92 94.096 201.776 94.576C201.608 95.152 201.416 95.896 201.2 96.616ZM206.528 98.896C206.936 98.176 207.296 97.456 207.608 97.024C207.752 96.784 207.872 96.76 208.112 96.856C209.528 97.24 211.424 98.2 212.816 99.112C212.96 99.208 213.032 99.28 213.032 99.376C213.032 99.448 213.008 99.544 212.936 99.664C212.696 100.192 212.264 100.936 211.928 101.44C211.856 101.56 211.784 101.608 211.712 101.608C211.64 101.608 211.592 101.584 211.496 101.512C210.08 100.552 208.352 99.496 206.528 98.896ZM225.536 97C226.472 96.832 227.768 96.52 228.944 96.184C229.208 96.112 229.304 96.232 229.328 96.424C229.4 96.952 229.472 97.648 229.496 98.152C229.52 98.464 229.448 98.536 229.136 98.608C227.648 99.016 226.424 99.28 224.96 99.52C223.328 104.848 222.104 108.52 220.568 112.504C220.448 112.84 220.304 112.816 220.04 112.744C219.8 112.648 218.624 112.144 218.12 111.856C217.928 111.736 217.856 111.544 217.928 111.376C219.752 107.176 220.904 104.008 222.08 100C220.688 100.144 219.008 100.264 217.88 100.264C217.52 100.264 217.424 100.192 217.376 99.88C217.28 99.376 217.16 98.56 217.04 97.696C217.544 97.768 217.832 97.768 218.816 97.768C220.016 97.768 221.312 97.696 222.704 97.528C222.944 96.568 223.136 95.512 223.304 94.528C223.4 93.808 223.448 93.088 223.448 92.32C224.72 92.512 225.704 92.68 226.472 92.992C226.664 93.064 226.736 93.232 226.736 93.376C226.736 93.472 226.736 93.592 226.616 93.76C226.424 94.096 226.232 94.336 226.112 94.72C225.872 95.584 225.704 96.4 225.536 97ZM225.968 108.016C226.712 107.824 227.696 107.656 228.008 107.656C228.248 107.656 228.344 107.752 228.368 107.992C228.56 109.744 229.736 110.248 232.04 110.248C233.384 110.248 235.112 110.032 236.072 109.912C236.264 109.888 236.336 109.936 236.36 110.128C236.456 110.752 236.552 111.568 236.552 112.216C236.576 112.504 236.552 112.576 236.168 112.6C235.352 112.72 233.792 112.864 232.904 112.864C229.76 112.864 228.128 112.432 227.048 111.304C226.28 110.536 226.016 109.408 225.968 108.016ZM227.84 103.48C227.792 102.64 227.744 101.776 227.744 101.296C227.744 100.96 227.816 100.888 228.176 100.816C229.688 100.504 231.464 100.264 232.856 100.264C233.792 100.264 234.824 100.36 235.664 100.504C236 100.552 236.072 100.576 236.072 100.864C236.12 101.464 236.12 102.136 236.096 102.784C236.096 103.192 235.976 103.288 235.64 103.216C234.8 103.048 233.696 102.928 232.664 102.928C231.224 102.928 229.4 103.168 227.84 103.48ZM252.632 97.288H252.536C251.984 101.368 250.976 105.112 249.536 107.632C248.504 109.432 247.256 110.392 245.456 110.392C243.344 110.392 241.208 108.136 241.208 104.224C241.208 101.92 242.192 99.712 243.92 97.984C245.936 95.968 248.48 94.912 251.72 94.912C257.48 94.912 260.864 98.464 260.864 103.24C260.864 107.704 258.344 110.512 253.472 111.976C252.968 112.12 252.752 112.024 252.44 111.544C252.176 111.136 251.672 110.584 250.76 110.032C254.816 109.072 258.008 107.392 258.008 102.856C258.008 100 255.848 97.288 252.632 97.288ZM249.752 97.432C248.072 97.768 246.728 98.44 245.648 99.616C244.496 100.912 243.776 102.52 243.776 104.056C243.776 106.264 244.664 107.488 245.408 107.488C246.032 107.488 246.56 107.176 247.208 106.024C248.264 104.08 249.344 100.624 249.752 97.432Z" fill="white"/>
<path d="M143.592 271.68V275.544C143.592 275.808 143.448 275.928 143.136 275.976C142.824 276.024 142.104 276.096 141.432 276.096C141.216 276.096 141.12 275.952 141.12 275.712C141.12 274.848 141.12 273.648 141.144 272.784C139.008 273.888 138.24 274.824 138.24 275.976C138.24 276.984 139.056 277.632 141.576 277.632C143.784 277.632 145.704 277.416 147.552 277.152C147.768 277.128 147.864 277.2 147.888 277.416C148.008 277.968 148.104 278.808 148.104 279.384C148.128 279.672 148.032 279.84 147.84 279.84C145.776 280.104 144.216 280.152 141.888 280.152C137.952 280.152 135.864 278.976 135.864 276.192C135.864 273.888 137.304 272.208 140.928 270.336C140.856 269.112 140.568 268.632 139.488 268.68C138.36 268.728 137.28 269.448 136.176 270.408C135.144 271.416 134.544 272.112 133.776 273.024C133.656 273.168 133.584 273.24 133.488 273.24C133.416 273.24 133.32 273.168 133.224 273.072C132.888 272.736 132.168 271.992 131.856 271.488C131.784 271.392 131.76 271.32 131.76 271.272C131.76 271.176 131.808 271.104 131.928 271.008C133.776 269.352 135.552 267.456 136.944 265.056C135.816 265.104 134.52 265.128 133.104 265.128C132.888 265.128 132.816 265.008 132.768 264.744C132.696 264.36 132.6 263.472 132.528 262.752C134.352 262.848 136.224 262.824 138.048 262.728C138.312 262.08 138.528 261.504 138.768 260.664C138.864 260.256 138.936 259.848 138.936 259.2C139.992 259.368 141.048 259.632 141.672 259.872C141.864 259.944 141.96 260.112 141.96 260.28C141.96 260.4 141.912 260.544 141.792 260.64C141.648 260.76 141.504 260.976 141.384 261.216C141.24 261.552 141.12 261.864 140.832 262.512C142.296 262.344 143.76 262.104 145.2 261.768C145.464 261.72 145.536 261.792 145.584 262.008C145.704 262.488 145.8 263.04 145.824 263.736C145.848 263.976 145.752 264.072 145.416 264.12C143.616 264.384 141.552 264.648 139.8 264.84C139.248 265.728 138.72 266.616 138 267.504L138.024 267.552C138.792 267.048 139.776 266.808 140.424 266.808C142.008 266.808 143.112 267.528 143.352 269.4C144.288 268.968 145.656 268.344 146.88 267.72C147.336 267.48 148.104 267.048 148.704 266.424C149.496 267.264 150.12 268.104 150.384 268.536C150.528 268.752 150.576 268.92 150.576 269.064C150.576 269.256 150.456 269.352 150.216 269.4C149.712 269.472 149.232 269.592 148.752 269.76C147.192 270.312 145.632 270.84 143.592 271.68ZM170.424 265.44H171.264C172.44 265.44 173.784 265.416 174.888 265.368C175.176 265.344 175.2 265.488 175.224 265.752C175.272 266.352 175.272 267.048 175.224 267.648C175.2 267.96 175.152 268.056 174.816 268.032C174 268.032 172.536 268.008 171.36 268.008H170.376C170.232 271.44 169.704 273.456 168.528 275.4C167.328 277.392 165.384 278.832 162.864 279.864C162.528 280.008 162.336 280.08 162.192 280.08C162.048 280.08 161.928 280.008 161.736 279.816C161.016 279.072 160.56 278.736 159.744 278.376C163.152 277.32 165 276.096 166.224 274.128C167.16 272.592 167.544 270.936 167.64 268.008H162.528V268.872C162.528 270.288 162.528 271.584 162.6 272.856C162.624 273.12 162.456 273.168 162.192 273.192C161.568 273.24 160.776 273.24 160.128 273.192C159.816 273.168 159.672 273.12 159.696 272.856C159.768 271.608 159.816 270.432 159.816 268.92V268.008H159.096C157.8 268.008 155.88 268.08 155.136 268.128C154.944 268.128 154.872 267.984 154.848 267.672C154.752 267.168 154.728 266.328 154.68 265.344C155.688 265.416 157.248 265.464 159.096 265.464H159.816V263.712C159.816 262.176 159.768 261.576 159.528 260.184C160.776 260.304 161.952 260.424 162.456 260.568C162.72 260.616 162.816 260.736 162.816 260.904C162.816 261.048 162.744 261.216 162.672 261.408C162.504 261.84 162.504 262.08 162.504 263.712V265.464H167.664L167.688 263.112C167.712 261.768 167.64 260.664 167.472 259.824C168.384 259.92 169.704 260.064 170.28 260.232C170.616 260.304 170.712 260.424 170.712 260.616C170.712 260.712 170.688 260.856 170.616 261.048C170.448 261.504 170.424 262.128 170.424 263.16V265.44ZM187.656 265.104V263.976C187.656 262.464 187.608 261.36 187.392 260.28C188.52 260.376 189.768 260.52 190.368 260.64C190.848 260.736 190.896 260.976 190.656 261.432C190.44 261.84 190.416 262.392 190.416 263.832V265.104H193.368C195.456 265.104 197.088 265.008 198.264 264.96C198.48 264.936 198.576 265.08 198.576 265.344C198.6 265.968 198.6 266.592 198.552 267.216C198.528 267.528 198.456 267.696 198.216 267.672C196.728 267.624 194.904 267.552 193.272 267.552H190.44L190.464 272.4C190.464 273.672 190.512 274.704 190.512 276.576C190.512 277.752 190.08 278.544 189.096 279.048C188.328 279.48 187.032 279.816 186.024 279.84C185.736 279.84 185.592 279.696 185.448 279.336C185.088 278.496 184.584 277.8 183.84 277.176C185.472 277.176 186.528 277.08 187.104 276.888C187.488 276.72 187.656 276.456 187.656 275.832V267.552H183.888C182.52 267.552 180.864 267.624 179.736 267.72C179.52 267.72 179.424 267.528 179.424 267.24C179.4 266.808 179.328 265.728 179.328 264.936C181.152 265.08 182.616 265.104 183.84 265.104H187.656ZM181.968 269.472C182.952 269.784 183.864 270.192 184.464 270.576C184.848 270.84 184.992 271.08 184.56 271.416C184.32 271.608 184.152 271.848 183.96 272.232C183.336 273.504 182.28 275.184 181.296 276.24C181.008 276.552 180.816 276.624 180.456 276.384C179.76 275.928 179.088 275.544 178.416 275.376C179.808 273.936 180.672 272.688 181.32 271.416C181.68 270.768 181.848 270.24 181.968 269.472ZM192.888 271.008C193.536 270.528 194.16 270.12 194.712 269.712C195 269.496 195.192 269.568 195.384 269.808C196.56 270.816 197.712 272.376 198.816 274.2C199.032 274.56 198.96 274.728 198.696 274.944C198.312 275.304 197.64 275.784 197.088 276.144C196.824 276.312 196.704 276.36 196.536 276.048C195.672 274.44 194.352 272.496 192.888 271.008ZM196.872 258.624C198.312 258.624 199.464 259.752 199.464 261.192C199.464 262.632 198.312 263.76 196.872 263.76C195.432 263.76 194.28 262.632 194.28 261.192C194.28 259.704 195.432 258.624 196.872 258.624ZM196.872 259.776C196.056 259.776 195.456 260.376 195.456 261.192C195.456 262.008 196.056 262.608 196.872 262.608C197.688 262.608 198.288 262.008 198.288 261.192C198.288 260.376 197.688 259.776 196.872 259.776ZM216.6 271.584H207.96C205.584 271.584 204.672 271.872 204.432 271.872C204.144 271.872 203.952 271.728 203.88 271.368C203.76 270.816 203.616 269.688 203.52 268.464C205.08 268.704 206.28 268.752 208.704 268.752H216.432C218.256 268.752 220.104 268.704 221.952 268.68C222.312 268.656 222.384 268.728 222.384 269.016C222.432 269.736 222.432 270.552 222.384 271.272C222.384 271.56 222.288 271.656 221.952 271.632C220.152 271.608 218.376 271.584 216.6 271.584ZM236.208 263.232V266.664C239.136 267.576 241.464 268.512 243.84 269.928C244.104 270.072 244.224 270.24 244.104 270.552C243.792 271.344 243.408 272.088 243.072 272.64C242.976 272.808 242.88 272.904 242.76 272.904C242.688 272.904 242.592 272.88 242.496 272.784C240.288 271.368 238.128 270.312 236.184 269.712V275.016C236.184 276.576 236.232 277.992 236.28 279.72C236.304 280.008 236.184 280.08 235.848 280.08C235.152 280.128 234.408 280.128 233.712 280.08C233.376 280.08 233.256 280.008 233.256 279.72C233.328 277.944 233.352 276.528 233.352 274.992V263.184C233.352 261.384 233.28 260.592 233.112 259.632C234.216 259.704 235.416 259.824 236.112 260.016C236.448 260.088 236.568 260.232 236.568 260.424C236.568 260.568 236.496 260.76 236.376 260.976C236.208 261.288 236.208 261.888 236.208 263.232ZM255.408 260.064C256.512 260.184 257.664 260.304 258.408 260.496C258.816 260.592 258.984 260.712 258.984 260.952C258.984 261.216 258.84 261.504 258.744 261.744C258.624 262.08 258.528 262.824 258.408 264.672C258.168 268.368 258.048 270.816 258.048 273.96C258.048 276.384 258.336 276.936 260.256 276.936C262.392 276.936 265.728 275.64 268.656 272.52C268.752 273.432 268.968 274.224 269.208 274.8C269.328 275.064 269.4 275.232 269.4 275.376C269.4 275.592 269.304 275.784 268.92 276.12C266.328 278.496 262.944 279.72 259.824 279.72C256.752 279.72 255.312 278.496 255.312 274.824C255.312 270.792 255.528 267.336 255.648 264.456C255.696 263.04 255.768 261.504 255.408 260.064ZM284.016 273.72C283.968 272.664 283.92 271.68 283.896 270.864C282.24 270.912 280.608 270.912 278.952 270.768C278.688 270.768 278.592 270.672 278.568 270.36C278.472 269.832 278.424 268.872 278.424 268.32C280.2 268.536 282.024 268.584 283.824 268.512C283.8 267.6 283.8 266.664 283.776 265.752C281.472 265.824 279.744 265.824 278.04 265.632C277.776 265.632 277.656 265.536 277.632 265.296C277.56 264.696 277.512 264.12 277.464 263.136C279.552 263.376 281.64 263.376 283.752 263.376C283.752 262.488 283.728 261.864 283.704 261.048C283.656 260.496 283.608 260.064 283.416 259.44C284.688 259.512 285.72 259.656 286.44 259.872C286.728 259.968 286.872 260.304 286.704 260.592C286.536 260.928 286.368 261.336 286.344 261.744C286.32 262.224 286.32 262.56 286.296 263.28C288.528 263.112 290.136 262.848 291.552 262.56C291.84 262.488 291.936 262.56 291.96 262.848C292.056 263.52 292.08 264.168 292.08 264.6C292.08 264.912 292.008 264.96 291.816 264.984C290.112 265.272 288.576 265.464 286.272 265.608C286.272 266.568 286.296 267.456 286.296 268.32C288.12 268.2 289.272 267.96 291 267.696C291.288 267.624 291.36 267.672 291.384 267.888C291.408 268.344 291.456 269.136 291.456 269.856C291.456 270.096 291.36 270.168 291.096 270.192C289.512 270.456 288.408 270.624 286.392 270.768C286.44 271.872 286.488 273.048 286.56 274.152C288.864 274.8 290.832 275.664 292.92 277.056C293.16 277.272 293.16 277.344 293.088 277.632C292.92 278.088 292.416 278.976 292.032 279.408C291.936 279.552 291.84 279.6 291.72 279.6C291.648 279.6 291.552 279.576 291.456 279.48C289.992 278.328 288.504 277.488 286.68 276.744C286.656 279.336 285.096 280.392 281.808 280.392C278.688 280.392 276.912 279.024 276.912 277.032C276.912 275.088 278.808 273.624 281.712 273.624C282.312 273.624 282.888 273.624 284.016 273.72ZM284.064 276C283.368 275.832 282.504 275.712 281.832 275.712C280.08 275.712 279.24 276.216 279.24 276.984C279.24 277.608 279.96 278.064 281.616 278.064C282.576 278.064 283.464 277.776 283.8 277.344C283.992 277.08 284.064 276.672 284.064 276ZM308.928 263.28C308.904 262.536 308.904 261.936 308.88 261.288C308.832 260.592 308.784 260.256 308.592 259.536C309.672 259.608 310.824 259.752 311.4 259.872C311.808 259.944 312.072 260.112 312.072 260.328C312.072 260.52 312 260.64 311.856 260.88C311.784 261.024 311.712 261.264 311.664 261.576C311.64 261.888 311.64 262.2 311.616 263.112C314.208 263.016 316.68 262.992 318.984 262.992C319.272 262.992 319.32 263.04 319.344 263.352C319.368 263.952 319.368 264.576 319.344 265.176C319.344 265.44 319.224 265.512 318.936 265.488C316.44 265.416 314.112 265.416 311.616 265.44C311.616 266.904 311.616 268.44 311.64 269.904C311.88 270.552 312 271.488 312 272.28C312 275.064 310.872 277.968 307.728 280.032C307.32 280.296 307.008 280.488 306.792 280.488C306.576 280.488 306.312 280.32 306.072 280.128C305.52 279.672 304.872 279.36 304.248 279.168C307.056 277.92 308.736 275.904 309.168 273.888C308.688 274.584 307.704 274.848 306.912 274.848C305.016 274.848 303.576 273.48 303.576 271.176C303.576 268.944 305.256 267.576 307.2 267.576C307.92 267.576 308.64 267.72 309.024 268.056C309.024 267.216 309 266.4 309 265.608C305.976 265.776 302.592 266.064 300.696 266.328C300.168 266.4 299.784 266.616 299.568 266.616C299.328 266.616 299.232 266.52 299.16 266.28C298.968 265.8 298.752 264.84 298.56 263.856C299.448 263.952 300.216 263.856 301.488 263.76C302.952 263.64 306.048 263.448 308.928 263.28ZM307.392 269.448C306.648 269.448 305.808 269.952 305.808 271.008C305.808 272.064 306.48 272.64 307.344 272.64C308.232 272.64 308.976 272.088 308.976 270.984C308.976 270 308.352 269.448 307.392 269.448Z" fill="white"/>
<path d="M178.016 310.248C178.64 310.56 179.24 310.872 179.864 311.208C180.08 311.328 180.104 311.448 179.984 311.64C179.624 312.192 179.36 312.984 179.36 313.464C179.36 314.976 180.92 315.72 185.048 315.72C187.376 315.72 189.584 315.456 191.552 315.024C191.888 314.952 192.008 315.024 192.056 315.24C192.176 315.696 192.392 316.992 192.44 317.592C192.464 317.808 192.32 317.904 192.032 317.952C189.8 318.36 187.592 318.528 185 318.528C179.456 318.528 176.744 316.8 176.744 313.68C176.744 312.696 177.104 311.664 178.016 310.248ZM178.544 301.176C180.368 301.608 182.672 301.8 185.288 301.8C187.04 301.8 188.744 301.704 190.28 301.584C190.52 301.56 190.616 301.656 190.64 301.848C190.736 302.4 190.832 303.072 190.856 303.888C190.856 304.224 190.736 304.368 190.448 304.392C188.168 304.728 186.512 305.52 184.568 306.768C184.376 306.912 184.16 306.984 183.968 306.984C183.8 306.984 183.632 306.936 183.464 306.84C182.984 306.528 182.48 306.264 181.784 306.072C183.032 305.256 184.088 304.584 184.928 304.08C184.4 304.152 183.656 304.152 183.176 304.152C182.192 304.152 180.128 304.008 178.76 303.744C178.544 303.696 178.448 303.6 178.448 303.312C178.448 302.736 178.496 302.04 178.544 301.176ZM190.544 300.024L191.816 299.136C191.936 299.04 192.032 299.064 192.176 299.184C192.92 299.76 193.784 300.72 194.456 301.752C194.552 301.896 194.552 302.016 194.384 302.136L193.376 302.88C193.208 303 193.088 302.976 192.968 302.808C192.248 301.704 191.48 300.792 190.544 300.024ZM192.752 298.44L193.952 297.576C194.096 297.48 194.168 297.504 194.312 297.624C195.2 298.296 196.064 299.256 196.592 300.096C196.688 300.24 196.712 300.384 196.52 300.528L195.56 301.272C195.368 301.416 195.248 301.344 195.152 301.2C194.504 300.168 193.736 299.256 192.752 298.44ZM204.44 308.016H201.44C199.328 308.016 198.608 308.064 198.464 308.064C198.2 308.064 198.176 308.04 198.176 307.8V306.096C198.176 305.856 198.2 305.832 198.464 305.832C198.608 305.832 199.328 305.88 201.44 305.88H205.832L206.336 304.92C206.552 304.512 206.672 304.2 206.768 303.696C205.304 304.176 203.744 304.584 202.016 304.968C201.296 305.136 201.296 305.136 201.008 304.488C200.696 303.912 200.312 303.264 200.024 303C202.856 302.568 205.088 302.016 207.032 301.344C205.592 300.792 204.104 300.288 202.52 299.832C202.256 299.76 202.304 299.664 202.544 299.448L203.696 298.392C203.936 298.176 203.984 298.176 204.224 298.248C206.24 298.872 208.04 299.472 209.816 300.168C210.656 299.76 211.448 299.28 212.264 298.776C212.624 298.536 213.152 298.128 213.608 297.672C214.424 297.984 215.264 298.416 215.864 298.728C216.08 298.848 216.128 298.968 216.128 299.112C216.128 299.256 215.984 299.376 215.792 299.424C215.6 299.472 215.264 299.592 214.952 299.808C214.136 300.336 213.344 300.84 212.528 301.272C213.728 301.8 214.976 302.376 216.32 303.024C216.44 303.096 216.512 303.144 216.512 303.192C216.512 303.264 216.44 303.36 216.344 303.48L215.216 304.848C215 305.112 214.904 305.088 214.688 304.968C213.056 304.056 211.472 303.264 209.888 302.544C209.048 302.904 208.16 303.24 207.248 303.552C207.944 303.624 208.568 303.696 209.096 303.792C209.384 303.84 209.576 303.936 209.576 304.128C209.576 304.272 209.552 304.344 209.408 304.464C209.168 304.656 209 304.92 208.832 305.208C208.712 305.448 208.568 305.664 208.448 305.88H216.56C218.672 305.88 219.392 305.832 219.536 305.832C219.752 305.832 219.776 305.856 219.776 306.096V307.8C219.776 308.04 219.752 308.064 219.536 308.064C219.392 308.064 218.672 308.016 216.56 308.016H207.176C206.576 308.928 205.952 309.768 205.256 310.536H208.64C208.64 309.816 208.592 309.24 208.496 308.52C209.408 308.544 210.176 308.592 211.016 308.688C211.232 308.712 211.376 308.808 211.376 308.952C211.376 309.12 211.328 309.24 211.256 309.408C211.16 309.624 211.088 309.912 211.088 310.536H213.704C215.96 310.536 217.112 310.488 217.256 310.488C217.496 310.488 217.52 310.512 217.52 310.752C217.52 310.896 217.472 311.592 217.472 312.984V314.448C217.472 315.048 217.52 315.72 217.52 316.248C217.52 316.872 217.352 317.424 216.968 317.784C216.512 318.24 216.056 318.432 214.04 318.432C213.296 318.432 213.296 318.432 213.128 317.664C213.008 317.184 212.864 316.776 212.624 316.272C213.416 316.344 213.8 316.368 214.376 316.368C214.832 316.368 215.048 316.176 215.048 315.672V312.528H211.088V316.68C211.088 318.576 211.136 319.488 211.136 319.632C211.136 319.872 211.112 319.896 210.872 319.896H208.88C208.64 319.896 208.616 319.872 208.616 319.632C208.616 319.488 208.664 318.576 208.664 316.68V312.528H205.088V316.392C205.088 317.76 205.136 318.168 205.136 318.312C205.136 318.552 205.112 318.576 204.848 318.576H202.904C202.664 318.576 202.64 318.552 202.64 318.312C202.64 318.168 202.688 317.76 202.688 316.392V313.008C201.872 313.68 200.96 314.352 199.904 315.048C199.64 315.24 199.496 315.336 199.376 315.336C199.208 315.336 199.112 315.168 198.944 314.808C198.656 314.208 198.296 313.752 197.888 313.392C200.552 311.952 202.712 310.296 204.44 308.016ZM236.312 298.728H240.32C242.12 298.728 242.744 298.68 242.888 298.68C243.128 298.68 243.176 298.728 243.176 298.944C243.128 299.328 243.08 300.12 243.032 300.936C242.888 303.576 242.624 305.832 242.408 307.08C242.144 308.472 241.64 309.432 240.584 309.672C240.128 309.768 239.408 309.816 238.784 309.816C238.04 309.816 237.92 309.768 237.848 309.36C237.752 308.784 237.584 308.136 237.344 307.704C238.112 307.8 238.808 307.824 239.384 307.776C239.768 307.728 240.008 307.176 240.152 306.408H235.424C234.944 307.704 234.2 308.784 233.048 309.792C232.784 310.008 232.616 310.128 232.472 310.128C232.28 310.128 232.136 309.984 231.872 309.744C231.464 309.312 230.96 309.048 230.408 308.832C230.792 308.616 231.128 308.4 231.44 308.136C231.368 308.16 231.296 308.184 231.176 308.184C230.072 308.304 229.112 308.328 228.104 308.328C226.832 308.328 225.704 308.304 225.008 308.016C224.36 307.752 224.024 307.176 224.024 305.952V302.496C223.088 302.52 222.68 302.544 222.584 302.544C222.344 302.544 222.32 302.52 222.32 302.28V300.6C222.32 300.36 222.344 300.36 222.584 300.36C222.728 300.36 223.4 300.384 225.392 300.384H226.64V299.688C226.64 299.208 226.616 298.68 226.496 297.984C227.216 298.008 228.224 298.056 228.92 298.128C229.136 298.152 229.256 298.248 229.256 298.368C229.256 298.536 229.184 298.608 229.112 298.776C229.016 298.968 228.992 299.208 228.992 299.664V300.384H229.712C231.728 300.384 232.376 300.36 232.52 300.36C232.76 300.36 232.784 300.36 232.784 300.6V302.28C232.784 302.52 232.76 302.544 232.52 302.544C232.376 302.544 231.728 302.496 229.712 302.496H226.376V304.992C226.376 305.64 226.448 305.856 226.736 305.976C227.072 306.12 227.456 306.144 228.2 306.144C229.328 306.144 230.192 306.096 231.224 305.976C231.608 305.928 231.632 305.952 231.632 306.576V307.512C231.632 307.8 231.608 307.944 231.56 308.04C233.216 306.624 233.864 304.608 234.08 301.224C234.152 300.192 234.152 299.664 234.128 298.968C234.128 298.728 234.152 298.68 234.368 298.68C234.512 298.68 234.944 298.728 236.312 298.728ZM240.56 303.528H236.096C236.048 303.936 236 304.344 235.928 304.704H240.416C240.464 304.344 240.536 303.936 240.56 303.528ZM240.776 300.648H236.312L236.264 301.824H240.704L240.776 300.648ZM240.512 319.32H225.488C223.376 319.32 222.656 319.368 222.512 319.368C222.296 319.368 222.272 319.344 222.272 319.104V317.52C222.272 317.28 222.296 317.256 222.512 317.256C222.656 317.256 223.376 317.304 225.488 317.304H231.632V315.768H228.536C226.184 315.768 225.368 315.816 225.224 315.816C224.984 315.816 224.96 315.792 224.96 315.528V314.088C224.96 313.848 224.984 313.824 225.224 313.824C225.368 313.824 226.184 313.872 228.536 313.872H231.632V312.36H227.12C224.792 312.36 224.024 312.408 223.88 312.408C223.64 312.408 223.616 312.384 223.616 312.144V310.656C223.616 310.416 223.64 310.392 223.88 310.392C224.024 310.392 224.792 310.44 227.12 310.44H238.928C241.232 310.44 242 310.392 242.144 310.392C242.408 310.392 242.432 310.416 242.432 310.656V312.144C242.432 312.384 242.408 312.408 242.144 312.408C242 312.408 241.232 312.36 238.928 312.36H234.08V313.872H237.488C239.84 313.872 240.656 313.824 240.8 313.824C241.064 313.824 241.088 313.848 241.088 314.088V315.528C241.088 315.792 241.064 315.816 240.8 315.816C240.656 315.816 239.84 315.768 237.488 315.768H234.08V317.304H240.512C242.648 317.304 243.344 317.256 243.512 317.256C243.728 317.256 243.752 317.28 243.752 317.52V319.104C243.752 319.344 243.728 319.368 243.512 319.368C243.344 319.368 242.648 319.32 240.512 319.32ZM259.592 310.68V314.544C259.592 314.808 259.448 314.928 259.136 314.976C258.824 315.024 258.104 315.096 257.432 315.096C257.216 315.096 257.12 314.952 257.12 314.712C257.12 313.848 257.12 312.648 257.144 311.784C255.008 312.888 254.24 313.824 254.24 314.976C254.24 315.984 255.056 316.632 257.576 316.632C259.784 316.632 261.704 316.416 263.552 316.152C263.768 316.128 263.864 316.2 263.888 316.416C264.008 316.968 264.104 317.808 264.104 318.384C264.128 318.672 264.032 318.84 263.84 318.84C261.776 319.104 260.216 319.152 257.888 319.152C253.952 319.152 251.864 317.976 251.864 315.192C251.864 312.888 253.304 311.208 256.928 309.336C256.856 308.112 256.568 307.632 255.488 307.68C254.36 307.728 253.28 308.448 252.176 309.408C251.144 310.416 250.544 311.112 249.776 312.024C249.656 312.168 249.584 312.24 249.488 312.24C249.416 312.24 249.32 312.168 249.224 312.072C248.888 311.736 248.168 310.992 247.856 310.488C247.784 310.392 247.76 310.32 247.76 310.272C247.76 310.176 247.808 310.104 247.928 310.008C249.776 308.352 251.552 306.456 252.944 304.056C251.816 304.104 250.52 304.128 249.104 304.128C248.888 304.128 248.816 304.008 248.768 303.744C248.696 303.36 248.6 302.472 248.528 301.752C250.352 301.848 252.224 301.824 254.048 301.728C254.312 301.08 254.528 300.504 254.768 299.664C254.864 299.256 254.936 298.848 254.936 298.2C255.992 298.368 257.048 298.632 257.672 298.872C257.864 298.944 257.96 299.112 257.96 299.28C257.96 299.4 257.912 299.544 257.792 299.64C257.648 299.76 257.504 299.976 257.384 300.216C257.24 300.552 257.12 300.864 256.832 301.512C258.296 301.344 259.76 301.104 261.2 300.768C261.464 300.72 261.536 300.792 261.584 301.008C261.704 301.488 261.8 302.04 261.824 302.736C261.848 302.976 261.752 303.072 261.416 303.12C259.616 303.384 257.552 303.648 255.8 303.84C255.248 304.728 254.72 305.616 254 306.504L254.024 306.552C254.792 306.048 255.776 305.808 256.424 305.808C258.008 305.808 259.112 306.528 259.352 308.4C260.288 307.968 261.656 307.344 262.88 306.72C263.336 306.48 264.104 306.048 264.704 305.424C265.496 306.264 266.12 307.104 266.384 307.536C266.528 307.752 266.576 307.92 266.576 308.064C266.576 308.256 266.456 308.352 266.216 308.4C265.712 308.472 265.232 308.592 264.752 308.76C263.192 309.312 261.632 309.84 259.592 310.68Z" fill="white"/>
<path d="M132.704 349.464V345.36C131.504 345.456 130.28 345.552 128.672 345.552C128.264 345.552 128.144 345.408 128.096 345.048C128.024 344.592 127.928 343.8 127.832 342.96C128.456 343.056 129.08 343.08 129.704 343.08C130.712 343.08 131.744 342.984 132.752 342.888C132.752 342.096 132.776 341.184 132.776 340.152C132.776 339.528 132.752 338.832 132.608 338.208C133.808 338.28 134.816 338.448 135.464 338.64C135.752 338.712 135.944 338.88 135.944 339.096C135.944 339.192 135.896 339.312 135.8 339.48C135.632 339.792 135.512 340.104 135.464 340.416C135.392 341.04 135.368 341.64 135.344 342.408C136.4 342.192 137.384 341.88 138.416 341.52C138.632 341.448 138.8 341.496 138.824 341.736C138.92 342.336 138.968 342.984 138.968 343.608C138.968 343.848 138.896 343.92 138.656 343.992C137.072 344.496 136.664 344.616 135.224 344.904C135.2 346.056 135.2 347.232 135.176 348.384C137.432 347.424 139.544 347.04 141.08 347.064C144.056 347.088 146.192 348.984 146.192 351.864C146.192 354.936 144.224 356.736 140.984 356.736C140.288 356.736 139.52 356.64 139.016 356.52C138.632 356.424 138.488 356.184 138.488 355.8C138.44 355.272 138.272 354.456 137.768 353.76C138.92 354.144 139.88 354.192 140.768 354.192C142.112 354.192 143.36 353.424 143.36 351.72C143.36 350.16 142.4 349.296 140.72 349.296C139.352 349.296 137.696 349.656 135.224 350.928C135.248 351.936 135.272 352.752 135.32 353.808C135.392 354.864 135.512 356.376 135.512 356.928C135.512 357.264 135.56 357.624 135.152 357.72C134.624 357.864 133.856 357.984 133.376 358.008C133.112 358.032 133.016 357.84 132.8 357.528C132.152 356.64 130.904 355.488 129.392 354.456C129.128 354.6 128.84 354.792 128.624 354.984C128.504 355.104 128.336 355.152 128.216 355.152C128.024 355.152 127.832 355.008 127.688 354.768C127.424 354.336 126.944 353.328 126.584 352.536C127.208 352.392 128 352.128 128.792 351.696C129.824 351.12 130.952 350.472 132.704 349.464ZM132.824 351.984C132.152 352.44 131.336 352.992 130.472 353.616C131.144 353.976 131.96 354.384 132.728 354.696C132.92 354.744 132.992 354.72 132.968 354.504C132.92 353.88 132.872 352.776 132.824 351.984ZM140.84 342.888C141.152 342.24 141.536 341.616 141.944 341.016C142.112 340.752 142.184 340.68 142.352 340.728C144.56 341.376 146.192 342.384 147.44 343.656C147.536 343.752 147.584 343.824 147.584 343.896C147.584 343.968 147.536 344.04 147.488 344.136C147.176 344.616 146.552 345.36 146.192 345.84C146.12 345.936 145.784 345.96 145.712 345.84C144.44 344.424 142.76 343.536 140.84 342.888ZM171.08 341.016V350.928C171.08 352.608 171.152 354.528 171.152 355.704C171.152 356.856 170.984 357.384 170.48 357.912C170.024 358.32 169.4 358.56 167.6 358.56C166.88 358.56 166.904 358.56 166.76 357.816C166.616 357.12 166.424 356.544 166.16 356.064C166.76 356.16 167.192 356.184 167.648 356.184C168.416 356.184 168.632 355.968 168.632 355.248V344.952H164.648C162.776 344.952 162.152 345 162.008 345C161.768 345 161.744 344.976 161.744 344.712C161.744 344.592 161.792 344.064 161.792 342.72V339.84C161.792 338.496 161.744 337.968 161.744 337.8C161.744 337.56 161.768 337.536 162.008 337.536C162.152 337.536 162.776 337.584 164.648 337.584H168.176C170.048 337.584 170.696 337.536 170.864 337.536C171.104 337.536 171.128 337.56 171.128 337.8C171.128 337.944 171.08 338.952 171.08 341.016ZM168.632 339.336H164.144V340.488H168.632V339.336ZM168.632 343.248V342.096H164.144V343.248H168.632ZM165.128 358.176H163.448C163.208 358.176 163.184 358.152 163.184 357.888C163.184 357.768 163.208 357.12 163.232 355.824C160.976 356.136 158.552 356.4 156.32 356.592C155.912 356.64 155.696 356.688 155.576 356.784C155.456 356.88 155.336 356.928 155.216 356.928C155.096 356.928 154.976 356.808 154.904 356.52C154.784 355.992 154.688 355.392 154.592 354.696C155.192 354.72 155.816 354.72 156.68 354.672V348.024C155.6 348.048 155.12 348.072 155.048 348.072C154.808 348.072 154.784 348.048 154.784 347.808V346.44C154.784 346.2 154.808 346.176 155.048 346.176C155.168 346.176 155.936 346.224 158.144 346.224H163.976C166.184 346.224 166.952 346.176 167.072 346.176C167.312 346.176 167.336 346.2 167.336 346.44V347.808C167.336 348.048 167.312 348.072 167.072 348.072C166.976 348.072 166.496 348.048 165.344 348.024V355.152C165.344 356.928 165.392 357.744 165.392 357.888C165.392 358.152 165.368 358.176 165.128 358.176ZM163.232 354.144V353.232H158.768V354.528C160.184 354.432 161.72 354.288 163.232 354.144ZM158.768 351.696H163.232V350.616H158.768V351.696ZM158.768 349.08H163.232V348.024H158.768V349.08ZM154.088 337.584H157.424C158.984 337.584 159.704 337.536 159.848 337.536C160.064 337.536 160.088 337.56 160.088 337.8C160.088 337.944 160.04 338.616 160.04 340.008V342.528C160.04 343.944 160.088 344.592 160.088 344.712C160.088 344.976 160.064 345 159.848 345C159.704 345 158.984 344.952 157.424 344.952H153.488V353.4C153.488 356.76 153.536 358.392 153.536 358.56C153.536 358.8 153.512 358.824 153.272 358.824H151.256C151.016 358.824 150.992 358.8 150.992 358.56C150.992 358.392 151.04 356.76 151.04 353.4V343.008C151.04 339.648 150.992 337.968 150.992 337.8C150.992 337.56 151.016 337.536 151.256 337.536C151.424 337.536 152.336 337.584 154.088 337.584ZM157.688 339.336H153.488V340.488H157.688V339.336ZM157.688 343.248V342.096H153.488V343.248H157.688ZM181.016 343.584C181.4 342.216 181.568 341.376 181.736 340.56C181.856 339.84 181.976 338.904 181.976 337.896C183.224 338.16 183.896 338.328 184.856 338.688C185.096 338.76 185.24 338.952 185.24 339.168C185.24 339.288 185.192 339.408 185.072 339.528C184.832 339.84 184.712 340.104 184.592 340.44C184.28 341.424 184.04 342.312 183.728 343.32C184.376 343.248 185.096 343.224 185.6 343.224C187.856 343.224 189.08 344.76 189.08 347.664C189.08 350.496 188.6 353.64 187.784 355.368C187.088 356.904 185.936 357.624 184.544 357.624C183.392 357.624 182.696 357.528 182.168 357.36C181.88 357.264 181.736 357.048 181.736 356.688C181.664 355.92 181.616 355.248 181.28 354.456C182.36 354.864 183.176 354.984 183.92 354.984C184.712 354.984 185.072 354.696 185.456 353.712C185.96 352.368 186.392 350.088 186.392 347.76C186.392 346.056 186.08 345.528 185.024 345.528C184.448 345.528 183.704 345.6 183.008 345.696C181.424 350.304 180.056 353.616 178.184 356.976C178.04 357.288 177.848 357.336 177.56 357.192C177.128 356.976 176.192 356.4 175.904 356.136C175.784 356.016 175.712 355.92 175.712 355.776C175.712 355.704 175.736 355.608 175.808 355.512C177.728 352.176 178.976 349.632 180.2 346.104C179.264 346.248 178.496 346.392 177.848 346.512C177.224 346.632 176.84 346.776 176.528 346.896C176.192 347.016 175.904 346.968 175.76 346.584C175.544 346.032 175.28 345.168 175.016 344.112C176.072 344.112 177.128 344.04 178.184 343.944C179.192 343.848 180.08 343.728 181.016 343.584ZM189.56 343.392C190.16 342.984 190.856 342.504 191.504 342.168C191.672 342.072 191.792 342.12 191.96 342.288C193.592 343.824 195.056 345.816 195.944 348.12C196.04 348.336 196.016 348.456 195.848 348.6C195.44 348.984 194.528 349.56 194.048 349.8C193.808 349.92 193.568 349.896 193.496 349.608C192.536 347.088 191.288 345.024 189.56 343.392ZM203.336 344.712V342.144C203.288 340.92 203.24 340.536 203 339.6C204.2 339.696 205.28 339.864 205.88 340.008C206.144 340.056 206.384 340.296 206.384 340.512C206.384 340.68 206.312 340.848 206.24 341.016C206.096 341.376 206.024 341.688 206 342.072C205.976 342.648 205.976 343.56 205.952 344.376C207.608 344.16 210.152 343.896 211.88 343.704C211.904 342.504 211.904 341.208 211.904 340.32C211.904 339.408 211.832 338.496 211.592 337.584C213.056 337.752 213.896 337.872 214.496 338.064C214.832 338.16 214.952 338.28 214.952 338.52C214.952 338.712 214.856 338.904 214.808 339C214.688 339.384 214.592 339.672 214.568 340.08C214.52 341.376 214.496 342.312 214.472 343.44C216.416 343.296 217.856 343.224 219.152 343.176C219.344 343.176 219.44 343.2 219.44 343.416C219.464 344.064 219.488 344.736 219.44 345.384C219.44 345.696 219.392 345.72 219.128 345.72C217.544 345.72 215.936 345.792 214.352 345.912C214.28 347.496 214.208 348.672 214.064 349.608C213.8 351.48 212.72 352.272 210.92 352.272C210.488 352.272 209.936 352.272 209.432 352.2C209.048 352.176 208.952 352.008 208.952 351.576C208.904 350.784 208.76 350.184 208.424 349.416C209.216 349.632 209.864 349.704 210.464 349.704C211.112 349.704 211.472 349.512 211.592 348.672C211.688 347.928 211.736 347.064 211.76 346.128C209.84 346.272 207.752 346.512 205.904 346.8C205.88 349.416 205.856 350.856 205.952 352.224C206.096 354.192 206.624 354.576 209.552 354.576C211.688 354.576 213.992 354.36 215.768 354.096C216.128 354.072 216.2 354.12 216.248 354.408C216.344 354.912 216.392 355.968 216.392 356.424C216.392 356.712 216.296 356.832 216.08 356.856C214.976 357.024 212 357.216 210.056 357.216C205.208 357.216 203.792 356.208 203.504 353.064C203.384 351.768 203.336 349.752 203.336 347.208C202.112 347.376 201.344 347.52 200.432 347.712C200.168 347.784 199.784 347.88 199.352 348.072C199.04 348.216 198.872 348.12 198.728 347.808C198.44 347.208 198.176 346.224 198.056 345.408C198.56 345.408 199.592 345.312 200.624 345.168C201.296 345.072 202.448 344.856 203.336 344.712ZM234.896 337.512C235.952 338.136 236.864 338.76 237.536 339.336C237.656 339.432 237.728 339.624 237.728 339.72C237.728 339.936 237.608 340.08 237.392 340.176C237.104 340.32 236.744 340.536 236.24 341.016C234.176 342.864 231.536 345.336 229.688 347.256C229.472 347.52 229.376 347.664 229.376 347.784C229.376 347.928 229.472 348.048 229.688 348.216C232.808 350.472 236.048 353.088 238.616 355.776C238.712 355.896 238.784 355.992 238.784 356.088C238.784 356.184 238.736 356.256 238.616 356.376C238.064 356.976 237.368 357.672 236.96 358.032C236.816 358.152 236.72 358.224 236.624 358.224C236.528 358.224 236.456 358.152 236.336 358.008C233.552 354.888 230.864 352.392 227.6 349.896C226.688 349.2 226.328 348.672 226.328 347.88C226.328 347.088 226.76 346.56 227.504 345.768C229.544 343.56 231.536 341.568 233.6 339.312C234.248 338.616 234.608 338.112 234.896 337.512ZM261.944 340.344L263.216 339.456C263.336 339.36 263.432 339.384 263.576 339.504C264.32 340.08 265.184 341.04 265.856 342.072C265.952 342.216 265.952 342.336 265.784 342.456L264.776 343.2C264.608 343.32 264.488 343.296 264.368 343.128C263.648 342.024 262.88 341.112 261.944 340.344ZM264.152 338.76L265.352 337.896C265.496 337.8 265.568 337.824 265.712 337.944C266.6 338.616 267.464 339.576 267.992 340.416C268.088 340.56 268.112 340.704 267.92 340.848L266.96 341.592C266.768 341.736 266.648 341.664 266.552 341.52C265.904 340.488 265.136 339.576 264.152 338.76ZM255.464 342C256.4 341.832 257.696 341.52 258.872 341.184C259.136 341.112 259.232 341.232 259.256 341.424C259.328 341.952 259.4 342.648 259.424 343.152C259.448 343.464 259.376 343.536 259.064 343.608C257.576 344.016 256.352 344.28 254.888 344.52C253.256 349.848 252.032 353.52 250.496 357.504C250.376 357.84 250.232 357.816 249.968 357.744C249.728 357.648 248.552 357.144 248.048 356.856C247.856 356.736 247.784 356.544 247.856 356.376C249.68 352.176 250.832 349.008 252.008 345C250.616 345.144 248.936 345.264 247.808 345.264C247.448 345.264 247.352 345.192 247.304 344.88C247.208 344.376 247.088 343.56 246.968 342.696C247.472 342.768 247.76 342.768 248.744 342.768C249.944 342.768 251.24 342.696 252.632 342.528C252.872 341.568 253.064 340.512 253.232 339.528C253.328 338.808 253.376 338.088 253.376 337.32C254.648 337.512 255.632 337.68 256.4 337.992C256.592 338.064 256.664 338.232 256.664 338.376C256.664 338.472 256.664 338.592 256.544 338.76C256.352 339.096 256.16 339.336 256.04 339.72C255.8 340.584 255.632 341.4 255.464 342ZM255.896 353.016C256.64 352.824 257.624 352.656 257.936 352.656C258.176 352.656 258.272 352.752 258.296 352.992C258.488 354.744 259.664 355.248 261.968 355.248C263.312 355.248 265.04 355.032 266 354.912C266.192 354.888 266.264 354.936 266.288 355.128C266.384 355.752 266.48 356.568 266.48 357.216C266.504 357.504 266.48 357.576 266.096 357.6C265.28 357.72 263.84 357.864 262.76 357.864C259.688 357.864 258.056 357.432 256.976 356.304C256.208 355.536 255.944 354.408 255.896 353.016ZM257.768 348.48C257.72 347.64 257.672 346.776 257.672 346.296C257.672 345.96 257.744 345.888 258.104 345.816C259.616 345.504 261.392 345.264 262.784 345.264C263.72 345.264 264.752 345.36 265.592 345.504C265.928 345.552 266 345.576 266 345.864C266.048 346.464 266.048 347.136 266.024 347.784C266.024 348.192 265.904 348.288 265.568 348.216C264.728 348.048 263.624 347.928 262.592 347.928C261.152 347.928 259.328 348.168 257.768 348.48ZM279.92 342.384C279.512 341.52 279.176 340.824 278.792 339.912C278.456 339.216 278.216 338.712 277.592 337.968C278.768 337.752 279.8 337.584 280.448 337.584C281.072 337.584 281.264 337.752 281.264 338.088C281.264 338.304 281.24 338.544 281.288 338.76C281.36 339.048 281.456 339.384 281.672 339.96C281.96 340.68 282.176 341.256 282.488 341.904C284.672 341.4 286.256 340.896 287.504 340.416C287.744 340.296 287.816 340.32 287.96 340.584C288.2 341.04 288.416 341.88 288.56 342.432C288.632 342.672 288.536 342.792 288.368 342.84C287.216 343.272 285.824 343.704 283.592 344.232C284.576 346.008 285.776 347.64 287.264 349.296C287.456 349.488 287.672 349.656 287.888 349.824C288.032 349.944 288.128 350.016 288.128 350.136C288.128 350.304 288.056 350.424 287.984 350.544C287.816 350.952 287.336 351.72 287.048 352.104C286.856 352.368 286.736 352.464 286.568 352.464C286.448 352.464 286.376 352.416 286.184 352.272C285.872 352.056 285.656 351.888 285.2 351.648C283.64 350.832 281.888 350.424 280.112 350.424C277.616 350.424 276.104 351.168 276.104 352.68C276.104 354.48 278.288 355.224 282.056 355.224C283.232 355.224 284.648 355.104 285.896 354.888C285.8 355.848 285.56 356.928 285.392 357.456C285.32 357.696 285.224 357.744 284.936 357.792C284.504 357.864 283.28 357.96 282.272 357.96C276.608 357.96 273.56 356.16 273.56 352.992C273.56 350.256 275.912 348.336 279.872 348.336C281.816 348.336 283.16 348.624 284.144 348.984C282.968 347.88 282.008 346.56 281.048 344.736C279.536 345 278.144 345.192 276.416 345.336C275.768 345.384 274.664 345.456 274.064 345.456C273.848 345.456 273.752 345.312 273.68 345.024C273.44 344.28 273.32 343.776 273.128 342.864C274.352 342.912 275.336 342.888 276.128 342.84C277.136 342.792 278.336 342.648 279.92 342.384ZM295.808 340.32C296.96 340.464 298.136 340.752 298.856 341.112C299.072 341.208 299.24 341.376 299.24 341.544C299.24 341.688 299.168 341.928 299.048 342.216C298.952 342.504 298.832 343.536 298.832 344.568C298.832 346.104 298.88 347.832 299.264 350.04C299.6 351.936 300.224 353.568 301.232 353.568C302 353.568 302.6 352.728 303.536 350.232C304.064 351.072 304.592 351.624 305.072 352.08C305.36 352.344 305.36 352.632 305.24 352.968C304.328 355.416 302.84 356.712 301.16 356.712C299.288 356.712 297.32 354.504 296.672 350.448C296.288 348.168 296.096 345.672 296.096 343.464C296.096 342.144 296.048 341.424 295.808 340.32ZM308.096 343.728C309.008 343.152 309.608 342.816 309.992 342.624C310.088 342.576 310.184 342.528 310.256 342.528C310.352 342.528 310.424 342.576 310.52 342.672C312.704 344.568 314.624 347.88 315.224 350.88C315.296 351.192 315.152 351.288 314.96 351.408C314.336 351.816 313.736 352.152 313.088 352.368C312.8 352.464 312.632 352.392 312.584 352.104C311.768 348.672 310.544 346.176 308.096 343.728Z" fill="white"/>
<path d="M76.056 161.504L71.832 171.488H76.376V180.128H67.352V171.488L72.024 161.504H76.056ZM88.664 161.504L84.44 171.488H88.984V180.128H79.96V171.488L84.632 161.504H88.664ZM145.153 173.28H147.393C151.617 173.28 152.897 173.152 153.281 173.152C153.921 173.152 154.049 173.28 154.049 173.92C153.985 176.096 153.921 177.952 153.921 180C153.857 190.88 153.601 201.632 152.513 209.12C151.745 213.856 150.465 216.16 145.537 216.16C144.449 216.16 143.489 216.16 142.465 216.032C141.249 215.904 141.249 215.904 141.057 213.856C140.865 212.256 140.417 210.912 139.841 209.568C141.569 209.888 143.041 210.016 144.193 210.016C146.305 210.016 146.561 209.312 147.073 205.984C148.033 199.84 148.289 190.88 148.289 178.976H145.025C144.705 185.632 144.065 191.776 143.041 197.024C141.633 203.744 139.457 209.376 135.169 215.392C134.721 215.968 134.465 216.224 134.209 216.224C133.889 216.224 133.569 215.904 132.993 215.328C131.649 213.92 130.753 213.216 129.472 212.512L130.881 210.72C130.561 210.848 130.113 210.912 129.409 211.04C125.377 211.744 118.977 212.704 113.537 213.344C112.385 213.472 111.489 213.664 111.105 213.92C110.913 214.048 110.593 214.24 110.208 214.24C109.953 214.24 109.697 213.856 109.569 213.152C109.249 211.808 108.993 210.208 108.673 207.968C110.529 208.032 112.193 207.968 114.369 207.84C115.905 207.776 117.633 207.648 119.425 207.456V204.064H117.441C112.769 204.064 111.297 204.192 110.913 204.192C110.273 204.192 110.208 204.128 110.208 203.488V199.776C110.208 199.136 110.273 199.072 110.913 199.072C111.297 199.072 112.769 199.2 117.441 199.2H119.425V196H117.889C113.089 196 111.489 196.128 111.105 196.128C110.401 196.128 110.337 196.064 110.337 195.424C110.337 194.976 110.465 193.568 110.465 190.24V183.712C110.465 180.256 110.337 178.848 110.337 178.4C110.337 177.824 110.401 177.76 111.105 177.76C111.489 177.76 113.089 177.888 117.889 177.888H119.425V174.816H117.057C112.065 174.816 110.401 174.944 110.017 174.944C109.377 174.944 109.312 174.88 109.312 174.24V170.464C109.312 169.824 109.377 169.76 110.017 169.76C110.401 169.76 112.065 169.888 117.057 169.888H119.425V167.008C117.889 167.2 116.353 167.392 114.753 167.52C113.089 167.648 113.089 167.584 112.577 166.304C112.001 165.024 111.425 164 110.785 163.168C110.593 163.552 110.465 164.064 110.208 164.832C109.057 168.288 107.905 171.488 106.497 174.56V206.688C106.497 212.896 106.625 216.032 106.625 216.352C106.625 216.992 106.561 217.056 105.921 217.056H101.121C100.481 217.056 100.417 216.992 100.417 216.352C100.417 215.968 100.545 212.896 100.545 206.688V192.288C100.545 190.112 100.609 187.488 100.673 184.928L98.1125 188.448C97.6645 189.024 97.2805 189.408 96.9605 189.408C96.7045 189.408 96.5125 189.024 96.3205 188.256C95.8085 185.632 95.4245 184.096 94.6565 182.432C99.7125 176.032 102.209 170.016 104.449 162.848C104.897 161.376 105.217 159.968 105.409 158.304C107.393 158.88 109.377 159.392 111.169 160.16C111.809 160.416 112.193 160.672 112.193 161.12C112.193 161.568 111.937 161.888 111.425 162.336C111.297 162.464 111.105 162.592 110.977 162.848C117.441 162.464 122.817 161.696 127.617 160.608C128.641 160.352 129.472 160.032 130.369 159.52C131.713 160.864 132.737 161.952 133.633 163.168C133.889 163.552 134.017 163.872 134.017 164.256C134.017 164.768 133.697 164.96 133.185 164.96C132.609 164.96 131.969 165.024 131.265 165.152C129.089 165.6 126.913 165.984 124.609 166.304V169.888H126.401C131.393 169.888 133.057 169.76 133.441 169.76C134.017 169.76 134.081 169.824 134.081 170.464V174.24C134.081 174.88 134.017 174.944 133.441 174.944C133.057 174.944 131.393 174.816 126.401 174.816H124.609V177.888H126.208C131.009 177.888 132.609 177.76 132.993 177.76C133.697 177.76 133.761 177.824 133.761 178.4C133.761 178.784 133.633 180.256 133.633 183.712V190.24C133.633 193.568 133.761 195.04 133.761 195.424C133.761 196.064 133.697 196.128 132.993 196.128C132.609 196.128 131.009 196 126.208 196H124.609V199.2H125.441C130.113 199.2 131.585 199.072 131.969 199.072C132.673 199.072 132.737 199.136 132.737 199.776V203.488C132.737 204.128 132.673 204.192 131.969 204.192C131.585 204.192 130.113 204.064 125.441 204.064H124.609V206.88C126.913 206.56 129.472 206.176 132.097 205.728C131.905 206.56 131.713 207.52 131.585 208.608L131.393 209.888C134.465 205.472 136.385 200.608 137.537 195.232C138.433 191.072 139.009 185.376 139.265 178.976C136.705 179.04 135.809 179.104 135.489 179.104C134.849 179.104 134.785 179.04 134.785 178.4V173.856C134.785 173.216 134.849 173.152 135.489 173.152C135.809 173.152 136.769 173.28 139.393 173.28C139.457 171.68 139.457 170.016 139.457 168.352C139.457 164.384 139.329 161.76 139.009 159.264C140.929 159.328 143.425 159.52 144.961 159.712C145.601 159.84 145.985 160.096 145.985 160.416C145.985 160.928 145.665 161.44 145.537 162.08C145.345 162.784 145.217 164.64 145.217 168.608C145.217 170.208 145.217 171.744 145.153 173.28ZM128.769 192.032V188.704H124.609V192.032H128.769ZM115.329 192.032H119.425V188.704H115.329V192.032ZM128.769 181.792H124.609V184.992H128.769V181.792ZM115.329 184.992H119.425V181.792H115.329V184.992ZM184.257 169.504C183.745 168.032 183.361 166.944 182.721 165.344C182.145 163.936 181.569 162.656 180.481 161.248C183.041 160.8 185.665 160.544 188.225 160.544C189.121 160.544 189.632 161.056 189.632 161.696C189.632 162.08 189.505 162.528 189.505 162.912C189.505 163.488 189.632 164.128 189.761 164.832C190.208 166.496 190.401 167.072 190.785 168.16C195.777 167.2 199.297 166.24 203.841 164.768C204.417 164.512 204.737 164.576 204.929 165.088C205.313 166.304 205.761 168.096 206.017 169.376C206.145 170.016 205.697 170.4 205.249 170.528C200.961 171.872 197.057 172.832 192.705 173.792C193.281 175.392 194.113 177.376 194.944 179.168C200.129 178.08 203.521 176.992 206.593 175.84C207.233 175.52 207.553 175.648 207.745 176.224C208.321 177.696 208.577 178.912 208.897 180.448C209.025 181.024 209.025 181.344 208.385 181.6C205.185 182.816 201.153 183.968 197.569 184.736C200.321 189.344 202.817 192.928 205.953 195.808C206.593 196.384 206.593 196.64 206.273 197.344C205.569 198.816 204.673 200.096 203.649 201.312C203.265 201.76 203.009 201.952 202.625 201.952C202.369 201.952 202.113 201.824 201.729 201.568C200.705 200.736 199.425 200.16 197.953 199.52C194.689 198.112 190.465 197.472 185.921 197.472C179.905 197.472 176.385 199.328 176.385 202.336C176.385 206.496 181.825 207.84 191.617 207.84C193.985 207.84 196.353 207.584 198.657 207.456C199.297 207.456 199.489 207.776 199.425 208.288C199.169 209.888 198.721 212.384 198.145 214.112C197.953 214.752 197.697 215.008 196.801 215.072C195.329 215.2 193.793 215.264 192.193 215.264C177.473 215.264 169.665 211.104 169.665 203.232C169.665 196.384 175.553 192.096 185.537 192.096C190.208 192.096 193.985 192.608 196.545 193.696C195.073 191.968 192.961 188.896 191.233 186.144C184.641 187.168 178.369 187.936 173.697 188.064C172.993 188.064 172.737 187.808 172.545 187.168C172.161 185.888 171.585 183.712 171.393 181.92C177.793 181.792 182.913 181.28 188.609 180.32C187.969 178.976 187.009 176.8 186.177 175.008C180.289 175.904 175.553 176.48 170.625 176.544C169.857 176.544 169.473 176.288 169.345 175.648C169.153 174.944 168.705 172.576 168.321 170.528C174.593 170.592 179.713 170.08 184.257 169.504ZM249.409 172C251.905 171.552 255.361 170.72 258.497 169.824C259.201 169.632 259.457 169.952 259.521 170.464C259.713 171.872 259.905 173.728 259.969 175.072C260.033 175.904 259.841 176.096 259.009 176.288C255.041 177.376 251.777 178.08 247.873 178.72C243.521 192.928 240.257 202.72 236.161 213.344C235.841 214.24 235.457 214.176 234.753 213.984C234.113 213.728 230.977 212.384 229.633 211.616C229.121 211.296 228.929 210.784 229.121 210.336C233.985 199.136 237.057 190.688 240.193 180C236.481 180.384 232.001 180.704 228.993 180.704C228.033 180.704 227.777 180.512 227.649 179.68C227.393 178.336 227.073 176.16 226.753 173.856C228.097 174.048 228.865 174.048 231.489 174.048C234.689 174.048 238.145 173.856 241.857 173.408C242.497 170.848 243.009 168.032 243.457 165.408C243.713 163.488 243.841 161.568 243.841 159.52C247.233 160.032 249.857 160.48 251.905 161.312C252.417 161.504 252.609 161.952 252.609 162.336C252.609 162.592 252.609 162.912 252.289 163.36C251.777 164.256 251.265 164.896 250.945 165.92C250.305 168.224 249.857 170.4 249.409 172ZM250.561 201.376C252.545 200.864 255.169 200.416 256.001 200.416C256.641 200.416 256.897 200.672 256.961 201.312C257.472 205.984 260.609 207.328 266.753 207.328C270.337 207.328 274.945 206.752 277.505 206.432C278.017 206.368 278.209 206.496 278.273 207.008C278.529 208.672 278.785 210.848 278.785 212.576C278.849 213.344 278.785 213.536 277.761 213.6C275.585 213.92 271.425 214.304 269.057 214.304C260.673 214.304 256.321 213.152 253.441 210.144C251.393 208.096 250.689 205.088 250.561 201.376ZM255.553 189.28C255.425 187.04 255.297 184.736 255.297 183.456C255.297 182.56 255.489 182.368 256.449 182.176C260.481 181.344 265.217 180.704 268.929 180.704C271.425 180.704 274.177 180.96 276.417 181.344C277.313 181.472 277.505 181.536 277.505 182.304C277.633 183.904 277.633 185.696 277.569 187.424C277.569 188.512 277.249 188.768 276.353 188.576C274.113 188.128 271.169 187.808 268.417 187.808C264.577 187.808 259.713 188.448 255.553 189.28ZM292.801 167.52C295.873 167.904 299.009 168.672 300.929 169.632C301.505 169.888 301.953 170.336 301.953 170.784C301.953 171.168 301.76 171.808 301.441 172.576C301.185 173.344 300.865 176.096 300.865 178.848C300.865 182.944 300.993 187.552 302.017 193.44C302.913 198.496 304.577 202.848 307.265 202.848C309.313 202.848 310.913 200.608 313.409 193.952C314.817 196.192 316.225 197.664 317.505 198.88C318.273 199.584 318.273 200.352 317.953 201.248C315.521 207.776 311.553 211.232 307.073 211.232C302.081 211.232 296.833 205.344 295.105 194.528C294.081 188.448 293.569 181.792 293.569 175.904C293.569 172.384 293.441 170.464 292.801 167.52ZM325.569 176.608C328.001 175.072 329.601 174.176 330.625 173.664C330.881 173.536 331.137 173.408 331.329 173.408C331.585 173.408 331.777 173.536 332.033 173.792C337.857 178.848 342.977 187.68 344.577 195.68C344.769 196.512 344.385 196.768 343.873 197.088C342.209 198.176 340.609 199.072 338.881 199.648C338.113 199.904 337.665 199.712 337.537 198.944C335.361 189.792 332.097 183.136 325.569 176.608ZM362.689 162.464V171.104L358.017 181.088H353.985L358.209 171.104H353.665V162.464H362.689ZM375.297 162.464V171.104L370.625 181.088H366.593L370.817 171.104H366.273V162.464H375.297Z" fill="white"/>
</svg>
