<svg width="193" height="193" viewBox="0 0 193 193" fill="none" xmlns="http://www.w3.org/2000/svg">
<circle cx="96.5" cy="96.5" r="96.5" fill="url(#paint0_radial_225_13)" style="mix-blend-mode:multiply"/>
<path d="M73.78 24.76H80.16C82.1 24.76 82.78 24.72 82.92 24.72C83.12 24.72 83.14 24.74 83.14 24.94C83.14 25.06 83.1 25.48 83.1 26.56V28.74C83.1 29.8 83.14 30.24 83.14 30.36C83.14 30.56 83.12 30.58 82.92 30.58C82.78 30.58 82.1 30.54 80.16 30.54H78.14V32.56C78.14 33.48 78.2 34.34 78.2 35.08C78.2 35.98 78.06 36.42 77.56 36.84C77.12 37.2 76.56 37.32 74.68 37.32C74.08 37.34 74.04 37.36 73.9 36.72C73.78 36.14 73.58 35.68 73.28 35.26C74.02 35.34 74.5 35.38 75.12 35.38C75.82 35.38 76.02 35.16 76.02 34.66V30.54H73.78C71.86 30.54 71.16 30.58 71.04 30.58C70.82 30.58 70.8 30.56 70.8 30.36C70.8 30.22 70.84 29.8 70.84 28.74V26.56C70.84 25.48 70.8 25.08 70.8 24.94C70.8 24.74 70.82 24.72 71.04 24.72C71.16 24.72 71.86 24.76 73.78 24.76ZM81.02 28.74V26.58H72.9V28.74H81.02ZM83 23.36H71.08C69.26 23.36 68.66 23.38 68.54 23.38C68.32 23.38 68.3 23.36 68.3 23.18V21.62C68.3 21.42 68.32 21.4 68.54 21.4C68.66 21.4 69.26 21.44 71.08 21.44H75.86V21.1C75.86 20.26 75.84 19.74 75.72 19.26C76.46 19.26 77.14 19.3 77.88 19.36C78.06 19.38 78.18 19.44 78.18 19.56C78.18 19.7 78.1 19.84 78.04 19.98C78 20.16 77.96 20.4 77.96 21.12V21.44H83C84.8 21.44 85.42 21.4 85.54 21.4C85.74 21.4 85.76 21.42 85.76 21.62V23.18C85.76 23.36 85.74 23.38 85.54 23.38C85.42 23.38 84.8 23.36 83 23.36ZM80.3 31.9L81.46 31.22C81.7 31.08 81.74 31.1 81.86 31.28C82.94 32.74 84.36 33.92 86.18 34.82C85.76 35.16 85.46 35.54 85.14 36.1C84.94 36.42 84.86 36.56 84.72 36.56C84.62 36.56 84.48 36.48 84.26 36.32C82.6 35.2 81.22 33.82 80.16 32.26C80.04 32.08 80.1 32.04 80.3 31.9ZM67.92 35.04C69.42 34.16 70.5 33.24 71.36 32.16C71.6 31.84 71.84 31.4 71.94 31.04C72.48 31.28 73.16 31.6 73.66 31.9C73.82 32 73.9 32.1 73.9 32.24C73.9 32.4 73.8 32.5 73.66 32.58C73.5 32.66 73.36 32.8 73.12 33.12C72.34 34.18 71.3 35.26 69.86 36.26C69.62 36.42 69.48 36.52 69.38 36.52C69.24 36.52 69.14 36.4 68.96 36.1C68.68 35.66 68.28 35.26 67.92 35.04ZM103.16 36.04H90.82C89.06 36.04 88.44 36.08 88.32 36.08C88.12 36.08 88.1 36.06 88.1 35.86V34.2C88.1 34 88.12 33.98 88.32 33.98C88.44 33.98 89.06 34.02 90.82 34.02H95.74V29.14H93.26C91.28 29.14 90.6 29.18 90.48 29.18C90.28 29.18 90.26 29.16 90.26 28.96V27.34C90.26 27.14 90.28 27.12 90.48 27.12C90.6 27.12 91.28 27.16 93.26 27.16H95.74V22.78H91.94C90.02 22.78 89.36 22.82 89.24 22.82C89.04 22.82 89.02 22.8 89.02 22.6V20.94C89.02 20.74 89.04 20.72 89.24 20.72C89.36 20.72 90.02 20.76 91.94 20.76H102.08C104 20.76 104.66 20.72 104.78 20.72C104.98 20.72 105 20.74 105 20.94V22.6C105 22.8 104.98 22.82 104.78 22.82C104.66 22.82 104 22.78 102.08 22.78H97.98V27.16H100.76C102.72 27.16 103.4 27.12 103.52 27.12C103.72 27.12 103.74 27.14 103.74 27.34V28.96C103.74 29.16 103.72 29.18 103.52 29.18C103.4 29.18 102.72 29.14 100.76 29.14H97.98V34.02H103.16C104.94 34.02 105.54 33.98 105.68 33.98C105.88 33.98 105.9 34 105.9 34.2V35.86C105.9 36.06 105.88 36.08 105.68 36.08C105.54 36.08 104.94 36.04 103.16 36.04ZM119.56 34.96V30.76C119.52 30.84 119.46 30.88 119.38 30.94C119.26 31.04 119.12 31.24 118.96 31.66C118.4 33.28 117.44 34.86 115.84 36.3C115.62 36.52 115.5 36.62 115.38 36.62C115.26 36.62 115.16 36.5 114.94 36.22C114.64 35.84 114.3 35.58 114 35.38C115.7 34.24 116.78 32.64 117.36 31.18H116.7C116.04 31.18 115.58 31.22 115.46 31.22C115.26 31.22 115.24 31.2 115.24 31V29.68L114.58 29.88C114.3 29.96 114.26 29.94 114.22 29.7L114.1 29.12C113.66 29.18 113.26 29.22 112.84 29.26V34.76C112.84 36.6 112.88 37.26 112.88 37.38C112.88 37.58 112.86 37.6 112.66 37.6H111.14C110.94 37.6 110.92 37.58 110.92 37.38C110.92 37.24 110.96 36.6 110.96 34.76V29.44L109.38 29.56C109.04 29.58 108.78 29.64 108.62 29.72C108.5 29.78 108.44 29.8 108.32 29.8C108.18 29.8 108.12 29.68 108.08 29.48C107.98 28.96 107.9 28.42 107.84 27.78C108.38 27.84 108.8 27.86 109.3 27.86C109.7 27.36 110.06 26.84 110.42 26.34C109.66 25.28 108.76 24.3 107.82 23.38C107.74 23.3 107.72 23.24 107.72 23.2C107.72 23.12 107.78 23.06 107.86 22.94L108.6 21.96C108.76 21.76 108.82 21.74 108.96 21.9L109.44 22.38C109.84 21.72 110.26 20.94 110.6 20.2C110.78 19.8 110.86 19.54 110.96 19.14C111.54 19.36 112.14 19.62 112.62 19.86C112.8 19.96 112.88 20.06 112.88 20.18C112.88 20.3 112.8 20.38 112.7 20.44C112.54 20.54 112.46 20.66 112.32 20.92C111.74 21.96 111.26 22.76 110.62 23.68L111.5 24.72C111.96 23.96 112.42 23.2 112.84 22.44C113.06 22.02 113.24 21.64 113.4 21.18C113.94 21.4 114.58 21.64 115.06 21.92C115.24 22.02 115.3 22.08 115.3 22.2C115.3 22.34 115.24 22.42 115.08 22.52C114.88 22.66 114.76 22.84 114.46 23.3C113.4 24.98 112.32 26.52 111.36 27.78C112.12 27.74 112.9 27.7 113.7 27.64C113.54 27.14 113.36 26.68 113.18 26.24C113.1 26.06 113.14 25.98 113.38 25.9L114.28 25.56C114.5 25.48 114.54 25.54 114.62 25.72C115.14 26.9 115.5 27.98 115.82 29.24C115.84 29.36 115.84 29.42 115.78 29.48C116 29.5 116.36 29.5 116.92 29.5H117.72C117.92 29.5 118.04 29.46 118.08 29.42C118.16 29.38 118.22 29.34 118.3 29.34C118.42 29.34 118.54 29.4 119 29.86C119.34 30.16 119.48 30.34 119.56 30.46V28.1H118.72C117.02 28.1 116.44 28.14 116.3 28.14C116.1 28.14 116.08 28.12 116.08 27.92C116.08 27.78 116.12 27.28 116.12 26.06V23.1C116.12 21.88 116.08 21.38 116.08 21.26C116.08 21.04 116.1 21.02 116.3 21.02C116.44 21.02 117.02 21.06 118.72 21.06H119.12C119.22 20.78 119.32 20.5 119.4 20.2C119.5 19.84 119.56 19.54 119.6 19.06C120.26 19.1 121 19.2 121.48 19.3C121.78 19.36 121.86 19.44 121.86 19.56C121.86 19.68 121.8 19.76 121.7 19.86C121.56 19.98 121.46 20.16 121.4 20.32C121.3 20.6 121.2 20.84 121.1 21.06H122.36C124.06 21.06 124.64 21.02 124.78 21.02C124.98 21.02 125 21.04 125 21.26C125 21.38 124.96 21.88 124.96 23.1V26.06C124.96 27.28 125 27.8 125 27.92C125 28.12 124.98 28.14 124.78 28.14C124.64 28.14 124.06 28.1 122.36 28.1H121.34C121.64 29.08 122 29.94 122.44 30.7C123 30.24 123.48 29.78 123.92 29.3C124.2 29 124.42 28.74 124.64 28.4C125.08 28.72 125.44 29 125.78 29.32C125.96 29.5 126.02 29.58 126.02 29.72C126.02 29.88 125.94 29.94 125.78 30.02C125.56 30.12 125.36 30.28 125.02 30.62C124.58 31.08 124.06 31.52 123.38 32.06C124.18 33.04 125.18 33.88 126.44 34.7C126.08 35.04 125.78 35.52 125.54 36.02C125.4 36.28 125.32 36.42 125.22 36.42C125.12 36.42 125.02 36.32 124.82 36.14C123.34 34.76 122.22 33.34 121.34 31.5C121.4 33.1 121.46 34.3 121.46 35.42C121.46 36.1 121.32 36.66 120.72 37.04C120.3 37.28 119.82 37.38 118.68 37.38C118.06 37.38 118.06 37.4 117.92 36.78C117.8 36.32 117.64 35.88 117.38 35.5C117.98 35.56 118.54 35.58 118.84 35.58C119.4 35.58 119.56 35.38 119.56 34.96ZM123.04 26.62V25.26H118.04V26.62H123.04ZM118.04 22.56V23.82H123.04V22.56H118.04ZM107.8 35.54C108.24 34.48 108.52 33.28 108.62 31.94C108.66 31.5 108.68 31.14 108.66 30.66C109.26 30.74 109.86 30.84 110.2 30.94C110.44 31 110.54 31.1 110.54 31.18C110.54 31.3 110.52 31.36 110.44 31.48C110.38 31.58 110.32 31.88 110.28 32.22C110.14 33.32 109.96 34.68 109.62 35.82C109.52 36.14 109.48 36.3 109.36 36.3C109.26 36.3 109.12 36.2 108.9 36.06C108.64 35.9 108.06 35.62 107.8 35.54ZM113.4 30.74L114.32 30.46C114.56 30.38 114.58 30.4 114.66 30.6C114.9 31.28 115.22 32.54 115.38 33.52C115.42 33.72 115.42 33.78 115.14 33.88L114.14 34.22C113.86 34.32 113.82 34.3 113.8 34.08C113.68 32.94 113.4 31.76 113.2 31.04C113.14 30.84 113.16 30.82 113.4 30.74ZM62.6 59.86H58.32C56.82 61.1 55.14 62.1 52.7 63.14C52.46 63.22 52.32 63.28 52.22 63.28C52.08 63.28 52.02 63.16 51.86 62.86C51.56 62.34 51.22 61.9 50.84 61.58C54.66 60.28 56.8 58.92 58.58 57.1C58.84 56.82 59.1 56.46 59.3 56.1C59.96 56.28 60.38 56.42 61.02 56.68C61.22 56.76 61.32 56.86 61.32 57C61.32 57.12 61.26 57.2 61.08 57.3C60.92 57.38 60.78 57.5 60.54 57.76L60.12 58.18H63.3C63.68 58.18 63.82 58.16 64 58.08C64.1 58.04 64.22 57.98 64.32 57.98C64.52 57.98 64.66 58.04 65.2 58.52C65.64 58.9 65.76 59.06 65.76 59.22C65.76 59.36 65.64 59.48 65.52 59.56C65.36 59.68 65.16 59.86 64.92 60.16C61.76 64.26 58.28 66.42 51.76 67.72C51.54 67.76 51.38 67.78 51.3 67.78C51.12 67.78 51.02 67.64 50.88 67.3C50.66 66.78 50.34 66.3 50.02 65.96C53.28 65.44 55.78 64.7 57.74 63.72C57.2 63.22 56.72 62.82 56.18 62.44C56.1 62.36 56.04 62.3 56.04 62.24C56.04 62.18 56.1 62.12 56.18 62.06L57.26 61.28C57.44 61.16 57.52 61.16 57.72 61.28C58.32 61.66 58.9 62.12 59.52 62.68C60.74 61.86 61.72 60.92 62.6 59.86ZM59.56 52.6H55.22C54 53.72 52.56 54.72 50.54 55.6C50.34 55.7 50.2 55.76 50.1 55.76C49.98 55.76 49.9 55.66 49.72 55.4C49.38 54.9 49.04 54.6 48.64 54.28C51.54 53.1 53.52 51.76 55 50.12C55.26 49.86 55.54 49.46 55.74 49.08C56.48 49.2 57.08 49.34 57.68 49.52C57.88 49.56 57.96 49.64 57.96 49.78C57.96 49.9 57.9 49.98 57.72 50.08C57.56 50.16 57.38 50.32 57.16 50.58L56.86 50.92H60.28C60.66 50.92 60.86 50.88 61 50.82C61.12 50.78 61.22 50.74 61.36 50.74C61.54 50.74 61.7 50.8 62.14 51.18C62.7 51.64 62.82 51.8 62.82 51.98C62.82 52.12 62.72 52.24 62.58 52.32C62.4 52.44 62.22 52.58 61.94 52.94C59.54 55.78 56.34 58.34 50.14 60.06C49.56 60.2 49.56 60.2 49.28 59.66C49 59.16 48.74 58.8 48.38 58.46C50.98 57.88 53.06 57.12 54.78 56.26C54.26 55.8 53.82 55.44 53.34 55.14C53.24 55.06 53.18 55.02 53.18 54.96C53.18 54.9 53.24 54.84 53.34 54.76L54.34 53.98C54.52 53.84 54.6 53.86 54.8 53.98C55.36 54.34 55.92 54.74 56.52 55.24C57.76 54.42 58.74 53.54 59.56 52.6ZM75.18 61.22H74.74C72.78 61.22 72.1 61.26 71.98 61.26C71.78 61.26 71.76 61.24 71.76 61.02V59.82C71.76 59.6 71.78 59.58 71.98 59.58C72.1 59.58 72.78 59.62 74.74 59.62H82.86C84.84 59.62 85.52 59.58 85.64 59.58C85.82 59.58 85.84 59.6 85.84 59.82V61.02C85.84 61.24 85.82 61.26 85.64 61.26C85.52 61.26 84.84 61.22 82.86 61.22H77.3C77 61.66 76.7 62.06 76.38 62.44H81.66C83.3 62.44 84.12 62.4 84.26 62.4C84.46 62.4 84.48 62.42 84.48 62.62C84.48 62.76 84.44 63.16 84.44 64.08V65.02C84.44 66.8 84.48 67.14 84.48 67.26C84.48 67.46 84.46 67.48 84.26 67.48H82.74C82.52 67.48 82.5 67.46 82.5 67.26V66.86H76.26V67.38C76.26 67.58 76.24 67.6 76.02 67.6H74.52C74.32 67.6 74.3 67.58 74.3 67.38C74.3 67.26 74.34 66.9 74.34 65.22V64.36C73.68 64.86 72.96 65.28 72.18 65.68C71.96 65.8 71.82 65.86 71.74 65.86C71.6 65.86 71.54 65.72 71.36 65.4C71.16 65.04 70.9 64.68 70.56 64.38C72.38 63.66 74 62.64 75.18 61.22ZM82.5 63.9H76.26V65.38H82.5V63.9ZM71.22 52.34V55.18C71.22 58.52 71.12 60.52 70.88 62.18C70.62 64 70.16 65.46 69.4 66.96C69.26 67.2 69.18 67.34 69.08 67.34C69 67.34 68.9 67.22 68.72 67C68.36 66.54 67.88 66.06 67.52 65.86C68.3 64.56 68.72 63.26 68.98 61.5C69.2 60.04 69.26 58.04 69.26 55.06C69.26 52.3 69.22 51.08 69.22 50.94C69.22 50.74 69.24 50.72 69.44 50.72C69.56 50.72 70.22 50.76 72.1 50.76H76.34V50.44C76.34 49.96 76.32 49.5 76.22 49.1C76.96 49.1 77.68 49.14 78.34 49.2C78.54 49.22 78.66 49.3 78.66 49.38C78.66 49.5 78.6 49.6 78.54 49.74C78.46 49.9 78.44 50.14 78.44 50.52V50.76H82.96C84.84 50.76 85.48 50.72 85.6 50.72C85.78 50.72 85.8 50.74 85.8 50.94V52.16C85.8 52.36 85.78 52.38 85.6 52.38C85.48 52.38 84.84 52.34 82.96 52.34H71.22ZM78.66 55.26V54.28C78.66 54.08 78.68 54.06 78.88 54.06C79 54.06 79.48 54.1 80.82 54.1C80.82 53.62 80.8 53.18 80.72 52.68C81.34 52.7 81.82 52.72 82.36 52.78C82.54 52.8 82.62 52.86 82.62 52.96C82.62 53.08 82.54 53.14 82.5 53.26C82.46 53.38 82.42 53.56 82.42 54.1H83.08C84.48 54.1 84.94 54.06 85.06 54.06C85.26 54.06 85.28 54.08 85.28 54.28V55.26C85.28 55.44 85.26 55.46 85.06 55.46C84.94 55.46 84.48 55.42 83.08 55.42H83C83.84 56.38 84.8 57.06 86.06 57.6C85.84 57.82 85.62 58.1 85.44 58.4C85.24 58.72 85.18 58.86 85.04 58.86C84.94 58.86 84.82 58.78 84.6 58.62C83.72 58.04 82.96 57.22 82.36 56.32C82.38 57.98 82.46 58.64 82.46 58.98C82.46 59.18 82.44 59.2 82.24 59.2H81.02C80.8 59.2 80.78 59.18 80.78 58.98C80.78 58.66 80.84 57.96 80.88 56.5C80.42 57.28 79.88 57.88 79.22 58.48C79 58.68 78.88 58.78 78.78 58.78C78.66 58.78 78.56 58.62 78.36 58.32C78.2 58.08 78 57.84 77.76 57.62C78.78 57 79.62 56.32 80.28 55.42C79.36 55.44 78.98 55.46 78.88 55.46C78.68 55.46 78.66 55.44 78.66 55.26ZM73.98 54.1H74.44C74.44 53.58 74.42 53.18 74.34 52.68C74.96 52.7 75.44 52.72 75.96 52.78C76.14 52.8 76.22 52.86 76.22 52.98C76.22 53.1 76.14 53.18 76.12 53.28C76.08 53.4 76.04 53.6 76.04 54.1H76.12C77.42 54.1 77.68 54.06 77.78 54.06C77.98 54.06 78 54.08 78 54.28V55.26C78 55.44 77.98 55.46 77.78 55.46C77.68 55.46 77.44 55.44 76.46 55.42C76.96 55.94 77.48 56.32 78.2 56.7C78.04 56.86 77.84 57.08 77.72 57.34C77.58 57.62 77.5 57.74 77.38 57.74C77.28 57.74 77.14 57.64 76.92 57.46C76.58 57.18 76.28 56.86 75.96 56.38C76 58.02 76.08 58.62 76.08 58.98C76.08 59.18 76.06 59.2 75.86 59.2H74.62C74.42 59.2 74.4 59.18 74.4 58.98C74.4 58.6 74.48 57.94 74.5 56.32C73.96 57.28 73.26 58.04 72.76 58.48C72.54 58.68 72.42 58.78 72.32 58.78C72.2 58.78 72.1 58.64 71.94 58.34C71.78 58.06 71.58 57.82 71.34 57.6C72.3 57 73.2 56.26 73.8 55.42C72.66 55.42 72.26 55.46 72.16 55.46C71.96 55.46 71.94 55.44 71.94 55.26V54.28C71.94 54.08 71.96 54.06 72.16 54.06C72.28 54.06 72.68 54.1 73.98 54.1ZM103.24 67.06H90.74C88.98 67.06 88.36 67.1 88.24 67.1C88.06 67.1 88.04 67.08 88.04 66.88V65.54C88.04 65.36 88.06 65.34 88.24 65.34C88.36 65.34 88.98 65.38 90.74 65.38H91.42C91.06 64.7 90.68 64 90.3 63.54C90.16 63.4 90.18 63.34 90.42 63.24L91.54 62.74C91.78 62.64 91.82 62.64 91.98 62.8C92.3 63.16 92.78 63.78 93.1 64.42C93.2 64.62 93.2 64.68 92.92 64.8L91.68 65.38H94.08V62.46H91.86C89.98 62.46 89.32 62.5 89.2 62.5C89 62.5 88.98 62.48 88.98 62.28V61.06C88.98 60.84 89 60.82 89.2 60.82C89.32 60.82 89.98 60.86 91.86 60.86H102.18C104.08 60.86 104.72 60.82 104.84 60.82C105.04 60.82 105.06 60.84 105.06 61.06V62.28C105.06 62.48 105.04 62.5 104.84 62.5C104.72 62.5 104.08 62.46 102.18 62.46H99.7V65.38H100.54C100.9 64.8 101.16 64.3 101.46 63.62C101.6 63.34 101.72 63 101.8 62.6C102.5 62.8 103.06 62.96 103.52 63.18C103.68 63.26 103.78 63.32 103.78 63.42C103.78 63.58 103.68 63.68 103.54 63.8C103.38 63.96 103.3 64.06 103.16 64.3C102.94 64.74 102.76 65.06 102.54 65.38H103.24C105 65.38 105.62 65.34 105.74 65.34C105.92 65.34 105.94 65.36 105.94 65.54V66.88C105.94 67.08 105.92 67.1 105.74 67.1C105.62 67.1 105 67.06 103.24 67.06ZM96.04 65.38H97.74V62.46H96.04V65.38ZM95.88 51.54H92.68C90.74 51.54 90.06 51.56 89.96 51.56C89.74 51.56 89.72 51.54 89.72 51.36V50.06C89.72 49.86 89.74 49.84 89.96 49.84C90.06 49.84 90.74 49.88 92.68 49.88H101.36C103.32 49.88 103.96 49.84 104.1 49.84C104.3 49.84 104.32 49.86 104.32 50.06V51.36C104.32 51.54 104.3 51.56 104.1 51.56C103.96 51.56 103.32 51.54 101.36 51.54H97.88V52.38H102.78C104.62 52.38 105.26 52.34 105.4 52.34C105.6 52.34 105.62 52.36 105.62 52.56C105.62 52.68 105.58 53.04 105.58 53.56V54.6C105.58 56.3 105.62 56.62 105.62 56.74C105.62 56.94 105.6 56.96 105.4 56.96H103.84C103.64 56.96 103.62 56.94 103.62 56.74V53.98H97.88V55.74C97.88 57.08 97.92 57.62 97.92 57.74C97.92 57.94 97.9 57.96 97.7 57.96H96.04C95.86 57.96 95.84 57.94 95.84 57.74C95.84 57.62 95.88 57.04 95.88 55.74V53.98H90.34V56.74C90.34 56.94 90.32 56.96 90.12 56.96H88.56C88.36 56.96 88.34 56.94 88.34 56.74C88.34 56.6 88.38 56.3 88.38 54.6V53.7C88.38 53.04 88.34 52.68 88.34 52.56C88.34 52.36 88.36 52.34 88.56 52.34C88.7 52.34 89.34 52.38 91.18 52.38H95.88V51.54ZM100.5 59.98H93.42C91.48 59.98 90.8 60.02 90.68 60.02C90.48 60.02 90.46 60 90.46 59.8V58.72C90.46 58.52 90.48 58.5 90.68 58.5C90.8 58.5 91.48 58.54 93.42 58.54H100.5C102.46 58.54 103.14 58.5 103.26 58.5C103.46 58.5 103.48 58.52 103.48 58.72V59.8C103.48 60 103.46 60.02 103.26 60.02C103.14 60.02 102.46 59.98 100.5 59.98ZM100.24 54.68H101.2C102.04 54.68 102.26 54.66 102.38 54.66C102.58 54.66 102.6 54.68 102.6 54.84V55.7C102.6 55.86 102.58 55.88 102.38 55.88C102.26 55.88 102.04 55.84 101.2 55.84H100.24C99.4 55.84 99.2 55.88 99.08 55.88C98.88 55.88 98.86 55.86 98.86 55.68V54.82C98.86 54.68 98.88 54.66 99.08 54.66C99.2 54.66 99.4 54.68 100.24 54.68ZM100.24 56.52H101.2C102.04 56.52 102.26 56.5 102.38 56.5C102.58 56.5 102.6 56.52 102.6 56.68V57.54C102.6 57.68 102.58 57.7 102.38 57.7C102.26 57.7 102.04 57.68 101.2 57.68H100.24C99.4 57.68 99.2 57.7 99.08 57.7C98.88 57.7 98.86 57.68 98.86 57.54V56.66C98.86 56.52 98.88 56.5 99.08 56.5C99.2 56.5 99.4 56.52 100.24 56.52ZM92.68 54.68H93.56C94.36 54.68 94.56 54.66 94.68 54.66C94.88 54.66 94.9 54.68 94.9 54.84V55.72C94.9 55.86 94.88 55.88 94.68 55.88C94.56 55.88 94.36 55.84 93.56 55.84H92.68C91.88 55.84 91.68 55.88 91.56 55.88C91.36 55.88 91.34 55.86 91.34 55.7V54.82C91.34 54.68 91.36 54.66 91.56 54.66C91.68 54.66 91.88 54.68 92.68 54.68ZM92.68 56.52H93.56C94.36 56.52 94.56 56.5 94.68 56.5C94.88 56.5 94.9 56.52 94.9 56.68V57.52C94.9 57.68 94.88 57.7 94.68 57.7C94.56 57.7 94.36 57.68 93.56 57.68H92.68C91.88 57.68 91.68 57.7 91.56 57.7C91.36 57.7 91.34 57.68 91.34 57.52V56.66C91.34 56.52 91.36 56.5 91.56 56.5C91.68 56.5 91.88 56.52 92.68 56.52ZM115.24 57.46H118.72C120.4 57.46 120.98 57.42 121.1 57.42C121.3 57.42 121.32 57.44 121.32 57.64C121.32 57.76 121.28 57.98 121.28 58.66V59.44C121.28 59.86 121.28 60.1 121.3 60.26C121.38 60.16 121.44 60.04 121.52 59.9C121.96 60.16 122.3 60.4 122.68 60.68C122.78 60.76 122.84 60.84 122.84 60.94C122.84 61.06 122.76 61.14 122.62 61.18C122.46 61.24 122.36 61.34 122.14 61.52C121.78 61.8 121.42 62.06 121.02 62.34C121.62 62.6 122.26 62.84 122.98 63.04C122.72 63.28 122.46 63.66 122.26 64.02C122.08 64.34 122 64.48 121.84 64.48C121.74 64.48 121.6 64.42 121.38 64.32C120.04 63.72 118.68 62.88 117.62 61.7C117.64 62.96 117.68 64.06 117.68 64.26C117.68 64.46 117.66 64.48 117.44 64.48H116.12C115.92 64.48 115.9 64.46 115.9 64.26C115.9 64.06 115.92 63.06 115.94 61.9C114.9 62.92 113.76 63.66 112.4 64.24C112.2 64.32 112.08 64.38 111.98 64.38C111.84 64.38 111.76 64.26 111.6 63.98C111.38 63.58 111.14 63.24 110.86 62.96C112.74 62.38 114.24 61.64 115.42 60.64H115.24C113.56 60.64 112.98 60.68 112.84 60.68C112.64 60.68 112.62 60.66 112.62 60.46C112.62 60.32 112.66 60.1 112.66 59.44V58.66C112.66 57.98 112.62 57.78 112.62 57.64C112.62 57.44 112.64 57.42 112.84 57.42C112.98 57.42 113.56 57.46 115.24 57.46ZM119.48 59.52V58.62H114.44V59.52H119.48ZM118.72 60.64H118.36C118.76 61.02 119.2 61.36 119.7 61.68C120.2 61.32 120.6 60.98 120.92 60.68C120.64 60.66 120 60.64 118.72 60.64ZM119.88 56.72H114.1C112.18 56.72 111.56 56.76 111.42 56.76C111.22 56.76 111.2 56.74 111.2 56.52V55.6C111.2 55.4 111.22 55.38 111.42 55.38C111.56 55.38 112.18 55.42 114.1 55.42H115.92V54.6H115C113.24 54.6 112.66 54.64 112.54 54.64C112.32 54.64 112.3 54.62 112.3 54.42V53.46C112.3 53.26 112.32 53.24 112.54 53.24C112.66 53.24 113.24 53.28 115 53.28H115.92C115.9 52.88 115.88 52.44 115.82 52.1C116.5 52.12 117.16 52.18 117.64 52.24C117.9 52.28 117.98 52.34 117.98 52.44C117.98 52.56 117.9 52.66 117.86 52.74C117.8 52.88 117.78 53.06 117.78 53.28H119C120.78 53.28 121.36 53.24 121.48 53.24C121.68 53.24 121.7 53.26 121.7 53.46V54.42C121.7 54.62 121.68 54.64 121.48 54.64C121.36 54.64 120.78 54.6 119 54.6H117.78V55.42H119.88C121.78 55.42 122.42 55.38 122.54 55.38C122.74 55.38 122.76 55.4 122.76 55.6V56.52C122.76 56.74 122.74 56.76 122.54 56.76C122.42 56.76 121.78 56.72 119.88 56.72ZM110.38 67.62H108.76C108.56 67.62 108.54 67.6 108.54 67.4C108.54 67.26 108.58 65.9 108.58 59.64V55.68C108.58 51.68 108.54 50.28 108.54 50.16C108.54 49.94 108.56 49.92 108.76 49.92C108.9 49.92 109.54 49.96 111.4 49.96H122.58C124.44 49.96 125.08 49.92 125.2 49.92C125.42 49.92 125.44 49.94 125.44 50.16C125.44 50.28 125.4 51.68 125.4 54.98V59.64C125.4 65.88 125.44 67.26 125.44 67.38C125.44 67.58 125.42 67.6 125.2 67.6H123.6C123.4 67.6 123.38 67.58 123.38 67.38V66.58H110.6V67.4C110.6 67.6 110.58 67.62 110.38 67.62ZM110.6 51.78V64.8H123.38V51.78H110.6ZM134.6 60.22H131.16C129.8 60.22 129.28 60.26 129.06 60.26C128.86 60.26 128.84 60.24 128.84 60.02C128.84 59.9 128.88 59.16 128.88 57.58V52.6C128.88 51.02 128.84 50.28 128.84 50.14C128.84 49.94 128.86 49.92 129.06 49.92C129.28 49.92 129.8 49.96 131.16 49.96H134.38C135.68 49.96 136.24 49.92 136.36 49.92C136.56 49.92 136.58 49.94 136.58 50.14V51.42C136.58 51.62 136.56 51.64 136.36 51.64C136.24 51.64 135.68 51.6 134.38 51.6H134V52.98C135.26 52.98 135.72 52.94 135.84 52.94C136.04 52.94 136.06 52.96 136.06 53.16V54.26C136.06 54.46 136.04 54.48 135.84 54.48C135.72 54.48 135.26 54.46 134 54.44V55.78C135.24 55.78 135.72 55.76 135.84 55.76C136.04 55.76 136.06 55.76 136.06 55.96V57.08C136.06 57.28 136.04 57.3 135.84 57.3C135.72 57.3 135.26 57.28 134 57.26V58.68H134.36C135.62 58.68 136 58.64 136.12 58.64C136.3 58.64 136.36 58.68 136.34 58.9L136.28 60.22C136.2 63.08 136.04 64.56 135.76 65.5C136.62 64.16 137.12 62.58 137.36 60.72C137.58 59.1 137.62 57.08 137.62 53.62C137.62 51.56 137.58 50.62 137.58 50.5C137.58 50.3 137.6 50.28 137.82 50.28C137.94 50.28 138.46 50.32 140.06 50.32H142.98C144.56 50.32 145.1 50.28 145.22 50.28C145.44 50.28 145.46 50.3 145.46 50.5C145.46 50.62 145.42 51.2 145.42 52.5V56.26C145.42 57.58 145.46 58.1 145.46 58.24C145.46 58.44 145.44 58.46 145.22 58.46H143.7C143.5 58.46 143.48 58.42 143.48 58.22V57.84H142.78C143.06 61.16 144.16 63.74 146.48 65.84C146.12 66.1 145.68 66.56 145.3 67.02C145.12 67.28 145.02 67.4 144.92 67.4C144.82 67.4 144.72 67.3 144.52 67.08C142.22 64.66 141.3 61.64 140.96 57.84H139.52C139.48 59.24 139.38 60.36 139.24 61.48C138.98 63.4 138.36 65.4 137.34 67.08C137.18 67.32 137.1 67.44 137 67.44C136.9 67.44 136.78 67.32 136.58 67.12C136.22 66.72 135.84 66.4 135.5 66.18C135.1 66.92 134.4 67.28 133.56 67.28C133.3 67.28 132.96 67.28 132.7 67.26C132.38 67.22 132.38 67.22 132.26 66.6C132.18 66.04 132.04 65.64 131.86 65.26C132.46 65.34 132.92 65.38 133.34 65.38C133.76 65.38 133.98 65.22 134.16 64.86C134.38 64.36 134.56 63.18 134.6 60.22ZM143.48 52.2H139.58V53.96C139.58 54.72 139.58 55.38 139.56 56H143.48V52.2ZM130.64 58.68H132.28V57.26H130.64V58.68ZM130.64 52.98H132.28V51.6H130.64V52.98ZM130.64 55.78H132.28V54.44H130.64V55.78ZM129 61.02L129.6 61.22C129.88 61.32 129.88 61.34 129.88 61.56C129.82 63.16 129.62 64.74 129.18 66.06C129.1 66.28 128.98 66.28 128.82 66.18L128.12 65.72C127.88 65.6 127.88 65.54 127.96 65.34C128.36 64.14 128.58 62.78 128.68 61.16C128.7 60.92 128.74 60.94 129 61.02ZM130.42 61.28L130.92 61.18C131.16 61.14 131.2 61.14 131.22 61.34C131.36 62.46 131.5 63.64 131.54 64.88C131.54 65.08 131.52 65.1 131.3 65.18L130.68 65.4C130.44 65.48 130.4 65.48 130.4 65.26C130.4 63.9 130.32 62.72 130.18 61.58C130.14 61.36 130.18 61.34 130.42 61.28ZM131.8 61.16L132.22 61.02C132.42 60.94 132.46 60.96 132.5 61.16C132.7 62.04 132.84 62.96 132.96 64.02C132.98 64.2 132.96 64.26 132.72 64.36L132.3 64.54C132.08 64.64 132.04 64.64 132.02 64.42C131.94 63.36 131.8 62.3 131.6 61.44C131.56 61.24 131.58 61.24 131.8 61.16ZM133.02 60.92L133.4 60.8C133.58 60.74 133.6 60.76 133.66 60.92C133.88 61.52 134.06 62.2 134.2 63.02C134.22 63.18 134.22 63.22 134.04 63.32L133.62 63.54C133.42 63.64 133.38 63.6 133.36 63.44C133.22 62.54 133.08 61.82 132.86 61.18C132.8 61 132.82 60.98 133.02 60.92Z" fill="#485E13"/>
<path d="M37.728 85.968H35.112C32.784 85.968 31.992 86.016 31.848 86.016C31.608 86.016 31.584 85.992 31.584 85.752V83.976C31.584 83.736 31.608 83.712 31.848 83.712C31.992 83.712 32.784 83.76 35.112 83.76H37.704V81.144H36.048C33.816 81.144 33.048 81.192 32.904 81.192C32.664 81.192 32.64 81.168 32.64 80.952V79.152C32.64 78.912 32.664 78.888 32.904 78.888C33.048 78.888 33.816 78.936 36.048 78.936H37.704V78.216C37.704 77.232 37.704 76.608 37.536 75.888C38.448 75.912 39.24 75.96 40.032 76.056C40.272 76.08 40.44 76.176 40.44 76.32C40.44 76.464 40.392 76.584 40.296 76.728C40.176 76.896 40.152 77.232 40.152 77.952V78.936H42C44.232 78.936 45 78.888 45.144 78.888C45.384 78.888 45.408 78.912 45.408 79.152V80.952C45.408 81.168 45.384 81.192 45.144 81.192C45 81.192 44.232 81.144 42 81.144H40.152V83.76H43.296C45.624 83.76 46.44 83.712 46.56 83.712C46.8 83.712 46.824 83.736 46.824 83.976V85.752C46.824 85.992 46.8 86.016 46.56 86.016C46.44 86.016 45.624 85.968 43.296 85.968H40.176V88.728H42.864C44.448 88.728 44.928 88.68 45.072 88.68C45.336 88.68 45.36 88.704 45.36 88.944V90.696C45.36 90.96 45.336 90.984 45.072 90.984C44.928 90.984 44.448 90.936 42.864 90.936H40.176V94.608C41.496 94.872 43.128 94.992 45.144 94.968C45.84 94.968 46.392 94.944 47.064 94.92C46.872 95.352 46.728 95.952 46.656 96.576C46.56 97.344 46.536 97.344 45.792 97.392C45.12 97.392 44.472 97.392 43.824 97.368C38.328 97.224 35.688 95.88 34.344 93.36C33.84 94.8 33.144 96.12 32.16 97.464C31.944 97.728 31.824 97.872 31.704 97.872C31.584 97.872 31.464 97.728 31.224 97.464C30.864 97.008 30.312 96.528 29.904 96.24C29.904 97.104 29.928 97.536 29.928 97.632C29.928 97.848 29.904 97.872 29.688 97.872H27.672C27.456 97.872 27.432 97.848 27.432 97.632C27.432 97.464 27.48 96.576 27.48 94.656V91.128C27.48 90.408 27.504 89.448 27.504 88.584C27.12 88.992 26.688 89.376 26.28 89.76C26.04 89.976 25.872 90.12 25.776 90.12C25.656 90.12 25.584 89.976 25.488 89.664C25.272 88.968 24.888 88.248 24.6 87.888C26.64 86.184 28.008 84.552 29.16 82.68C29.376 82.32 29.592 81.84 29.784 81.408C30.432 81.768 31.032 82.176 31.56 82.56C31.776 82.728 31.872 82.8 31.872 82.992C31.872 83.088 31.8 83.184 31.704 83.256C31.56 83.352 31.368 83.52 31.176 83.808C30.768 84.456 30.336 85.104 29.904 85.728V96.12C31.704 94.08 32.544 91.944 33.048 88.968C33.144 88.344 33.192 87.816 33.168 87.24C33.84 87.336 34.728 87.48 35.328 87.6C35.712 87.696 35.88 87.768 35.88 87.96C35.88 88.128 35.808 88.248 35.712 88.368C35.568 88.56 35.496 88.896 35.4 89.352L35.04 90.96C35.664 92.184 36.504 93.12 37.728 93.768V85.968ZM29.832 75.888C30.552 76.272 31.128 76.656 31.728 77.088C31.944 77.256 32.064 77.352 32.064 77.52C32.064 77.688 31.944 77.784 31.704 77.904C31.536 78 31.32 78.216 31.032 78.576C29.928 79.944 28.44 81.24 26.832 82.488C26.592 82.68 26.448 82.776 26.328 82.776C26.184 82.776 26.088 82.608 25.872 82.224C25.584 81.696 25.128 81.096 24.792 80.808C26.448 79.752 27.936 78.432 29.088 76.992C29.424 76.584 29.64 76.248 29.832 75.888ZM59.112 85.56H53.016C50.832 85.56 50.112 85.608 49.944 85.608C49.704 85.608 49.68 85.584 49.68 85.344V83.568C49.68 83.328 49.704 83.328 49.944 83.328C50.112 83.328 50.832 83.352 53.016 83.352H53.304V80.856C53.304 79.344 53.256 78.72 53.112 77.928C54 77.952 54.912 78 55.704 78.096C55.92 78.12 56.064 78.216 56.064 78.36C56.064 78.528 55.992 78.648 55.92 78.816C55.8 79.128 55.776 79.608 55.776 80.712V83.352H59.112V78.888C59.112 77.4 59.088 76.776 58.92 75.984C59.784 76.008 60.72 76.056 61.512 76.152C61.704 76.176 61.848 76.248 61.848 76.392C61.848 76.56 61.776 76.704 61.728 76.872C61.608 77.208 61.56 77.616 61.56 78.72V78.816H64.68C67.032 78.816 67.872 78.768 68.016 78.768C68.256 78.768 68.28 78.792 68.28 79.032V80.784C68.28 81 68.256 81.024 68.016 81.024C67.872 81.024 67.032 80.976 64.68 80.976H61.56V83.352H67.104C69.288 83.352 70.032 83.328 70.176 83.328C70.416 83.328 70.44 83.328 70.44 83.568V85.344C70.44 85.584 70.416 85.608 70.176 85.608C70.032 85.608 69.288 85.56 67.104 85.56H61.56V86.664C61.56 87.792 61.632 88.8 61.632 89.688C61.632 90.744 61.512 91.296 60.888 91.8C60.336 92.232 59.76 92.4 57.576 92.4C56.832 92.424 56.832 92.424 56.664 91.632C56.496 91.032 56.232 90.36 55.944 89.88C56.808 89.976 57.384 90.024 57.984 90.024C58.8 90.024 59.112 89.736 59.112 89.136V85.56ZM64.176 89.832C64.848 90.288 65.592 90.744 66.12 91.2C66.288 91.368 66.408 91.488 66.408 91.68C66.408 91.848 66.264 91.968 66.072 92.016C65.832 92.088 65.616 92.208 65.256 92.544C62.592 95.112 58.896 97.152 52.536 97.728C51.816 97.8 51.816 97.8 51.552 97.08C51.312 96.456 50.976 95.88 50.592 95.424C57.072 95.208 61.2 93.312 63.312 90.984C63.696 90.576 63.936 90.264 64.176 89.832ZM54.024 86.28C54.816 86.568 55.272 86.784 56.064 87.168C56.304 87.288 56.328 87.384 56.328 87.504C56.328 87.672 56.208 87.768 56.04 87.864C55.92 87.936 55.656 88.224 55.512 88.464C54.744 89.688 53.352 91.104 51.864 92.136C51.6 92.328 51.432 92.424 51.312 92.424C51.144 92.424 51.024 92.256 50.76 91.896C50.4 91.416 50.016 91.08 49.584 90.744C51.24 89.856 52.512 88.632 53.232 87.648C53.64 87.096 53.856 86.664 54.024 86.28ZM64.632 87.264L65.88 86.472C66.12 86.328 66.168 86.304 66.312 86.52C67.584 88.08 69.264 89.352 71.064 90.192C70.632 90.624 70.248 91.056 69.912 91.56C69.672 91.92 69.576 92.088 69.408 92.088C69.288 92.088 69.144 91.968 68.856 91.8C67.272 90.792 65.88 89.472 64.464 87.696C64.32 87.504 64.344 87.456 64.632 87.264Z" fill="white"/>
<path d="M139.4 139.336L137.288 139.816C136.264 140.008 136.264 140.008 135.848 139.048C135.56 138.44 135.208 137.864 134.824 137.352C137.992 136.872 140.744 136.136 142.664 135.272C143.24 135.016 143.56 134.824 144.008 134.536C144.776 135.176 145.384 135.784 145.928 136.424C146.088 136.616 146.216 136.776 146.216 137C146.216 137.224 145.96 137.352 145.64 137.384C145.352 137.416 145 137.544 144.584 137.704C143.912 137.96 143.208 138.216 142.472 138.44V143.016C144.808 143.016 145.576 142.952 145.768 142.952C146.088 142.952 146.12 142.984 146.12 143.304V145.576C146.12 145.896 146.088 145.928 145.768 145.928C145.576 145.928 144.84 145.864 142.792 145.864C143.816 147.944 145.032 149.896 146.536 151.336C146.12 151.88 145.704 152.616 145.384 153.448C145.256 153.8 145.16 153.96 145 153.96C144.872 153.96 144.744 153.832 144.52 153.512C143.688 152.232 142.952 150.824 142.376 149.384C142.376 157.192 142.568 162.504 142.568 163.176C142.568 163.464 142.536 163.496 142.216 163.496H139.656C139.336 163.496 139.304 163.464 139.304 163.176C139.304 162.536 139.496 157.384 139.56 150.472C138.76 152.904 137.672 155.016 136.328 156.904C136.136 157.224 135.976 157.416 135.816 157.416C135.688 157.416 135.56 157.224 135.4 156.872C135.016 155.976 134.536 155.144 134.12 154.632C136.136 152.296 137.832 149.608 139.016 145.864H138.344C135.976 145.864 135.208 145.928 135.016 145.928C134.728 145.928 134.696 145.896 134.696 145.576V143.304C134.696 142.984 134.728 142.952 135.016 142.952C135.208 142.952 135.976 143.016 138.344 143.016H139.4V139.336ZM156.168 137.48V146.152C156.168 148.552 156.232 149.672 156.232 150.504C156.232 151.976 155.912 152.648 155.048 153.32C154.44 153.768 153.512 154.024 151.496 154.056C150.504 154.088 150.504 154.088 150.312 153.096C150.12 152.2 149.768 151.4 149.416 150.76C150.216 150.856 151.176 150.92 151.976 150.92C152.68 150.92 153.032 150.632 153.032 149.768V137.864C153.032 136.488 153 135.464 152.808 134.312C153.992 134.344 154.92 134.408 156.04 134.536C156.36 134.568 156.552 134.696 156.552 134.856C156.552 135.144 156.456 135.304 156.36 135.528C156.232 135.784 156.168 136.232 156.168 137.48ZM144.008 160.712C151.048 159.048 155.368 156.104 158.216 151.112C158.568 150.536 158.952 149.736 159.208 148.904C160.2 149.448 161.192 150.024 161.8 150.472C162.088 150.696 162.248 150.824 162.248 151.016C162.248 151.272 162.12 151.368 161.864 151.56C161.544 151.816 161.256 152.264 160.84 153.032C157.96 157.768 153.96 161.128 147.016 163.304C146.696 163.4 146.472 163.464 146.312 163.464C146.024 163.464 145.928 163.272 145.608 162.696C145.192 161.96 144.648 161.288 144.008 160.712ZM145.48 148.808C147.016 146.664 147.816 144.168 148.392 141.288C148.52 140.648 148.616 139.944 148.648 139.112C149.608 139.304 150.696 139.56 151.368 139.816C151.72 139.944 151.976 140.072 151.976 140.296C151.976 140.488 151.88 140.584 151.752 140.776C151.592 141 151.496 141.448 151.368 141.992C150.696 145 149.768 147.592 148.616 149.896C148.424 150.28 148.296 150.472 148.136 150.472C148.008 150.472 147.816 150.312 147.496 150.056C146.888 149.512 146.248 149.128 145.48 148.808ZM157.672 139.72L159.56 139.048C160.008 138.888 160.008 138.92 160.104 139.24C161.128 142.408 162.312 145.032 164.168 147.496C163.528 147.816 162.792 148.296 162.152 148.936C161.832 149.256 161.64 149.448 161.48 149.448C161.32 149.448 161.192 149.224 160.904 148.776C159.304 146.216 158.216 143.528 157.256 140.264C157.16 139.912 157.256 139.88 157.672 139.72Z" fill="white"/>
<path d="M69.008 112.392L61.136 110.024C62.992 103.112 68.496 99.464 75.92 99.464C84.816 99.464 90.576 104.648 90.576 111.752C90.576 117.512 87.12 121.736 81.232 122.76V123.208C87.824 124.616 91.536 129.032 91.536 135.496C91.536 144.136 85.264 150.024 75.92 150.024C67.856 150.024 62.544 146.76 60.368 139.208L68.24 136.904C69.328 141.832 71.632 143.816 75.856 143.816C80.464 143.816 83.344 140.744 83.344 135.56C83.344 129.992 80.72 126.728 73.872 126.728H70.16V120.2H73.552C79.952 120.2 82.512 117.448 82.512 112.52C82.512 108.04 79.888 105.672 75.792 105.672C72.4 105.672 69.648 107.784 69.008 112.392ZM113.056 99.464C122.912 99.464 128.416 106.504 128.416 124.552C128.416 142.664 122.912 150.024 112.928 150.024C102.88 150.024 97.6315 142.792 97.6315 124.68C97.6315 106.568 103.2 99.464 113.056 99.464ZM113.056 105.8C108.064 105.8 105.888 110.152 105.888 124.616C105.888 139.016 107.872 143.688 112.928 143.688C118.112 143.688 120.16 138.952 120.16 124.616C120.16 110.216 118.176 105.8 113.056 105.8Z" fill="#485E13"/>
<defs>
<radialGradient id="paint0_radial_225_13" cx="0" cy="0" r="1" gradientUnits="userSpaceOnUse" gradientTransform="translate(96.5 96.5) rotate(50.3185) scale(66.7274)">
<stop stop-color="#EFFAEB"/>
<stop offset="0.09" stop-color="#F1FAED"/>
<stop offset="0.22" stop-color="#F3FBF0"/>
<stop offset="0.385" stop-color="#F1FAED"/>
<stop offset="0.505" stop-color="#E0F4D6"/>
<stop offset="0.665" stop-color="#CEE7C3"/>
<stop offset="0.845" stop-color="#CAE2BF"/>
<stop offset="1" stop-color="#BEDBB0"/>
</radialGradient>
</defs>
</svg>
