<svg width="448" height="448" viewBox="0 0 448 448" fill="none" xmlns="http://www.w3.org/2000/svg">
<circle cx="224" cy="224" r="224" fill="#74A45E"/>
<path d="M176.496 92.488C177.888 92.656 178.704 92.824 179.304 93.04C179.592 93.136 179.736 93.28 179.736 93.472C179.736 93.64 179.712 93.736 179.616 93.856C179.4 94.12 179.328 94.456 179.28 94.72C179.208 95.152 179.16 95.512 179.088 95.92C181.296 95.704 183 95.44 185.328 94.912C185.616 94.84 185.688 94.936 185.736 95.152C185.856 95.656 185.976 96.256 185.976 96.784C185.976 97.096 185.736 97.216 185.472 97.264C182.304 97.912 180.84 98.08 178.656 98.272C178.56 99.28 178.512 99.856 178.488 100.696C179.424 100.384 180.984 100.192 182.16 100.168C182.304 99.784 182.544 99.088 182.568 98.416C183.432 98.68 184.368 99.064 184.704 99.304C184.992 99.496 185.136 99.688 185.136 99.832C185.136 99.928 185.088 100.024 184.992 100.12C184.872 100.24 184.8 100.384 184.68 100.6C187.776 101.416 189.6 103.456 189.6 106.456C189.6 109.936 186.744 112.192 182.928 113.224C182.4 113.368 182.136 113.296 181.872 112.768C181.704 112.432 181.224 111.928 180.456 111.28C182.184 110.92 184.032 110.152 184.92 109.528C186.072 108.688 186.84 107.656 186.84 105.928C186.84 104.008 185.472 102.856 183.864 102.448C182.472 105.088 181.056 106.984 179.328 108.736C179.448 109.168 179.592 109.432 179.76 109.816C179.904 110.128 179.808 110.248 179.568 110.416C179.016 110.824 178.464 111.112 178.128 111.256C177.888 111.376 177.792 111.376 177.648 111.136C177.48 110.848 177.36 110.56 177.24 110.2C175.536 111.376 174.288 111.928 173.064 111.928C171.432 111.928 170.4 110.824 170.4 108.952C170.4 105.88 173.064 102.952 176.016 101.488C176.04 100.456 176.088 99.4 176.136 98.488C174.72 98.536 174.072 98.512 173.664 98.512C172.968 98.512 172.584 98.512 172.296 98.464C172.032 98.44 171.888 98.32 171.864 97.912C171.792 97.384 171.792 96.76 171.744 96.088C173.28 96.256 174.6 96.208 176.4 96.184C176.496 95.32 176.592 94.24 176.592 93.568C176.592 93.208 176.568 92.872 176.496 92.488ZM178.656 106.36C179.64 105.232 180.768 103.552 181.44 102.208C180.576 102.232 179.472 102.4 178.368 102.76C178.392 104.008 178.464 105.136 178.656 106.36ZM176.016 103.84C174.168 105.16 172.92 106.888 172.92 108.448C172.92 109.024 173.28 109.36 173.712 109.36C174.384 109.36 175.272 108.928 176.496 107.968C176.256 106.528 176.064 105.232 176.016 103.84ZM206.064 106.648C205.92 105.112 205.872 103.648 205.848 102.52C205.824 101.872 205.8 101.488 205.656 100.816C206.832 100.936 207.456 101.032 208.272 101.272C208.488 101.32 208.608 101.44 208.608 101.656C208.608 101.704 208.56 101.872 208.464 102.16C208.368 102.448 208.344 102.736 208.368 103.144C208.368 104.56 208.44 105.592 208.632 107.224C210.36 107.92 211.536 108.448 212.952 109.456C213.192 109.624 213.216 109.72 213.096 109.96C212.736 110.704 212.4 111.304 211.992 111.904C211.92 112.024 211.848 112.072 211.776 112.072C211.704 112.072 211.632 112.024 211.536 111.928C210.48 111.016 209.592 110.488 208.608 109.912C208.608 112.312 206.88 113.416 204.144 113.416C201.504 113.416 199.728 112.072 199.728 110.008C199.728 107.92 201.456 106.504 204.168 106.504C204.624 106.504 205.296 106.528 206.064 106.648ZM206.112 108.928C205.536 108.736 204.888 108.568 204.144 108.568C202.944 108.568 202.008 109.048 202.008 109.96C202.008 110.728 202.68 111.112 204.048 111.112C205.344 111.112 206.136 110.416 206.136 109.408C206.136 109.192 206.136 109.072 206.112 108.928ZM202.2 96.616C203.136 96.52 204.24 96.304 205.176 96.088C205.392 96.016 205.488 96.016 205.536 96.28C205.656 96.88 205.728 97.6 205.752 98.224C205.752 98.44 205.656 98.488 205.464 98.512C204.168 98.776 202.992 98.944 201.504 99.16C199.968 103.216 198.552 106.528 196.824 109.456C196.728 109.624 196.656 109.696 196.56 109.696C196.488 109.696 196.392 109.648 196.272 109.576C195.72 109.24 195.024 108.736 194.616 108.352C194.496 108.256 194.448 108.184 194.448 108.088C194.448 108.016 194.472 107.92 194.568 107.8C196.368 104.824 197.64 102.304 198.72 99.424C197.808 99.472 197.064 99.472 196.32 99.472C195.792 99.472 195.6 99.472 195 99.448C194.76 99.448 194.712 99.376 194.664 99.064C194.544 98.608 194.472 97.816 194.424 97.024C195.408 97.096 195.96 97.12 196.656 97.12C197.592 97.12 198.312 97.096 199.416 97C199.704 95.992 199.872 95.176 200.04 94.312C200.184 93.472 200.184 93.112 200.184 92.368C201.216 92.512 202.248 92.656 202.992 92.872C203.232 92.92 203.376 93.064 203.376 93.232C203.376 93.424 203.304 93.544 203.16 93.688C203.016 93.88 202.92 94.096 202.776 94.576C202.608 95.152 202.416 95.896 202.2 96.616ZM207.528 98.896C207.936 98.176 208.296 97.456 208.608 97.024C208.752 96.784 208.872 96.76 209.112 96.856C210.528 97.24 212.424 98.2 213.816 99.112C213.96 99.208 214.032 99.28 214.032 99.376C214.032 99.448 214.008 99.544 213.936 99.664C213.696 100.192 213.264 100.936 212.928 101.44C212.856 101.56 212.784 101.608 212.712 101.608C212.64 101.608 212.592 101.584 212.496 101.512C211.08 100.552 209.352 99.496 207.528 98.896ZM226.536 97C227.472 96.832 228.768 96.52 229.944 96.184C230.208 96.112 230.304 96.232 230.328 96.424C230.4 96.952 230.472 97.648 230.496 98.152C230.52 98.464 230.448 98.536 230.136 98.608C228.648 99.016 227.424 99.28 225.96 99.52C224.328 104.848 223.104 108.52 221.568 112.504C221.448 112.84 221.304 112.816 221.04 112.744C220.8 112.648 219.624 112.144 219.12 111.856C218.928 111.736 218.856 111.544 218.928 111.376C220.752 107.176 221.904 104.008 223.08 100C221.688 100.144 220.008 100.264 218.88 100.264C218.52 100.264 218.424 100.192 218.376 99.88C218.28 99.376 218.16 98.56 218.04 97.696C218.544 97.768 218.832 97.768 219.816 97.768C221.016 97.768 222.312 97.696 223.704 97.528C223.944 96.568 224.136 95.512 224.304 94.528C224.4 93.808 224.448 93.088 224.448 92.32C225.72 92.512 226.704 92.68 227.472 92.992C227.664 93.064 227.736 93.232 227.736 93.376C227.736 93.472 227.736 93.592 227.616 93.76C227.424 94.096 227.232 94.336 227.112 94.72C226.872 95.584 226.704 96.4 226.536 97ZM226.968 108.016C227.712 107.824 228.696 107.656 229.008 107.656C229.248 107.656 229.344 107.752 229.368 107.992C229.56 109.744 230.736 110.248 233.04 110.248C234.384 110.248 236.112 110.032 237.072 109.912C237.264 109.888 237.336 109.936 237.36 110.128C237.456 110.752 237.552 111.568 237.552 112.216C237.576 112.504 237.552 112.576 237.168 112.6C236.352 112.72 234.792 112.864 233.904 112.864C230.76 112.864 229.128 112.432 228.048 111.304C227.28 110.536 227.016 109.408 226.968 108.016ZM228.84 103.48C228.792 102.64 228.744 101.776 228.744 101.296C228.744 100.96 228.816 100.888 229.176 100.816C230.688 100.504 232.464 100.264 233.856 100.264C234.792 100.264 235.824 100.36 236.664 100.504C237 100.552 237.072 100.576 237.072 100.864C237.12 101.464 237.12 102.136 237.096 102.784C237.096 103.192 236.976 103.288 236.64 103.216C235.8 103.048 234.696 102.928 233.664 102.928C232.224 102.928 230.4 103.168 228.84 103.48ZM253.632 97.288H253.536C252.984 101.368 251.976 105.112 250.536 107.632C249.504 109.432 248.256 110.392 246.456 110.392C244.344 110.392 242.208 108.136 242.208 104.224C242.208 101.92 243.192 99.712 244.92 97.984C246.936 95.968 249.48 94.912 252.72 94.912C258.48 94.912 261.864 98.464 261.864 103.24C261.864 107.704 259.344 110.512 254.472 111.976C253.968 112.12 253.752 112.024 253.44 111.544C253.176 111.136 252.672 110.584 251.76 110.032C255.816 109.072 259.008 107.392 259.008 102.856C259.008 100 256.848 97.288 253.632 97.288ZM250.752 97.432C249.072 97.768 247.728 98.44 246.648 99.616C245.496 100.912 244.776 102.52 244.776 104.056C244.776 106.264 245.664 107.488 246.408 107.488C247.032 107.488 247.56 107.176 248.208 106.024C249.264 104.08 250.344 100.624 250.752 97.432Z" fill="white"/>
<path d="M144.592 271.68V275.544C144.592 275.808 144.448 275.928 144.136 275.976C143.824 276.024 143.104 276.096 142.432 276.096C142.216 276.096 142.12 275.952 142.12 275.712C142.12 274.848 142.12 273.648 142.144 272.784C140.008 273.888 139.24 274.824 139.24 275.976C139.24 276.984 140.056 277.632 142.576 277.632C144.784 277.632 146.704 277.416 148.552 277.152C148.768 277.128 148.864 277.2 148.888 277.416C149.008 277.968 149.104 278.808 149.104 279.384C149.128 279.672 149.032 279.84 148.84 279.84C146.776 280.104 145.216 280.152 142.888 280.152C138.952 280.152 136.864 278.976 136.864 276.192C136.864 273.888 138.304 272.208 141.928 270.336C141.856 269.112 141.568 268.632 140.488 268.68C139.36 268.728 138.28 269.448 137.176 270.408C136.144 271.416 135.544 272.112 134.776 273.024C134.656 273.168 134.584 273.24 134.488 273.24C134.416 273.24 134.32 273.168 134.224 273.072C133.888 272.736 133.168 271.992 132.856 271.488C132.784 271.392 132.76 271.32 132.76 271.272C132.76 271.176 132.808 271.104 132.928 271.008C134.776 269.352 136.552 267.456 137.944 265.056C136.816 265.104 135.52 265.128 134.104 265.128C133.888 265.128 133.816 265.008 133.768 264.744C133.696 264.36 133.6 263.472 133.528 262.752C135.352 262.848 137.224 262.824 139.048 262.728C139.312 262.08 139.528 261.504 139.768 260.664C139.864 260.256 139.936 259.848 139.936 259.2C140.992 259.368 142.048 259.632 142.672 259.872C142.864 259.944 142.96 260.112 142.96 260.28C142.96 260.4 142.912 260.544 142.792 260.64C142.648 260.76 142.504 260.976 142.384 261.216C142.24 261.552 142.12 261.864 141.832 262.512C143.296 262.344 144.76 262.104 146.2 261.768C146.464 261.72 146.536 261.792 146.584 262.008C146.704 262.488 146.8 263.04 146.824 263.736C146.848 263.976 146.752 264.072 146.416 264.12C144.616 264.384 142.552 264.648 140.8 264.84C140.248 265.728 139.72 266.616 139 267.504L139.024 267.552C139.792 267.048 140.776 266.808 141.424 266.808C143.008 266.808 144.112 267.528 144.352 269.4C145.288 268.968 146.656 268.344 147.88 267.72C148.336 267.48 149.104 267.048 149.704 266.424C150.496 267.264 151.12 268.104 151.384 268.536C151.528 268.752 151.576 268.92 151.576 269.064C151.576 269.256 151.456 269.352 151.216 269.4C150.712 269.472 150.232 269.592 149.752 269.76C148.192 270.312 146.632 270.84 144.592 271.68ZM171.424 265.44H172.264C173.44 265.44 174.784 265.416 175.888 265.368C176.176 265.344 176.2 265.488 176.224 265.752C176.272 266.352 176.272 267.048 176.224 267.648C176.2 267.96 176.152 268.056 175.816 268.032C175 268.032 173.536 268.008 172.36 268.008H171.376C171.232 271.44 170.704 273.456 169.528 275.4C168.328 277.392 166.384 278.832 163.864 279.864C163.528 280.008 163.336 280.08 163.192 280.08C163.048 280.08 162.928 280.008 162.736 279.816C162.016 279.072 161.56 278.736 160.744 278.376C164.152 277.32 166 276.096 167.224 274.128C168.16 272.592 168.544 270.936 168.64 268.008H163.528V268.872C163.528 270.288 163.528 271.584 163.6 272.856C163.624 273.12 163.456 273.168 163.192 273.192C162.568 273.24 161.776 273.24 161.128 273.192C160.816 273.168 160.672 273.12 160.696 272.856C160.768 271.608 160.816 270.432 160.816 268.92V268.008H160.096C158.8 268.008 156.88 268.08 156.136 268.128C155.944 268.128 155.872 267.984 155.848 267.672C155.752 267.168 155.728 266.328 155.68 265.344C156.688 265.416 158.248 265.464 160.096 265.464H160.816V263.712C160.816 262.176 160.768 261.576 160.528 260.184C161.776 260.304 162.952 260.424 163.456 260.568C163.72 260.616 163.816 260.736 163.816 260.904C163.816 261.048 163.744 261.216 163.672 261.408C163.504 261.84 163.504 262.08 163.504 263.712V265.464H168.664L168.688 263.112C168.712 261.768 168.64 260.664 168.472 259.824C169.384 259.92 170.704 260.064 171.28 260.232C171.616 260.304 171.712 260.424 171.712 260.616C171.712 260.712 171.688 260.856 171.616 261.048C171.448 261.504 171.424 262.128 171.424 263.16V265.44ZM188.656 265.104V263.976C188.656 262.464 188.608 261.36 188.392 260.28C189.52 260.376 190.768 260.52 191.368 260.64C191.848 260.736 191.896 260.976 191.656 261.432C191.44 261.84 191.416 262.392 191.416 263.832V265.104H194.368C196.456 265.104 198.088 265.008 199.264 264.96C199.48 264.936 199.576 265.08 199.576 265.344C199.6 265.968 199.6 266.592 199.552 267.216C199.528 267.528 199.456 267.696 199.216 267.672C197.728 267.624 195.904 267.552 194.272 267.552H191.44L191.464 272.4C191.464 273.672 191.512 274.704 191.512 276.576C191.512 277.752 191.08 278.544 190.096 279.048C189.328 279.48 188.032 279.816 187.024 279.84C186.736 279.84 186.592 279.696 186.448 279.336C186.088 278.496 185.584 277.8 184.84 277.176C186.472 277.176 187.528 277.08 188.104 276.888C188.488 276.72 188.656 276.456 188.656 275.832V267.552H184.888C183.52 267.552 181.864 267.624 180.736 267.72C180.52 267.72 180.424 267.528 180.424 267.24C180.4 266.808 180.328 265.728 180.328 264.936C182.152 265.08 183.616 265.104 184.84 265.104H188.656ZM182.968 269.472C183.952 269.784 184.864 270.192 185.464 270.576C185.848 270.84 185.992 271.08 185.56 271.416C185.32 271.608 185.152 271.848 184.96 272.232C184.336 273.504 183.28 275.184 182.296 276.24C182.008 276.552 181.816 276.624 181.456 276.384C180.76 275.928 180.088 275.544 179.416 275.376C180.808 273.936 181.672 272.688 182.32 271.416C182.68 270.768 182.848 270.24 182.968 269.472ZM193.888 271.008C194.536 270.528 195.16 270.12 195.712 269.712C196 269.496 196.192 269.568 196.384 269.808C197.56 270.816 198.712 272.376 199.816 274.2C200.032 274.56 199.96 274.728 199.696 274.944C199.312 275.304 198.64 275.784 198.088 276.144C197.824 276.312 197.704 276.36 197.536 276.048C196.672 274.44 195.352 272.496 193.888 271.008ZM197.872 258.624C199.312 258.624 200.464 259.752 200.464 261.192C200.464 262.632 199.312 263.76 197.872 263.76C196.432 263.76 195.28 262.632 195.28 261.192C195.28 259.704 196.432 258.624 197.872 258.624ZM197.872 259.776C197.056 259.776 196.456 260.376 196.456 261.192C196.456 262.008 197.056 262.608 197.872 262.608C198.688 262.608 199.288 262.008 199.288 261.192C199.288 260.376 198.688 259.776 197.872 259.776ZM217.6 271.584H208.96C206.584 271.584 205.672 271.872 205.432 271.872C205.144 271.872 204.952 271.728 204.88 271.368C204.76 270.816 204.616 269.688 204.52 268.464C206.08 268.704 207.28 268.752 209.704 268.752H217.432C219.256 268.752 221.104 268.704 222.952 268.68C223.312 268.656 223.384 268.728 223.384 269.016C223.432 269.736 223.432 270.552 223.384 271.272C223.384 271.56 223.288 271.656 222.952 271.632C221.152 271.608 219.376 271.584 217.6 271.584ZM237.208 263.232V266.664C240.136 267.576 242.464 268.512 244.84 269.928C245.104 270.072 245.224 270.24 245.104 270.552C244.792 271.344 244.408 272.088 244.072 272.64C243.976 272.808 243.88 272.904 243.76 272.904C243.688 272.904 243.592 272.88 243.496 272.784C241.288 271.368 239.128 270.312 237.184 269.712V275.016C237.184 276.576 237.232 277.992 237.28 279.72C237.304 280.008 237.184 280.08 236.848 280.08C236.152 280.128 235.408 280.128 234.712 280.08C234.376 280.08 234.256 280.008 234.256 279.72C234.328 277.944 234.352 276.528 234.352 274.992V263.184C234.352 261.384 234.28 260.592 234.112 259.632C235.216 259.704 236.416 259.824 237.112 260.016C237.448 260.088 237.568 260.232 237.568 260.424C237.568 260.568 237.496 260.76 237.376 260.976C237.208 261.288 237.208 261.888 237.208 263.232ZM256.408 260.064C257.512 260.184 258.664 260.304 259.408 260.496C259.816 260.592 259.984 260.712 259.984 260.952C259.984 261.216 259.84 261.504 259.744 261.744C259.624 262.08 259.528 262.824 259.408 264.672C259.168 268.368 259.048 270.816 259.048 273.96C259.048 276.384 259.336 276.936 261.256 276.936C263.392 276.936 266.728 275.64 269.656 272.52C269.752 273.432 269.968 274.224 270.208 274.8C270.328 275.064 270.4 275.232 270.4 275.376C270.4 275.592 270.304 275.784 269.92 276.12C267.328 278.496 263.944 279.72 260.824 279.72C257.752 279.72 256.312 278.496 256.312 274.824C256.312 270.792 256.528 267.336 256.648 264.456C256.696 263.04 256.768 261.504 256.408 260.064ZM285.016 273.72C284.968 272.664 284.92 271.68 284.896 270.864C283.24 270.912 281.608 270.912 279.952 270.768C279.688 270.768 279.592 270.672 279.568 270.36C279.472 269.832 279.424 268.872 279.424 268.32C281.2 268.536 283.024 268.584 284.824 268.512C284.8 267.6 284.8 266.664 284.776 265.752C282.472 265.824 280.744 265.824 279.04 265.632C278.776 265.632 278.656 265.536 278.632 265.296C278.56 264.696 278.512 264.12 278.464 263.136C280.552 263.376 282.64 263.376 284.752 263.376C284.752 262.488 284.728 261.864 284.704 261.048C284.656 260.496 284.608 260.064 284.416 259.44C285.688 259.512 286.72 259.656 287.44 259.872C287.728 259.968 287.872 260.304 287.704 260.592C287.536 260.928 287.368 261.336 287.344 261.744C287.32 262.224 287.32 262.56 287.296 263.28C289.528 263.112 291.136 262.848 292.552 262.56C292.84 262.488 292.936 262.56 292.96 262.848C293.056 263.52 293.08 264.168 293.08 264.6C293.08 264.912 293.008 264.96 292.816 264.984C291.112 265.272 289.576 265.464 287.272 265.608C287.272 266.568 287.296 267.456 287.296 268.32C289.12 268.2 290.272 267.96 292 267.696C292.288 267.624 292.36 267.672 292.384 267.888C292.408 268.344 292.456 269.136 292.456 269.856C292.456 270.096 292.36 270.168 292.096 270.192C290.512 270.456 289.408 270.624 287.392 270.768C287.44 271.872 287.488 273.048 287.56 274.152C289.864 274.8 291.832 275.664 293.92 277.056C294.16 277.272 294.16 277.344 294.088 277.632C293.92 278.088 293.416 278.976 293.032 279.408C292.936 279.552 292.84 279.6 292.72 279.6C292.648 279.6 292.552 279.576 292.456 279.48C290.992 278.328 289.504 277.488 287.68 276.744C287.656 279.336 286.096 280.392 282.808 280.392C279.688 280.392 277.912 279.024 277.912 277.032C277.912 275.088 279.808 273.624 282.712 273.624C283.312 273.624 283.888 273.624 285.016 273.72ZM285.064 276C284.368 275.832 283.504 275.712 282.832 275.712C281.08 275.712 280.24 276.216 280.24 276.984C280.24 277.608 280.96 278.064 282.616 278.064C283.576 278.064 284.464 277.776 284.8 277.344C284.992 277.08 285.064 276.672 285.064 276ZM309.928 263.28C309.904 262.536 309.904 261.936 309.88 261.288C309.832 260.592 309.784 260.256 309.592 259.536C310.672 259.608 311.824 259.752 312.4 259.872C312.808 259.944 313.072 260.112 313.072 260.328C313.072 260.52 313 260.64 312.856 260.88C312.784 261.024 312.712 261.264 312.664 261.576C312.64 261.888 312.64 262.2 312.616 263.112C315.208 263.016 317.68 262.992 319.984 262.992C320.272 262.992 320.32 263.04 320.344 263.352C320.368 263.952 320.368 264.576 320.344 265.176C320.344 265.44 320.224 265.512 319.936 265.488C317.44 265.416 315.112 265.416 312.616 265.44C312.616 266.904 312.616 268.44 312.64 269.904C312.88 270.552 313 271.488 313 272.28C313 275.064 311.872 277.968 308.728 280.032C308.32 280.296 308.008 280.488 307.792 280.488C307.576 280.488 307.312 280.32 307.072 280.128C306.52 279.672 305.872 279.36 305.248 279.168C308.056 277.92 309.736 275.904 310.168 273.888C309.688 274.584 308.704 274.848 307.912 274.848C306.016 274.848 304.576 273.48 304.576 271.176C304.576 268.944 306.256 267.576 308.2 267.576C308.92 267.576 309.64 267.72 310.024 268.056C310.024 267.216 310 266.4 310 265.608C306.976 265.776 303.592 266.064 301.696 266.328C301.168 266.4 300.784 266.616 300.568 266.616C300.328 266.616 300.232 266.52 300.16 266.28C299.968 265.8 299.752 264.84 299.56 263.856C300.448 263.952 301.216 263.856 302.488 263.76C303.952 263.64 307.048 263.448 309.928 263.28ZM308.392 269.448C307.648 269.448 306.808 269.952 306.808 271.008C306.808 272.064 307.48 272.64 308.344 272.64C309.232 272.64 309.976 272.088 309.976 270.984C309.976 270 309.352 269.448 308.392 269.448Z" fill="white"/>
<path d="M179.016 310.248C179.64 310.56 180.24 310.872 180.864 311.208C181.08 311.328 181.104 311.448 180.984 311.64C180.624 312.192 180.36 312.984 180.36 313.464C180.36 314.976 181.92 315.72 186.048 315.72C188.376 315.72 190.584 315.456 192.552 315.024C192.888 314.952 193.008 315.024 193.056 315.24C193.176 315.696 193.392 316.992 193.44 317.592C193.464 317.808 193.32 317.904 193.032 317.952C190.8 318.36 188.592 318.528 186 318.528C180.456 318.528 177.744 316.8 177.744 313.68C177.744 312.696 178.104 311.664 179.016 310.248ZM179.544 301.176C181.368 301.608 183.672 301.8 186.288 301.8C188.04 301.8 189.744 301.704 191.28 301.584C191.52 301.56 191.616 301.656 191.64 301.848C191.736 302.4 191.832 303.072 191.856 303.888C191.856 304.224 191.736 304.368 191.448 304.392C189.168 304.728 187.512 305.52 185.568 306.768C185.376 306.912 185.16 306.984 184.968 306.984C184.8 306.984 184.632 306.936 184.464 306.84C183.984 306.528 183.48 306.264 182.784 306.072C184.032 305.256 185.088 304.584 185.928 304.08C185.4 304.152 184.656 304.152 184.176 304.152C183.192 304.152 181.128 304.008 179.76 303.744C179.544 303.696 179.448 303.6 179.448 303.312C179.448 302.736 179.496 302.04 179.544 301.176ZM191.544 300.024L192.816 299.136C192.936 299.04 193.032 299.064 193.176 299.184C193.92 299.76 194.784 300.72 195.456 301.752C195.552 301.896 195.552 302.016 195.384 302.136L194.376 302.88C194.208 303 194.088 302.976 193.968 302.808C193.248 301.704 192.48 300.792 191.544 300.024ZM193.752 298.44L194.952 297.576C195.096 297.48 195.168 297.504 195.312 297.624C196.2 298.296 197.064 299.256 197.592 300.096C197.688 300.24 197.712 300.384 197.52 300.528L196.56 301.272C196.368 301.416 196.248 301.344 196.152 301.2C195.504 300.168 194.736 299.256 193.752 298.44ZM205.44 308.016H202.44C200.328 308.016 199.608 308.064 199.464 308.064C199.2 308.064 199.176 308.04 199.176 307.8V306.096C199.176 305.856 199.2 305.832 199.464 305.832C199.608 305.832 200.328 305.88 202.44 305.88H206.832L207.336 304.92C207.552 304.512 207.672 304.2 207.768 303.696C206.304 304.176 204.744 304.584 203.016 304.968C202.296 305.136 202.296 305.136 202.008 304.488C201.696 303.912 201.312 303.264 201.024 303C203.856 302.568 206.088 302.016 208.032 301.344C206.592 300.792 205.104 300.288 203.52 299.832C203.256 299.76 203.304 299.664 203.544 299.448L204.696 298.392C204.936 298.176 204.984 298.176 205.224 298.248C207.24 298.872 209.04 299.472 210.816 300.168C211.656 299.76 212.448 299.28 213.264 298.776C213.624 298.536 214.152 298.128 214.608 297.672C215.424 297.984 216.264 298.416 216.864 298.728C217.08 298.848 217.128 298.968 217.128 299.112C217.128 299.256 216.984 299.376 216.792 299.424C216.6 299.472 216.264 299.592 215.952 299.808C215.136 300.336 214.344 300.84 213.528 301.272C214.728 301.8 215.976 302.376 217.32 303.024C217.44 303.096 217.512 303.144 217.512 303.192C217.512 303.264 217.44 303.36 217.344 303.48L216.216 304.848C216 305.112 215.904 305.088 215.688 304.968C214.056 304.056 212.472 303.264 210.888 302.544C210.048 302.904 209.16 303.24 208.248 303.552C208.944 303.624 209.568 303.696 210.096 303.792C210.384 303.84 210.576 303.936 210.576 304.128C210.576 304.272 210.552 304.344 210.408 304.464C210.168 304.656 210 304.92 209.832 305.208C209.712 305.448 209.568 305.664 209.448 305.88H217.56C219.672 305.88 220.392 305.832 220.536 305.832C220.752 305.832 220.776 305.856 220.776 306.096V307.8C220.776 308.04 220.752 308.064 220.536 308.064C220.392 308.064 219.672 308.016 217.56 308.016H208.176C207.576 308.928 206.952 309.768 206.256 310.536H209.64C209.64 309.816 209.592 309.24 209.496 308.52C210.408 308.544 211.176 308.592 212.016 308.688C212.232 308.712 212.376 308.808 212.376 308.952C212.376 309.12 212.328 309.24 212.256 309.408C212.16 309.624 212.088 309.912 212.088 310.536H214.704C216.96 310.536 218.112 310.488 218.256 310.488C218.496 310.488 218.52 310.512 218.52 310.752C218.52 310.896 218.472 311.592 218.472 312.984V314.448C218.472 315.048 218.52 315.72 218.52 316.248C218.52 316.872 218.352 317.424 217.968 317.784C217.512 318.24 217.056 318.432 215.04 318.432C214.296 318.432 214.296 318.432 214.128 317.664C214.008 317.184 213.864 316.776 213.624 316.272C214.416 316.344 214.8 316.368 215.376 316.368C215.832 316.368 216.048 316.176 216.048 315.672V312.528H212.088V316.68C212.088 318.576 212.136 319.488 212.136 319.632C212.136 319.872 212.112 319.896 211.872 319.896H209.88C209.64 319.896 209.616 319.872 209.616 319.632C209.616 319.488 209.664 318.576 209.664 316.68V312.528H206.088V316.392C206.088 317.76 206.136 318.168 206.136 318.312C206.136 318.552 206.112 318.576 205.848 318.576H203.904C203.664 318.576 203.64 318.552 203.64 318.312C203.64 318.168 203.688 317.76 203.688 316.392V313.008C202.872 313.68 201.96 314.352 200.904 315.048C200.64 315.24 200.496 315.336 200.376 315.336C200.208 315.336 200.112 315.168 199.944 314.808C199.656 314.208 199.296 313.752 198.888 313.392C201.552 311.952 203.712 310.296 205.44 308.016ZM237.312 298.728H241.32C243.12 298.728 243.744 298.68 243.888 298.68C244.128 298.68 244.176 298.728 244.176 298.944C244.128 299.328 244.08 300.12 244.032 300.936C243.888 303.576 243.624 305.832 243.408 307.08C243.144 308.472 242.64 309.432 241.584 309.672C241.128 309.768 240.408 309.816 239.784 309.816C239.04 309.816 238.92 309.768 238.848 309.36C238.752 308.784 238.584 308.136 238.344 307.704C239.112 307.8 239.808 307.824 240.384 307.776C240.768 307.728 241.008 307.176 241.152 306.408H236.424C235.944 307.704 235.2 308.784 234.048 309.792C233.784 310.008 233.616 310.128 233.472 310.128C233.28 310.128 233.136 309.984 232.872 309.744C232.464 309.312 231.96 309.048 231.408 308.832C231.792 308.616 232.128 308.4 232.44 308.136C232.368 308.16 232.296 308.184 232.176 308.184C231.072 308.304 230.112 308.328 229.104 308.328C227.832 308.328 226.704 308.304 226.008 308.016C225.36 307.752 225.024 307.176 225.024 305.952V302.496C224.088 302.52 223.68 302.544 223.584 302.544C223.344 302.544 223.32 302.52 223.32 302.28V300.6C223.32 300.36 223.344 300.36 223.584 300.36C223.728 300.36 224.4 300.384 226.392 300.384H227.64V299.688C227.64 299.208 227.616 298.68 227.496 297.984C228.216 298.008 229.224 298.056 229.92 298.128C230.136 298.152 230.256 298.248 230.256 298.368C230.256 298.536 230.184 298.608 230.112 298.776C230.016 298.968 229.992 299.208 229.992 299.664V300.384H230.712C232.728 300.384 233.376 300.36 233.52 300.36C233.76 300.36 233.784 300.36 233.784 300.6V302.28C233.784 302.52 233.76 302.544 233.52 302.544C233.376 302.544 232.728 302.496 230.712 302.496H227.376V304.992C227.376 305.64 227.448 305.856 227.736 305.976C228.072 306.12 228.456 306.144 229.2 306.144C230.328 306.144 231.192 306.096 232.224 305.976C232.608 305.928 232.632 305.952 232.632 306.576V307.512C232.632 307.8 232.608 307.944 232.56 308.04C234.216 306.624 234.864 304.608 235.08 301.224C235.152 300.192 235.152 299.664 235.128 298.968C235.128 298.728 235.152 298.68 235.368 298.68C235.512 298.68 235.944 298.728 237.312 298.728ZM241.56 303.528H237.096C237.048 303.936 237 304.344 236.928 304.704H241.416C241.464 304.344 241.536 303.936 241.56 303.528ZM241.776 300.648H237.312L237.264 301.824H241.704L241.776 300.648ZM241.512 319.32H226.488C224.376 319.32 223.656 319.368 223.512 319.368C223.296 319.368 223.272 319.344 223.272 319.104V317.52C223.272 317.28 223.296 317.256 223.512 317.256C223.656 317.256 224.376 317.304 226.488 317.304H232.632V315.768H229.536C227.184 315.768 226.368 315.816 226.224 315.816C225.984 315.816 225.96 315.792 225.96 315.528V314.088C225.96 313.848 225.984 313.824 226.224 313.824C226.368 313.824 227.184 313.872 229.536 313.872H232.632V312.36H228.12C225.792 312.36 225.024 312.408 224.88 312.408C224.64 312.408 224.616 312.384 224.616 312.144V310.656C224.616 310.416 224.64 310.392 224.88 310.392C225.024 310.392 225.792 310.44 228.12 310.44H239.928C242.232 310.44 243 310.392 243.144 310.392C243.408 310.392 243.432 310.416 243.432 310.656V312.144C243.432 312.384 243.408 312.408 243.144 312.408C243 312.408 242.232 312.36 239.928 312.36H235.08V313.872H238.488C240.84 313.872 241.656 313.824 241.8 313.824C242.064 313.824 242.088 313.848 242.088 314.088V315.528C242.088 315.792 242.064 315.816 241.8 315.816C241.656 315.816 240.84 315.768 238.488 315.768H235.08V317.304H241.512C243.648 317.304 244.344 317.256 244.512 317.256C244.728 317.256 244.752 317.28 244.752 317.52V319.104C244.752 319.344 244.728 319.368 244.512 319.368C244.344 319.368 243.648 319.32 241.512 319.32ZM260.592 310.68V314.544C260.592 314.808 260.448 314.928 260.136 314.976C259.824 315.024 259.104 315.096 258.432 315.096C258.216 315.096 258.12 314.952 258.12 314.712C258.12 313.848 258.12 312.648 258.144 311.784C256.008 312.888 255.24 313.824 255.24 314.976C255.24 315.984 256.056 316.632 258.576 316.632C260.784 316.632 262.704 316.416 264.552 316.152C264.768 316.128 264.864 316.2 264.888 316.416C265.008 316.968 265.104 317.808 265.104 318.384C265.128 318.672 265.032 318.84 264.84 318.84C262.776 319.104 261.216 319.152 258.888 319.152C254.952 319.152 252.864 317.976 252.864 315.192C252.864 312.888 254.304 311.208 257.928 309.336C257.856 308.112 257.568 307.632 256.488 307.68C255.36 307.728 254.28 308.448 253.176 309.408C252.144 310.416 251.544 311.112 250.776 312.024C250.656 312.168 250.584 312.24 250.488 312.24C250.416 312.24 250.32 312.168 250.224 312.072C249.888 311.736 249.168 310.992 248.856 310.488C248.784 310.392 248.76 310.32 248.76 310.272C248.76 310.176 248.808 310.104 248.928 310.008C250.776 308.352 252.552 306.456 253.944 304.056C252.816 304.104 251.52 304.128 250.104 304.128C249.888 304.128 249.816 304.008 249.768 303.744C249.696 303.36 249.6 302.472 249.528 301.752C251.352 301.848 253.224 301.824 255.048 301.728C255.312 301.08 255.528 300.504 255.768 299.664C255.864 299.256 255.936 298.848 255.936 298.2C256.992 298.368 258.048 298.632 258.672 298.872C258.864 298.944 258.96 299.112 258.96 299.28C258.96 299.4 258.912 299.544 258.792 299.64C258.648 299.76 258.504 299.976 258.384 300.216C258.24 300.552 258.12 300.864 257.832 301.512C259.296 301.344 260.76 301.104 262.2 300.768C262.464 300.72 262.536 300.792 262.584 301.008C262.704 301.488 262.8 302.04 262.824 302.736C262.848 302.976 262.752 303.072 262.416 303.12C260.616 303.384 258.552 303.648 256.8 303.84C256.248 304.728 255.72 305.616 255 306.504L255.024 306.552C255.792 306.048 256.776 305.808 257.424 305.808C259.008 305.808 260.112 306.528 260.352 308.4C261.288 307.968 262.656 307.344 263.88 306.72C264.336 306.48 265.104 306.048 265.704 305.424C266.496 306.264 267.12 307.104 267.384 307.536C267.528 307.752 267.576 307.92 267.576 308.064C267.576 308.256 267.456 308.352 267.216 308.4C266.712 308.472 266.232 308.592 265.752 308.76C264.192 309.312 262.632 309.84 260.592 310.68Z" fill="white"/>
<path d="M133.704 349.464V345.36C132.504 345.456 131.28 345.552 129.672 345.552C129.264 345.552 129.144 345.408 129.096 345.048C129.024 344.592 128.928 343.8 128.832 342.96C129.456 343.056 130.08 343.08 130.704 343.08C131.712 343.08 132.744 342.984 133.752 342.888C133.752 342.096 133.776 341.184 133.776 340.152C133.776 339.528 133.752 338.832 133.608 338.208C134.808 338.28 135.816 338.448 136.464 338.64C136.752 338.712 136.944 338.88 136.944 339.096C136.944 339.192 136.896 339.312 136.8 339.48C136.632 339.792 136.512 340.104 136.464 340.416C136.392 341.04 136.368 341.64 136.344 342.408C137.4 342.192 138.384 341.88 139.416 341.52C139.632 341.448 139.8 341.496 139.824 341.736C139.92 342.336 139.968 342.984 139.968 343.608C139.968 343.848 139.896 343.92 139.656 343.992C138.072 344.496 137.664 344.616 136.224 344.904C136.2 346.056 136.2 347.232 136.176 348.384C138.432 347.424 140.544 347.04 142.08 347.064C145.056 347.088 147.192 348.984 147.192 351.864C147.192 354.936 145.224 356.736 141.984 356.736C141.288 356.736 140.52 356.64 140.016 356.52C139.632 356.424 139.488 356.184 139.488 355.8C139.44 355.272 139.272 354.456 138.768 353.76C139.92 354.144 140.88 354.192 141.768 354.192C143.112 354.192 144.36 353.424 144.36 351.72C144.36 350.16 143.4 349.296 141.72 349.296C140.352 349.296 138.696 349.656 136.224 350.928C136.248 351.936 136.272 352.752 136.32 353.808C136.392 354.864 136.512 356.376 136.512 356.928C136.512 357.264 136.56 357.624 136.152 357.72C135.624 357.864 134.856 357.984 134.376 358.008C134.112 358.032 134.016 357.84 133.8 357.528C133.152 356.64 131.904 355.488 130.392 354.456C130.128 354.6 129.84 354.792 129.624 354.984C129.504 355.104 129.336 355.152 129.216 355.152C129.024 355.152 128.832 355.008 128.688 354.768C128.424 354.336 127.944 353.328 127.584 352.536C128.208 352.392 129 352.128 129.792 351.696C130.824 351.12 131.952 350.472 133.704 349.464ZM133.824 351.984C133.152 352.44 132.336 352.992 131.472 353.616C132.144 353.976 132.96 354.384 133.728 354.696C133.92 354.744 133.992 354.72 133.968 354.504C133.92 353.88 133.872 352.776 133.824 351.984ZM141.84 342.888C142.152 342.24 142.536 341.616 142.944 341.016C143.112 340.752 143.184 340.68 143.352 340.728C145.56 341.376 147.192 342.384 148.44 343.656C148.536 343.752 148.584 343.824 148.584 343.896C148.584 343.968 148.536 344.04 148.488 344.136C148.176 344.616 147.552 345.36 147.192 345.84C147.12 345.936 146.784 345.96 146.712 345.84C145.44 344.424 143.76 343.536 141.84 342.888ZM172.08 341.016V350.928C172.08 352.608 172.152 354.528 172.152 355.704C172.152 356.856 171.984 357.384 171.48 357.912C171.024 358.32 170.4 358.56 168.6 358.56C167.88 358.56 167.904 358.56 167.76 357.816C167.616 357.12 167.424 356.544 167.16 356.064C167.76 356.16 168.192 356.184 168.648 356.184C169.416 356.184 169.632 355.968 169.632 355.248V344.952H165.648C163.776 344.952 163.152 345 163.008 345C162.768 345 162.744 344.976 162.744 344.712C162.744 344.592 162.792 344.064 162.792 342.72V339.84C162.792 338.496 162.744 337.968 162.744 337.8C162.744 337.56 162.768 337.536 163.008 337.536C163.152 337.536 163.776 337.584 165.648 337.584H169.176C171.048 337.584 171.696 337.536 171.864 337.536C172.104 337.536 172.128 337.56 172.128 337.8C172.128 337.944 172.08 338.952 172.08 341.016ZM169.632 339.336H165.144V340.488H169.632V339.336ZM169.632 343.248V342.096H165.144V343.248H169.632ZM166.128 358.176H164.448C164.208 358.176 164.184 358.152 164.184 357.888C164.184 357.768 164.208 357.12 164.232 355.824C161.976 356.136 159.552 356.4 157.32 356.592C156.912 356.64 156.696 356.688 156.576 356.784C156.456 356.88 156.336 356.928 156.216 356.928C156.096 356.928 155.976 356.808 155.904 356.52C155.784 355.992 155.688 355.392 155.592 354.696C156.192 354.72 156.816 354.72 157.68 354.672V348.024C156.6 348.048 156.12 348.072 156.048 348.072C155.808 348.072 155.784 348.048 155.784 347.808V346.44C155.784 346.2 155.808 346.176 156.048 346.176C156.168 346.176 156.936 346.224 159.144 346.224H164.976C167.184 346.224 167.952 346.176 168.072 346.176C168.312 346.176 168.336 346.2 168.336 346.44V347.808C168.336 348.048 168.312 348.072 168.072 348.072C167.976 348.072 167.496 348.048 166.344 348.024V355.152C166.344 356.928 166.392 357.744 166.392 357.888C166.392 358.152 166.368 358.176 166.128 358.176ZM164.232 354.144V353.232H159.768V354.528C161.184 354.432 162.72 354.288 164.232 354.144ZM159.768 351.696H164.232V350.616H159.768V351.696ZM159.768 349.08H164.232V348.024H159.768V349.08ZM155.088 337.584H158.424C159.984 337.584 160.704 337.536 160.848 337.536C161.064 337.536 161.088 337.56 161.088 337.8C161.088 337.944 161.04 338.616 161.04 340.008V342.528C161.04 343.944 161.088 344.592 161.088 344.712C161.088 344.976 161.064 345 160.848 345C160.704 345 159.984 344.952 158.424 344.952H154.488V353.4C154.488 356.76 154.536 358.392 154.536 358.56C154.536 358.8 154.512 358.824 154.272 358.824H152.256C152.016 358.824 151.992 358.8 151.992 358.56C151.992 358.392 152.04 356.76 152.04 353.4V343.008C152.04 339.648 151.992 337.968 151.992 337.8C151.992 337.56 152.016 337.536 152.256 337.536C152.424 337.536 153.336 337.584 155.088 337.584ZM158.688 339.336H154.488V340.488H158.688V339.336ZM158.688 343.248V342.096H154.488V343.248H158.688ZM182.016 343.584C182.4 342.216 182.568 341.376 182.736 340.56C182.856 339.84 182.976 338.904 182.976 337.896C184.224 338.16 184.896 338.328 185.856 338.688C186.096 338.76 186.24 338.952 186.24 339.168C186.24 339.288 186.192 339.408 186.072 339.528C185.832 339.84 185.712 340.104 185.592 340.44C185.28 341.424 185.04 342.312 184.728 343.32C185.376 343.248 186.096 343.224 186.6 343.224C188.856 343.224 190.08 344.76 190.08 347.664C190.08 350.496 189.6 353.64 188.784 355.368C188.088 356.904 186.936 357.624 185.544 357.624C184.392 357.624 183.696 357.528 183.168 357.36C182.88 357.264 182.736 357.048 182.736 356.688C182.664 355.92 182.616 355.248 182.28 354.456C183.36 354.864 184.176 354.984 184.92 354.984C185.712 354.984 186.072 354.696 186.456 353.712C186.96 352.368 187.392 350.088 187.392 347.76C187.392 346.056 187.08 345.528 186.024 345.528C185.448 345.528 184.704 345.6 184.008 345.696C182.424 350.304 181.056 353.616 179.184 356.976C179.04 357.288 178.848 357.336 178.56 357.192C178.128 356.976 177.192 356.4 176.904 356.136C176.784 356.016 176.712 355.92 176.712 355.776C176.712 355.704 176.736 355.608 176.808 355.512C178.728 352.176 179.976 349.632 181.2 346.104C180.264 346.248 179.496 346.392 178.848 346.512C178.224 346.632 177.84 346.776 177.528 346.896C177.192 347.016 176.904 346.968 176.76 346.584C176.544 346.032 176.28 345.168 176.016 344.112C177.072 344.112 178.128 344.04 179.184 343.944C180.192 343.848 181.08 343.728 182.016 343.584ZM190.56 343.392C191.16 342.984 191.856 342.504 192.504 342.168C192.672 342.072 192.792 342.12 192.96 342.288C194.592 343.824 196.056 345.816 196.944 348.12C197.04 348.336 197.016 348.456 196.848 348.6C196.44 348.984 195.528 349.56 195.048 349.8C194.808 349.92 194.568 349.896 194.496 349.608C193.536 347.088 192.288 345.024 190.56 343.392ZM204.336 344.712V342.144C204.288 340.92 204.24 340.536 204 339.6C205.2 339.696 206.28 339.864 206.88 340.008C207.144 340.056 207.384 340.296 207.384 340.512C207.384 340.68 207.312 340.848 207.24 341.016C207.096 341.376 207.024 341.688 207 342.072C206.976 342.648 206.976 343.56 206.952 344.376C208.608 344.16 211.152 343.896 212.88 343.704C212.904 342.504 212.904 341.208 212.904 340.32C212.904 339.408 212.832 338.496 212.592 337.584C214.056 337.752 214.896 337.872 215.496 338.064C215.832 338.16 215.952 338.28 215.952 338.52C215.952 338.712 215.856 338.904 215.808 339C215.688 339.384 215.592 339.672 215.568 340.08C215.52 341.376 215.496 342.312 215.472 343.44C217.416 343.296 218.856 343.224 220.152 343.176C220.344 343.176 220.44 343.2 220.44 343.416C220.464 344.064 220.488 344.736 220.44 345.384C220.44 345.696 220.392 345.72 220.128 345.72C218.544 345.72 216.936 345.792 215.352 345.912C215.28 347.496 215.208 348.672 215.064 349.608C214.8 351.48 213.72 352.272 211.92 352.272C211.488 352.272 210.936 352.272 210.432 352.2C210.048 352.176 209.952 352.008 209.952 351.576C209.904 350.784 209.76 350.184 209.424 349.416C210.216 349.632 210.864 349.704 211.464 349.704C212.112 349.704 212.472 349.512 212.592 348.672C212.688 347.928 212.736 347.064 212.76 346.128C210.84 346.272 208.752 346.512 206.904 346.8C206.88 349.416 206.856 350.856 206.952 352.224C207.096 354.192 207.624 354.576 210.552 354.576C212.688 354.576 214.992 354.36 216.768 354.096C217.128 354.072 217.2 354.12 217.248 354.408C217.344 354.912 217.392 355.968 217.392 356.424C217.392 356.712 217.296 356.832 217.08 356.856C215.976 357.024 213 357.216 211.056 357.216C206.208 357.216 204.792 356.208 204.504 353.064C204.384 351.768 204.336 349.752 204.336 347.208C203.112 347.376 202.344 347.52 201.432 347.712C201.168 347.784 200.784 347.88 200.352 348.072C200.04 348.216 199.872 348.12 199.728 347.808C199.44 347.208 199.176 346.224 199.056 345.408C199.56 345.408 200.592 345.312 201.624 345.168C202.296 345.072 203.448 344.856 204.336 344.712ZM235.896 337.512C236.952 338.136 237.864 338.76 238.536 339.336C238.656 339.432 238.728 339.624 238.728 339.72C238.728 339.936 238.608 340.08 238.392 340.176C238.104 340.32 237.744 340.536 237.24 341.016C235.176 342.864 232.536 345.336 230.688 347.256C230.472 347.52 230.376 347.664 230.376 347.784C230.376 347.928 230.472 348.048 230.688 348.216C233.808 350.472 237.048 353.088 239.616 355.776C239.712 355.896 239.784 355.992 239.784 356.088C239.784 356.184 239.736 356.256 239.616 356.376C239.064 356.976 238.368 357.672 237.96 358.032C237.816 358.152 237.72 358.224 237.624 358.224C237.528 358.224 237.456 358.152 237.336 358.008C234.552 354.888 231.864 352.392 228.6 349.896C227.688 349.2 227.328 348.672 227.328 347.88C227.328 347.088 227.76 346.56 228.504 345.768C230.544 343.56 232.536 341.568 234.6 339.312C235.248 338.616 235.608 338.112 235.896 337.512ZM262.944 340.344L264.216 339.456C264.336 339.36 264.432 339.384 264.576 339.504C265.32 340.08 266.184 341.04 266.856 342.072C266.952 342.216 266.952 342.336 266.784 342.456L265.776 343.2C265.608 343.32 265.488 343.296 265.368 343.128C264.648 342.024 263.88 341.112 262.944 340.344ZM265.152 338.76L266.352 337.896C266.496 337.8 266.568 337.824 266.712 337.944C267.6 338.616 268.464 339.576 268.992 340.416C269.088 340.56 269.112 340.704 268.92 340.848L267.96 341.592C267.768 341.736 267.648 341.664 267.552 341.52C266.904 340.488 266.136 339.576 265.152 338.76ZM256.464 342C257.4 341.832 258.696 341.52 259.872 341.184C260.136 341.112 260.232 341.232 260.256 341.424C260.328 341.952 260.4 342.648 260.424 343.152C260.448 343.464 260.376 343.536 260.064 343.608C258.576 344.016 257.352 344.28 255.888 344.52C254.256 349.848 253.032 353.52 251.496 357.504C251.376 357.84 251.232 357.816 250.968 357.744C250.728 357.648 249.552 357.144 249.048 356.856C248.856 356.736 248.784 356.544 248.856 356.376C250.68 352.176 251.832 349.008 253.008 345C251.616 345.144 249.936 345.264 248.808 345.264C248.448 345.264 248.352 345.192 248.304 344.88C248.208 344.376 248.088 343.56 247.968 342.696C248.472 342.768 248.76 342.768 249.744 342.768C250.944 342.768 252.24 342.696 253.632 342.528C253.872 341.568 254.064 340.512 254.232 339.528C254.328 338.808 254.376 338.088 254.376 337.32C255.648 337.512 256.632 337.68 257.4 337.992C257.592 338.064 257.664 338.232 257.664 338.376C257.664 338.472 257.664 338.592 257.544 338.76C257.352 339.096 257.16 339.336 257.04 339.72C256.8 340.584 256.632 341.4 256.464 342ZM256.896 353.016C257.64 352.824 258.624 352.656 258.936 352.656C259.176 352.656 259.272 352.752 259.296 352.992C259.488 354.744 260.664 355.248 262.968 355.248C264.312 355.248 266.04 355.032 267 354.912C267.192 354.888 267.264 354.936 267.288 355.128C267.384 355.752 267.48 356.568 267.48 357.216C267.504 357.504 267.48 357.576 267.096 357.6C266.28 357.72 264.84 357.864 263.76 357.864C260.688 357.864 259.056 357.432 257.976 356.304C257.208 355.536 256.944 354.408 256.896 353.016ZM258.768 348.48C258.72 347.64 258.672 346.776 258.672 346.296C258.672 345.96 258.744 345.888 259.104 345.816C260.616 345.504 262.392 345.264 263.784 345.264C264.72 345.264 265.752 345.36 266.592 345.504C266.928 345.552 267 345.576 267 345.864C267.048 346.464 267.048 347.136 267.024 347.784C267.024 348.192 266.904 348.288 266.568 348.216C265.728 348.048 264.624 347.928 263.592 347.928C262.152 347.928 260.328 348.168 258.768 348.48ZM280.92 342.384C280.512 341.52 280.176 340.824 279.792 339.912C279.456 339.216 279.216 338.712 278.592 337.968C279.768 337.752 280.8 337.584 281.448 337.584C282.072 337.584 282.264 337.752 282.264 338.088C282.264 338.304 282.24 338.544 282.288 338.76C282.36 339.048 282.456 339.384 282.672 339.96C282.96 340.68 283.176 341.256 283.488 341.904C285.672 341.4 287.256 340.896 288.504 340.416C288.744 340.296 288.816 340.32 288.96 340.584C289.2 341.04 289.416 341.88 289.56 342.432C289.632 342.672 289.536 342.792 289.368 342.84C288.216 343.272 286.824 343.704 284.592 344.232C285.576 346.008 286.776 347.64 288.264 349.296C288.456 349.488 288.672 349.656 288.888 349.824C289.032 349.944 289.128 350.016 289.128 350.136C289.128 350.304 289.056 350.424 288.984 350.544C288.816 350.952 288.336 351.72 288.048 352.104C287.856 352.368 287.736 352.464 287.568 352.464C287.448 352.464 287.376 352.416 287.184 352.272C286.872 352.056 286.656 351.888 286.2 351.648C284.64 350.832 282.888 350.424 281.112 350.424C278.616 350.424 277.104 351.168 277.104 352.68C277.104 354.48 279.288 355.224 283.056 355.224C284.232 355.224 285.648 355.104 286.896 354.888C286.8 355.848 286.56 356.928 286.392 357.456C286.32 357.696 286.224 357.744 285.936 357.792C285.504 357.864 284.28 357.96 283.272 357.96C277.608 357.96 274.56 356.16 274.56 352.992C274.56 350.256 276.912 348.336 280.872 348.336C282.816 348.336 284.16 348.624 285.144 348.984C283.968 347.88 283.008 346.56 282.048 344.736C280.536 345 279.144 345.192 277.416 345.336C276.768 345.384 275.664 345.456 275.064 345.456C274.848 345.456 274.752 345.312 274.68 345.024C274.44 344.28 274.32 343.776 274.128 342.864C275.352 342.912 276.336 342.888 277.128 342.84C278.136 342.792 279.336 342.648 280.92 342.384ZM296.808 340.32C297.96 340.464 299.136 340.752 299.856 341.112C300.072 341.208 300.24 341.376 300.24 341.544C300.24 341.688 300.168 341.928 300.048 342.216C299.952 342.504 299.832 343.536 299.832 344.568C299.832 346.104 299.88 347.832 300.264 350.04C300.6 351.936 301.224 353.568 302.232 353.568C303 353.568 303.6 352.728 304.536 350.232C305.064 351.072 305.592 351.624 306.072 352.08C306.36 352.344 306.36 352.632 306.24 352.968C305.328 355.416 303.84 356.712 302.16 356.712C300.288 356.712 298.32 354.504 297.672 350.448C297.288 348.168 297.096 345.672 297.096 343.464C297.096 342.144 297.048 341.424 296.808 340.32ZM309.096 343.728C310.008 343.152 310.608 342.816 310.992 342.624C311.088 342.576 311.184 342.528 311.256 342.528C311.352 342.528 311.424 342.576 311.52 342.672C313.704 344.568 315.624 347.88 316.224 350.88C316.296 351.192 316.152 351.288 315.96 351.408C315.336 351.816 314.736 352.152 314.088 352.368C313.8 352.464 313.632 352.392 313.584 352.104C312.768 348.672 311.544 346.176 309.096 343.728Z" fill="white"/>
<path d="M77.056 161.504L72.832 171.488H77.376V180.128H68.352V171.488L73.024 161.504H77.056ZM89.664 161.504L85.44 171.488H89.984V180.128H80.96V171.488L85.632 161.504H89.664ZM146.153 173.28H148.393C152.617 173.28 153.897 173.152 154.281 173.152C154.921 173.152 155.049 173.28 155.049 173.92C154.985 176.096 154.921 177.952 154.921 180C154.857 190.88 154.601 201.632 153.513 209.12C152.745 213.856 151.465 216.16 146.537 216.16C145.449 216.16 144.489 216.16 143.465 216.032C142.249 215.904 142.249 215.904 142.057 213.856C141.865 212.256 141.417 210.912 140.841 209.568C142.569 209.888 144.041 210.016 145.193 210.016C147.305 210.016 147.561 209.312 148.073 205.984C149.033 199.84 149.289 190.88 149.289 178.976H146.025C145.705 185.632 145.065 191.776 144.041 197.024C142.633 203.744 140.457 209.376 136.169 215.392C135.721 215.968 135.465 216.224 135.209 216.224C134.889 216.224 134.569 215.904 133.993 215.328C132.649 213.92 131.753 213.216 130.472 212.512L131.881 210.72C131.561 210.848 131.113 210.912 130.409 211.04C126.377 211.744 119.977 212.704 114.537 213.344C113.385 213.472 112.489 213.664 112.105 213.92C111.913 214.048 111.593 214.24 111.208 214.24C110.953 214.24 110.697 213.856 110.569 213.152C110.249 211.808 109.993 210.208 109.673 207.968C111.529 208.032 113.193 207.968 115.369 207.84C116.905 207.776 118.633 207.648 120.425 207.456V204.064H118.441C113.769 204.064 112.297 204.192 111.913 204.192C111.273 204.192 111.208 204.128 111.208 203.488V199.776C111.208 199.136 111.273 199.072 111.913 199.072C112.297 199.072 113.769 199.2 118.441 199.2H120.425V196H118.889C114.089 196 112.489 196.128 112.105 196.128C111.401 196.128 111.337 196.064 111.337 195.424C111.337 194.976 111.465 193.568 111.465 190.24V183.712C111.465 180.256 111.337 178.848 111.337 178.4C111.337 177.824 111.401 177.76 112.105 177.76C112.489 177.76 114.089 177.888 118.889 177.888H120.425V174.816H118.057C113.065 174.816 111.401 174.944 111.017 174.944C110.377 174.944 110.312 174.88 110.312 174.24V170.464C110.312 169.824 110.377 169.76 111.017 169.76C111.401 169.76 113.065 169.888 118.057 169.888H120.425V167.008C118.889 167.2 117.353 167.392 115.753 167.52C114.089 167.648 114.089 167.584 113.577 166.304C113.001 165.024 112.425 164 111.785 163.168C111.593 163.552 111.465 164.064 111.208 164.832C110.057 168.288 108.905 171.488 107.497 174.56V206.688C107.497 212.896 107.625 216.032 107.625 216.352C107.625 216.992 107.561 217.056 106.921 217.056H102.121C101.481 217.056 101.417 216.992 101.417 216.352C101.417 215.968 101.545 212.896 101.545 206.688V192.288C101.545 190.112 101.609 187.488 101.673 184.928L99.1125 188.448C98.6645 189.024 98.2805 189.408 97.9605 189.408C97.7045 189.408 97.5125 189.024 97.3205 188.256C96.8085 185.632 96.4245 184.096 95.6565 182.432C100.713 176.032 103.209 170.016 105.449 162.848C105.897 161.376 106.217 159.968 106.409 158.304C108.393 158.88 110.377 159.392 112.169 160.16C112.809 160.416 113.193 160.672 113.193 161.12C113.193 161.568 112.937 161.888 112.425 162.336C112.297 162.464 112.105 162.592 111.977 162.848C118.441 162.464 123.817 161.696 128.617 160.608C129.641 160.352 130.472 160.032 131.369 159.52C132.713 160.864 133.737 161.952 134.633 163.168C134.889 163.552 135.017 163.872 135.017 164.256C135.017 164.768 134.697 164.96 134.185 164.96C133.609 164.96 132.969 165.024 132.265 165.152C130.089 165.6 127.913 165.984 125.609 166.304V169.888H127.401C132.393 169.888 134.057 169.76 134.441 169.76C135.017 169.76 135.081 169.824 135.081 170.464V174.24C135.081 174.88 135.017 174.944 134.441 174.944C134.057 174.944 132.393 174.816 127.401 174.816H125.609V177.888H127.208C132.009 177.888 133.609 177.76 133.993 177.76C134.697 177.76 134.761 177.824 134.761 178.4C134.761 178.784 134.633 180.256 134.633 183.712V190.24C134.633 193.568 134.761 195.04 134.761 195.424C134.761 196.064 134.697 196.128 133.993 196.128C133.609 196.128 132.009 196 127.208 196H125.609V199.2H126.441C131.113 199.2 132.585 199.072 132.969 199.072C133.673 199.072 133.737 199.136 133.737 199.776V203.488C133.737 204.128 133.673 204.192 132.969 204.192C132.585 204.192 131.113 204.064 126.441 204.064H125.609V206.88C127.913 206.56 130.472 206.176 133.097 205.728C132.905 206.56 132.713 207.52 132.585 208.608L132.393 209.888C135.465 205.472 137.385 200.608 138.537 195.232C139.433 191.072 140.009 185.376 140.265 178.976C137.705 179.04 136.809 179.104 136.489 179.104C135.849 179.104 135.785 179.04 135.785 178.4V173.856C135.785 173.216 135.849 173.152 136.489 173.152C136.809 173.152 137.769 173.28 140.393 173.28C140.457 171.68 140.457 170.016 140.457 168.352C140.457 164.384 140.329 161.76 140.009 159.264C141.929 159.328 144.425 159.52 145.961 159.712C146.601 159.84 146.985 160.096 146.985 160.416C146.985 160.928 146.665 161.44 146.537 162.08C146.345 162.784 146.217 164.64 146.217 168.608C146.217 170.208 146.217 171.744 146.153 173.28ZM129.769 192.032V188.704H125.609V192.032H129.769ZM116.329 192.032H120.425V188.704H116.329V192.032ZM129.769 181.792H125.609V184.992H129.769V181.792ZM116.329 184.992H120.425V181.792H116.329V184.992ZM185.257 169.504C184.745 168.032 184.361 166.944 183.721 165.344C183.145 163.936 182.569 162.656 181.481 161.248C184.041 160.8 186.665 160.544 189.225 160.544C190.121 160.544 190.632 161.056 190.632 161.696C190.632 162.08 190.505 162.528 190.505 162.912C190.505 163.488 190.632 164.128 190.761 164.832C191.208 166.496 191.401 167.072 191.785 168.16C196.777 167.2 200.297 166.24 204.841 164.768C205.417 164.512 205.737 164.576 205.929 165.088C206.313 166.304 206.761 168.096 207.017 169.376C207.145 170.016 206.697 170.4 206.249 170.528C201.961 171.872 198.057 172.832 193.705 173.792C194.281 175.392 195.113 177.376 195.944 179.168C201.129 178.08 204.521 176.992 207.593 175.84C208.233 175.52 208.553 175.648 208.745 176.224C209.321 177.696 209.577 178.912 209.897 180.448C210.025 181.024 210.025 181.344 209.385 181.6C206.185 182.816 202.153 183.968 198.569 184.736C201.321 189.344 203.817 192.928 206.953 195.808C207.593 196.384 207.593 196.64 207.273 197.344C206.569 198.816 205.673 200.096 204.649 201.312C204.265 201.76 204.009 201.952 203.625 201.952C203.369 201.952 203.113 201.824 202.729 201.568C201.705 200.736 200.425 200.16 198.953 199.52C195.689 198.112 191.465 197.472 186.921 197.472C180.905 197.472 177.385 199.328 177.385 202.336C177.385 206.496 182.825 207.84 192.617 207.84C194.985 207.84 197.353 207.584 199.657 207.456C200.297 207.456 200.489 207.776 200.425 208.288C200.169 209.888 199.721 212.384 199.145 214.112C198.953 214.752 198.697 215.008 197.801 215.072C196.329 215.2 194.793 215.264 193.193 215.264C178.473 215.264 170.665 211.104 170.665 203.232C170.665 196.384 176.553 192.096 186.537 192.096C191.208 192.096 194.985 192.608 197.545 193.696C196.073 191.968 193.961 188.896 192.233 186.144C185.641 187.168 179.369 187.936 174.697 188.064C173.993 188.064 173.737 187.808 173.545 187.168C173.161 185.888 172.585 183.712 172.393 181.92C178.793 181.792 183.913 181.28 189.609 180.32C188.969 178.976 188.009 176.8 187.177 175.008C181.289 175.904 176.553 176.48 171.625 176.544C170.857 176.544 170.473 176.288 170.345 175.648C170.153 174.944 169.705 172.576 169.321 170.528C175.593 170.592 180.713 170.08 185.257 169.504ZM250.409 172C252.905 171.552 256.361 170.72 259.497 169.824C260.201 169.632 260.457 169.952 260.521 170.464C260.713 171.872 260.905 173.728 260.969 175.072C261.033 175.904 260.841 176.096 260.009 176.288C256.041 177.376 252.777 178.08 248.873 178.72C244.521 192.928 241.257 202.72 237.161 213.344C236.841 214.24 236.457 214.176 235.753 213.984C235.113 213.728 231.977 212.384 230.633 211.616C230.121 211.296 229.929 210.784 230.121 210.336C234.985 199.136 238.057 190.688 241.193 180C237.481 180.384 233.001 180.704 229.993 180.704C229.033 180.704 228.777 180.512 228.649 179.68C228.393 178.336 228.073 176.16 227.753 173.856C229.097 174.048 229.865 174.048 232.489 174.048C235.689 174.048 239.145 173.856 242.857 173.408C243.497 170.848 244.009 168.032 244.457 165.408C244.713 163.488 244.841 161.568 244.841 159.52C248.233 160.032 250.857 160.48 252.905 161.312C253.417 161.504 253.609 161.952 253.609 162.336C253.609 162.592 253.609 162.912 253.289 163.36C252.777 164.256 252.265 164.896 251.945 165.92C251.305 168.224 250.857 170.4 250.409 172ZM251.561 201.376C253.545 200.864 256.169 200.416 257.001 200.416C257.641 200.416 257.897 200.672 257.961 201.312C258.472 205.984 261.609 207.328 267.753 207.328C271.337 207.328 275.945 206.752 278.505 206.432C279.017 206.368 279.209 206.496 279.273 207.008C279.529 208.672 279.785 210.848 279.785 212.576C279.849 213.344 279.785 213.536 278.761 213.6C276.585 213.92 272.425 214.304 270.057 214.304C261.673 214.304 257.321 213.152 254.441 210.144C252.393 208.096 251.689 205.088 251.561 201.376ZM256.553 189.28C256.425 187.04 256.297 184.736 256.297 183.456C256.297 182.56 256.489 182.368 257.449 182.176C261.481 181.344 266.217 180.704 269.929 180.704C272.425 180.704 275.177 180.96 277.417 181.344C278.313 181.472 278.505 181.536 278.505 182.304C278.633 183.904 278.633 185.696 278.569 187.424C278.569 188.512 278.249 188.768 277.353 188.576C275.113 188.128 272.169 187.808 269.417 187.808C265.577 187.808 260.713 188.448 256.553 189.28ZM293.801 167.52C296.873 167.904 300.009 168.672 301.929 169.632C302.505 169.888 302.953 170.336 302.953 170.784C302.953 171.168 302.76 171.808 302.441 172.576C302.185 173.344 301.865 176.096 301.865 178.848C301.865 182.944 301.993 187.552 303.017 193.44C303.913 198.496 305.577 202.848 308.265 202.848C310.313 202.848 311.913 200.608 314.409 193.952C315.817 196.192 317.225 197.664 318.505 198.88C319.273 199.584 319.273 200.352 318.953 201.248C316.521 207.776 312.553 211.232 308.073 211.232C303.081 211.232 297.833 205.344 296.105 194.528C295.081 188.448 294.569 181.792 294.569 175.904C294.569 172.384 294.441 170.464 293.801 167.52ZM326.569 176.608C329.001 175.072 330.601 174.176 331.625 173.664C331.881 173.536 332.137 173.408 332.329 173.408C332.585 173.408 332.777 173.536 333.033 173.792C338.857 178.848 343.977 187.68 345.577 195.68C345.769 196.512 345.385 196.768 344.873 197.088C343.209 198.176 341.609 199.072 339.881 199.648C339.113 199.904 338.665 199.712 338.537 198.944C336.361 189.792 333.097 183.136 326.569 176.608ZM363.689 162.464V171.104L359.017 181.088H354.985L359.209 171.104H354.665V162.464H363.689ZM376.297 162.464V171.104L371.625 181.088H367.593L371.817 171.104H367.273V162.464H376.297Z" fill="white"/>
</svg>
