<svg width="448" height="448" viewBox="0 0 448 448" fill="none" xmlns="http://www.w3.org/2000/svg">
<circle cx="224" cy="224" r="224" fill="#74A45E"/>
<path d="M184.496 88.488C185.888 88.656 186.704 88.824 187.304 89.04C187.592 89.136 187.736 89.28 187.736 89.472C187.736 89.64 187.712 89.736 187.616 89.856C187.4 90.12 187.328 90.456 187.28 90.72C187.208 91.152 187.16 91.512 187.088 91.92C189.296 91.704 191 91.44 193.328 90.912C193.616 90.84 193.688 90.936 193.736 91.152C193.856 91.656 193.976 92.256 193.976 92.784C193.976 93.096 193.736 93.216 193.472 93.264C190.304 93.912 188.84 94.08 186.656 94.272C186.56 95.28 186.512 95.856 186.488 96.696C187.424 96.384 188.984 96.192 190.16 96.168C190.304 95.784 190.544 95.088 190.568 94.416C191.432 94.68 192.368 95.064 192.704 95.304C192.992 95.496 193.136 95.688 193.136 95.832C193.136 95.928 193.088 96.024 192.992 96.12C192.872 96.24 192.8 96.384 192.68 96.6C195.776 97.416 197.6 99.456 197.6 102.456C197.6 105.936 194.744 108.192 190.928 109.224C190.4 109.368 190.136 109.296 189.872 108.768C189.704 108.432 189.224 107.928 188.456 107.28C190.184 106.92 192.032 106.152 192.92 105.528C194.072 104.688 194.84 103.656 194.84 101.928C194.84 100.008 193.472 98.856 191.864 98.448C190.472 101.088 189.056 102.984 187.328 104.736C187.448 105.168 187.592 105.432 187.76 105.816C187.904 106.128 187.808 106.248 187.568 106.416C187.016 106.824 186.464 107.112 186.128 107.256C185.888 107.376 185.792 107.376 185.648 107.136C185.48 106.848 185.36 106.56 185.24 106.2C183.536 107.376 182.288 107.928 181.064 107.928C179.432 107.928 178.4 106.824 178.4 104.952C178.4 101.88 181.064 98.952 184.016 97.488C184.04 96.456 184.088 95.4 184.136 94.488C182.72 94.536 182.072 94.512 181.664 94.512C180.968 94.512 180.584 94.512 180.296 94.464C180.032 94.44 179.888 94.32 179.864 93.912C179.792 93.384 179.792 92.76 179.744 92.088C181.28 92.256 182.6 92.208 184.4 92.184C184.496 91.32 184.592 90.24 184.592 89.568C184.592 89.208 184.568 88.872 184.496 88.488ZM186.656 102.36C187.64 101.232 188.768 99.552 189.44 98.208C188.576 98.232 187.472 98.4 186.368 98.76C186.392 100.008 186.464 101.136 186.656 102.36ZM184.016 99.84C182.168 101.16 180.92 102.888 180.92 104.448C180.92 105.024 181.28 105.36 181.712 105.36C182.384 105.36 183.272 104.928 184.496 103.968C184.256 102.528 184.064 101.232 184.016 99.84ZM214.064 102.648C213.92 101.112 213.872 99.648 213.848 98.52C213.824 97.872 213.8 97.488 213.656 96.816C214.832 96.936 215.456 97.032 216.272 97.272C216.488 97.32 216.608 97.44 216.608 97.656C216.608 97.704 216.56 97.872 216.464 98.16C216.368 98.448 216.344 98.736 216.368 99.144C216.368 100.56 216.44 101.592 216.632 103.224C218.36 103.92 219.536 104.448 220.952 105.456C221.192 105.624 221.216 105.72 221.096 105.96C220.736 106.704 220.4 107.304 219.992 107.904C219.92 108.024 219.848 108.072 219.776 108.072C219.704 108.072 219.632 108.024 219.536 107.928C218.48 107.016 217.592 106.488 216.608 105.912C216.608 108.312 214.88 109.416 212.144 109.416C209.504 109.416 207.728 108.072 207.728 106.008C207.728 103.92 209.456 102.504 212.168 102.504C212.624 102.504 213.296 102.528 214.064 102.648ZM214.112 104.928C213.536 104.736 212.888 104.568 212.144 104.568C210.944 104.568 210.008 105.048 210.008 105.96C210.008 106.728 210.68 107.112 212.048 107.112C213.344 107.112 214.136 106.416 214.136 105.408C214.136 105.192 214.136 105.072 214.112 104.928ZM210.2 92.616C211.136 92.52 212.24 92.304 213.176 92.088C213.392 92.016 213.488 92.016 213.536 92.28C213.656 92.88 213.728 93.6 213.752 94.224C213.752 94.44 213.656 94.488 213.464 94.512C212.168 94.776 210.992 94.944 209.504 95.16C207.968 99.216 206.552 102.528 204.824 105.456C204.728 105.624 204.656 105.696 204.56 105.696C204.488 105.696 204.392 105.648 204.272 105.576C203.72 105.24 203.024 104.736 202.616 104.352C202.496 104.256 202.448 104.184 202.448 104.088C202.448 104.016 202.472 103.92 202.568 103.8C204.368 100.824 205.64 98.304 206.72 95.424C205.808 95.472 205.064 95.472 204.32 95.472C203.792 95.472 203.6 95.472 203 95.448C202.76 95.448 202.712 95.376 202.664 95.064C202.544 94.608 202.472 93.816 202.424 93.024C203.408 93.096 203.96 93.12 204.656 93.12C205.592 93.12 206.312 93.096 207.416 93C207.704 91.992 207.872 91.176 208.04 90.312C208.184 89.472 208.184 89.112 208.184 88.368C209.216 88.512 210.248 88.656 210.992 88.872C211.232 88.92 211.376 89.064 211.376 89.232C211.376 89.424 211.304 89.544 211.16 89.688C211.016 89.88 210.92 90.096 210.776 90.576C210.608 91.152 210.416 91.896 210.2 92.616ZM215.528 94.896C215.936 94.176 216.296 93.456 216.608 93.024C216.752 92.784 216.872 92.76 217.112 92.856C218.528 93.24 220.424 94.2 221.816 95.112C221.96 95.208 222.032 95.28 222.032 95.376C222.032 95.448 222.008 95.544 221.936 95.664C221.696 96.192 221.264 96.936 220.928 97.44C220.856 97.56 220.784 97.608 220.712 97.608C220.64 97.608 220.592 97.584 220.496 97.512C219.08 96.552 217.352 95.496 215.528 94.896ZM234.536 93C235.472 92.832 236.768 92.52 237.944 92.184C238.208 92.112 238.304 92.232 238.328 92.424C238.4 92.952 238.472 93.648 238.496 94.152C238.52 94.464 238.448 94.536 238.136 94.608C236.648 95.016 235.424 95.28 233.96 95.52C232.328 100.848 231.104 104.52 229.568 108.504C229.448 108.84 229.304 108.816 229.04 108.744C228.8 108.648 227.624 108.144 227.12 107.856C226.928 107.736 226.856 107.544 226.928 107.376C228.752 103.176 229.904 100.008 231.08 96C229.688 96.144 228.008 96.264 226.88 96.264C226.52 96.264 226.424 96.192 226.376 95.88C226.28 95.376 226.16 94.56 226.04 93.696C226.544 93.768 226.832 93.768 227.816 93.768C229.016 93.768 230.312 93.696 231.704 93.528C231.944 92.568 232.136 91.512 232.304 90.528C232.4 89.808 232.448 89.088 232.448 88.32C233.72 88.512 234.704 88.68 235.472 88.992C235.664 89.064 235.736 89.232 235.736 89.376C235.736 89.472 235.736 89.592 235.616 89.76C235.424 90.096 235.232 90.336 235.112 90.72C234.872 91.584 234.704 92.4 234.536 93ZM234.968 104.016C235.712 103.824 236.696 103.656 237.008 103.656C237.248 103.656 237.344 103.752 237.368 103.992C237.56 105.744 238.736 106.248 241.04 106.248C242.384 106.248 244.112 106.032 245.072 105.912C245.264 105.888 245.336 105.936 245.36 106.128C245.456 106.752 245.552 107.568 245.552 108.216C245.576 108.504 245.552 108.576 245.168 108.6C244.352 108.72 242.792 108.864 241.904 108.864C238.76 108.864 237.128 108.432 236.048 107.304C235.28 106.536 235.016 105.408 234.968 104.016ZM236.84 99.48C236.792 98.64 236.744 97.776 236.744 97.296C236.744 96.96 236.816 96.888 237.176 96.816C238.688 96.504 240.464 96.264 241.856 96.264C242.792 96.264 243.824 96.36 244.664 96.504C245 96.552 245.072 96.576 245.072 96.864C245.12 97.464 245.12 98.136 245.096 98.784C245.096 99.192 244.976 99.288 244.64 99.216C243.8 99.048 242.696 98.928 241.664 98.928C240.224 98.928 238.4 99.168 236.84 99.48ZM261.632 93.288H261.536C260.984 97.368 259.976 101.112 258.536 103.632C257.504 105.432 256.256 106.392 254.456 106.392C252.344 106.392 250.208 104.136 250.208 100.224C250.208 97.92 251.192 95.712 252.92 93.984C254.936 91.968 257.48 90.912 260.72 90.912C266.48 90.912 269.864 94.464 269.864 99.24C269.864 103.704 267.344 106.512 262.472 107.976C261.968 108.12 261.752 108.024 261.44 107.544C261.176 107.136 260.672 106.584 259.76 106.032C263.816 105.072 267.008 103.392 267.008 98.856C267.008 96 264.848 93.288 261.632 93.288ZM258.752 93.432C257.072 93.768 255.728 94.44 254.648 95.616C253.496 96.912 252.776 98.52 252.776 100.056C252.776 102.264 253.664 103.488 254.408 103.488C255.032 103.488 255.56 103.176 256.208 102.024C257.264 100.08 258.344 96.624 258.752 93.432Z" fill="white"/>
<path d="M147.592 267.68V271.544C147.592 271.808 147.448 271.928 147.136 271.976C146.824 272.024 146.104 272.096 145.432 272.096C145.216 272.096 145.12 271.952 145.12 271.712C145.12 270.848 145.12 269.648 145.144 268.784C143.008 269.888 142.24 270.824 142.24 271.976C142.24 272.984 143.056 273.632 145.576 273.632C147.784 273.632 149.704 273.416 151.552 273.152C151.768 273.128 151.864 273.2 151.888 273.416C152.008 273.968 152.104 274.808 152.104 275.384C152.128 275.672 152.032 275.84 151.84 275.84C149.776 276.104 148.216 276.152 145.888 276.152C141.952 276.152 139.864 274.976 139.864 272.192C139.864 269.888 141.304 268.208 144.928 266.336C144.856 265.112 144.568 264.632 143.488 264.68C142.36 264.728 141.28 265.448 140.176 266.408C139.144 267.416 138.544 268.112 137.776 269.024C137.656 269.168 137.584 269.24 137.488 269.24C137.416 269.24 137.32 269.168 137.224 269.072C136.888 268.736 136.168 267.992 135.856 267.488C135.784 267.392 135.76 267.32 135.76 267.272C135.76 267.176 135.808 267.104 135.928 267.008C137.776 265.352 139.552 263.456 140.944 261.056C139.816 261.104 138.52 261.128 137.104 261.128C136.888 261.128 136.816 261.008 136.768 260.744C136.696 260.36 136.6 259.472 136.528 258.752C138.352 258.848 140.224 258.824 142.048 258.728C142.312 258.08 142.528 257.504 142.768 256.664C142.864 256.256 142.936 255.848 142.936 255.2C143.992 255.368 145.048 255.632 145.672 255.872C145.864 255.944 145.96 256.112 145.96 256.28C145.96 256.4 145.912 256.544 145.792 256.64C145.648 256.76 145.504 256.976 145.384 257.216C145.24 257.552 145.12 257.864 144.832 258.512C146.296 258.344 147.76 258.104 149.2 257.768C149.464 257.72 149.536 257.792 149.584 258.008C149.704 258.488 149.8 259.04 149.824 259.736C149.848 259.976 149.752 260.072 149.416 260.12C147.616 260.384 145.552 260.648 143.8 260.84C143.248 261.728 142.72 262.616 142 263.504L142.024 263.552C142.792 263.048 143.776 262.808 144.424 262.808C146.008 262.808 147.112 263.528 147.352 265.4C148.288 264.968 149.656 264.344 150.88 263.72C151.336 263.48 152.104 263.048 152.704 262.424C153.496 263.264 154.12 264.104 154.384 264.536C154.528 264.752 154.576 264.92 154.576 265.064C154.576 265.256 154.456 265.352 154.216 265.4C153.712 265.472 153.232 265.592 152.752 265.76C151.192 266.312 149.632 266.84 147.592 267.68ZM174.424 261.44H175.264C176.44 261.44 177.784 261.416 178.888 261.368C179.176 261.344 179.2 261.488 179.224 261.752C179.272 262.352 179.272 263.048 179.224 263.648C179.2 263.96 179.152 264.056 178.816 264.032C178 264.032 176.536 264.008 175.36 264.008H174.376C174.232 267.44 173.704 269.456 172.528 271.4C171.328 273.392 169.384 274.832 166.864 275.864C166.528 276.008 166.336 276.08 166.192 276.08C166.048 276.08 165.928 276.008 165.736 275.816C165.016 275.072 164.56 274.736 163.744 274.376C167.152 273.32 169 272.096 170.224 270.128C171.16 268.592 171.544 266.936 171.64 264.008H166.528V264.872C166.528 266.288 166.528 267.584 166.6 268.856C166.624 269.12 166.456 269.168 166.192 269.192C165.568 269.24 164.776 269.24 164.128 269.192C163.816 269.168 163.672 269.12 163.696 268.856C163.768 267.608 163.816 266.432 163.816 264.92V264.008H163.096C161.8 264.008 159.88 264.08 159.136 264.128C158.944 264.128 158.872 263.984 158.848 263.672C158.752 263.168 158.728 262.328 158.68 261.344C159.688 261.416 161.248 261.464 163.096 261.464H163.816V259.712C163.816 258.176 163.768 257.576 163.528 256.184C164.776 256.304 165.952 256.424 166.456 256.568C166.72 256.616 166.816 256.736 166.816 256.904C166.816 257.048 166.744 257.216 166.672 257.408C166.504 257.84 166.504 258.08 166.504 259.712V261.464H171.664L171.688 259.112C171.712 257.768 171.64 256.664 171.472 255.824C172.384 255.92 173.704 256.064 174.28 256.232C174.616 256.304 174.712 256.424 174.712 256.616C174.712 256.712 174.688 256.856 174.616 257.048C174.448 257.504 174.424 258.128 174.424 259.16V261.44ZM191.656 261.104V259.976C191.656 258.464 191.608 257.36 191.392 256.28C192.52 256.376 193.768 256.52 194.368 256.64C194.848 256.736 194.896 256.976 194.656 257.432C194.44 257.84 194.416 258.392 194.416 259.832V261.104H197.368C199.456 261.104 201.088 261.008 202.264 260.96C202.48 260.936 202.576 261.08 202.576 261.344C202.6 261.968 202.6 262.592 202.552 263.216C202.528 263.528 202.456 263.696 202.216 263.672C200.728 263.624 198.904 263.552 197.272 263.552H194.44L194.464 268.4C194.464 269.672 194.512 270.704 194.512 272.576C194.512 273.752 194.08 274.544 193.096 275.048C192.328 275.48 191.032 275.816 190.024 275.84C189.736 275.84 189.592 275.696 189.448 275.336C189.088 274.496 188.584 273.8 187.84 273.176C189.472 273.176 190.528 273.08 191.104 272.888C191.488 272.72 191.656 272.456 191.656 271.832V263.552H187.888C186.52 263.552 184.864 263.624 183.736 263.72C183.52 263.72 183.424 263.528 183.424 263.24C183.4 262.808 183.328 261.728 183.328 260.936C185.152 261.08 186.616 261.104 187.84 261.104H191.656ZM185.968 265.472C186.952 265.784 187.864 266.192 188.464 266.576C188.848 266.84 188.992 267.08 188.56 267.416C188.32 267.608 188.152 267.848 187.96 268.232C187.336 269.504 186.28 271.184 185.296 272.24C185.008 272.552 184.816 272.624 184.456 272.384C183.76 271.928 183.088 271.544 182.416 271.376C183.808 269.936 184.672 268.688 185.32 267.416C185.68 266.768 185.848 266.24 185.968 265.472ZM196.888 267.008C197.536 266.528 198.16 266.12 198.712 265.712C199 265.496 199.192 265.568 199.384 265.808C200.56 266.816 201.712 268.376 202.816 270.2C203.032 270.56 202.96 270.728 202.696 270.944C202.312 271.304 201.64 271.784 201.088 272.144C200.824 272.312 200.704 272.36 200.536 272.048C199.672 270.44 198.352 268.496 196.888 267.008ZM200.872 254.624C202.312 254.624 203.464 255.752 203.464 257.192C203.464 258.632 202.312 259.76 200.872 259.76C199.432 259.76 198.28 258.632 198.28 257.192C198.28 255.704 199.432 254.624 200.872 254.624ZM200.872 255.776C200.056 255.776 199.456 256.376 199.456 257.192C199.456 258.008 200.056 258.608 200.872 258.608C201.688 258.608 202.288 258.008 202.288 257.192C202.288 256.376 201.688 255.776 200.872 255.776ZM220.6 267.584H211.96C209.584 267.584 208.672 267.872 208.432 267.872C208.144 267.872 207.952 267.728 207.88 267.368C207.76 266.816 207.616 265.688 207.52 264.464C209.08 264.704 210.28 264.752 212.704 264.752H220.432C222.256 264.752 224.104 264.704 225.952 264.68C226.312 264.656 226.384 264.728 226.384 265.016C226.432 265.736 226.432 266.552 226.384 267.272C226.384 267.56 226.288 267.656 225.952 267.632C224.152 267.608 222.376 267.584 220.6 267.584ZM240.208 259.232V262.664C243.136 263.576 245.464 264.512 247.84 265.928C248.104 266.072 248.224 266.24 248.104 266.552C247.792 267.344 247.408 268.088 247.072 268.64C246.976 268.808 246.88 268.904 246.76 268.904C246.688 268.904 246.592 268.88 246.496 268.784C244.288 267.368 242.128 266.312 240.184 265.712V271.016C240.184 272.576 240.232 273.992 240.28 275.72C240.304 276.008 240.184 276.08 239.848 276.08C239.152 276.128 238.408 276.128 237.712 276.08C237.376 276.08 237.256 276.008 237.256 275.72C237.328 273.944 237.352 272.528 237.352 270.992V259.184C237.352 257.384 237.28 256.592 237.112 255.632C238.216 255.704 239.416 255.824 240.112 256.016C240.448 256.088 240.568 256.232 240.568 256.424C240.568 256.568 240.496 256.76 240.376 256.976C240.208 257.288 240.208 257.888 240.208 259.232ZM259.408 256.064C260.512 256.184 261.664 256.304 262.408 256.496C262.816 256.592 262.984 256.712 262.984 256.952C262.984 257.216 262.84 257.504 262.744 257.744C262.624 258.08 262.528 258.824 262.408 260.672C262.168 264.368 262.048 266.816 262.048 269.96C262.048 272.384 262.336 272.936 264.256 272.936C266.392 272.936 269.728 271.64 272.656 268.52C272.752 269.432 272.968 270.224 273.208 270.8C273.328 271.064 273.4 271.232 273.4 271.376C273.4 271.592 273.304 271.784 272.92 272.12C270.328 274.496 266.944 275.72 263.824 275.72C260.752 275.72 259.312 274.496 259.312 270.824C259.312 266.792 259.528 263.336 259.648 260.456C259.696 259.04 259.768 257.504 259.408 256.064ZM288.016 269.72C287.968 268.664 287.92 267.68 287.896 266.864C286.24 266.912 284.608 266.912 282.952 266.768C282.688 266.768 282.592 266.672 282.568 266.36C282.472 265.832 282.424 264.872 282.424 264.32C284.2 264.536 286.024 264.584 287.824 264.512C287.8 263.6 287.8 262.664 287.776 261.752C285.472 261.824 283.744 261.824 282.04 261.632C281.776 261.632 281.656 261.536 281.632 261.296C281.56 260.696 281.512 260.12 281.464 259.136C283.552 259.376 285.64 259.376 287.752 259.376C287.752 258.488 287.728 257.864 287.704 257.048C287.656 256.496 287.608 256.064 287.416 255.44C288.688 255.512 289.72 255.656 290.44 255.872C290.728 255.968 290.872 256.304 290.704 256.592C290.536 256.928 290.368 257.336 290.344 257.744C290.32 258.224 290.32 258.56 290.296 259.28C292.528 259.112 294.136 258.848 295.552 258.56C295.84 258.488 295.936 258.56 295.96 258.848C296.056 259.52 296.08 260.168 296.08 260.6C296.08 260.912 296.008 260.96 295.816 260.984C294.112 261.272 292.576 261.464 290.272 261.608C290.272 262.568 290.296 263.456 290.296 264.32C292.12 264.2 293.272 263.96 295 263.696C295.288 263.624 295.36 263.672 295.384 263.888C295.408 264.344 295.456 265.136 295.456 265.856C295.456 266.096 295.36 266.168 295.096 266.192C293.512 266.456 292.408 266.624 290.392 266.768C290.44 267.872 290.488 269.048 290.56 270.152C292.864 270.8 294.832 271.664 296.92 273.056C297.16 273.272 297.16 273.344 297.088 273.632C296.92 274.088 296.416 274.976 296.032 275.408C295.936 275.552 295.84 275.6 295.72 275.6C295.648 275.6 295.552 275.576 295.456 275.48C293.992 274.328 292.504 273.488 290.68 272.744C290.656 275.336 289.096 276.392 285.808 276.392C282.688 276.392 280.912 275.024 280.912 273.032C280.912 271.088 282.808 269.624 285.712 269.624C286.312 269.624 286.888 269.624 288.016 269.72ZM288.064 272C287.368 271.832 286.504 271.712 285.832 271.712C284.08 271.712 283.24 272.216 283.24 272.984C283.24 273.608 283.96 274.064 285.616 274.064C286.576 274.064 287.464 273.776 287.8 273.344C287.992 273.08 288.064 272.672 288.064 272ZM312.928 259.28C312.904 258.536 312.904 257.936 312.88 257.288C312.832 256.592 312.784 256.256 312.592 255.536C313.672 255.608 314.824 255.752 315.4 255.872C315.808 255.944 316.072 256.112 316.072 256.328C316.072 256.52 316 256.64 315.856 256.88C315.784 257.024 315.712 257.264 315.664 257.576C315.64 257.888 315.64 258.2 315.616 259.112C318.208 259.016 320.68 258.992 322.984 258.992C323.272 258.992 323.32 259.04 323.344 259.352C323.368 259.952 323.368 260.576 323.344 261.176C323.344 261.44 323.224 261.512 322.936 261.488C320.44 261.416 318.112 261.416 315.616 261.44C315.616 262.904 315.616 264.44 315.64 265.904C315.88 266.552 316 267.488 316 268.28C316 271.064 314.872 273.968 311.728 276.032C311.32 276.296 311.008 276.488 310.792 276.488C310.576 276.488 310.312 276.32 310.072 276.128C309.52 275.672 308.872 275.36 308.248 275.168C311.056 273.92 312.736 271.904 313.168 269.888C312.688 270.584 311.704 270.848 310.912 270.848C309.016 270.848 307.576 269.48 307.576 267.176C307.576 264.944 309.256 263.576 311.2 263.576C311.92 263.576 312.64 263.72 313.024 264.056C313.024 263.216 313 262.4 313 261.608C309.976 261.776 306.592 262.064 304.696 262.328C304.168 262.4 303.784 262.616 303.568 262.616C303.328 262.616 303.232 262.52 303.16 262.28C302.968 261.8 302.752 260.84 302.56 259.856C303.448 259.952 304.216 259.856 305.488 259.76C306.952 259.64 310.048 259.448 312.928 259.28ZM311.392 265.448C310.648 265.448 309.808 265.952 309.808 267.008C309.808 268.064 310.48 268.64 311.344 268.64C312.232 268.64 312.976 268.088 312.976 266.984C312.976 266 312.352 265.448 311.392 265.448Z" fill="white"/>
<path d="M187.016 306.248C187.64 306.56 188.24 306.872 188.864 307.208C189.08 307.328 189.104 307.448 188.984 307.64C188.624 308.192 188.36 308.984 188.36 309.464C188.36 310.976 189.92 311.72 194.048 311.72C196.376 311.72 198.584 311.456 200.552 311.024C200.888 310.952 201.008 311.024 201.056 311.24C201.176 311.696 201.392 312.992 201.44 313.592C201.464 313.808 201.32 313.904 201.032 313.952C198.8 314.36 196.592 314.528 194 314.528C188.456 314.528 185.744 312.8 185.744 309.68C185.744 308.696 186.104 307.664 187.016 306.248ZM187.544 297.176C189.368 297.608 191.672 297.8 194.288 297.8C196.04 297.8 197.744 297.704 199.28 297.584C199.52 297.56 199.616 297.656 199.64 297.848C199.736 298.4 199.832 299.072 199.856 299.888C199.856 300.224 199.736 300.368 199.448 300.392C197.168 300.728 195.512 301.52 193.568 302.768C193.376 302.912 193.16 302.984 192.968 302.984C192.8 302.984 192.632 302.936 192.464 302.84C191.984 302.528 191.48 302.264 190.784 302.072C192.032 301.256 193.088 300.584 193.928 300.08C193.4 300.152 192.656 300.152 192.176 300.152C191.192 300.152 189.128 300.008 187.76 299.744C187.544 299.696 187.448 299.6 187.448 299.312C187.448 298.736 187.496 298.04 187.544 297.176ZM199.544 296.024L200.816 295.136C200.936 295.04 201.032 295.064 201.176 295.184C201.92 295.76 202.784 296.72 203.456 297.752C203.552 297.896 203.552 298.016 203.384 298.136L202.376 298.88C202.208 299 202.088 298.976 201.968 298.808C201.248 297.704 200.48 296.792 199.544 296.024ZM201.752 294.44L202.952 293.576C203.096 293.48 203.168 293.504 203.312 293.624C204.2 294.296 205.064 295.256 205.592 296.096C205.688 296.24 205.712 296.384 205.52 296.528L204.56 297.272C204.368 297.416 204.248 297.344 204.152 297.2C203.504 296.168 202.736 295.256 201.752 294.44ZM213.44 304.016H210.44C208.328 304.016 207.608 304.064 207.464 304.064C207.2 304.064 207.176 304.04 207.176 303.8V302.096C207.176 301.856 207.2 301.832 207.464 301.832C207.608 301.832 208.328 301.88 210.44 301.88H214.832L215.336 300.92C215.552 300.512 215.672 300.2 215.768 299.696C214.304 300.176 212.744 300.584 211.016 300.968C210.296 301.136 210.296 301.136 210.008 300.488C209.696 299.912 209.312 299.264 209.024 299C211.856 298.568 214.088 298.016 216.032 297.344C214.592 296.792 213.104 296.288 211.52 295.832C211.256 295.76 211.304 295.664 211.544 295.448L212.696 294.392C212.936 294.176 212.984 294.176 213.224 294.248C215.24 294.872 217.04 295.472 218.816 296.168C219.656 295.76 220.448 295.28 221.264 294.776C221.624 294.536 222.152 294.128 222.608 293.672C223.424 293.984 224.264 294.416 224.864 294.728C225.08 294.848 225.128 294.968 225.128 295.112C225.128 295.256 224.984 295.376 224.792 295.424C224.6 295.472 224.264 295.592 223.952 295.808C223.136 296.336 222.344 296.84 221.528 297.272C222.728 297.8 223.976 298.376 225.32 299.024C225.44 299.096 225.512 299.144 225.512 299.192C225.512 299.264 225.44 299.36 225.344 299.48L224.216 300.848C224 301.112 223.904 301.088 223.688 300.968C222.056 300.056 220.472 299.264 218.888 298.544C218.048 298.904 217.16 299.24 216.248 299.552C216.944 299.624 217.568 299.696 218.096 299.792C218.384 299.84 218.576 299.936 218.576 300.128C218.576 300.272 218.552 300.344 218.408 300.464C218.168 300.656 218 300.92 217.832 301.208C217.712 301.448 217.568 301.664 217.448 301.88H225.56C227.672 301.88 228.392 301.832 228.536 301.832C228.752 301.832 228.776 301.856 228.776 302.096V303.8C228.776 304.04 228.752 304.064 228.536 304.064C228.392 304.064 227.672 304.016 225.56 304.016H216.176C215.576 304.928 214.952 305.768 214.256 306.536H217.64C217.64 305.816 217.592 305.24 217.496 304.52C218.408 304.544 219.176 304.592 220.016 304.688C220.232 304.712 220.376 304.808 220.376 304.952C220.376 305.12 220.328 305.24 220.256 305.408C220.16 305.624 220.088 305.912 220.088 306.536H222.704C224.96 306.536 226.112 306.488 226.256 306.488C226.496 306.488 226.52 306.512 226.52 306.752C226.52 306.896 226.472 307.592 226.472 308.984V310.448C226.472 311.048 226.52 311.72 226.52 312.248C226.52 312.872 226.352 313.424 225.968 313.784C225.512 314.24 225.056 314.432 223.04 314.432C222.296 314.432 222.296 314.432 222.128 313.664C222.008 313.184 221.864 312.776 221.624 312.272C222.416 312.344 222.8 312.368 223.376 312.368C223.832 312.368 224.048 312.176 224.048 311.672V308.528H220.088V312.68C220.088 314.576 220.136 315.488 220.136 315.632C220.136 315.872 220.112 315.896 219.872 315.896H217.88C217.64 315.896 217.616 315.872 217.616 315.632C217.616 315.488 217.664 314.576 217.664 312.68V308.528H214.088V312.392C214.088 313.76 214.136 314.168 214.136 314.312C214.136 314.552 214.112 314.576 213.848 314.576H211.904C211.664 314.576 211.64 314.552 211.64 314.312C211.64 314.168 211.688 313.76 211.688 312.392V309.008C210.872 309.68 209.96 310.352 208.904 311.048C208.64 311.24 208.496 311.336 208.376 311.336C208.208 311.336 208.112 311.168 207.944 310.808C207.656 310.208 207.296 309.752 206.888 309.392C209.552 307.952 211.712 306.296 213.44 304.016ZM245.312 294.728H249.32C251.12 294.728 251.744 294.68 251.888 294.68C252.128 294.68 252.176 294.728 252.176 294.944C252.128 295.328 252.08 296.12 252.032 296.936C251.888 299.576 251.624 301.832 251.408 303.08C251.144 304.472 250.64 305.432 249.584 305.672C249.128 305.768 248.408 305.816 247.784 305.816C247.04 305.816 246.92 305.768 246.848 305.36C246.752 304.784 246.584 304.136 246.344 303.704C247.112 303.8 247.808 303.824 248.384 303.776C248.768 303.728 249.008 303.176 249.152 302.408H244.424C243.944 303.704 243.2 304.784 242.048 305.792C241.784 306.008 241.616 306.128 241.472 306.128C241.28 306.128 241.136 305.984 240.872 305.744C240.464 305.312 239.96 305.048 239.408 304.832C239.792 304.616 240.128 304.4 240.44 304.136C240.368 304.16 240.296 304.184 240.176 304.184C239.072 304.304 238.112 304.328 237.104 304.328C235.832 304.328 234.704 304.304 234.008 304.016C233.36 303.752 233.024 303.176 233.024 301.952V298.496C232.088 298.52 231.68 298.544 231.584 298.544C231.344 298.544 231.32 298.52 231.32 298.28V296.6C231.32 296.36 231.344 296.36 231.584 296.36C231.728 296.36 232.4 296.384 234.392 296.384H235.64V295.688C235.64 295.208 235.616 294.68 235.496 293.984C236.216 294.008 237.224 294.056 237.92 294.128C238.136 294.152 238.256 294.248 238.256 294.368C238.256 294.536 238.184 294.608 238.112 294.776C238.016 294.968 237.992 295.208 237.992 295.664V296.384H238.712C240.728 296.384 241.376 296.36 241.52 296.36C241.76 296.36 241.784 296.36 241.784 296.6V298.28C241.784 298.52 241.76 298.544 241.52 298.544C241.376 298.544 240.728 298.496 238.712 298.496H235.376V300.992C235.376 301.64 235.448 301.856 235.736 301.976C236.072 302.12 236.456 302.144 237.2 302.144C238.328 302.144 239.192 302.096 240.224 301.976C240.608 301.928 240.632 301.952 240.632 302.576V303.512C240.632 303.8 240.608 303.944 240.56 304.04C242.216 302.624 242.864 300.608 243.08 297.224C243.152 296.192 243.152 295.664 243.128 294.968C243.128 294.728 243.152 294.68 243.368 294.68C243.512 294.68 243.944 294.728 245.312 294.728ZM249.56 299.528H245.096C245.048 299.936 245 300.344 244.928 300.704H249.416C249.464 300.344 249.536 299.936 249.56 299.528ZM249.776 296.648H245.312L245.264 297.824H249.704L249.776 296.648ZM249.512 315.32H234.488C232.376 315.32 231.656 315.368 231.512 315.368C231.296 315.368 231.272 315.344 231.272 315.104V313.52C231.272 313.28 231.296 313.256 231.512 313.256C231.656 313.256 232.376 313.304 234.488 313.304H240.632V311.768H237.536C235.184 311.768 234.368 311.816 234.224 311.816C233.984 311.816 233.96 311.792 233.96 311.528V310.088C233.96 309.848 233.984 309.824 234.224 309.824C234.368 309.824 235.184 309.872 237.536 309.872H240.632V308.36H236.12C233.792 308.36 233.024 308.408 232.88 308.408C232.64 308.408 232.616 308.384 232.616 308.144V306.656C232.616 306.416 232.64 306.392 232.88 306.392C233.024 306.392 233.792 306.44 236.12 306.44H247.928C250.232 306.44 251 306.392 251.144 306.392C251.408 306.392 251.432 306.416 251.432 306.656V308.144C251.432 308.384 251.408 308.408 251.144 308.408C251 308.408 250.232 308.36 247.928 308.36H243.08V309.872H246.488C248.84 309.872 249.656 309.824 249.8 309.824C250.064 309.824 250.088 309.848 250.088 310.088V311.528C250.088 311.792 250.064 311.816 249.8 311.816C249.656 311.816 248.84 311.768 246.488 311.768H243.08V313.304H249.512C251.648 313.304 252.344 313.256 252.512 313.256C252.728 313.256 252.752 313.28 252.752 313.52V315.104C252.752 315.344 252.728 315.368 252.512 315.368C252.344 315.368 251.648 315.32 249.512 315.32ZM268.592 306.68V310.544C268.592 310.808 268.448 310.928 268.136 310.976C267.824 311.024 267.104 311.096 266.432 311.096C266.216 311.096 266.12 310.952 266.12 310.712C266.12 309.848 266.12 308.648 266.144 307.784C264.008 308.888 263.24 309.824 263.24 310.976C263.24 311.984 264.056 312.632 266.576 312.632C268.784 312.632 270.704 312.416 272.552 312.152C272.768 312.128 272.864 312.2 272.888 312.416C273.008 312.968 273.104 313.808 273.104 314.384C273.128 314.672 273.032 314.84 272.84 314.84C270.776 315.104 269.216 315.152 266.888 315.152C262.952 315.152 260.864 313.976 260.864 311.192C260.864 308.888 262.304 307.208 265.928 305.336C265.856 304.112 265.568 303.632 264.488 303.68C263.36 303.728 262.28 304.448 261.176 305.408C260.144 306.416 259.544 307.112 258.776 308.024C258.656 308.168 258.584 308.24 258.488 308.24C258.416 308.24 258.32 308.168 258.224 308.072C257.888 307.736 257.168 306.992 256.856 306.488C256.784 306.392 256.76 306.32 256.76 306.272C256.76 306.176 256.808 306.104 256.928 306.008C258.776 304.352 260.552 302.456 261.944 300.056C260.816 300.104 259.52 300.128 258.104 300.128C257.888 300.128 257.816 300.008 257.768 299.744C257.696 299.36 257.6 298.472 257.528 297.752C259.352 297.848 261.224 297.824 263.048 297.728C263.312 297.08 263.528 296.504 263.768 295.664C263.864 295.256 263.936 294.848 263.936 294.2C264.992 294.368 266.048 294.632 266.672 294.872C266.864 294.944 266.96 295.112 266.96 295.28C266.96 295.4 266.912 295.544 266.792 295.64C266.648 295.76 266.504 295.976 266.384 296.216C266.24 296.552 266.12 296.864 265.832 297.512C267.296 297.344 268.76 297.104 270.2 296.768C270.464 296.72 270.536 296.792 270.584 297.008C270.704 297.488 270.8 298.04 270.824 298.736C270.848 298.976 270.752 299.072 270.416 299.12C268.616 299.384 266.552 299.648 264.8 299.84C264.248 300.728 263.72 301.616 263 302.504L263.024 302.552C263.792 302.048 264.776 301.808 265.424 301.808C267.008 301.808 268.112 302.528 268.352 304.4C269.288 303.968 270.656 303.344 271.88 302.72C272.336 302.48 273.104 302.048 273.704 301.424C274.496 302.264 275.12 303.104 275.384 303.536C275.528 303.752 275.576 303.92 275.576 304.064C275.576 304.256 275.456 304.352 275.216 304.4C274.712 304.472 274.232 304.592 273.752 304.76C272.192 305.312 270.632 305.84 268.592 306.68Z" fill="white"/>
<path d="M132.704 345.464V341.36C131.504 341.456 130.28 341.552 128.672 341.552C128.264 341.552 128.144 341.408 128.096 341.048C128.024 340.592 127.928 339.8 127.832 338.96C128.456 339.056 129.08 339.08 129.704 339.08C130.712 339.08 131.744 338.984 132.752 338.888C132.752 338.096 132.776 337.184 132.776 336.152C132.776 335.528 132.752 334.832 132.608 334.208C133.808 334.28 134.816 334.448 135.464 334.64C135.752 334.712 135.944 334.88 135.944 335.096C135.944 335.192 135.896 335.312 135.8 335.48C135.632 335.792 135.512 336.104 135.464 336.416C135.392 337.04 135.368 337.64 135.344 338.408C136.4 338.192 137.384 337.88 138.416 337.52C138.632 337.448 138.8 337.496 138.824 337.736C138.92 338.336 138.968 338.984 138.968 339.608C138.968 339.848 138.896 339.92 138.656 339.992C137.072 340.496 136.664 340.616 135.224 340.904C135.2 342.056 135.2 343.232 135.176 344.384C137.432 343.424 139.544 343.04 141.08 343.064C144.056 343.088 146.192 344.984 146.192 347.864C146.192 350.936 144.224 352.736 140.984 352.736C140.288 352.736 139.52 352.64 139.016 352.52C138.632 352.424 138.488 352.184 138.488 351.8C138.44 351.272 138.272 350.456 137.768 349.76C138.92 350.144 139.88 350.192 140.768 350.192C142.112 350.192 143.36 349.424 143.36 347.72C143.36 346.16 142.4 345.296 140.72 345.296C139.352 345.296 137.696 345.656 135.224 346.928C135.248 347.936 135.272 348.752 135.32 349.808C135.392 350.864 135.512 352.376 135.512 352.928C135.512 353.264 135.56 353.624 135.152 353.72C134.624 353.864 133.856 353.984 133.376 354.008C133.112 354.032 133.016 353.84 132.8 353.528C132.152 352.64 130.904 351.488 129.392 350.456C129.128 350.6 128.84 350.792 128.624 350.984C128.504 351.104 128.336 351.152 128.216 351.152C128.024 351.152 127.832 351.008 127.688 350.768C127.424 350.336 126.944 349.328 126.584 348.536C127.208 348.392 128 348.128 128.792 347.696C129.824 347.12 130.952 346.472 132.704 345.464ZM132.824 347.984C132.152 348.44 131.336 348.992 130.472 349.616C131.144 349.976 131.96 350.384 132.728 350.696C132.92 350.744 132.992 350.72 132.968 350.504C132.92 349.88 132.872 348.776 132.824 347.984ZM140.84 338.888C141.152 338.24 141.536 337.616 141.944 337.016C142.112 336.752 142.184 336.68 142.352 336.728C144.56 337.376 146.192 338.384 147.44 339.656C147.536 339.752 147.584 339.824 147.584 339.896C147.584 339.968 147.536 340.04 147.488 340.136C147.176 340.616 146.552 341.36 146.192 341.84C146.12 341.936 145.784 341.96 145.712 341.84C144.44 340.424 142.76 339.536 140.84 338.888ZM171.08 337.016V346.928C171.08 348.608 171.152 350.528 171.152 351.704C171.152 352.856 170.984 353.384 170.48 353.912C170.024 354.32 169.4 354.56 167.6 354.56C166.88 354.56 166.904 354.56 166.76 353.816C166.616 353.12 166.424 352.544 166.16 352.064C166.76 352.16 167.192 352.184 167.648 352.184C168.416 352.184 168.632 351.968 168.632 351.248V340.952H164.648C162.776 340.952 162.152 341 162.008 341C161.768 341 161.744 340.976 161.744 340.712C161.744 340.592 161.792 340.064 161.792 338.72V335.84C161.792 334.496 161.744 333.968 161.744 333.8C161.744 333.56 161.768 333.536 162.008 333.536C162.152 333.536 162.776 333.584 164.648 333.584H168.176C170.048 333.584 170.696 333.536 170.864 333.536C171.104 333.536 171.128 333.56 171.128 333.8C171.128 333.944 171.08 334.952 171.08 337.016ZM168.632 335.336H164.144V336.488H168.632V335.336ZM168.632 339.248V338.096H164.144V339.248H168.632ZM165.128 354.176H163.448C163.208 354.176 163.184 354.152 163.184 353.888C163.184 353.768 163.208 353.12 163.232 351.824C160.976 352.136 158.552 352.4 156.32 352.592C155.912 352.64 155.696 352.688 155.576 352.784C155.456 352.88 155.336 352.928 155.216 352.928C155.096 352.928 154.976 352.808 154.904 352.52C154.784 351.992 154.688 351.392 154.592 350.696C155.192 350.72 155.816 350.72 156.68 350.672V344.024C155.6 344.048 155.12 344.072 155.048 344.072C154.808 344.072 154.784 344.048 154.784 343.808V342.44C154.784 342.2 154.808 342.176 155.048 342.176C155.168 342.176 155.936 342.224 158.144 342.224H163.976C166.184 342.224 166.952 342.176 167.072 342.176C167.312 342.176 167.336 342.2 167.336 342.44V343.808C167.336 344.048 167.312 344.072 167.072 344.072C166.976 344.072 166.496 344.048 165.344 344.024V351.152C165.344 352.928 165.392 353.744 165.392 353.888C165.392 354.152 165.368 354.176 165.128 354.176ZM163.232 350.144V349.232H158.768V350.528C160.184 350.432 161.72 350.288 163.232 350.144ZM158.768 347.696H163.232V346.616H158.768V347.696ZM158.768 345.08H163.232V344.024H158.768V345.08ZM154.088 333.584H157.424C158.984 333.584 159.704 333.536 159.848 333.536C160.064 333.536 160.088 333.56 160.088 333.8C160.088 333.944 160.04 334.616 160.04 336.008V338.528C160.04 339.944 160.088 340.592 160.088 340.712C160.088 340.976 160.064 341 159.848 341C159.704 341 158.984 340.952 157.424 340.952H153.488V349.4C153.488 352.76 153.536 354.392 153.536 354.56C153.536 354.8 153.512 354.824 153.272 354.824H151.256C151.016 354.824 150.992 354.8 150.992 354.56C150.992 354.392 151.04 352.76 151.04 349.4V339.008C151.04 335.648 150.992 333.968 150.992 333.8C150.992 333.56 151.016 333.536 151.256 333.536C151.424 333.536 152.336 333.584 154.088 333.584ZM157.688 335.336H153.488V336.488H157.688V335.336ZM157.688 339.248V338.096H153.488V339.248H157.688ZM181.016 339.584C181.4 338.216 181.568 337.376 181.736 336.56C181.856 335.84 181.976 334.904 181.976 333.896C183.224 334.16 183.896 334.328 184.856 334.688C185.096 334.76 185.24 334.952 185.24 335.168C185.24 335.288 185.192 335.408 185.072 335.528C184.832 335.84 184.712 336.104 184.592 336.44C184.28 337.424 184.04 338.312 183.728 339.32C184.376 339.248 185.096 339.224 185.6 339.224C187.856 339.224 189.08 340.76 189.08 343.664C189.08 346.496 188.6 349.64 187.784 351.368C187.088 352.904 185.936 353.624 184.544 353.624C183.392 353.624 182.696 353.528 182.168 353.36C181.88 353.264 181.736 353.048 181.736 352.688C181.664 351.92 181.616 351.248 181.28 350.456C182.36 350.864 183.176 350.984 183.92 350.984C184.712 350.984 185.072 350.696 185.456 349.712C185.96 348.368 186.392 346.088 186.392 343.76C186.392 342.056 186.08 341.528 185.024 341.528C184.448 341.528 183.704 341.6 183.008 341.696C181.424 346.304 180.056 349.616 178.184 352.976C178.04 353.288 177.848 353.336 177.56 353.192C177.128 352.976 176.192 352.4 175.904 352.136C175.784 352.016 175.712 351.92 175.712 351.776C175.712 351.704 175.736 351.608 175.808 351.512C177.728 348.176 178.976 345.632 180.2 342.104C179.264 342.248 178.496 342.392 177.848 342.512C177.224 342.632 176.84 342.776 176.528 342.896C176.192 343.016 175.904 342.968 175.76 342.584C175.544 342.032 175.28 341.168 175.016 340.112C176.072 340.112 177.128 340.04 178.184 339.944C179.192 339.848 180.08 339.728 181.016 339.584ZM189.56 339.392C190.16 338.984 190.856 338.504 191.504 338.168C191.672 338.072 191.792 338.12 191.96 338.288C193.592 339.824 195.056 341.816 195.944 344.12C196.04 344.336 196.016 344.456 195.848 344.6C195.44 344.984 194.528 345.56 194.048 345.8C193.808 345.92 193.568 345.896 193.496 345.608C192.536 343.088 191.288 341.024 189.56 339.392ZM203.336 340.712V338.144C203.288 336.92 203.24 336.536 203 335.6C204.2 335.696 205.28 335.864 205.88 336.008C206.144 336.056 206.384 336.296 206.384 336.512C206.384 336.68 206.312 336.848 206.24 337.016C206.096 337.376 206.024 337.688 206 338.072C205.976 338.648 205.976 339.56 205.952 340.376C207.608 340.16 210.152 339.896 211.88 339.704C211.904 338.504 211.904 337.208 211.904 336.32C211.904 335.408 211.832 334.496 211.592 333.584C213.056 333.752 213.896 333.872 214.496 334.064C214.832 334.16 214.952 334.28 214.952 334.52C214.952 334.712 214.856 334.904 214.808 335C214.688 335.384 214.592 335.672 214.568 336.08C214.52 337.376 214.496 338.312 214.472 339.44C216.416 339.296 217.856 339.224 219.152 339.176C219.344 339.176 219.44 339.2 219.44 339.416C219.464 340.064 219.488 340.736 219.44 341.384C219.44 341.696 219.392 341.72 219.128 341.72C217.544 341.72 215.936 341.792 214.352 341.912C214.28 343.496 214.208 344.672 214.064 345.608C213.8 347.48 212.72 348.272 210.92 348.272C210.488 348.272 209.936 348.272 209.432 348.2C209.048 348.176 208.952 348.008 208.952 347.576C208.904 346.784 208.76 346.184 208.424 345.416C209.216 345.632 209.864 345.704 210.464 345.704C211.112 345.704 211.472 345.512 211.592 344.672C211.688 343.928 211.736 343.064 211.76 342.128C209.84 342.272 207.752 342.512 205.904 342.8C205.88 345.416 205.856 346.856 205.952 348.224C206.096 350.192 206.624 350.576 209.552 350.576C211.688 350.576 213.992 350.36 215.768 350.096C216.128 350.072 216.2 350.12 216.248 350.408C216.344 350.912 216.392 351.968 216.392 352.424C216.392 352.712 216.296 352.832 216.08 352.856C214.976 353.024 212 353.216 210.056 353.216C205.208 353.216 203.792 352.208 203.504 349.064C203.384 347.768 203.336 345.752 203.336 343.208C202.112 343.376 201.344 343.52 200.432 343.712C200.168 343.784 199.784 343.88 199.352 344.072C199.04 344.216 198.872 344.12 198.728 343.808C198.44 343.208 198.176 342.224 198.056 341.408C198.56 341.408 199.592 341.312 200.624 341.168C201.296 341.072 202.448 340.856 203.336 340.712ZM234.896 333.512C235.952 334.136 236.864 334.76 237.536 335.336C237.656 335.432 237.728 335.624 237.728 335.72C237.728 335.936 237.608 336.08 237.392 336.176C237.104 336.32 236.744 336.536 236.24 337.016C234.176 338.864 231.536 341.336 229.688 343.256C229.472 343.52 229.376 343.664 229.376 343.784C229.376 343.928 229.472 344.048 229.688 344.216C232.808 346.472 236.048 349.088 238.616 351.776C238.712 351.896 238.784 351.992 238.784 352.088C238.784 352.184 238.736 352.256 238.616 352.376C238.064 352.976 237.368 353.672 236.96 354.032C236.816 354.152 236.72 354.224 236.624 354.224C236.528 354.224 236.456 354.152 236.336 354.008C233.552 350.888 230.864 348.392 227.6 345.896C226.688 345.2 226.328 344.672 226.328 343.88C226.328 343.088 226.76 342.56 227.504 341.768C229.544 339.56 231.536 337.568 233.6 335.312C234.248 334.616 234.608 334.112 234.896 333.512ZM261.944 336.344L263.216 335.456C263.336 335.36 263.432 335.384 263.576 335.504C264.32 336.08 265.184 337.04 265.856 338.072C265.952 338.216 265.952 338.336 265.784 338.456L264.776 339.2C264.608 339.32 264.488 339.296 264.368 339.128C263.648 338.024 262.88 337.112 261.944 336.344ZM264.152 334.76L265.352 333.896C265.496 333.8 265.568 333.824 265.712 333.944C266.6 334.616 267.464 335.576 267.992 336.416C268.088 336.56 268.112 336.704 267.92 336.848L266.96 337.592C266.768 337.736 266.648 337.664 266.552 337.52C265.904 336.488 265.136 335.576 264.152 334.76ZM255.464 338C256.4 337.832 257.696 337.52 258.872 337.184C259.136 337.112 259.232 337.232 259.256 337.424C259.328 337.952 259.4 338.648 259.424 339.152C259.448 339.464 259.376 339.536 259.064 339.608C257.576 340.016 256.352 340.28 254.888 340.52C253.256 345.848 252.032 349.52 250.496 353.504C250.376 353.84 250.232 353.816 249.968 353.744C249.728 353.648 248.552 353.144 248.048 352.856C247.856 352.736 247.784 352.544 247.856 352.376C249.68 348.176 250.832 345.008 252.008 341C250.616 341.144 248.936 341.264 247.808 341.264C247.448 341.264 247.352 341.192 247.304 340.88C247.208 340.376 247.088 339.56 246.968 338.696C247.472 338.768 247.76 338.768 248.744 338.768C249.944 338.768 251.24 338.696 252.632 338.528C252.872 337.568 253.064 336.512 253.232 335.528C253.328 334.808 253.376 334.088 253.376 333.32C254.648 333.512 255.632 333.68 256.4 333.992C256.592 334.064 256.664 334.232 256.664 334.376C256.664 334.472 256.664 334.592 256.544 334.76C256.352 335.096 256.16 335.336 256.04 335.72C255.8 336.584 255.632 337.4 255.464 338ZM255.896 349.016C256.64 348.824 257.624 348.656 257.936 348.656C258.176 348.656 258.272 348.752 258.296 348.992C258.488 350.744 259.664 351.248 261.968 351.248C263.312 351.248 265.04 351.032 266 350.912C266.192 350.888 266.264 350.936 266.288 351.128C266.384 351.752 266.48 352.568 266.48 353.216C266.504 353.504 266.48 353.576 266.096 353.6C265.28 353.72 263.84 353.864 262.76 353.864C259.688 353.864 258.056 353.432 256.976 352.304C256.208 351.536 255.944 350.408 255.896 349.016ZM257.768 344.48C257.72 343.64 257.672 342.776 257.672 342.296C257.672 341.96 257.744 341.888 258.104 341.816C259.616 341.504 261.392 341.264 262.784 341.264C263.72 341.264 264.752 341.36 265.592 341.504C265.928 341.552 266 341.576 266 341.864C266.048 342.464 266.048 343.136 266.024 343.784C266.024 344.192 265.904 344.288 265.568 344.216C264.728 344.048 263.624 343.928 262.592 343.928C261.152 343.928 259.328 344.168 257.768 344.48ZM279.92 338.384C279.512 337.52 279.176 336.824 278.792 335.912C278.456 335.216 278.216 334.712 277.592 333.968C278.768 333.752 279.8 333.584 280.448 333.584C281.072 333.584 281.264 333.752 281.264 334.088C281.264 334.304 281.24 334.544 281.288 334.76C281.36 335.048 281.456 335.384 281.672 335.96C281.96 336.68 282.176 337.256 282.488 337.904C284.672 337.4 286.256 336.896 287.504 336.416C287.744 336.296 287.816 336.32 287.96 336.584C288.2 337.04 288.416 337.88 288.56 338.432C288.632 338.672 288.536 338.792 288.368 338.84C287.216 339.272 285.824 339.704 283.592 340.232C284.576 342.008 285.776 343.64 287.264 345.296C287.456 345.488 287.672 345.656 287.888 345.824C288.032 345.944 288.128 346.016 288.128 346.136C288.128 346.304 288.056 346.424 287.984 346.544C287.816 346.952 287.336 347.72 287.048 348.104C286.856 348.368 286.736 348.464 286.568 348.464C286.448 348.464 286.376 348.416 286.184 348.272C285.872 348.056 285.656 347.888 285.2 347.648C283.64 346.832 281.888 346.424 280.112 346.424C277.616 346.424 276.104 347.168 276.104 348.68C276.104 350.48 278.288 351.224 282.056 351.224C283.232 351.224 284.648 351.104 285.896 350.888C285.8 351.848 285.56 352.928 285.392 353.456C285.32 353.696 285.224 353.744 284.936 353.792C284.504 353.864 283.28 353.96 282.272 353.96C276.608 353.96 273.56 352.16 273.56 348.992C273.56 346.256 275.912 344.336 279.872 344.336C281.816 344.336 283.16 344.624 284.144 344.984C282.968 343.88 282.008 342.56 281.048 340.736C279.536 341 278.144 341.192 276.416 341.336C275.768 341.384 274.664 341.456 274.064 341.456C273.848 341.456 273.752 341.312 273.68 341.024C273.44 340.28 273.32 339.776 273.128 338.864C274.352 338.912 275.336 338.888 276.128 338.84C277.136 338.792 278.336 338.648 279.92 338.384ZM295.808 336.32C296.96 336.464 298.136 336.752 298.856 337.112C299.072 337.208 299.24 337.376 299.24 337.544C299.24 337.688 299.168 337.928 299.048 338.216C298.952 338.504 298.832 339.536 298.832 340.568C298.832 342.104 298.88 343.832 299.264 346.04C299.6 347.936 300.224 349.568 301.232 349.568C302 349.568 302.6 348.728 303.536 346.232C304.064 347.072 304.592 347.624 305.072 348.08C305.36 348.344 305.36 348.632 305.24 348.968C304.328 351.416 302.84 352.712 301.16 352.712C299.288 352.712 297.32 350.504 296.672 346.448C296.288 344.168 296.096 341.672 296.096 339.464C296.096 338.144 296.048 337.424 295.808 336.32ZM308.096 339.728C309.008 339.152 309.608 338.816 309.992 338.624C310.088 338.576 310.184 338.528 310.256 338.528C310.352 338.528 310.424 338.576 310.52 338.672C312.704 340.568 314.624 343.88 315.224 346.88C315.296 347.192 315.152 347.288 314.96 347.408C314.336 347.816 313.736 348.152 313.088 348.368C312.8 348.464 312.632 348.392 312.584 348.104C311.768 344.672 310.544 342.176 308.096 339.728Z" fill="white"/>
<path d="M85.056 157.504L80.832 167.488H85.376V176.128H76.352V167.488L81.024 157.504H85.056ZM97.664 157.504L93.44 167.488H97.984V176.128H88.96V167.488L93.632 157.504H97.664ZM154.153 169.28H156.393C160.617 169.28 161.897 169.152 162.281 169.152C162.921 169.152 163.049 169.28 163.049 169.92C162.985 172.096 162.921 173.952 162.921 176C162.857 186.88 162.601 197.632 161.513 205.12C160.745 209.856 159.465 212.16 154.537 212.16C153.449 212.16 152.489 212.16 151.465 212.032C150.249 211.904 150.249 211.904 150.057 209.856C149.865 208.256 149.417 206.912 148.841 205.568C150.569 205.888 152.041 206.016 153.193 206.016C155.305 206.016 155.561 205.312 156.073 201.984C157.033 195.84 157.289 186.88 157.289 174.976H154.025C153.705 181.632 153.065 187.776 152.041 193.024C150.633 199.744 148.457 205.376 144.169 211.392C143.721 211.968 143.465 212.224 143.209 212.224C142.889 212.224 142.569 211.904 141.993 211.328C140.649 209.92 139.753 209.216 138.472 208.512L139.881 206.72C139.561 206.848 139.113 206.912 138.409 207.04C134.377 207.744 127.977 208.704 122.537 209.344C121.385 209.472 120.489 209.664 120.105 209.92C119.913 210.048 119.593 210.24 119.208 210.24C118.953 210.24 118.697 209.856 118.569 209.152C118.249 207.808 117.993 206.208 117.673 203.968C119.529 204.032 121.193 203.968 123.369 203.84C124.905 203.776 126.633 203.648 128.425 203.456V200.064H126.441C121.769 200.064 120.297 200.192 119.913 200.192C119.273 200.192 119.208 200.128 119.208 199.488V195.776C119.208 195.136 119.273 195.072 119.913 195.072C120.297 195.072 121.769 195.2 126.441 195.2H128.425V192H126.889C122.089 192 120.489 192.128 120.105 192.128C119.401 192.128 119.337 192.064 119.337 191.424C119.337 190.976 119.465 189.568 119.465 186.24V179.712C119.465 176.256 119.337 174.848 119.337 174.4C119.337 173.824 119.401 173.76 120.105 173.76C120.489 173.76 122.089 173.888 126.889 173.888H128.425V170.816H126.057C121.065 170.816 119.401 170.944 119.017 170.944C118.377 170.944 118.312 170.88 118.312 170.24V166.464C118.312 165.824 118.377 165.76 119.017 165.76C119.401 165.76 121.065 165.888 126.057 165.888H128.425V163.008C126.889 163.2 125.353 163.392 123.753 163.52C122.089 163.648 122.089 163.584 121.577 162.304C121.001 161.024 120.425 160 119.785 159.168C119.593 159.552 119.465 160.064 119.208 160.832C118.057 164.288 116.905 167.488 115.497 170.56V202.688C115.497 208.896 115.625 212.032 115.625 212.352C115.625 212.992 115.561 213.056 114.921 213.056H110.121C109.481 213.056 109.417 212.992 109.417 212.352C109.417 211.968 109.545 208.896 109.545 202.688V188.288C109.545 186.112 109.609 183.488 109.673 180.928L107.113 184.448C106.665 185.024 106.281 185.408 105.961 185.408C105.705 185.408 105.513 185.024 105.321 184.256C104.809 181.632 104.424 180.096 103.657 178.432C108.713 172.032 111.209 166.016 113.449 158.848C113.897 157.376 114.217 155.968 114.409 154.304C116.393 154.88 118.377 155.392 120.169 156.16C120.809 156.416 121.193 156.672 121.193 157.12C121.193 157.568 120.937 157.888 120.425 158.336C120.297 158.464 120.105 158.592 119.977 158.848C126.441 158.464 131.817 157.696 136.617 156.608C137.641 156.352 138.472 156.032 139.369 155.52C140.713 156.864 141.737 157.952 142.633 159.168C142.889 159.552 143.017 159.872 143.017 160.256C143.017 160.768 142.697 160.96 142.185 160.96C141.609 160.96 140.969 161.024 140.265 161.152C138.089 161.6 135.913 161.984 133.609 162.304V165.888H135.401C140.393 165.888 142.057 165.76 142.441 165.76C143.017 165.76 143.081 165.824 143.081 166.464V170.24C143.081 170.88 143.017 170.944 142.441 170.944C142.057 170.944 140.393 170.816 135.401 170.816H133.609V173.888H135.208C140.009 173.888 141.609 173.76 141.993 173.76C142.697 173.76 142.761 173.824 142.761 174.4C142.761 174.784 142.633 176.256 142.633 179.712V186.24C142.633 189.568 142.761 191.04 142.761 191.424C142.761 192.064 142.697 192.128 141.993 192.128C141.609 192.128 140.009 192 135.208 192H133.609V195.2H134.441C139.113 195.2 140.585 195.072 140.969 195.072C141.673 195.072 141.737 195.136 141.737 195.776V199.488C141.737 200.128 141.673 200.192 140.969 200.192C140.585 200.192 139.113 200.064 134.441 200.064H133.609V202.88C135.913 202.56 138.472 202.176 141.097 201.728C140.905 202.56 140.713 203.52 140.585 204.608L140.393 205.888C143.465 201.472 145.385 196.608 146.537 191.232C147.433 187.072 148.009 181.376 148.265 174.976C145.705 175.04 144.809 175.104 144.489 175.104C143.849 175.104 143.785 175.04 143.785 174.4V169.856C143.785 169.216 143.849 169.152 144.489 169.152C144.809 169.152 145.769 169.28 148.393 169.28C148.457 167.68 148.457 166.016 148.457 164.352C148.457 160.384 148.329 157.76 148.009 155.264C149.929 155.328 152.425 155.52 153.961 155.712C154.601 155.84 154.985 156.096 154.985 156.416C154.985 156.928 154.665 157.44 154.537 158.08C154.345 158.784 154.217 160.64 154.217 164.608C154.217 166.208 154.217 167.744 154.153 169.28ZM137.769 188.032V184.704H133.609V188.032H137.769ZM124.329 188.032H128.425V184.704H124.329V188.032ZM137.769 177.792H133.609V180.992H137.769V177.792ZM124.329 180.992H128.425V177.792H124.329V180.992ZM193.257 165.504C192.745 164.032 192.361 162.944 191.721 161.344C191.145 159.936 190.569 158.656 189.481 157.248C192.041 156.8 194.665 156.544 197.225 156.544C198.121 156.544 198.632 157.056 198.632 157.696C198.632 158.08 198.505 158.528 198.505 158.912C198.505 159.488 198.632 160.128 198.761 160.832C199.208 162.496 199.401 163.072 199.785 164.16C204.777 163.2 208.297 162.24 212.841 160.768C213.417 160.512 213.737 160.576 213.929 161.088C214.313 162.304 214.761 164.096 215.017 165.376C215.145 166.016 214.697 166.4 214.249 166.528C209.961 167.872 206.057 168.832 201.705 169.792C202.281 171.392 203.113 173.376 203.944 175.168C209.129 174.08 212.521 172.992 215.593 171.84C216.233 171.52 216.553 171.648 216.745 172.224C217.321 173.696 217.577 174.912 217.897 176.448C218.025 177.024 218.025 177.344 217.385 177.6C214.185 178.816 210.153 179.968 206.569 180.736C209.321 185.344 211.817 188.928 214.953 191.808C215.593 192.384 215.593 192.64 215.273 193.344C214.569 194.816 213.673 196.096 212.649 197.312C212.265 197.76 212.009 197.952 211.625 197.952C211.369 197.952 211.113 197.824 210.729 197.568C209.705 196.736 208.425 196.16 206.953 195.52C203.689 194.112 199.465 193.472 194.921 193.472C188.905 193.472 185.385 195.328 185.385 198.336C185.385 202.496 190.825 203.84 200.617 203.84C202.985 203.84 205.353 203.584 207.657 203.456C208.297 203.456 208.489 203.776 208.425 204.288C208.169 205.888 207.721 208.384 207.145 210.112C206.953 210.752 206.697 211.008 205.801 211.072C204.329 211.2 202.793 211.264 201.193 211.264C186.473 211.264 178.665 207.104 178.665 199.232C178.665 192.384 184.553 188.096 194.537 188.096C199.208 188.096 202.985 188.608 205.545 189.696C204.073 187.968 201.961 184.896 200.233 182.144C193.641 183.168 187.369 183.936 182.697 184.064C181.993 184.064 181.737 183.808 181.545 183.168C181.161 181.888 180.585 179.712 180.393 177.92C186.793 177.792 191.913 177.28 197.609 176.32C196.969 174.976 196.009 172.8 195.177 171.008C189.289 171.904 184.553 172.48 179.625 172.544C178.857 172.544 178.473 172.288 178.345 171.648C178.153 170.944 177.705 168.576 177.321 166.528C183.593 166.592 188.713 166.08 193.257 165.504ZM258.409 168C260.905 167.552 264.361 166.72 267.497 165.824C268.201 165.632 268.457 165.952 268.521 166.464C268.713 167.872 268.905 169.728 268.969 171.072C269.033 171.904 268.841 172.096 268.009 172.288C264.041 173.376 260.777 174.08 256.873 174.72C252.521 188.928 249.257 198.72 245.161 209.344C244.841 210.24 244.457 210.176 243.753 209.984C243.113 209.728 239.977 208.384 238.633 207.616C238.121 207.296 237.929 206.784 238.121 206.336C242.985 195.136 246.057 186.688 249.193 176C245.481 176.384 241.001 176.704 237.993 176.704C237.033 176.704 236.777 176.512 236.649 175.68C236.393 174.336 236.073 172.16 235.753 169.856C237.097 170.048 237.865 170.048 240.489 170.048C243.689 170.048 247.145 169.856 250.857 169.408C251.497 166.848 252.009 164.032 252.457 161.408C252.713 159.488 252.841 157.568 252.841 155.52C256.233 156.032 258.857 156.48 260.905 157.312C261.417 157.504 261.609 157.952 261.609 158.336C261.609 158.592 261.609 158.912 261.289 159.36C260.777 160.256 260.265 160.896 259.945 161.92C259.305 164.224 258.857 166.4 258.409 168ZM259.561 197.376C261.545 196.864 264.169 196.416 265.001 196.416C265.641 196.416 265.897 196.672 265.961 197.312C266.472 201.984 269.609 203.328 275.753 203.328C279.337 203.328 283.945 202.752 286.505 202.432C287.017 202.368 287.209 202.496 287.273 203.008C287.529 204.672 287.785 206.848 287.785 208.576C287.849 209.344 287.785 209.536 286.761 209.6C284.585 209.92 280.425 210.304 278.057 210.304C269.673 210.304 265.321 209.152 262.441 206.144C260.393 204.096 259.689 201.088 259.561 197.376ZM264.553 185.28C264.425 183.04 264.297 180.736 264.297 179.456C264.297 178.56 264.489 178.368 265.449 178.176C269.481 177.344 274.217 176.704 277.929 176.704C280.425 176.704 283.177 176.96 285.417 177.344C286.313 177.472 286.505 177.536 286.505 178.304C286.633 179.904 286.633 181.696 286.569 183.424C286.569 184.512 286.249 184.768 285.353 184.576C283.113 184.128 280.169 183.808 277.417 183.808C273.577 183.808 268.713 184.448 264.553 185.28ZM301.801 163.52C304.873 163.904 308.009 164.672 309.929 165.632C310.505 165.888 310.953 166.336 310.953 166.784C310.953 167.168 310.76 167.808 310.441 168.576C310.185 169.344 309.865 172.096 309.865 174.848C309.865 178.944 309.993 183.552 311.017 189.44C311.913 194.496 313.577 198.848 316.265 198.848C318.313 198.848 319.913 196.608 322.409 189.952C323.817 192.192 325.225 193.664 326.505 194.88C327.273 195.584 327.273 196.352 326.953 197.248C324.521 203.776 320.553 207.232 316.073 207.232C311.081 207.232 305.833 201.344 304.105 190.528C303.081 184.448 302.569 177.792 302.569 171.904C302.569 168.384 302.441 166.464 301.801 163.52ZM334.569 172.608C337.001 171.072 338.601 170.176 339.625 169.664C339.881 169.536 340.137 169.408 340.329 169.408C340.585 169.408 340.777 169.536 341.033 169.792C346.857 174.848 351.977 183.68 353.577 191.68C353.769 192.512 353.385 192.768 352.873 193.088C351.209 194.176 349.609 195.072 347.881 195.648C347.113 195.904 346.665 195.712 346.537 194.944C344.361 185.792 341.097 179.136 334.569 172.608ZM371.689 158.464V167.104L367.017 177.088H362.985L367.209 167.104H362.665V158.464H371.689ZM384.297 158.464V167.104L379.625 177.088H375.593L379.817 167.104H375.273V158.464H384.297Z" fill="white"/>
</svg>
