<svg width="193" height="193" viewBox="0 0 193 193" fill="none" xmlns="http://www.w3.org/2000/svg">
<circle cx="96.5" cy="96.5" r="96.5" fill="url(#paint0_radial_225_14)" style="mix-blend-mode:multiply"/>
<path d="M54.552 28.104H52.088C50.68 28.104 50.184 28.136 50.088 28.136C49.928 28.136 49.912 28.12 49.912 27.96V26.664C49.912 26.504 49.928 26.488 50.088 26.488C50.184 26.488 50.68 26.52 52.088 26.52H61.928C63.352 26.52 63.832 26.488 63.928 26.488C64.088 26.488 64.104 26.504 64.104 26.664V27.96C64.104 28.12 64.088 28.136 63.928 28.136C63.832 28.136 63.352 28.104 61.928 28.104H59.144V30.024H60.824C62.376 30.024 62.92 29.992 63.016 29.992C63.176 29.992 63.192 30.008 63.192 30.168C63.192 30.264 63.16 30.904 63.16 33.032V35.768C63.16 39.128 63.192 39.768 63.192 39.864C63.192 40.024 63.176 40.04 63.016 40.04H61.656C61.496 40.04 61.48 40.024 61.48 39.864V39.144H52.52V39.912C52.52 40.072 52.504 40.088 52.344 40.088H50.984C50.824 40.088 50.808 40.072 50.808 39.912C50.808 39.8 50.84 39.176 50.84 35.8V33.384C50.84 30.904 50.808 30.28 50.808 30.168C50.808 30.008 50.824 29.992 50.984 29.992C51.096 29.992 51.624 30.024 53.176 30.024H54.552V28.104ZM52.52 31.528V37.608H61.48V31.528H59.144V33.496C59.144 33.848 59.128 33.96 59.192 34.024C59.256 34.088 59.384 34.104 59.544 34.104C59.704 34.104 59.832 34.088 59.912 34.024C60.008 33.928 60.024 33.672 60.024 32.36C60.328 32.52 60.504 32.6 60.808 32.712C61.176 32.84 61.224 32.872 61.192 33.544C61.144 34.6 60.984 35.048 60.696 35.288C60.392 35.528 60.088 35.592 59.528 35.592C58.84 35.592 58.44 35.56 58.088 35.384C57.736 35.192 57.576 34.968 57.576 34.152V31.528H56.072C55.912 33.512 55.448 34.904 54.28 36.072C54.12 36.232 54.024 36.312 53.928 36.312C53.832 36.312 53.736 36.232 53.544 36.056C53.256 35.784 52.936 35.576 52.6 35.416C53.848 34.424 54.312 33.272 54.472 31.528H52.52ZM56.136 30.024H57.576V28.104H56.136V30.024ZM74.808 30.808H68.312C66.872 30.808 66.376 30.84 66.28 30.84C66.12 30.84 66.104 30.824 66.104 30.648V29.48C66.104 29.32 66.12 29.304 66.28 29.304C66.376 29.304 66.872 29.336 68.312 29.336H74.744C74.728 28.888 74.712 28.424 74.712 27.96C74.712 26.888 74.68 26.44 74.568 25.672C75.16 25.688 75.72 25.72 76.296 25.784C76.456 25.8 76.552 25.896 76.552 25.976C76.552 26.12 76.504 26.2 76.456 26.312C76.376 26.504 76.36 26.856 76.36 27.912C76.36 28.408 76.36 28.872 76.376 29.336H77.768C79.224 29.336 79.72 29.304 79.816 29.304C79.976 29.304 79.992 29.32 79.992 29.48V30.648C79.992 30.824 79.976 30.84 79.816 30.84C79.72 30.84 79.224 30.808 77.768 30.808H76.44C76.552 32.648 76.776 34.216 77.128 35.544C77.576 37.384 78.024 38.12 78.456 38.12C78.76 38.12 78.92 37.4 79.064 35.944C79.32 36.184 79.656 36.392 80.008 36.584C80.456 36.824 80.456 36.84 80.376 37.32C80.072 39.176 79.544 40.12 78.552 40.12C77.304 40.12 76.328 38.984 75.656 36.552C75.192 34.888 74.936 32.952 74.808 30.808ZM71.816 34.904V37.224C72.856 36.984 73.912 36.728 74.888 36.472C74.84 36.76 74.808 37.096 74.792 37.496C74.792 38.008 74.792 38.008 74.296 38.12C72.2 38.664 69.416 39.288 67.352 39.656C67.096 39.72 66.904 39.768 66.76 39.848C66.664 39.896 66.584 39.944 66.472 39.944C66.392 39.944 66.296 39.832 66.248 39.672C66.12 39.272 66.008 38.664 65.912 38.168C66.376 38.152 66.824 38.12 67.304 38.056V33.976C67.304 33.304 67.288 32.984 67.208 32.552C67.688 32.568 68.344 32.6 68.808 32.648C68.952 32.664 69.032 32.712 69.032 32.792C69.032 32.904 68.968 32.968 68.936 33.064C68.888 33.192 68.856 33.352 68.856 33.976V37.816L70.232 37.56V33.208C70.232 32.504 70.216 31.992 70.12 31.272C70.728 31.288 71.176 31.32 71.736 31.384C71.912 31.4 71.992 31.48 71.992 31.56C71.992 31.672 71.96 31.736 71.896 31.848C71.832 31.96 71.816 32.152 71.816 32.76V33.544H72.76C73.72 33.544 73.992 33.512 74.088 33.512C74.248 33.512 74.264 33.528 74.264 33.688V34.76C74.264 34.92 74.248 34.936 74.088 34.936C73.992 34.936 73.72 34.904 72.76 34.904H71.816ZM71.656 28.136H69.416C68.2 28.136 67.8 28.168 67.704 28.168C67.56 28.168 67.544 28.152 67.544 27.976V26.856C67.544 26.696 67.56 26.68 67.704 26.68C67.8 26.68 68.2 26.712 69.416 26.712H71.656C72.872 26.712 73.272 26.68 73.368 26.68C73.528 26.68 73.544 26.696 73.544 26.856V27.976C73.544 28.152 73.528 28.168 73.368 28.168C73.272 28.168 72.872 28.136 71.656 28.136ZM77.08 26.68L77.848 26.28C78.024 26.2 78.056 26.216 78.168 26.328C78.664 26.856 79.176 27.56 79.544 28.28C79.624 28.424 79.608 28.488 79.432 28.568L78.584 28.952C78.488 29 78.424 29.032 78.36 29.032C78.312 29.032 78.28 29 78.232 28.92C77.88 28.152 77.4 27.464 76.984 26.952C76.888 26.824 76.904 26.76 77.08 26.68ZM93.48 34.088H90.056C88.856 35.08 87.512 35.88 85.56 36.712C85.368 36.776 85.256 36.824 85.176 36.824C85.064 36.824 85.016 36.728 84.888 36.488C84.648 36.072 84.376 35.72 84.072 35.464C87.128 34.424 88.84 33.336 90.264 31.88C90.472 31.656 90.68 31.368 90.84 31.08C91.368 31.224 91.704 31.336 92.216 31.544C92.376 31.608 92.456 31.688 92.456 31.8C92.456 31.896 92.408 31.96 92.264 32.04C92.136 32.104 92.024 32.2 91.832 32.408L91.496 32.744H94.04C94.344 32.744 94.456 32.728 94.6 32.664C94.68 32.632 94.776 32.584 94.856 32.584C95.016 32.584 95.128 32.632 95.56 33.016C95.912 33.32 96.008 33.448 96.008 33.576C96.008 33.688 95.912 33.784 95.816 33.848C95.688 33.944 95.528 34.088 95.336 34.328C92.808 37.608 90.024 39.336 84.808 40.376C84.632 40.408 84.504 40.424 84.44 40.424C84.296 40.424 84.216 40.312 84.104 40.04C83.928 39.624 83.672 39.24 83.416 38.968C86.024 38.552 88.024 37.96 89.592 37.176C89.16 36.776 88.776 36.456 88.344 36.152C88.28 36.088 88.232 36.04 88.232 35.992C88.232 35.944 88.28 35.896 88.344 35.848L89.208 35.224C89.352 35.128 89.416 35.128 89.576 35.224C90.056 35.528 90.52 35.896 91.016 36.344C91.992 35.688 92.776 34.936 93.48 34.088ZM91.048 28.28H87.576C86.6 29.176 85.448 29.976 83.832 30.68C83.672 30.76 83.56 30.808 83.48 30.808C83.384 30.808 83.32 30.728 83.176 30.52C82.904 30.12 82.632 29.88 82.312 29.624C84.632 28.68 86.216 27.608 87.4 26.296C87.608 26.088 87.832 25.768 87.992 25.464C88.584 25.56 89.064 25.672 89.544 25.816C89.704 25.848 89.768 25.912 89.768 26.024C89.768 26.12 89.72 26.184 89.576 26.264C89.448 26.328 89.304 26.456 89.128 26.664L88.888 26.936H91.624C91.928 26.936 92.088 26.904 92.2 26.856C92.296 26.824 92.376 26.792 92.488 26.792C92.632 26.792 92.76 26.84 93.112 27.144C93.56 27.512 93.656 27.64 93.656 27.784C93.656 27.896 93.576 27.992 93.464 28.056C93.32 28.152 93.176 28.264 92.952 28.552C91.032 30.824 88.472 32.872 83.512 34.248C83.048 34.36 83.048 34.36 82.824 33.928C82.6 33.528 82.392 33.24 82.104 32.968C84.184 32.504 85.848 31.896 87.224 31.208C86.808 30.84 86.456 30.552 86.072 30.312C85.992 30.248 85.944 30.216 85.944 30.168C85.944 30.12 85.992 30.072 86.072 30.008L86.872 29.384C87.016 29.272 87.08 29.288 87.24 29.384C87.688 29.672 88.136 29.992 88.616 30.392C89.608 29.736 90.392 29.032 91.048 28.28ZM102.584 29.24H102.92C102.904 28.904 102.888 28.616 102.84 28.296C103.336 28.312 103.608 28.328 104.04 28.376C104.168 28.392 104.232 28.44 104.232 28.536C104.232 28.632 104.168 28.696 104.152 28.776C104.12 28.856 104.088 28.984 104.088 29.24C105.016 29.24 105.32 29.208 105.416 29.208C105.592 29.208 105.608 29.224 105.608 29.384V30.088C105.608 30.264 105.592 30.28 105.416 30.28C105.336 30.28 105.08 30.264 104.36 30.248C104.776 30.696 105.16 30.952 105.816 31.288C105.688 31.4 105.528 31.608 105.384 31.896C105.288 32.056 105.24 32.136 105.16 32.136C105.08 32.136 104.984 32.072 104.824 31.928C104.568 31.704 104.296 31.384 104.056 31.048C104.088 31.896 104.12 32.312 104.12 32.552C104.12 32.712 104.104 32.728 103.96 32.728H103.08C102.904 32.728 102.888 32.712 102.888 32.552C102.888 32.312 102.92 31.912 102.952 31.096C102.568 31.624 102.056 32.2 101.512 32.648C101.32 32.792 101.224 32.872 101.144 32.872C101.048 32.872 100.984 32.776 100.84 32.536C100.712 32.344 100.552 32.12 100.392 31.976C100.344 33.592 100.264 34.792 100.12 35.88C99.928 37.304 99.592 38.408 98.984 39.608C98.872 39.816 98.808 39.928 98.712 39.928C98.632 39.928 98.552 39.832 98.408 39.656C98.12 39.288 97.72 38.904 97.448 38.728C98.072 37.72 98.44 36.616 98.6 35.288C98.76 34.056 98.824 32.472 98.824 30.2C98.824 28.024 98.792 27.016 98.792 26.92C98.792 26.76 98.808 26.744 98.984 26.744C99.08 26.744 99.608 26.776 101.096 26.776H104.52V26.504C104.52 26.184 104.504 25.832 104.424 25.464C105.032 25.48 105.576 25.512 106.12 25.56C106.28 25.576 106.376 25.64 106.376 25.688C106.376 25.784 106.328 25.88 106.264 26.008C106.216 26.12 106.184 26.232 106.184 26.568V26.776H109.88C111.368 26.776 111.88 26.744 111.976 26.744C112.12 26.744 112.136 26.76 112.136 26.92V27.896C112.136 28.056 112.12 28.072 111.976 28.072C111.88 28.072 111.368 28.04 109.88 28.04H100.408V30.2C100.408 30.824 100.392 31.4 100.392 31.928C101.24 31.464 101.976 30.904 102.472 30.248C101.56 30.248 101.272 30.28 101.176 30.28C101 30.28 100.984 30.264 100.984 30.088V29.384C100.984 29.224 101 29.208 101.176 29.208C101.272 29.208 101.576 29.24 102.584 29.24ZM105.416 37.832H102.744C101.192 37.832 100.664 37.864 100.568 37.864C100.392 37.864 100.376 37.848 100.376 37.688V36.824C100.376 36.664 100.392 36.648 100.568 36.648C100.664 36.648 101.192 36.68 102.744 36.68H105.416V36.024H103.816C102.28 36.024 101.736 36.056 101.64 36.056C101.48 36.056 101.464 36.04 101.464 35.88V35.096C101.464 34.92 101.48 34.904 101.64 34.904C101.736 34.904 102.28 34.936 103.816 34.936H105.416V34.232C104.152 34.312 103.224 34.344 102.008 34.376C101.592 34.376 101.576 34.344 101.48 34.04C101.384 33.736 101.256 33.448 101.144 33.288C103.08 33.288 104.232 33.256 105.672 33.16C106.792 33.096 107.864 32.984 108.776 32.856C109.16 32.808 109.496 32.728 109.816 32.632C110.152 32.84 110.52 33.128 110.76 33.336C110.904 33.448 110.936 33.496 110.936 33.608C110.936 33.688 110.856 33.768 110.648 33.768C110.456 33.768 110.28 33.784 109.96 33.832C108.936 33.976 107.944 34.072 106.968 34.136V34.936H108.616C110.152 34.936 110.664 34.904 110.76 34.904C110.936 34.904 110.952 34.92 110.952 35.096V35.88C110.952 36.04 110.936 36.056 110.76 36.056C110.664 36.056 110.152 36.024 108.616 36.024H106.968V36.68H109.752C111.32 36.68 111.864 36.648 111.96 36.648C112.104 36.648 112.12 36.664 112.12 36.824V37.688C112.12 37.848 112.104 37.864 111.96 37.864C111.864 37.864 111.32 37.832 109.752 37.832H106.984C107 38.216 107.016 38.552 107.016 38.84C107.016 39.4 106.888 39.704 106.52 39.944C106.184 40.152 105.72 40.232 104.216 40.232C103.736 40.232 103.704 40.232 103.624 39.736C103.576 39.448 103.448 39.064 103.304 38.84C103.896 38.888 104.328 38.904 104.92 38.904C105.288 38.904 105.416 38.776 105.416 38.408V37.832ZM107.912 29.24H108.056C108.04 28.904 108.024 28.616 107.976 28.296C108.472 28.312 108.744 28.328 109.176 28.376C109.32 28.392 109.368 28.44 109.368 28.52C109.368 28.616 109.32 28.68 109.288 28.776C109.256 28.856 109.224 28.968 109.224 29.24H109.816C110.968 29.24 111.32 29.208 111.416 29.208C111.576 29.208 111.592 29.224 111.592 29.384V30.088C111.592 30.264 111.576 30.28 111.416 30.28C111.32 30.28 110.968 30.248 109.816 30.248H109.736C110.424 30.92 111.192 31.336 112.264 31.768C112.088 31.944 111.944 32.216 111.816 32.504C111.704 32.776 111.624 32.888 111.512 32.888C111.432 32.888 111.304 32.824 111.128 32.696C110.344 32.168 109.704 31.624 109.192 31C109.224 31.88 109.256 32.2 109.256 32.424C109.256 32.6 109.24 32.616 109.064 32.616H108.2C108.04 32.616 108.024 32.6 108.024 32.424C108.024 32.216 108.056 31.912 108.088 31.096C107.752 31.608 107.288 32.12 106.728 32.552C106.536 32.712 106.424 32.776 106.344 32.776C106.248 32.776 106.2 32.696 106.12 32.584C105.96 32.344 105.752 32.104 105.544 31.944C106.344 31.496 107.064 30.936 107.608 30.248C106.728 30.264 106.424 30.28 106.344 30.28C106.184 30.28 106.168 30.264 106.168 30.088V29.384C106.168 29.224 106.184 29.208 106.344 29.208C106.44 29.208 106.776 29.24 107.912 29.24ZM117.256 28.504V29.928C117.256 32.072 117.128 33.992 116.888 35.256C116.536 36.984 116.056 38.312 115.16 39.656C115.032 39.848 114.952 39.944 114.872 39.944C114.792 39.944 114.712 39.848 114.552 39.672C114.184 39.224 113.88 38.936 113.512 38.712C114.424 37.608 114.952 36.264 115.24 34.776C115.448 33.72 115.544 32.184 115.544 30.088V28.488C115.544 27.656 115.512 26.888 115.384 26.056C116.04 26.088 116.616 26.12 117.16 26.2C117.352 26.216 117.448 26.296 117.448 26.408C117.448 26.52 117.4 26.616 117.336 26.776C117.256 26.984 117.256 27.432 117.256 28.504ZM125.336 36.872V28.44C125.336 27.304 125.304 26.808 125.208 25.992C125.816 26.008 126.456 26.056 127 26.136C127.16 26.152 127.288 26.216 127.288 26.344C127.288 26.488 127.224 26.568 127.176 26.696C127.096 26.888 127.048 27.256 127.048 28.392V36.856C127.048 38.872 127.08 39.72 127.08 39.816C127.08 39.976 127.064 39.992 126.904 39.992H125.48C125.32 39.992 125.304 39.976 125.304 39.816C125.304 39.72 125.336 38.872 125.336 36.872ZM120.36 35.56V29.176C120.36 28.04 120.328 27.544 120.216 26.76C120.84 26.776 121.464 26.808 122.008 26.872C122.168 26.888 122.296 26.968 122.296 27.08C122.296 27.24 122.232 27.336 122.184 27.464C122.104 27.64 122.072 27.992 122.072 29.128V35.56C122.072 37.256 122.104 38.12 122.104 38.216C122.104 38.392 122.088 38.408 121.912 38.408H120.504C120.344 38.408 120.328 38.392 120.328 38.216C120.328 38.12 120.36 37.256 120.36 35.56ZM139.048 38.168V34.808C139.016 34.872 138.968 34.904 138.904 34.952C138.808 35.032 138.696 35.192 138.568 35.528C138.12 36.824 137.352 38.088 136.072 39.24C135.896 39.416 135.8 39.496 135.704 39.496C135.608 39.496 135.528 39.4 135.352 39.176C135.112 38.872 134.84 38.664 134.6 38.504C135.96 37.592 136.824 36.312 137.288 35.144H136.76C136.232 35.144 135.864 35.176 135.768 35.176C135.608 35.176 135.592 35.16 135.592 35V33.944L135.064 34.104C134.84 34.168 134.808 34.152 134.776 33.96L134.68 33.496C134.328 33.544 134.008 33.576 133.672 33.608V38.008C133.672 39.48 133.704 40.008 133.704 40.104C133.704 40.264 133.688 40.28 133.528 40.28H132.312C132.152 40.28 132.136 40.264 132.136 40.104C132.136 39.992 132.168 39.48 132.168 38.008V33.752L130.904 33.848C130.632 33.864 130.424 33.912 130.296 33.976C130.2 34.024 130.152 34.04 130.056 34.04C129.944 34.04 129.896 33.944 129.864 33.784C129.784 33.368 129.72 32.936 129.672 32.424C130.104 32.472 130.44 32.488 130.84 32.488C131.16 32.088 131.448 31.672 131.736 31.272C131.128 30.424 130.408 29.64 129.656 28.904C129.592 28.84 129.576 28.792 129.576 28.76C129.576 28.696 129.624 28.648 129.688 28.552L130.28 27.768C130.408 27.608 130.456 27.592 130.568 27.72L130.952 28.104C131.272 27.576 131.608 26.952 131.88 26.36C132.024 26.04 132.088 25.832 132.168 25.512C132.632 25.688 133.112 25.896 133.496 26.088C133.64 26.168 133.704 26.248 133.704 26.344C133.704 26.44 133.64 26.504 133.56 26.552C133.432 26.632 133.368 26.728 133.256 26.936C132.792 27.768 132.408 28.408 131.896 29.144L132.6 29.976C132.968 29.368 133.336 28.76 133.672 28.152C133.848 27.816 133.992 27.512 134.12 27.144C134.552 27.32 135.064 27.512 135.448 27.736C135.592 27.816 135.64 27.864 135.64 27.96C135.64 28.072 135.592 28.136 135.464 28.216C135.304 28.328 135.208 28.472 134.968 28.84C134.12 30.184 133.256 31.416 132.488 32.424C133.096 32.392 133.72 32.36 134.36 32.312C134.232 31.912 134.088 31.544 133.944 31.192C133.88 31.048 133.912 30.984 134.104 30.92L134.824 30.648C135 30.584 135.032 30.632 135.096 30.776C135.512 31.72 135.8 32.584 136.056 33.592C136.072 33.688 136.072 33.736 136.024 33.784C136.2 33.8 136.488 33.8 136.936 33.8H137.576C137.736 33.8 137.832 33.768 137.864 33.736C137.928 33.704 137.976 33.672 138.04 33.672C138.136 33.672 138.232 33.72 138.6 34.088C138.872 34.328 138.984 34.472 139.048 34.568V32.68H138.376C137.016 32.68 136.552 32.712 136.44 32.712C136.28 32.712 136.264 32.696 136.264 32.536C136.264 32.424 136.296 32.024 136.296 31.048V28.68C136.296 27.704 136.264 27.304 136.264 27.208C136.264 27.032 136.28 27.016 136.44 27.016C136.552 27.016 137.016 27.048 138.376 27.048H138.696C138.776 26.824 138.856 26.6 138.92 26.36C139 26.072 139.048 25.832 139.08 25.448C139.608 25.48 140.2 25.56 140.584 25.64C140.824 25.688 140.888 25.752 140.888 25.848C140.888 25.944 140.84 26.008 140.76 26.088C140.648 26.184 140.568 26.328 140.52 26.456C140.44 26.68 140.36 26.872 140.28 27.048H141.288C142.648 27.048 143.112 27.016 143.224 27.016C143.384 27.016 143.4 27.032 143.4 27.208C143.4 27.304 143.368 27.704 143.368 28.68V31.048C143.368 32.024 143.4 32.44 143.4 32.536C143.4 32.696 143.384 32.712 143.224 32.712C143.112 32.712 142.648 32.68 141.288 32.68H140.472C140.712 33.464 141 34.152 141.352 34.76C141.8 34.392 142.184 34.024 142.536 33.64C142.76 33.4 142.936 33.192 143.112 32.92C143.464 33.176 143.752 33.4 144.024 33.656C144.168 33.8 144.216 33.864 144.216 33.976C144.216 34.104 144.152 34.152 144.024 34.216C143.848 34.296 143.688 34.424 143.416 34.696C143.064 35.064 142.648 35.416 142.104 35.848C142.744 36.632 143.544 37.304 144.552 37.96C144.264 38.232 144.024 38.616 143.832 39.016C143.72 39.224 143.656 39.336 143.576 39.336C143.496 39.336 143.416 39.256 143.256 39.112C142.072 38.008 141.176 36.872 140.472 35.4C140.52 36.68 140.568 37.64 140.568 38.536C140.568 39.08 140.456 39.528 139.976 39.832C139.64 40.024 139.256 40.104 138.344 40.104C137.848 40.104 137.848 40.12 137.736 39.624C137.64 39.256 137.512 38.904 137.304 38.6C137.784 38.648 138.232 38.664 138.472 38.664C138.92 38.664 139.048 38.504 139.048 38.168ZM141.832 31.496V30.408H137.832V31.496H141.832ZM137.832 28.248V29.256H141.832V28.248H137.832ZM129.64 38.632C129.992 37.784 130.216 36.824 130.296 35.752C130.328 35.4 130.344 35.112 130.328 34.728C130.808 34.792 131.288 34.872 131.56 34.952C131.752 35 131.832 35.08 131.832 35.144C131.832 35.24 131.816 35.288 131.752 35.384C131.704 35.464 131.656 35.704 131.624 35.976C131.512 36.856 131.368 37.944 131.096 38.856C131.016 39.112 130.984 39.24 130.888 39.24C130.808 39.24 130.696 39.16 130.52 39.048C130.312 38.92 129.848 38.696 129.64 38.632ZM134.12 34.792L134.856 34.568C135.048 34.504 135.064 34.52 135.128 34.68C135.32 35.224 135.576 36.232 135.704 37.016C135.736 37.176 135.736 37.224 135.512 37.304L134.712 37.576C134.488 37.656 134.456 37.64 134.44 37.464C134.344 36.552 134.12 35.608 133.96 35.032C133.912 34.872 133.928 34.856 134.12 34.792ZM61.96 70.16H60.18C60 70.16 59.98 70.14 59.98 69.96C59.98 69.82 60.02 68.86 60.02 63.88V60.34C60.02 56.8 59.98 55.8 59.98 55.66C59.98 55.46 60 55.44 60.18 55.44C60.32 55.44 61.02 55.48 62.96 55.48H64.44C64.88 54.7 65.24 53.88 65.52 53.18C65.66 52.8 65.78 52.42 65.82 52.02C66.66 52.16 67.3 52.28 68 52.46C68.18 52.5 68.32 52.62 68.32 52.74C68.32 52.9 68.22 53 68.08 53.1C67.98 53.18 67.82 53.36 67.64 53.74C67.36 54.3 67.06 54.88 66.72 55.48H71.04C72.98 55.48 73.68 55.44 73.82 55.44C74 55.44 74.02 55.46 74.02 55.66C74.02 55.8 73.98 56.8 73.98 59.86V63.86C73.98 68.82 74.02 69.8 74.02 69.92C74.02 70.1 74 70.12 73.82 70.12H72.04C71.84 70.12 71.82 70.1 71.82 69.92V68.96H62.18V69.96C62.18 70.14 62.16 70.16 61.96 70.16ZM62.18 67.02H71.82V63.1H62.18V67.02ZM62.18 57.42V61.2H71.82V57.42H62.18ZM79.72 56.34L80.66 55.36C80.82 55.18 80.9 55.2 81.06 55.32C81.56 55.7 82.08 56.08 82.6 56.5C83.48 55.52 84.44 54.22 85.04 53.32C85.3 52.92 85.5 52.52 85.68 52.1C86.34 52.38 87.02 52.74 87.52 53.06C87.72 53.18 87.8 53.26 87.8 53.38C87.8 53.52 87.72 53.6 87.56 53.7C87.36 53.82 87.14 54.08 86.86 54.4C86.16 55.34 85 56.8 84.12 57.72C84.7 58.2 85.28 58.7 85.82 59.22C87 58.02 88 56.9 88.78 55.88C89.3 55.22 89.6 54.76 89.88 54.2C90.54 54.48 91.24 54.88 91.74 55.22C91.92 55.36 91.98 55.44 91.98 55.56C91.98 55.72 91.88 55.8 91.66 55.92C91.46 56.02 91.22 56.28 90.82 56.74C89.58 58.18 88.02 59.86 86.34 61.4C88.2 61.3 90.08 61.2 91.96 61.02C91.56 60.5 91.14 60 90.68 59.5C90.54 59.34 90.54 59.24 90.76 59.12L91.84 58.52C92.04 58.4 92.12 58.38 92.28 58.56C93.6 59.92 94.78 61.56 95.84 63.22C95.94 63.4 95.94 63.46 95.7 63.6L94.44 64.36C94.32 64.42 94.24 64.46 94.2 64.46C94.14 64.46 94.1 64.42 94.04 64.32C93.78 63.82 93.5 63.32 93.2 62.82C91.52 62.98 89.7 63.12 87.88 63.24V67.58C87.88 69.52 87.92 70.18 87.92 70.28C87.92 70.48 87.9 70.5 87.7 70.5H85.92C85.72 70.5 85.7 70.48 85.7 70.28C85.7 70.16 85.74 69.52 85.74 67.58V63.38C83.76 63.52 81.84 63.62 80.16 63.7C79.54 63.74 79.3 63.78 79.12 63.88C79.02 63.94 78.94 63.96 78.82 63.96C78.7 63.96 78.6 63.86 78.54 63.64C78.4 63.04 78.28 62.16 78.2 61.56C79.04 61.62 80.08 61.62 80.68 61.6C81.58 61.58 82.5 61.56 83.42 61.52L84.36 60.66C83.04 59.36 81.52 58.08 79.68 56.72C79.52 56.6 79.52 56.54 79.72 56.34ZM78.12 68.38C79.5 67.56 80.84 66.32 81.58 65.34C81.84 65 82.08 64.58 82.3 64.16C82.98 64.46 83.42 64.72 83.92 65.06C84.1 65.2 84.18 65.3 84.18 65.44C84.18 65.58 84.06 65.68 83.9 65.78C83.74 65.9 83.56 66.1 83.34 66.38C82.56 67.44 81.44 68.62 80.18 69.56C79.96 69.74 79.82 69.84 79.72 69.84C79.6 69.84 79.5 69.72 79.28 69.44C78.92 68.98 78.5 68.64 78.12 68.38ZM89.84 64.92L90.88 64.24C91 64.16 91.06 64.12 91.12 64.12C91.18 64.12 91.22 64.16 91.3 64.26C92.38 65.7 93.86 67.06 95.46 68.16C95.02 68.48 94.64 68.84 94.28 69.26C94.06 69.54 93.96 69.66 93.86 69.66C93.74 69.66 93.62 69.56 93.4 69.36C92 68.18 90.74 66.78 89.7 65.3C89.58 65.12 89.6 65.06 89.84 64.92ZM102.72 70.5H101.02C100.82 70.5 100.8 70.48 100.8 70.28C100.8 70.16 100.84 69.62 100.84 66.66V64.82C100.84 63.02 100.8 62.44 100.8 62.3C100.8 62.12 100.82 62.1 101.02 62.1C101.14 62.1 101.84 62.14 103.76 62.14H110.24C112.16 62.14 112.86 62.1 112.98 62.1C113.2 62.1 113.22 62.12 113.22 62.3C113.22 62.42 113.18 63.02 113.18 64.52V66.58C113.18 69.52 113.22 70.08 113.22 70.2C113.22 70.38 113.2 70.4 112.98 70.4H111.26C111.06 70.4 111.04 70.38 111.04 70.2V69.44H102.96V70.28C102.96 70.48 102.94 70.5 102.72 70.5ZM102.96 64.04V67.54H111.04V64.04H102.96ZM109.24 55.22L110.36 54.54C110.48 54.46 110.54 54.44 110.6 54.44C110.66 54.44 110.7 54.46 110.78 54.54C112.44 55.98 114.24 57.9 115.64 59.74C115.78 59.92 115.78 59.96 115.52 60.14L114.22 61C114.08 61.1 114.02 61.16 113.96 61.16C113.9 61.16 113.86 61.1 113.8 61.02C113.44 60.48 113.08 59.96 112.68 59.44C108.76 59.94 104.2 60.32 100.6 60.52C99.9 60.56 99.64 60.64 99.48 60.72C99.38 60.76 99.24 60.84 99.08 60.84C98.92 60.84 98.82 60.72 98.76 60.54C98.62 60.02 98.48 59.1 98.38 58.4C99.22 58.44 99.92 58.44 100.52 58.42C100.9 58.42 101.3 58.4 101.7 58.4C102.68 56.74 103.46 55.12 104.12 53.5C104.3 53.02 104.44 52.56 104.5 52.14C105.32 52.28 106.12 52.42 106.7 52.6C106.96 52.68 107.06 52.8 107.06 52.94C107.06 53.08 106.96 53.2 106.88 53.28C106.72 53.42 106.5 53.72 106.24 54.28C105.7 55.44 104.98 56.86 104.14 58.28C106.56 58.16 109.12 57.96 111.24 57.72C110.56 56.96 109.86 56.26 109.16 55.6C109 55.46 109.02 55.36 109.24 55.22ZM124.6 63.22H121.16C119.8 63.22 119.28 63.26 119.06 63.26C118.86 63.26 118.84 63.24 118.84 63.02C118.84 62.9 118.88 62.16 118.88 60.58V55.6C118.88 54.02 118.84 53.28 118.84 53.14C118.84 52.94 118.86 52.92 119.06 52.92C119.28 52.92 119.8 52.96 121.16 52.96H124.38C125.68 52.96 126.24 52.92 126.36 52.92C126.56 52.92 126.58 52.94 126.58 53.14V54.42C126.58 54.62 126.56 54.64 126.36 54.64C126.24 54.64 125.68 54.6 124.38 54.6H124V55.98C125.26 55.98 125.72 55.94 125.84 55.94C126.04 55.94 126.06 55.96 126.06 56.16V57.26C126.06 57.46 126.04 57.48 125.84 57.48C125.72 57.48 125.26 57.46 124 57.44V58.78C125.24 58.78 125.72 58.76 125.84 58.76C126.04 58.76 126.06 58.76 126.06 58.96V60.08C126.06 60.28 126.04 60.3 125.84 60.3C125.72 60.3 125.26 60.28 124 60.26V61.68H124.36C125.62 61.68 126 61.64 126.12 61.64C126.3 61.64 126.36 61.68 126.34 61.9L126.28 63.22C126.2 66.08 126.04 67.56 125.76 68.5C126.62 67.16 127.12 65.58 127.36 63.72C127.58 62.1 127.62 60.08 127.62 56.62C127.62 54.56 127.58 53.62 127.58 53.5C127.58 53.3 127.6 53.28 127.82 53.28C127.94 53.28 128.46 53.32 130.06 53.32H132.98C134.56 53.32 135.1 53.28 135.22 53.28C135.44 53.28 135.46 53.3 135.46 53.5C135.46 53.62 135.42 54.2 135.42 55.5V59.26C135.42 60.58 135.46 61.1 135.46 61.24C135.46 61.44 135.44 61.46 135.22 61.46H133.7C133.5 61.46 133.48 61.42 133.48 61.22V60.84H132.78C133.06 64.16 134.16 66.74 136.48 68.84C136.12 69.1 135.68 69.56 135.3 70.02C135.12 70.28 135.02 70.4 134.92 70.4C134.82 70.4 134.72 70.3 134.52 70.08C132.22 67.66 131.3 64.64 130.96 60.84H129.52C129.48 62.24 129.38 63.36 129.24 64.48C128.98 66.4 128.36 68.4 127.34 70.08C127.18 70.32 127.1 70.44 127 70.44C126.9 70.44 126.78 70.32 126.58 70.12C126.22 69.72 125.84 69.4 125.5 69.18C125.1 69.92 124.4 70.28 123.56 70.28C123.3 70.28 122.96 70.28 122.7 70.26C122.38 70.22 122.38 70.22 122.26 69.6C122.18 69.04 122.04 68.64 121.86 68.26C122.46 68.34 122.92 68.38 123.34 68.38C123.76 68.38 123.98 68.22 124.16 67.86C124.38 67.36 124.56 66.18 124.6 63.22ZM133.48 55.2H129.58V56.96C129.58 57.72 129.58 58.38 129.56 59H133.48V55.2ZM120.64 61.68H122.28V60.26H120.64V61.68ZM120.64 55.98H122.28V54.6H120.64V55.98ZM120.64 58.78H122.28V57.44H120.64V58.78ZM119 64.02L119.6 64.22C119.88 64.32 119.88 64.34 119.88 64.56C119.82 66.16 119.62 67.74 119.18 69.06C119.1 69.28 118.98 69.28 118.82 69.18L118.12 68.72C117.88 68.6 117.88 68.54 117.96 68.34C118.36 67.14 118.58 65.78 118.68 64.16C118.7 63.92 118.74 63.94 119 64.02ZM120.42 64.28L120.92 64.18C121.16 64.14 121.2 64.14 121.22 64.34C121.36 65.46 121.5 66.64 121.54 67.88C121.54 68.08 121.52 68.1 121.3 68.18L120.68 68.4C120.44 68.48 120.4 68.48 120.4 68.26C120.4 66.9 120.32 65.72 120.18 64.58C120.14 64.36 120.18 64.34 120.42 64.28ZM121.8 64.16L122.22 64.02C122.42 63.94 122.46 63.96 122.5 64.16C122.7 65.04 122.84 65.96 122.96 67.02C122.98 67.2 122.96 67.26 122.72 67.36L122.3 67.54C122.08 67.64 122.04 67.64 122.02 67.42C121.94 66.36 121.8 65.3 121.6 64.44C121.56 64.24 121.58 64.24 121.8 64.16ZM123.02 63.92L123.4 63.8C123.58 63.74 123.6 63.76 123.66 63.92C123.88 64.52 124.06 65.2 124.2 66.02C124.22 66.18 124.22 66.22 124.04 66.32L123.62 66.54C123.42 66.64 123.38 66.6 123.36 66.44C123.22 65.54 123.08 64.82 122.86 64.18C122.8 64 122.82 63.98 123.02 63.92Z" fill="#485E13"/>
<path d="M27.728 85.968H25.112C22.784 85.968 21.992 86.016 21.848 86.016C21.608 86.016 21.584 85.992 21.584 85.752V83.976C21.584 83.736 21.608 83.712 21.848 83.712C21.992 83.712 22.784 83.76 25.112 83.76H27.704V81.144H26.048C23.816 81.144 23.048 81.192 22.904 81.192C22.664 81.192 22.64 81.168 22.64 80.952V79.152C22.64 78.912 22.664 78.888 22.904 78.888C23.048 78.888 23.816 78.936 26.048 78.936H27.704V78.216C27.704 77.232 27.704 76.608 27.536 75.888C28.448 75.912 29.24 75.96 30.032 76.056C30.272 76.08 30.44 76.176 30.44 76.32C30.44 76.464 30.392 76.584 30.296 76.728C30.176 76.896 30.152 77.232 30.152 77.952V78.936H32C34.232 78.936 35 78.888 35.144 78.888C35.384 78.888 35.408 78.912 35.408 79.152V80.952C35.408 81.168 35.384 81.192 35.144 81.192C35 81.192 34.232 81.144 32 81.144H30.152V83.76H33.296C35.624 83.76 36.44 83.712 36.56 83.712C36.8 83.712 36.824 83.736 36.824 83.976V85.752C36.824 85.992 36.8 86.016 36.56 86.016C36.44 86.016 35.624 85.968 33.296 85.968H30.176V88.728H32.864C34.448 88.728 34.928 88.68 35.072 88.68C35.336 88.68 35.36 88.704 35.36 88.944V90.696C35.36 90.96 35.336 90.984 35.072 90.984C34.928 90.984 34.448 90.936 32.864 90.936H30.176V94.608C31.496 94.872 33.128 94.992 35.144 94.968C35.84 94.968 36.392 94.944 37.064 94.92C36.872 95.352 36.728 95.952 36.656 96.576C36.56 97.344 36.536 97.344 35.792 97.392C35.12 97.392 34.472 97.392 33.824 97.368C28.328 97.224 25.688 95.88 24.344 93.36C23.84 94.8 23.144 96.12 22.16 97.464C21.944 97.728 21.824 97.872 21.704 97.872C21.584 97.872 21.464 97.728 21.224 97.464C20.864 97.008 20.312 96.528 19.904 96.24C19.904 97.104 19.928 97.536 19.928 97.632C19.928 97.848 19.904 97.872 19.688 97.872H17.672C17.456 97.872 17.432 97.848 17.432 97.632C17.432 97.464 17.48 96.576 17.48 94.656V91.128C17.48 90.408 17.504 89.448 17.504 88.584C17.12 88.992 16.688 89.376 16.28 89.76C16.04 89.976 15.872 90.12 15.776 90.12C15.656 90.12 15.584 89.976 15.488 89.664C15.272 88.968 14.888 88.248 14.6 87.888C16.64 86.184 18.008 84.552 19.16 82.68C19.376 82.32 19.592 81.84 19.784 81.408C20.432 81.768 21.032 82.176 21.56 82.56C21.776 82.728 21.872 82.8 21.872 82.992C21.872 83.088 21.8 83.184 21.704 83.256C21.56 83.352 21.368 83.52 21.176 83.808C20.768 84.456 20.336 85.104 19.904 85.728V96.12C21.704 94.08 22.544 91.944 23.048 88.968C23.144 88.344 23.192 87.816 23.168 87.24C23.84 87.336 24.728 87.48 25.328 87.6C25.712 87.696 25.88 87.768 25.88 87.96C25.88 88.128 25.808 88.248 25.712 88.368C25.568 88.56 25.496 88.896 25.4 89.352L25.04 90.96C25.664 92.184 26.504 93.12 27.728 93.768V85.968ZM19.832 75.888C20.552 76.272 21.128 76.656 21.728 77.088C21.944 77.256 22.064 77.352 22.064 77.52C22.064 77.688 21.944 77.784 21.704 77.904C21.536 78 21.32 78.216 21.032 78.576C19.928 79.944 18.44 81.24 16.832 82.488C16.592 82.68 16.448 82.776 16.328 82.776C16.184 82.776 16.088 82.608 15.872 82.224C15.584 81.696 15.128 81.096 14.792 80.808C16.448 79.752 17.936 78.432 19.088 76.992C19.424 76.584 19.64 76.248 19.832 75.888ZM49.112 85.56H43.016C40.832 85.56 40.112 85.608 39.944 85.608C39.704 85.608 39.68 85.584 39.68 85.344V83.568C39.68 83.328 39.704 83.328 39.944 83.328C40.112 83.328 40.832 83.352 43.016 83.352H43.304V80.856C43.304 79.344 43.256 78.72 43.112 77.928C44 77.952 44.912 78 45.704 78.096C45.92 78.12 46.064 78.216 46.064 78.36C46.064 78.528 45.992 78.648 45.92 78.816C45.8 79.128 45.776 79.608 45.776 80.712V83.352H49.112V78.888C49.112 77.4 49.088 76.776 48.92 75.984C49.784 76.008 50.72 76.056 51.512 76.152C51.704 76.176 51.848 76.248 51.848 76.392C51.848 76.56 51.776 76.704 51.728 76.872C51.608 77.208 51.56 77.616 51.56 78.72V78.816H54.68C57.032 78.816 57.872 78.768 58.016 78.768C58.256 78.768 58.28 78.792 58.28 79.032V80.784C58.28 81 58.256 81.024 58.016 81.024C57.872 81.024 57.032 80.976 54.68 80.976H51.56V83.352H57.104C59.288 83.352 60.032 83.328 60.176 83.328C60.416 83.328 60.44 83.328 60.44 83.568V85.344C60.44 85.584 60.416 85.608 60.176 85.608C60.032 85.608 59.288 85.56 57.104 85.56H51.56V86.664C51.56 87.792 51.632 88.8 51.632 89.688C51.632 90.744 51.512 91.296 50.888 91.8C50.336 92.232 49.76 92.4 47.576 92.4C46.832 92.424 46.832 92.424 46.664 91.632C46.496 91.032 46.232 90.36 45.944 89.88C46.808 89.976 47.384 90.024 47.984 90.024C48.8 90.024 49.112 89.736 49.112 89.136V85.56ZM54.176 89.832C54.848 90.288 55.592 90.744 56.12 91.2C56.288 91.368 56.408 91.488 56.408 91.68C56.408 91.848 56.264 91.968 56.072 92.016C55.832 92.088 55.616 92.208 55.256 92.544C52.592 95.112 48.896 97.152 42.536 97.728C41.816 97.8 41.816 97.8 41.552 97.08C41.312 96.456 40.976 95.88 40.592 95.424C47.072 95.208 51.2 93.312 53.312 90.984C53.696 90.576 53.936 90.264 54.176 89.832ZM44.024 86.28C44.816 86.568 45.272 86.784 46.064 87.168C46.304 87.288 46.328 87.384 46.328 87.504C46.328 87.672 46.208 87.768 46.04 87.864C45.92 87.936 45.656 88.224 45.512 88.464C44.744 89.688 43.352 91.104 41.864 92.136C41.6 92.328 41.432 92.424 41.312 92.424C41.144 92.424 41.024 92.256 40.76 91.896C40.4 91.416 40.016 91.08 39.584 90.744C41.24 89.856 42.512 88.632 43.232 87.648C43.64 87.096 43.856 86.664 44.024 86.28ZM54.632 87.264L55.88 86.472C56.12 86.328 56.168 86.304 56.312 86.52C57.584 88.08 59.264 89.352 61.064 90.192C60.632 90.624 60.248 91.056 59.912 91.56C59.672 91.92 59.576 92.088 59.408 92.088C59.288 92.088 59.144 91.968 58.856 91.8C57.272 90.792 55.88 89.472 54.464 87.696C54.32 87.504 54.344 87.456 54.632 87.264Z" fill="white"/>
<path d="M150.952 135.72L153.224 134.824C153.64 134.632 153.704 134.664 153.832 134.984C155.912 139.88 159.848 144.296 164.2 146.792C163.624 147.304 162.888 148.264 162.344 149.192C162.056 149.672 161.928 149.896 161.736 149.896C161.576 149.896 161.384 149.736 161.064 149.48C159.976 148.68 158.952 147.816 158.024 146.888C157.96 147.816 157.96 148.936 157.928 150.056C157.832 153.48 157.608 156.04 157.128 159.016C156.712 161.544 155.496 162.952 152.36 162.952C151.56 162.952 150.952 162.952 150.184 162.888C149.192 162.824 149.224 162.824 149 161.768C148.776 160.68 148.456 159.816 148.008 159.208C149.608 159.432 150.536 159.496 151.656 159.496C153 159.496 153.544 158.984 153.8 157.512C154.12 155.656 154.344 153.192 154.408 149.576H148.712C148.104 155.976 144.904 160.52 138.984 163.144C138.632 163.304 138.408 163.4 138.216 163.4C137.96 163.4 137.864 163.176 137.544 162.632C137.128 161.864 136.52 161.16 135.912 160.712C141.736 158.6 144.552 155.208 145.16 149.576H144.776C141.768 149.576 140.744 149.64 140.552 149.64C140.232 149.64 140.2 149.608 140.2 149.288V146.952C139.208 147.912 138.184 148.776 137.096 149.608C136.744 149.864 136.552 150.024 136.392 150.024C136.168 150.024 136.04 149.8 135.72 149.32C135.208 148.52 134.472 147.72 133.928 147.368C138.248 144.584 141.352 140.808 143.176 136.808C143.464 136.168 143.656 135.56 143.816 134.76C144.968 135.048 146.28 135.496 147.144 135.88C147.496 136.04 147.592 136.2 147.592 136.424C147.592 136.616 147.496 136.744 147.336 136.904C147.016 137.16 146.824 137.448 146.6 137.928C145 141.384 143.048 144.104 140.744 146.408C141.192 146.44 142.312 146.472 144.776 146.472H153.384C156.168 146.472 157.224 146.44 157.544 146.408C154.568 143.4 152.264 139.912 150.664 136.264C150.536 135.912 150.6 135.88 150.952 135.72Z" fill="white"/>
<path d="M80.976 99.976V142.92H90.128V149.128H63.76V142.92H73.36V108.104C70.928 109.768 67.856 111.304 64.336 112.456L63.056 105.736C67.28 104.52 71.056 102.472 74.448 99.976H80.976ZM113.056 99.464C122.912 99.464 128.416 106.504 128.416 124.552C128.416 142.664 122.912 150.024 112.928 150.024C102.88 150.024 97.6315 142.792 97.6315 124.68C97.6315 106.568 103.2 99.464 113.056 99.464ZM113.056 105.8C108.064 105.8 105.888 110.152 105.888 124.616C105.888 139.016 107.872 143.688 112.928 143.688C118.112 143.688 120.16 138.952 120.16 124.616C120.16 110.216 118.176 105.8 113.056 105.8Z" fill="#485E13"/>
<defs>
<radialGradient id="paint0_radial_225_14" cx="0" cy="0" r="1" gradientUnits="userSpaceOnUse" gradientTransform="translate(96.5 96.5) rotate(50.3185) scale(66.7274)">
<stop stop-color="#EFFAEB"/>
<stop offset="0.09" stop-color="#F1FAED"/>
<stop offset="0.22" stop-color="#F3FBF0"/>
<stop offset="0.385" stop-color="#F1FAED"/>
<stop offset="0.505" stop-color="#E0F4D6"/>
<stop offset="0.665" stop-color="#CEE7C3"/>
<stop offset="0.845" stop-color="#CAE2BF"/>
<stop offset="1" stop-color="#BEDBB0"/>
</radialGradient>
</defs>
</svg>
