<svg width="31" height="31" viewBox="0 0 31 31" fill="none" xmlns="http://www.w3.org/2000/svg">
<path d="M9.24061 25.1876V12.2709H10.9792V6.25952H22.6042V12.2709H24.5417C25.439 12.2709 26.2011 12.5852 26.8279 13.2139C27.4566 13.8407 27.7709 14.6028 27.7709 15.5001V25.1876H9.24061ZM5.74019 26.4793C6.44372 26.4793 7.03745 26.2369 7.5214 25.7521C8.00534 25.2673 8.24688 24.6731 8.24602 23.9696V13.4877C8.24602 12.7859 8.00362 12.1921 7.51881 11.7065C7.03315 11.2217 6.43855 10.9793 5.73502 10.9793C5.0315 10.9793 4.43776 11.2217 3.95381 11.7065C3.46987 12.1913 3.22833 12.7855 3.22919 13.489V23.9709C3.22919 24.6735 3.47202 25.2673 3.95769 25.7521C4.44336 26.2369 5.03752 26.4793 5.74019 26.4793ZM12.2709 12.2709H21.3125V7.55119H12.2709V12.2709ZM19.9214 18.0834C20.2874 18.0834 20.5944 17.9594 20.8424 17.7114C21.0904 17.4634 21.2139 17.1569 21.2131 16.7918C21.2122 16.4267 21.0886 16.1201 20.8424 15.8721C20.5961 15.6241 20.2891 15.5001 19.9214 15.5001C19.5537 15.5001 19.2471 15.6241 19.0017 15.8721C18.7563 16.1201 18.6323 16.4267 18.6297 16.7918C18.6271 17.1569 18.7511 17.4639 19.0017 17.7127C19.2523 17.9616 19.5589 18.0852 19.9214 18.0834ZM23.7964 18.0834C24.1624 18.0834 24.4694 17.9594 24.7174 17.7114C24.9654 17.4634 25.0889 17.1569 25.0881 16.7918C25.0872 16.4267 24.9636 16.1201 24.7174 15.8721C24.4711 15.6241 24.1641 15.5001 23.7964 15.5001C23.4287 15.5001 23.1222 15.6241 22.8767 15.8721C22.6313 16.1201 22.5073 16.4267 22.5047 16.7918C22.5021 17.1569 22.6262 17.4639 22.8767 17.7127C23.1273 17.9616 23.4339 18.0852 23.7964 18.0834ZM19.9214 21.9584C20.2874 21.9584 20.5944 21.8344 20.8424 21.5864C21.0904 21.3384 21.2139 21.0319 21.2131 20.6668C21.2122 20.3017 21.0886 19.9947 20.8424 19.7458C20.5961 19.497 20.2891 19.3734 19.9214 19.3751C19.5537 19.3768 19.2471 19.5004 19.0017 19.7458C18.7563 19.9912 18.6323 20.2982 18.6297 20.6668C18.6271 21.0353 18.7511 21.3419 19.0017 21.5864C19.2523 21.831 19.5589 21.955 19.9214 21.9584ZM23.7964 21.9584C24.1624 21.9584 24.4694 21.8344 24.7174 21.5864C24.9654 21.3384 25.0889 21.0319 25.0881 20.6668C25.0872 20.3017 24.9636 19.9947 24.7174 19.7458C24.4711 19.497 24.1641 19.3734 23.7964 19.3751C23.4287 19.3768 23.1222 19.5004 22.8767 19.7458C22.6313 19.9912 22.5073 20.2982 22.5047 20.6668C22.5021 21.0353 22.6262 21.3419 22.8767 21.5864C23.1273 21.831 23.4339 21.955 23.7964 21.9584ZM12.1714 21.9584H17.3381V15.5001H12.1714V21.9584Z" fill="black"/>
</svg>
