<svg width="29" height="30" viewBox="0 0 29 30" fill="none" xmlns="http://www.w3.org/2000/svg">
<path d="M5.57767 23.75C5.02103 23.75 4.55663 23.5575 4.18446 23.1725C3.81229 22.7875 3.62581 22.3067 3.625 21.73V8.27C3.625 7.69417 3.81149 7.21375 4.18446 6.82875C4.55743 6.44375 5.02143 6.25083 5.57646 6.25H23.4235C23.9794 6.25 24.4434 6.44292 24.8155 6.82875C25.1877 7.21458 25.3742 7.695 25.375 8.27V21.7313C25.375 22.3062 25.1885 22.7867 24.8155 23.1725C24.4426 23.5583 23.9786 23.7508 23.4235 23.75H5.57767ZM14.5 14.95C14.6007 14.95 14.6949 14.9342 14.7828 14.9025C14.8698 14.8708 14.9559 14.8321 15.0413 14.7863L23.7764 8.87C23.8908 8.79833 23.9653 8.70042 23.9999 8.57625C24.0346 8.45208 24.0281 8.32833 23.9806 8.205C23.95 8.04417 23.8485 7.9275 23.6761 7.855C23.5045 7.78333 23.3382 7.79792 23.177 7.89875L14.5 13.75L5.82417 7.9C5.66306 7.79833 5.50033 7.77667 5.336 7.835C5.17167 7.89333 5.06614 8.00833 5.01942 8.18C4.97269 8.30833 4.96665 8.43875 5.00129 8.57125C5.03593 8.70375 5.11004 8.80375 5.22362 8.87125L13.9587 14.7863C14.0441 14.8321 14.1302 14.8708 14.2172 14.9025C14.3051 14.9333 14.3993 14.9487 14.5 14.9487" fill="black"/>
</svg>
