<svg width="32" height="32" viewBox="0 0 32 32" fill="none" xmlns="http://www.w3.org/2000/svg">
<path d="M2.35868 22C2.16935 22 2.01113 21.936 1.88402 21.808C1.75691 21.68 1.69291 21.5218 1.69202 21.3333V14.6667C1.69202 14.4773 1.75602 14.3191 1.88402 14.192C2.01202 14.064 2.17068 14 2.36002 14C2.54935 14 2.70757 14.064 2.83468 14.192C2.96179 14.32 3.02535 14.4782 3.02535 14.6667V21.3333C3.02535 21.5227 2.96135 21.6809 2.83335 21.808C2.70535 21.9351 2.54668 21.9991 2.35735 22M6.05068 18C5.86135 18 5.70313 17.936 5.57602 17.808C5.44891 17.68 5.38491 17.5218 5.38402 17.3333V10.6667C5.38402 10.4773 5.44802 10.3191 5.57602 10.192C5.70402 10.064 5.86268 10 6.05202 10C6.24135 10 6.39957 10.064 6.52668 10.192C6.65379 10.32 6.71824 10.4782 6.72002 10.6667V17.3333C6.72002 17.5227 6.65602 17.6809 6.52802 17.808C6.40002 17.9351 6.24002 17.9991 6.05068 18ZM11.2307 28C10.6174 28 10.1049 27.7947 9.69335 27.384C9.28179 26.9733 9.07646 26.4609 9.07735 25.8467V6.15333C9.07735 5.54 9.28268 5.028 9.69335 4.61733C10.104 4.20667 10.6165 4.00089 11.2307 4H20.7694C21.3827 4 21.8951 4.20578 22.3067 4.61733C22.7182 5.02889 22.9236 5.54133 22.9227 6.15467V25.8467C22.9227 26.46 22.7174 26.9724 22.3067 27.384C21.896 27.7956 21.3836 28.0009 20.7694 28H11.2307ZM25.948 22C25.7587 22 25.6005 21.936 25.4733 21.808C25.3462 21.68 25.2827 21.5218 25.2827 21.3333V14.6667C25.2827 14.4773 25.3467 14.3191 25.4747 14.192C25.6027 14.0649 25.7609 14.0009 25.9494 14C26.1378 13.9991 26.296 14.0631 26.424 14.192C26.552 14.3209 26.616 14.4791 26.616 14.6667V21.3333C26.616 21.5227 26.552 21.6809 26.424 21.808C26.296 21.936 26.1374 22 25.948 22ZM29.64 18C29.4507 18 29.2925 17.936 29.1653 17.808C29.0382 17.68 28.9747 17.5218 28.9747 17.3333V10.6667C28.9747 10.4773 29.0387 10.3191 29.1667 10.192C29.2947 10.0649 29.4529 10.0009 29.6414 10C29.8298 9.99911 29.988 10.0631 30.116 10.192C30.244 10.3209 30.308 10.4791 30.308 10.6667V17.3333C30.308 17.5227 30.244 17.6809 30.116 17.808C29.988 17.936 29.8293 18 29.64 18ZM10.4107 23.3333H21.5893V8.66667H10.4107V23.3333Z" fill="black"/>
</svg>
