<svg width="51" height="51" viewBox="0 0 51 51" fill="none" xmlns="http://www.w3.org/2000/svg">
<path d="M17 6.375C18.0625 6.375 22.3125 15.9375 22.3125 17C22.3125 19.125 19.125 21.25 18.0625 23.375C17 25.5 19.125 27.625 21.25 29.75C22.0787 30.5788 25.5 34 27.625 32.9375C29.75 31.875 31.875 28.6875 34 28.6875C35.0625 28.6875 44.625 32.9375 44.625 34C44.625 38.25 41.4375 41.4375 38.25 42.5C35.0625 43.5625 32.9375 43.5625 28.6875 42.5C24.4375 41.4375 21.25 40.375 15.9375 35.0625C10.625 29.75 9.5625 26.5625 8.5 22.3125C7.4375 18.0625 7.4375 15.9375 8.5 12.75C9.5625 9.5625 12.75 6.375 17 6.375Z" fill="black" stroke="black" stroke-width="2" stroke-linecap="round" stroke-linejoin="round"/>
</svg>
