<svg width="193" height="107" viewBox="0 0 193 107" fill="none" xmlns="http://www.w3.org/2000/svg">
<g clip-path="url(#clip0_237_212)">
<path d="M90.0949 44.4038L72.3667 102.044L61.7048 101.754L79.8899 41.2651L90.0949 44.4038Z" fill="#FCFCFC"/>
<path d="M126.287 44.4038L108.559 102.044L97.897 101.754L116.082 41.2651L126.287 44.4038Z" fill="#FCFCFC"/>
<path d="M80.3941 0H27.5891V10.6797H42.3092L28.3723 56.003L38.5773 59.1416L53.4814 10.6797H80.3941V0Z" fill="#FCFCFC"/>
<path d="M27.2925 106.5C12.246 106.5 0 94.254 0 79.2075C0 64.1611 12.246 51.915 27.2925 51.915C42.3389 51.915 54.585 64.1611 54.585 79.2075C54.585 94.254 42.3389 106.5 27.2925 106.5ZM27.2925 63.5262C18.6479 63.5262 11.6112 70.557 11.6112 79.2075C11.6112 87.858 18.642 94.8888 27.2925 94.8888C35.943 94.8888 42.9738 87.858 42.9738 79.2075C42.9738 70.557 35.943 63.5262 27.2925 63.5262Z" fill="#FCFCFC"/>
<path d="M159.008 106.5C143.962 106.5 131.716 94.254 131.716 79.2075C131.716 64.1611 143.962 51.915 159.008 51.915C174.055 51.915 186.301 64.1611 186.301 79.2075C186.301 94.254 174.055 106.5 159.008 106.5ZM159.008 63.5262C150.364 63.5262 143.327 70.557 143.327 79.2075C143.327 87.858 150.358 94.8888 159.008 94.8888C167.659 94.8888 174.69 87.858 174.69 79.2075C174.69 70.557 167.659 63.5262 159.008 63.5262Z" fill="#FCFCFC"/>
<path d="M60.5181 60.2215C60.5181 60.2215 70.9367 36.6551 100.116 35.3023C125.741 34.1157 140.206 42.256 156.605 40.6422C174.66 38.8622 182.978 33.9199 186.888 29.3692C190.964 24.6227 190.383 18.0962 190.383 18.0962C190.383 18.0962 194.103 24.1361 191 30.6626C185.138 43.0154 172.886 46.4863 164.758 48.9486C143.208 55.475 117.008 44.7954 103.029 44.7954C92.5452 44.7954 84.9745 46.5753 76.8224 49.5419C71.8504 51.3515 60.9097 59.3731 60.5181 60.2215Z" fill="#FCFCFC"/>
</g>
<defs>
<clipPath id="clip0_237_212">
<rect width="192.234" height="106.5" fill="white"/>
</clipPath>
</defs>
</svg>
