<svg width="104" height="57" viewBox="0 0 104 57" fill="none" xmlns="http://www.w3.org/2000/svg">
<g clip-path="url(#clip0_237_121)">
<path d="M48.7421 23.7653L39.151 54.6151L33.3828 54.4595L43.2211 22.0854L48.7421 23.7653Z" fill="black"/>
<path d="M68.3222 23.7653L58.731 54.6151L52.9629 54.4595L62.8012 22.0854L68.3222 23.7653Z" fill="black"/>
<path d="M43.4939 0H14.926V5.71588H22.8897L15.3497 29.9734L20.8707 31.6533L28.9339 5.71588H43.4939V0Z" fill="black"/>
<path d="M14.7654 56.9999C6.62519 56.9999 0 50.4457 0 42.3926C0 34.3396 6.62519 27.7854 14.7654 27.7854C22.9057 27.7854 29.5309 34.3396 29.5309 42.3926C29.5309 50.4457 22.9057 56.9999 14.7654 56.9999ZM14.7654 33.9998C10.0886 33.9998 6.28173 37.7628 6.28173 42.3926C6.28173 47.0225 10.0854 50.7855 14.7654 50.7855C19.4454 50.7855 23.2491 47.0225 23.2491 42.3926C23.2491 37.7628 19.4454 33.9998 14.7654 33.9998Z" fill="black"/>
<path d="M86.0247 56.9999C77.8845 56.9999 71.2593 50.4457 71.2593 42.3926C71.2593 34.3396 77.8845 27.7854 86.0247 27.7854C94.165 27.7854 100.79 34.3396 100.79 42.3926C100.79 50.4457 94.165 56.9999 86.0247 56.9999ZM86.0247 33.9998C81.3479 33.9998 77.541 37.7628 77.541 42.3926C77.541 47.0225 81.3447 50.7855 86.0247 50.7855C90.7047 50.7855 94.5084 47.0225 94.5084 42.3926C94.5084 37.7628 90.7047 33.9998 86.0247 33.9998Z" fill="black"/>
<path d="M32.7407 32.2313C32.7407 32.2313 38.3773 19.6182 54.1634 18.8942C68.0269 18.2591 75.8526 22.6159 84.7247 21.7522C94.4923 20.7995 98.9926 18.1543 101.108 15.7187C103.313 13.1783 102.998 9.6853 102.998 9.6853C102.998 9.6853 105.011 12.9179 103.332 16.411C100.161 23.0224 93.5326 24.88 89.135 26.1978C77.4768 29.6909 63.302 23.975 55.7395 23.975C50.0676 23.975 45.9718 24.9276 41.5615 26.5154C38.8716 27.4839 32.9526 31.7772 32.7407 32.2313Z" fill="black"/>
<path d="M50.4562 1.89575L49.3808 4.29007V9.34227H48.7646V5.64918L48.5816 6.05882H47.8818L49.7596 1.89575H50.4594H50.4562ZM54.889 3.6645H52.5265V4.90294H54.5134V5.53804H52.5265V6.77648H54.5134V7.4211H52.5265V9.34545H51.9006V3.6645H51.3004L50.591 5.23319H49.8816L51.3934 1.89575H52.0932L51.5925 3.01987H54.889V3.6645Z" fill="black"/>
<path d="M63.1673 6.75744V7.38619H60.9557L63.1513 8.5897V9.32959L59.996 7.6053V9.34864H59.37V7.65928L56.2244 9.35817V8.63416L58.5291 7.38937H56.2436V6.76062H59.3733V6.26524H56.8792V5.63014H59.3733V5.13477H56.5197V4.50602H58.3236L57.9641 3.62641H56.2854V2.98179H57.5886L56.8118 1.92753H57.5789L58.3621 2.98179H58.7281V1.85767H59.354V2.98179H60.0891V1.85767H60.715V2.98179H61.0649L61.8481 1.92753H62.6249L61.8416 2.98179H63.1256V3.62641H61.4244L61.0649 4.50602H62.9009V5.13477H59.996V5.63014H62.5414V6.26524H59.996V6.76062H63.1673V6.75744ZM58.635 3.62006L59.0009 4.49967H60.3779L60.7375 3.62006H58.635Z" fill="black"/>
<path d="M67.799 3.38501V6.43348H65.7126L65.1702 9.34223H64.5186L65.0931 6.29376V3.38501H67.7958H67.799ZM68.0751 2.17198V2.82613H64.6213V2.17198H68.0751ZM67.1828 5.79838V4.02011H65.7126V5.79838H67.1828ZM71.5803 4.39482V5.03944H70.6462V9.34223H70.0363V5.03944H68.8679V8.33242L68.3832 9.25649H67.6835L68.2356 8.20223V2.94997L71.3909 1.9751V2.64513L68.8711 3.41994V4.39482H71.5835H71.5803Z" fill="black"/>
<path d="M77.1976 3.43255C77.9776 2.96893 78.8057 2.55294 79.2551 2.29255C79.6178 2.07979 79.8939 1.91467 80.141 1.70191L80.799 2.82286C80.5134 2.99751 80.2084 3.16263 79.8553 3.34681C79.2647 3.64531 78.0642 4.20737 77.1976 4.77896C76.4079 5.31244 75.8751 5.8618 75.8751 6.53818C75.8751 7.21456 76.5331 7.60197 77.8556 7.60197C78.8378 7.60197 80.1218 7.45589 80.9692 7.24314L80.9499 8.63718C80.141 8.78325 79.1299 8.87851 77.8941 8.87851C76.0003 8.87851 74.5623 8.34503 74.5623 6.68425C74.5623 5.62046 75.2299 4.81706 76.1415 4.13116C75.705 3.30871 75.246 2.2735 74.819 1.24782L76.0099 0.755615C76.3726 1.76224 76.8188 2.68949 77.2008 3.43573L77.1976 3.43255Z" fill="black"/>
<path d="M84.7569 4.10904C85.4053 3.90581 87.0231 3.35327 88.1754 3.35327C89.6809 3.35327 90.6888 4.26146 90.6888 5.72219C90.6888 7.47188 89.1737 8.66269 86.1468 8.85639L85.6428 7.66558C87.8224 7.60842 89.4241 7.01778 89.4241 5.70313C89.4241 4.97912 88.8912 4.47422 88.0631 4.47422C86.9589 4.47422 85.0554 5.27762 84.2433 5.62374L83.749 4.36625C84.0347 4.30909 84.4712 4.1916 84.7569 4.10586V4.10904Z" fill="black"/>
<path d="M96.2418 3.43255C97.0218 2.96893 97.8499 2.55294 98.2993 2.29255C98.662 2.07979 98.9381 1.91467 99.1852 1.70191L99.8432 2.82286C99.5576 2.99751 99.2526 3.16263 98.8995 3.34681C98.3089 3.64531 97.1084 4.20737 96.2418 4.77896C95.4521 5.31244 94.9193 5.8618 94.9193 6.53818C94.9193 7.21456 95.5773 7.60197 96.8998 7.60197C97.882 7.60197 99.1659 7.45589 100.013 7.24314L99.9941 8.63718C99.1852 8.78325 98.1741 8.87851 96.9383 8.87851C95.0445 8.87851 93.6064 8.34503 93.6064 6.68425C93.6064 5.62046 94.2741 4.81706 95.1857 4.13116C94.7492 3.30871 94.2902 2.2735 93.8632 1.24782L95.0541 0.755615C95.4168 1.76224 95.863 2.68949 96.245 3.43573L96.2418 3.43255Z" fill="black"/>
</g>
<defs>
<clipPath id="clip0_237_121">
<rect width="104" height="57" fill="white"/>
</clipPath>
</defs>
</svg>
