<svg width="393" height="189" viewBox="0 0 393 189" fill="none" xmlns="http://www.w3.org/2000/svg">
<g clip-path="url(#clip0_418_2)">
<path d="M48.9477 98.9231V28.1137C48.9477 12.9544 62.1432 0.65625 78.4403 0.65625H357.803C374.1 0.65625 387.295 12.9412 387.295 28.1137V160.899C387.295 176.059 374.1 188.357 357.803 188.357H78.4262C62.1432 188.357 48.9336 176.072 48.9336 160.899L48.2287 148.326V147.538C45.959 126.144 8.55743 134.387 1.08557 139.768C0.874115 139.912 0.592163 139.716 0.704956 139.492C6.66833 127.798 45.4937 112.481 48.9336 97.7812" fill="#FFFAE3"/>
<path d="M48.9477 98.9231V28.1137C48.9477 12.9544 62.1432 0.65625 78.4403 0.65625H357.803C374.1 0.65625 387.295 12.9412 387.295 28.1137V160.899C387.295 176.059 374.1 188.357 357.803 188.357H78.4262C62.1432 188.357 48.9336 176.072 48.9336 160.899L48.2287 148.326V147.538C45.9589 126.144 8.55742 134.387 1.08558 139.768C0.874117 139.912 0.592176 139.716 0.704959 139.492C6.66833 127.798 45.4937 112.481 48.9336 97.7812" stroke="#141414" stroke-miterlimit="10"/>
</g>
<path d="M88.576 76.2C87.392 77.416 86.048 78.44 84.704 79.24C84.544 79.336 84.352 79.4 84.128 79.4C83.776 79.4 83.424 79.24 83.168 78.856C83.072 78.664 83.008 78.472 83.008 78.28C83.008 77.928 83.168 77.64 83.488 77.48C85.568 76.296 87.52 74.696 88.736 72.712C88.992 72.36 89.28 72.2 89.632 72.2C89.824 72.2 90.016 72.264 90.208 72.36C90.56 72.552 90.72 72.872 90.72 73.16C90.72 73.352 90.656 73.544 90.56 73.704C90.304 74.088 90.048 74.44 89.792 74.792C90.848 75.816 92.064 76.584 93.024 77.032C93.376 77.224 93.536 77.544 93.536 77.896C93.536 78.088 93.504 78.28 93.408 78.44C93.184 78.824 92.832 79.048 92.48 79.048C92.32 79.048 92.16 79.016 92 78.92C91.008 78.376 89.568 77.192 88.576 76.2ZM89.312 69.672C87.968 71.048 86.464 72.296 84.8 73.224C84.64 73.352 84.48 73.384 84.288 73.384C83.936 73.384 83.552 73.16 83.36 72.776C83.264 72.616 83.232 72.424 83.232 72.264C83.232 71.848 83.456 71.528 83.84 71.304C86.24 70.024 88.448 68.04 89.632 65.992C89.856 65.64 90.176 65.48 90.56 65.48C90.72 65.48 90.912 65.512 91.072 65.576C91.456 65.736 91.648 66.088 91.648 66.408C91.648 66.568 91.584 66.76 91.488 66.888C91.2 67.368 90.848 67.816 90.496 68.264C91.456 69.16 92.448 69.96 93.28 70.408C93.6 70.568 93.792 70.92 93.792 71.272C93.792 71.464 93.76 71.624 93.664 71.816C93.472 72.168 93.152 72.36 92.8 72.36C92.608 72.36 92.384 72.296 92.192 72.168C91.52 71.72 90.336 70.76 89.312 69.672ZM101.984 69.672C101.216 70.664 100.416 71.496 99.712 72.104C99.52 72.296 99.264 72.392 99.008 72.392C98.752 72.392 98.464 72.264 98.24 71.976C98.08 71.784 97.984 71.528 97.984 71.272C97.984 70.984 98.112 70.696 98.368 70.472C99.744 69.384 100.8 68.04 101.6 66.408C101.76 66.056 102.08 65.896 102.4 65.896C102.592 65.896 102.784 65.96 103.008 66.056C103.392 66.248 103.552 66.568 103.552 66.888C103.552 67.048 103.488 67.24 103.424 67.432C103.264 67.688 103.136 67.944 102.976 68.2C104.704 69.704 106.56 70.664 108.256 71.368C108.64 71.528 108.896 71.88 108.896 72.296C108.896 72.456 108.864 72.616 108.8 72.776C108.608 73.192 108.32 73.416 107.904 73.416C107.744 73.416 107.552 73.384 107.36 73.288C105.504 72.424 103.68 71.272 101.984 69.672ZM102.592 75.848C101.728 76.936 100.768 77.928 99.744 78.664C99.552 78.824 99.296 78.888 99.072 78.888C98.752 78.888 98.464 78.76 98.208 78.472C98.048 78.28 97.984 78.056 97.984 77.832C97.984 77.48 98.176 77.16 98.432 76.968C100 75.88 101.376 74.44 102.272 72.68C102.4 72.392 102.688 72.264 103.008 72.264C103.2 72.264 103.392 72.296 103.584 72.392C103.968 72.552 104.192 72.904 104.192 73.256C104.192 73.384 104.16 73.512 104.096 73.64C103.936 73.896 103.776 74.12 103.616 74.376C105.152 75.688 106.912 76.648 108.512 77.256C108.896 77.416 109.12 77.8 109.12 78.184C109.12 78.344 109.088 78.536 108.992 78.664C108.8 79.08 108.416 79.272 108.032 79.272C107.84 79.272 107.68 79.24 107.488 79.144C105.824 78.44 104.064 77.192 102.592 75.848ZM94.72 82.536H82.24C81.664 82.536 81.344 82.088 81.344 81.416C81.344 80.712 81.664 80.296 82.24 80.296H94.72V64.36C94.72 63.816 95.168 63.496 95.872 63.496C96.608 63.496 97.088 63.816 97.088 64.36V80.296H109.888C110.464 80.296 110.816 80.744 110.816 81.416C110.816 82.056 110.464 82.536 109.888 82.536H97.088V87.08C97.088 87.656 96.608 87.976 95.872 87.976C95.136 87.976 94.72 87.656 94.72 87.08V82.536ZM94.016 58.376C94.464 57.896 95.168 57.672 95.84 57.672C96.544 57.672 97.248 57.896 97.696 58.376C101.504 62.312 105.568 64.584 109.952 66.248C110.816 66.568 111.072 66.984 111.072 67.464C111.072 67.624 111.04 67.816 110.976 68.008C110.816 68.488 110.368 68.776 109.856 68.776C109.632 68.776 109.408 68.744 109.184 68.648C104.064 66.504 99.488 63.464 96.384 60.264C96.192 60.072 96.032 59.976 95.904 59.976C95.744 59.976 95.616 60.072 95.456 60.232C92.224 63.752 87.648 66.856 82.976 68.648C82.72 68.776 82.432 68.84 82.176 68.84C81.76 68.84 81.376 68.648 81.152 68.136C81.088 67.944 81.056 67.784 81.056 67.624C81.056 67.048 81.536 66.632 82.016 66.44C86.496 64.616 90.624 62.28 94.016 58.376ZM133.984 63.112C136.416 64.04 138.976 65.416 140.768 66.632C141.216 66.92 141.408 67.4 141.408 67.816C141.408 68.072 141.344 68.328 141.216 68.552C140.96 68.936 140.544 69.16 140.128 69.16C139.84 69.16 139.584 69.064 139.328 68.904C137.44 67.592 135.04 66.344 132.64 65.384C132.224 65.224 132.032 64.84 132.032 64.424C132.032 64.168 132.096 63.912 132.224 63.688C132.512 63.24 132.928 63.016 133.408 63.016C133.6 63.016 133.792 63.048 133.984 63.112ZM123.008 66.632C121.472 71.656 119.392 76.712 116.992 80.904C116.672 81.448 116.256 81.736 115.808 81.736C115.52 81.736 115.232 81.64 114.912 81.448C114.496 81.192 114.304 80.808 114.304 80.392C114.304 80.104 114.4 79.752 114.592 79.432C116.8 75.688 118.944 71.112 120.256 66.792C119.072 66.856 117.824 66.888 116.576 66.888C116.192 66.888 115.776 66.888 115.36 66.888C114.624 66.888 114.24 66.408 114.24 65.64C114.24 64.872 114.688 64.392 115.424 64.392C115.872 64.392 116.32 64.392 116.8 64.392C118.176 64.392 119.616 64.36 120.992 64.296C121.44 62.728 121.824 61.128 122.144 59.496C122.208 58.792 122.688 58.44 123.328 58.44C123.424 58.44 123.52 58.44 123.648 58.472C124.352 58.6 124.768 58.952 124.768 59.592C124.768 59.72 124.768 59.848 124.736 60.008C124.448 61.32 124.128 62.696 123.776 64.072C125.344 63.944 126.848 63.816 128.192 63.624C128.288 63.592 128.384 63.592 128.48 63.592C129.12 63.592 129.504 63.976 129.632 64.648C129.632 64.712 129.632 64.776 129.632 64.84C129.632 65.448 129.248 65.928 128.48 66.056C126.816 66.312 124.928 66.472 123.008 66.632ZM135.2 77.512C137.344 78.536 139.616 80.04 141.216 81.64C141.536 81.96 141.696 82.344 141.696 82.696C141.696 83.016 141.568 83.336 141.344 83.592C141.056 83.88 140.736 84.04 140.416 84.04C140.096 84.04 139.744 83.88 139.456 83.624C138.208 82.376 136.64 81.064 135.296 80.296C135.36 80.68 135.36 81.096 135.36 81.384C135.2 84.872 132.96 86.504 128.608 86.504C124.608 86.504 121.952 84.392 121.952 81.384C121.952 78.312 124.672 76.104 128.64 76.104C129.984 76.104 131.296 76.296 132.608 76.648C132.416 74.856 132.256 72.328 132.256 70.248C132.256 69.32 132.8 68.936 133.504 68.936C134.272 68.936 134.816 69.352 134.816 70.248C134.816 73 134.944 75.24 135.2 77.512ZM132.8 79.208C131.52 78.632 130.08 78.376 128.704 78.376C126.112 78.376 124.48 79.592 124.48 81.352C124.48 83.112 126.048 84.104 128.672 84.104C131.392 84.104 132.864 83.08 132.864 80.808C132.864 80.296 132.864 79.848 132.8 79.208ZM158.496 69.32C161.664 67.976 165.408 66.696 168.256 65.96C168.448 65.928 168.608 65.896 168.768 65.896C169.408 65.896 169.824 66.216 170.016 66.856C170.048 67.016 170.08 67.176 170.08 67.336C170.08 67.912 169.728 68.392 168.992 68.584C165.664 69.416 161.12 70.888 157.728 72.424C153.568 74.312 151.392 76.712 151.392 79.048C151.392 81.832 153.44 83.24 160.224 83.24C163.36 83.24 166.88 82.888 169.312 82.376C169.44 82.344 169.568 82.344 169.696 82.344C170.4 82.344 170.88 82.76 170.976 83.496C171.008 83.624 171.008 83.72 171.008 83.848C171.008 84.52 170.56 85.064 169.792 85.224C167.328 85.768 163.84 85.992 160.096 85.992C152.256 86.024 148.64 83.848 148.64 79.016C148.64 75.784 151.328 72.648 155.936 70.408C154.976 67.528 154.208 64.2 153.6 60.968C153.568 60.872 153.568 60.776 153.568 60.68C153.568 59.976 154.112 59.56 154.72 59.432C154.848 59.4 154.944 59.4 155.072 59.4C155.712 59.4 156.256 59.752 156.352 60.488C156.896 63.528 157.568 66.632 158.496 69.32ZM166.944 59.688C166.944 59.272 167.36 58.824 167.872 58.824C168.224 58.824 168.448 58.92 168.704 59.176C169.696 60.136 170.88 61.672 171.488 62.728C171.584 62.92 171.712 63.144 171.712 63.56C171.712 64.04 171.264 64.456 170.656 64.456C170.272 64.456 170.016 64.296 169.824 63.912C169.152 62.76 168.16 61.448 167.264 60.456C167.072 60.232 166.944 59.976 166.944 59.688ZM170.752 57.928C170.752 57.512 171.232 57.096 171.68 57.096C172.032 57.096 172.256 57.224 172.544 57.48C173.376 58.28 174.592 59.944 175.168 60.968C175.264 61.16 175.36 61.416 175.36 61.768C175.36 62.152 174.976 62.664 174.368 62.664C173.984 62.664 173.76 62.504 173.536 62.152C172.832 60.936 172 59.688 171.136 58.76C170.848 58.472 170.752 58.312 170.752 57.928ZM192.159 63.528C191.871 68.392 191.167 72.872 190.047 76.296C188.927 79.592 187.999 81.032 186.879 82.088C185.855 83.08 184.511 83.496 183.199 83.496C179.871 83.496 177.215 80.264 177.215 74.888C177.215 66.92 182.783 61.16 191.519 61.16C199.071 61.16 204.063 66.088 204.063 73.128C204.063 77.64 202.111 81.064 198.783 83.176C196.927 84.36 194.623 85.096 192.063 85.48C191.935 85.512 191.807 85.512 191.711 85.512C191.039 85.512 190.495 85.192 190.367 84.392C190.335 84.296 190.335 84.168 190.335 84.072C190.335 83.432 190.751 82.952 191.487 82.824C193.823 82.504 196.287 81.704 197.887 80.52C199.903 79.016 201.375 76.424 201.375 73.064C201.375 67.656 197.823 63.72 192.159 63.528ZM189.503 63.624C183.647 64.168 179.807 68.648 179.807 74.856C179.807 78.696 181.439 80.712 183.135 80.712C183.871 80.712 184.607 80.456 185.279 79.784C185.983 79.112 186.719 77.736 187.487 75.4C188.479 72.392 189.279 68.008 189.503 63.624ZM104.448 109.84L83.872 109.872C83.2 109.872 82.784 109.264 82.784 108.528C82.784 107.76 83.232 107.152 83.872 107.152L105.568 107.12C106.784 107.12 107.808 107.504 108.384 108.304C108.736 108.784 108.928 109.36 108.928 110C108.928 110.704 108.736 111.44 108.288 112.272C105.952 116.56 101.664 120.56 97.248 123.44C98.624 125.04 99.936 126.544 100.992 128.112C101.184 128.4 101.248 128.656 101.248 128.944C101.248 129.488 100.928 129.968 100.544 130.256C100.288 130.416 100.032 130.512 99.744 130.512C99.296 130.512 98.816 130.256 98.496 129.776C95.456 125.424 91.456 120.752 87.456 117.168C87.136 116.88 86.976 116.56 86.976 116.24C86.976 115.888 87.168 115.536 87.52 115.28C87.808 115.024 88.096 114.928 88.384 114.928C88.736 114.928 89.088 115.088 89.408 115.344C91.456 117.104 93.536 119.152 95.488 121.328C99.52 118.832 103.392 115.152 105.344 111.504C105.536 111.152 105.632 110.832 105.632 110.608C105.632 110.096 105.248 109.84 104.448 109.84ZM140.16 119.472H115.808C115.008 119.472 114.56 118.96 114.56 118.096C114.56 117.264 115.008 116.656 115.84 116.656H140.128C140.96 116.656 141.408 117.264 141.408 118.096C141.408 118.96 140.96 119.472 140.16 119.472ZM159.488 121.328L148.352 123.12C148.288 123.12 148.224 123.12 148.16 123.12C147.584 123.12 147.072 122.736 146.976 122.128C146.944 122.032 146.944 121.936 146.944 121.84C146.944 121.232 147.296 120.72 147.84 120.624L158.944 118.832L157.568 112.496L148.256 114C148.192 114 148.128 114 148.064 114C147.488 114 147.04 113.616 146.944 112.976C146.912 112.88 146.912 112.784 146.912 112.688C146.912 112.112 147.264 111.6 147.808 111.504L157.056 110.032L156.096 105.616C156.064 105.52 156.064 105.392 156.064 105.296C156.064 104.688 156.48 104.304 157.184 104.144C157.344 104.112 157.472 104.112 157.6 104.112C158.176 104.112 158.56 104.4 158.72 105.104L159.712 109.616L169.408 108.048C169.472 108.048 169.504 108.048 169.568 108.048C170.144 108.048 170.528 108.528 170.688 109.136C170.72 109.264 170.72 109.36 170.72 109.488C170.72 110.032 170.4 110.448 169.856 110.544L160.256 112.08L161.632 118.384L171.744 116.752C171.808 116.72 171.904 116.72 171.968 116.72C172.576 116.72 173.024 117.168 173.12 117.808C173.152 117.904 173.152 118 173.152 118.096C173.152 118.704 172.8 119.184 172.192 119.28L162.176 120.88L164.16 130C164.192 130.128 164.192 130.256 164.192 130.352C164.192 130.96 163.84 131.312 163.168 131.472C162.976 131.504 162.816 131.536 162.656 131.536C162.08 131.536 161.632 131.216 161.472 130.544L159.488 121.328ZM182.784 106.832C185.12 108.304 188.032 110.576 189.888 112.848C190.144 113.168 190.272 113.52 190.272 113.872C190.272 114.256 190.112 114.64 189.824 114.96C189.568 115.248 189.216 115.408 188.832 115.408C188.448 115.408 188.032 115.216 187.648 114.8C185.888 112.784 183.264 110.512 180.96 108.944C180.608 108.688 180.448 108.304 180.448 107.92C180.448 107.6 180.576 107.248 180.8 106.992C181.088 106.64 181.44 106.512 181.824 106.512C182.176 106.512 182.496 106.64 182.784 106.832ZM204.224 109.168C204.896 109.36 205.312 109.808 205.312 110.48C205.312 110.672 205.28 110.864 205.248 111.056C203.936 116.496 200.896 121.68 196.448 125.04C192.576 127.952 186.656 129.84 181.696 130.032C181.664 130.032 181.664 130.032 181.632 130.032C180.8 130.032 180.192 129.552 180.128 128.752C180.128 128.688 180.128 128.656 180.128 128.592C180.128 127.824 180.608 127.216 181.408 127.184C186.144 126.96 191.584 125.104 194.784 122.64C198.528 119.728 201.312 115.056 202.464 110.32C202.688 109.456 203.168 109.104 203.744 109.104C203.904 109.104 204.064 109.136 204.224 109.168ZM230.144 110.736L219.84 110.896C217.984 113.776 215.424 116.432 212.608 118.288C212.32 118.48 212.064 118.544 211.776 118.544C211.36 118.544 210.976 118.352 210.688 117.968C210.528 117.744 210.432 117.456 210.432 117.168C210.432 116.72 210.624 116.272 211.104 115.952C214.272 113.904 217.472 110.384 219.616 105.04C219.84 104.464 220.224 104.112 220.864 104.112C221.024 104.112 221.216 104.144 221.44 104.208C222.112 104.4 222.432 104.848 222.432 105.392C222.432 105.52 222.4 105.648 222.368 105.776C222.176 106.448 221.728 107.344 221.12 108.4L231.136 108.208C233.184 108.176 234.464 109.328 234.464 111.408C234.464 111.792 234.432 112.176 234.336 112.624C232.416 121.68 226.048 129.008 215.136 131.632C215.008 131.664 214.88 131.664 214.752 131.664C214.144 131.664 213.632 131.344 213.44 130.736C213.408 130.576 213.376 130.416 213.376 130.288C213.376 129.68 213.76 129.2 214.432 129.04C223.776 126.576 229.504 120.88 231.424 112.208C231.456 111.984 231.488 111.792 231.488 111.632C231.488 111.024 231.168 110.736 230.272 110.736H230.144ZM231.296 104.24C231.296 103.824 231.712 103.376 232.224 103.376C232.576 103.376 232.8 103.472 233.056 103.728C234.048 104.72 235.2 106.256 235.808 107.312C235.904 107.504 236.032 107.728 236.032 108.144C236.032 108.624 235.584 109.04 234.976 109.04C234.592 109.04 234.336 108.88 234.144 108.496C233.472 107.312 232.512 106 231.616 105.008C231.424 104.784 231.296 104.528 231.296 104.24ZM235.296 102.768C235.296 102.352 235.776 101.936 236.224 101.936C236.576 101.936 236.8 102.064 237.088 102.32C237.92 103.12 239.136 104.784 239.712 105.808C239.808 106 239.904 106.256 239.904 106.608C239.904 106.992 239.52 107.504 238.912 107.504C238.528 107.504 238.304 107.344 238.08 106.992C237.376 105.776 236.544 104.528 235.68 103.6C235.392 103.312 235.296 103.152 235.296 102.768ZM247.52 104.464C248.16 104.56 248.608 104.944 248.608 105.552C248.608 105.68 248.576 105.808 248.544 105.968C247.392 110.224 246.784 115.28 246.784 119.952C246.784 123.12 247.072 126.512 247.616 129.488C247.648 129.648 247.648 129.808 247.648 129.968C247.648 130.704 247.232 131.088 246.56 131.248C246.432 131.28 246.304 131.28 246.208 131.28C245.6 131.28 245.12 130.928 244.96 130.064C244.352 127.12 244.064 123.664 244.064 120.08C244.064 115.088 244.672 109.904 245.888 105.392C246.08 104.72 246.592 104.432 247.168 104.432C247.296 104.432 247.392 104.432 247.52 104.464ZM266.592 107.888C266.688 107.888 266.752 107.888 266.848 107.888C267.648 107.888 268.064 108.336 268.16 109.072C268.16 109.104 268.16 109.136 268.16 109.168C268.16 109.904 267.84 110.512 266.912 110.608C264.224 110.928 260.384 111.088 256.896 111.088C255.712 111.088 254.56 111.056 253.504 111.024C252.512 110.992 252.16 110.352 252.16 109.616C252.192 108.912 252.64 108.272 253.472 108.272C253.504 108.272 253.504 108.272 253.536 108.272C254.56 108.304 255.712 108.336 256.896 108.336C260.288 108.336 264 108.176 266.592 107.888ZM255.52 118.192C255.808 118.48 255.936 118.768 255.936 119.056C255.936 119.376 255.776 119.664 255.52 119.92C254.176 121.2 253.664 122.416 253.664 123.632C253.664 125.616 255.392 126.64 259.872 126.64C262.624 126.64 265.568 126.352 267.744 125.872C267.872 125.84 268 125.84 268.128 125.84C268.768 125.84 269.248 126.256 269.376 126.896C269.408 127.024 269.408 127.12 269.408 127.248C269.408 127.888 269.024 128.496 268.32 128.624C265.952 129.104 263.136 129.328 260.192 129.328C254.304 129.328 251.168 127.664 251.168 123.632C251.168 121.68 251.968 119.856 253.6 118.32C253.952 118 254.336 117.84 254.688 117.84C254.976 117.84 255.264 117.968 255.52 118.192ZM276.384 131.792V118.768C276.384 117.488 276.48 116.08 276.64 114.736C276.128 115.824 275.52 116.848 274.848 117.744C274.56 118.096 274.24 118.256 273.888 118.256C273.632 118.256 273.344 118.16 273.12 117.968C272.768 117.712 272.608 117.36 272.608 117.008C272.608 116.72 272.704 116.432 272.928 116.208C275.584 113.008 277.632 108.464 278.784 103.792C278.912 103.216 279.296 102.96 279.84 102.96C279.968 102.96 280.128 102.992 280.288 103.024C280.864 103.152 281.248 103.504 281.248 103.984C281.248 104.08 281.248 104.176 281.216 104.304C280.544 106.544 279.808 108.752 278.816 110.896V131.792C278.816 132.4 278.304 132.72 277.568 132.72C276.832 132.72 276.384 132.4 276.384 131.792ZM290.496 106.864H282.72C282.112 106.864 281.824 106.384 281.824 105.744C281.824 105.072 282.112 104.656 282.72 104.656H302.016C302.592 104.656 302.912 105.104 302.912 105.776C302.912 106.416 302.592 106.864 302.016 106.864H292.832C292.832 106.96 292.832 107.088 292.832 107.184C292.832 108.016 292.832 108.816 292.832 109.648H298.592C300.416 109.648 301.312 110.32 301.312 112.048V119.536C301.312 121.296 300.416 121.968 298.592 121.968H292.064C291.744 123.568 291.2 125.104 290.176 126.416C293.632 128.368 297.6 129.232 302.016 129.456C302.656 129.488 303.072 129.968 303.072 130.64C303.072 130.704 303.072 130.736 303.072 130.8C302.976 131.568 302.496 131.984 301.76 131.984C301.76 131.984 301.728 131.984 301.696 131.984C296.8 131.632 292.448 130.448 288.672 128.176C286.944 129.872 284.704 131.216 282.08 132.016C281.92 132.048 281.76 132.08 281.632 132.08C281.088 132.08 280.64 131.792 280.416 131.216C280.384 131.088 280.352 130.928 280.352 130.8C280.352 130.288 280.672 129.84 281.184 129.744C283.36 129.168 285.28 128.24 286.816 126.928C285.888 126.224 285.024 125.456 284.16 124.624C283.968 124.4 283.84 124.144 283.84 123.888C283.84 123.6 283.968 123.344 284.192 123.12C284.48 122.864 284.768 122.736 285.056 122.736C285.312 122.736 285.568 122.832 285.76 123.056C286.592 123.888 287.456 124.592 288.352 125.264C289.088 124.272 289.504 123.152 289.792 121.968H284.896C283.072 121.968 282.208 121.296 282.208 119.536V112.048C282.208 110.32 283.072 109.648 284.896 109.648H290.496C290.496 108.72 290.496 107.792 290.496 106.864ZM290.496 111.632H285.44C284.832 111.632 284.544 111.792 284.544 112.4V114.768H290.464C290.464 114 290.464 113.232 290.496 112.464C290.496 112.176 290.496 111.92 290.496 111.632ZM290.4 116.72H284.544V119.184C284.544 119.824 284.832 119.984 285.44 119.984H290.144C290.272 118.896 290.336 117.808 290.4 116.72ZM292.384 119.984H298.016C298.656 119.984 298.944 119.824 298.944 119.184V116.72H292.672C292.64 116.912 292.64 117.136 292.608 117.328C292.544 118.224 292.512 119.12 292.384 119.984ZM292.736 114.768H298.944V112.4C298.944 111.792 298.656 111.632 298.016 111.632H292.8C292.8 111.984 292.8 112.336 292.8 112.688C292.8 113.392 292.768 114.064 292.736 114.768ZM311.616 113.904H306.56C305.984 113.904 305.632 113.456 305.632 112.784C305.632 112.144 305.984 111.696 306.56 111.696H312.096V107.568C310.496 107.92 308.832 108.208 307.264 108.432C307.2 108.464 307.136 108.464 307.072 108.464C306.528 108.464 306.112 108.144 306.016 107.472C306.016 107.408 306.016 107.344 306.016 107.28C306.016 106.704 306.4 106.288 306.944 106.224C310.72 105.776 315.296 104.624 318.016 103.376C318.208 103.312 318.4 103.28 318.56 103.28C319.008 103.28 319.36 103.504 319.584 103.952C319.68 104.208 319.744 104.4 319.744 104.624C319.744 105.008 319.488 105.36 319.04 105.52C317.696 106.032 316.128 106.544 314.464 106.992V111.696H319.424C320 111.696 320.352 112.144 320.352 112.784C320.352 113.456 320 113.904 319.424 113.904H314.784C315.84 116.24 317.92 119.056 319.68 120.624C320 120.88 320.16 121.232 320.16 121.584C320.16 121.872 320.064 122.16 319.84 122.416C319.616 122.608 319.328 122.736 319.008 122.736C318.72 122.736 318.368 122.608 318.144 122.384C316.768 121.008 314.944 118.384 314.08 116.016C314.272 117.552 314.464 119.216 314.464 120.528V131.76C314.464 132.368 314.016 132.688 313.28 132.688C312.576 132.688 312.064 132.368 312.064 131.76V121.84C312.064 120.144 312.256 118.128 312.544 116.56C311.616 119.632 309.568 123.536 307.296 125.936C307.008 126.256 306.656 126.48 306.304 126.48C306.048 126.48 305.792 126.384 305.536 126.16C305.248 125.904 305.088 125.552 305.088 125.2C305.088 124.848 305.248 124.496 305.568 124.176C308.288 121.52 310.624 117.296 311.616 113.904ZM325.248 105.808V124.24C325.248 124.848 324.704 125.168 323.968 125.168C323.232 125.168 322.688 124.816 322.688 124.24V105.808C322.688 105.2 323.232 104.88 323.968 104.88C324.704 104.88 325.248 105.2 325.248 105.808ZM333.152 104.368V128.688C333.152 131.12 332.096 132.112 329.184 132.112C327.968 132.112 326.656 132.016 325.76 131.824C325.216 131.696 324.864 131.312 324.864 130.704C324.864 130.576 324.864 130.448 324.896 130.32C325.024 129.744 325.376 129.392 325.888 129.392C325.984 129.392 326.048 129.392 326.144 129.424C326.944 129.616 328.032 129.712 328.928 129.712C330.4 129.712 330.592 129.392 330.592 128.176V104.368C330.592 103.728 331.168 103.376 331.872 103.376C332.64 103.376 333.152 103.728 333.152 104.368ZM351.04 103.632H351.872C352.48 104.944 353.152 105.744 355.136 107.504C358.464 110.384 358.944 110.832 359.968 112.336C360.896 113.648 361.376 114.96 361.376 116.144C361.376 117.648 360.672 119.312 359.488 120.784C358.688 121.776 357.76 122.608 356.096 123.792L355.616 123.184C355.744 123.024 355.904 122.864 356.064 122.704C357.952 120.784 358.368 120.272 358.848 119.28C359.296 118.352 359.52 117.488 359.52 116.624C359.52 114.512 357.472 112.4 352.512 109.424V125.968C352.512 127.824 352.48 128.016 352.032 128.848C351.072 130.736 348.704 132.144 346.496 132.144C345.184 132.144 344.256 131.792 343.616 131.024C343.168 130.448 342.912 129.744 342.912 129.008C342.912 127.568 343.84 126.256 345.472 125.424C346.336 125.008 347.424 124.688 348.128 124.688C349.312 124.688 350.304 124.848 351.04 125.2V103.632Z" fill="black"/>
<defs>
<clipPath id="clip0_418_2">
<rect width="388" height="189" fill="white" transform="matrix(-1 0 0 1 388 0)"/>
</clipPath>
</defs>
</svg>
