<svg width="450" height="361" viewBox="0 0 450 361" fill="none" xmlns="http://www.w3.org/2000/svg">
<rect x="0.5" y="0.5" width="449" height="360" rx="39.5" fill="#FFFAE3" stroke="black"/>
<path d="M67.672 77.624H72.184C73.432 77.624 74.128 78.248 74.128 79.136C74.128 79.52 73.984 79.952 73.696 80.432C72.52 82.376 70.84 84.152 68.824 85.688C71.248 87.2 74.104 88.256 77.08 88.832C77.584 88.928 77.848 89.24 77.848 89.696C77.848 89.816 77.824 89.936 77.8 90.056C77.68 90.608 77.32 90.896 76.84 90.896C76.72 90.896 76.624 90.872 76.504 90.848C73.216 90.152 69.976 88.784 67.24 86.816C64.384 88.664 61.072 90.056 57.616 90.824C57.496 90.848 57.376 90.848 57.28 90.848C56.8 90.848 56.416 90.608 56.296 90.104C56.272 89.984 56.248 89.888 56.248 89.792C56.248 89.312 56.536 88.952 57.04 88.856C60.088 88.232 63.064 87.104 65.656 85.592C64.336 84.44 63.136 83.12 62.152 81.656C61.648 80.912 61.264 80.12 60.88 79.304H58.456C58.024 79.304 57.784 78.968 57.784 78.464C57.784 77.96 58.024 77.624 58.456 77.624H65.848V74.072H57.04C56.608 74.072 56.32 73.712 56.32 73.184C56.32 72.656 56.608 72.296 57.04 72.296H65.848V69.44C65.848 69.008 66.184 68.72 66.76 68.72C67.36 68.72 67.672 69.008 67.672 69.44V72.296H76.96C77.416 72.296 77.68 72.656 77.68 73.184C77.68 73.712 77.416 74.072 76.96 74.072H67.672V77.624ZM71.392 79.304H62.872C63.856 81.416 65.416 83.144 67.216 84.584C69.088 83.264 70.672 81.704 71.776 79.976C71.872 79.808 71.92 79.688 71.92 79.592C71.92 79.4 71.752 79.304 71.392 79.304ZM91.528 82.304H98.704C99.784 82.304 100.36 82.76 100.36 83.432C100.36 83.816 100.192 84.248 99.832 84.728C99.04 85.808 98.008 86.768 96.856 87.608C98.296 88.328 99.88 88.88 101.68 89.312C102.112 89.384 102.328 89.672 102.328 90.08C102.328 90.176 102.304 90.296 102.28 90.416C102.16 90.872 101.872 91.088 101.488 91.088C101.392 91.088 101.296 91.064 101.176 91.04C98.992 90.416 97.048 89.624 95.344 88.592C93.544 89.648 91.528 90.44 89.56 90.944C89.416 90.968 89.296 90.992 89.176 90.992C88.816 90.992 88.576 90.824 88.408 90.416C88.384 90.296 88.36 90.2 88.36 90.104C88.36 89.768 88.576 89.48 88.96 89.384C90.688 88.952 92.344 88.352 93.832 87.584C92.656 86.696 91.6 85.616 90.736 84.392C89.68 86.744 88.24 88.784 86.56 90.368C86.368 90.56 86.128 90.656 85.888 90.656C85.696 90.656 85.48 90.584 85.312 90.416C85.12 90.224 85 89.984 85 89.768C85 89.552 85.096 89.336 85.288 89.168C87.688 87.056 89.44 84.056 90.28 80.456H87.784C87.424 80.456 87.208 80.12 87.208 79.688C87.208 79.256 87.424 78.92 87.784 78.92H90.592C90.688 78.32 90.76 77.696 90.784 77.072H88.048C87.688 77.072 87.472 76.76 87.472 76.328C87.472 75.944 87.688 75.632 88.048 75.632H96.832C97.744 74.288 98.344 73.016 98.824 71.888C98.968 71.528 99.256 71.336 99.568 71.336C99.688 71.336 99.832 71.36 99.952 71.408C100.336 71.576 100.552 71.816 100.552 72.128C100.552 72.248 100.528 72.392 100.456 72.512C100.024 73.424 99.4 74.504 98.608 75.632H101.008C101.368 75.632 101.584 75.92 101.584 76.328C101.584 76.76 101.368 77.072 101.008 77.072H92.56C92.512 77.696 92.44 78.296 92.344 78.92H101.44C101.8 78.92 102.016 79.256 102.016 79.688C102.016 80.12 101.8 80.456 101.44 80.456H92.056C91.888 81.08 91.72 81.704 91.528 82.304ZM97.912 83.744H92.032C92.992 84.896 94.072 85.904 95.32 86.72C96.472 86 97.456 85.136 98.176 84.2C98.272 84.08 98.32 83.984 98.32 83.912C98.32 83.792 98.2 83.744 97.912 83.744ZM84.616 73.424H86.272C86.68 73.424 86.92 73.76 86.92 74.24C86.92 74.744 86.68 75.08 86.272 75.08H84.616V79.256C85 79.064 85.36 78.896 85.696 78.704C85.816 78.632 85.96 78.608 86.08 78.608C86.344 78.608 86.584 78.776 86.704 79.064C86.776 79.208 86.8 79.352 86.8 79.496C86.8 79.784 86.68 80.048 86.32 80.24C85.816 80.528 85.24 80.816 84.616 81.104V88.688C84.616 90.152 84.016 90.776 82.432 90.776C81.856 90.776 81.256 90.704 80.848 90.608C80.464 90.512 80.224 90.248 80.224 89.816C80.224 89.744 80.224 89.648 80.248 89.552C80.344 89.144 80.632 88.952 80.896 88.952C80.944 88.952 80.968 88.952 81.016 88.976C81.352 89.048 81.832 89.12 82.168 89.12C82.744 89.12 82.864 89.024 82.864 88.376V81.872C82.144 82.16 81.448 82.424 80.8 82.664C80.68 82.688 80.56 82.712 80.464 82.712C80.128 82.712 79.888 82.496 79.744 82.064C79.696 81.92 79.672 81.8 79.672 81.68C79.672 81.32 79.864 81.056 80.224 80.96C81.064 80.696 81.976 80.384 82.864 80.024V75.08H80.512C80.056 75.08 79.84 74.744 79.84 74.264C79.84 73.784 80.056 73.424 80.512 73.424H82.864V69.368C82.864 68.912 83.2 68.672 83.752 68.672C84.304 68.672 84.616 68.912 84.616 69.368V73.424ZM99.952 68.84C100.024 68.816 100.096 68.816 100.192 68.816C100.552 68.816 100.816 69.056 100.912 69.44C100.936 69.56 100.96 69.656 100.96 69.776C100.96 70.136 100.744 70.4 100.336 70.496C96.496 71.384 91.792 71.744 87.688 71.816C87.136 71.816 86.896 71.48 86.896 71.024C86.896 71 86.896 71 86.896 70.976C86.896 70.544 87.184 70.208 87.592 70.208C91.528 70.184 96.28 69.752 99.952 68.84ZM89.032 72.296C89.176 72.224 89.32 72.2 89.44 72.2C89.728 72.2 89.944 72.344 90.16 72.632C90.472 73.064 90.784 73.664 90.976 74.168C91 74.288 91.024 74.408 91.024 74.504C91.024 74.816 90.832 75.032 90.472 75.176C90.352 75.224 90.208 75.248 90.112 75.248C89.776 75.248 89.512 75.08 89.392 74.744C89.224 74.288 88.912 73.712 88.648 73.256C88.576 73.136 88.552 73.016 88.552 72.92C88.552 72.632 88.72 72.392 89.032 72.296ZM93.352 71.984C93.472 71.96 93.592 71.936 93.712 71.936C94.024 71.936 94.264 72.08 94.432 72.344C94.792 72.896 95.08 73.544 95.224 74.072C95.248 74.216 95.272 74.312 95.272 74.432C95.272 74.768 95.08 75.008 94.72 75.104C94.6 75.152 94.456 75.176 94.36 75.176C94.048 75.176 93.808 75.008 93.688 74.648C93.544 74.168 93.232 73.52 92.944 73.016C92.872 72.872 92.824 72.752 92.824 72.632C92.824 72.344 93.016 72.104 93.352 71.984ZM115 76.208H117.232C119.512 74.48 121.36 72.512 122.992 70.304C123.184 70.064 123.424 69.92 123.712 69.92C123.88 69.92 124.072 69.968 124.24 70.088C124.552 70.256 124.672 70.544 124.672 70.832C124.672 71.048 124.6 71.24 124.456 71.408C122.968 73.208 121.48 74.744 119.776 76.208H125.248C125.68 76.208 125.944 76.544 125.944 77.048C125.944 77.552 125.68 77.888 125.248 77.888H117.664C116.344 78.848 114.856 79.688 113.344 80.312C114.208 80.192 115.072 80.168 115.936 80.168H121.048C122.536 80.168 123.16 80.696 123.16 81.992V88.64C123.16 89.936 122.536 90.464 121.048 90.464H111.208C109.696 90.464 109.096 89.936 109.096 88.64V85.136C109.096 84.44 109.192 83.504 109.288 82.688C107.92 83.384 106.528 83.96 105.16 84.44C105.016 84.488 104.872 84.512 104.752 84.512C104.368 84.512 104.056 84.296 103.912 83.888C103.864 83.768 103.84 83.648 103.84 83.528C103.84 83.144 104.08 82.808 104.512 82.688C107.392 81.824 111.472 79.952 114.784 77.888H104.968C104.536 77.888 104.272 77.552 104.272 77.048C104.272 76.568 104.536 76.208 104.968 76.208H113.2V73.376H107.224C106.816 73.376 106.552 73.064 106.552 72.56C106.552 72.08 106.816 71.744 107.224 71.744H113.2V69.416C113.2 68.984 113.536 68.72 114.112 68.72C114.64 68.72 115 68.984 115 69.416V71.744H119.224C119.632 71.744 119.92 72.104 119.92 72.584C119.92 73.064 119.632 73.376 119.152 73.376H115V76.208ZM110.92 84.344H121.336V82.304C121.336 81.824 121.12 81.704 120.64 81.704H111.592C111.136 81.704 110.92 81.824 110.92 82.304V84.344ZM110.92 85.88V88.256C110.92 88.736 111.136 88.88 111.592 88.88H120.64C121.12 88.88 121.336 88.736 121.336 88.256V85.88H110.92ZM137.872 76.952C140.248 75.944 143.056 74.984 145.192 74.432C145.336 74.408 145.456 74.384 145.576 74.384C146.056 74.384 146.368 74.624 146.512 75.104C146.536 75.224 146.56 75.344 146.56 75.464C146.56 75.896 146.296 76.256 145.744 76.4C143.248 77.024 139.84 78.128 137.296 79.28C134.176 80.696 132.544 82.496 132.544 84.248C132.544 86.336 134.08 87.392 139.168 87.392C141.52 87.392 144.16 87.128 145.984 86.744C146.08 86.72 146.176 86.72 146.272 86.72C146.8 86.72 147.16 87.032 147.232 87.584C147.256 87.68 147.256 87.752 147.256 87.848C147.256 88.352 146.92 88.76 146.344 88.88C144.496 89.288 141.88 89.456 139.072 89.456C133.192 89.48 130.48 87.848 130.48 84.224C130.48 81.8 132.496 79.448 135.952 77.768C135.232 75.608 134.656 73.112 134.2 70.688C134.176 70.616 134.176 70.544 134.176 70.472C134.176 69.944 134.56 69.632 135.04 69.536C135.136 69.512 135.208 69.512 135.304 69.512C135.784 69.512 136.192 69.776 136.264 70.328C136.672 72.608 137.176 74.936 137.872 76.952ZM173.08 80.936H152.896C152.392 80.936 152.104 80.384 152.104 79.88C152.104 79.352 152.392 78.848 152.896 78.848H173.08C173.584 78.848 173.872 79.352 173.872 79.88C173.872 80.384 173.584 80.936 173.08 80.936ZM190.432 77.816H185.32C184.888 77.816 184.672 77.504 184.672 77.024C184.672 76.52 184.888 76.208 185.32 76.208H189.064V73.256H186.064C185.656 73.256 185.416 72.944 185.416 72.464C185.416 71.984 185.656 71.672 186.064 71.672H189.064V69.536C189.064 69.08 189.4 68.84 189.928 68.84C190.48 68.84 190.792 69.08 190.792 69.536V71.672H193.576C194.008 71.672 194.224 71.984 194.224 72.464C194.224 72.944 194.008 73.256 193.6 73.256H190.792V76.208H192.064C193.432 74.72 194.872 72.872 196.168 70.472C196.36 70.136 196.576 69.968 196.84 69.968C197.008 69.968 197.176 70.016 197.392 70.136C197.68 70.304 197.824 70.544 197.824 70.832C197.824 71 197.776 71.192 197.656 71.36C196.48 73.28 195.376 74.84 194.224 76.208H197.536C197.968 76.208 198.208 76.496 198.208 77C198.208 77.504 198.016 77.816 197.584 77.816H192.736C192.64 77.936 192.52 78.032 192.4 78.152C191.56 78.968 190.696 79.712 189.784 80.408C190.48 80.264 191.224 80.24 192.352 80.24H194.776C196.192 80.24 196.84 80.744 196.84 82.064V88.712C196.84 90.008 196.192 90.536 194.776 90.536H188.656C187.216 90.536 186.568 90.008 186.568 88.712V85.28C186.568 84.296 186.592 83.288 186.784 82.544C186.448 82.76 186.112 82.976 185.776 83.192C185.632 83.288 185.464 83.336 185.32 83.336C185.032 83.336 184.768 83.192 184.624 82.88C184.552 82.736 184.504 82.568 184.504 82.424C184.504 82.136 184.672 81.872 184.96 81.704C186.88 80.6 188.776 79.304 190.432 77.816ZM188.296 84.464H195.112V82.304C195.112 81.872 194.872 81.728 194.44 81.728H188.992C188.536 81.728 188.296 81.872 188.296 82.304V84.464ZM188.296 86V88.424C188.296 88.856 188.536 89 188.992 89H194.44C194.872 89 195.112 88.856 195.112 88.424V86H188.296ZM179.992 90.416V80.792C178.84 80.864 177.712 80.936 176.632 80.96C176.608 80.96 176.608 80.96 176.584 80.96C176.128 80.96 175.864 80.648 175.864 80.12C175.864 80.096 175.864 80.072 175.864 80.072C175.864 79.616 176.128 79.328 176.584 79.328C177.064 79.328 177.568 79.328 178.096 79.304C178.6 78.608 179.104 77.888 179.584 77.168C178.624 75.896 177.328 74.504 176.296 73.568C176.128 73.4 176.056 73.208 176.056 73.016C176.056 72.8 176.128 72.608 176.272 72.44C176.464 72.224 176.68 72.104 176.92 72.104C177.064 72.104 177.208 72.152 177.352 72.272C177.568 72.464 177.784 72.68 178.024 72.92C178.816 71.768 179.536 70.352 180.016 69.2C180.16 68.888 180.376 68.744 180.664 68.744C180.784 68.744 180.928 68.768 181.072 68.816C181.384 68.936 181.6 69.176 181.6 69.488C181.6 69.608 181.576 69.728 181.504 69.872C180.904 71.168 180.088 72.656 179.104 74.096C179.584 74.648 180.064 75.2 180.496 75.776C181.384 74.384 182.176 73.016 182.752 71.864C182.92 71.552 183.16 71.408 183.448 71.408C183.568 71.408 183.712 71.432 183.856 71.504C184.192 71.648 184.36 71.912 184.36 72.2C184.36 72.32 184.312 72.464 184.24 72.608C183.088 74.696 181.432 77.288 179.92 79.232C180.616 79.208 181.312 79.136 181.984 79.088C182.368 79.064 182.728 79.016 183.112 78.992C182.92 78.512 182.68 78.008 182.44 77.576C182.368 77.456 182.344 77.336 182.344 77.216C182.344 76.952 182.512 76.712 182.752 76.568C182.896 76.496 183.04 76.472 183.16 76.472C183.424 76.472 183.64 76.616 183.76 76.832C184.312 77.84 184.936 79.28 185.224 80.12C185.296 80.336 185.32 80.48 185.32 80.624C185.32 80.936 185.152 81.128 184.864 81.248C184.72 81.32 184.576 81.344 184.456 81.344C184.144 81.344 183.904 81.152 183.76 80.72C183.736 80.648 183.688 80.552 183.664 80.456C183.088 80.504 182.536 80.576 181.96 80.624C181.864 80.624 181.768 80.648 181.672 80.648V90.416C181.672 90.824 181.36 91.04 180.832 91.04C180.352 91.04 179.992 90.824 179.992 90.416ZM178.048 82.304C178.456 82.328 178.816 82.544 178.816 82.976C178.816 83 178.816 83 178.816 83.024C178.672 84.872 178.264 87.296 177.664 88.88C177.544 89.216 177.184 89.408 176.848 89.408C176.752 89.408 176.656 89.384 176.56 89.36C176.2 89.24 175.936 88.976 175.936 88.64C175.936 88.568 175.96 88.472 175.984 88.376C176.632 86.864 177.016 84.656 177.184 82.856C177.208 82.496 177.568 82.304 177.976 82.304C178 82.304 178.024 82.304 178.048 82.304ZM183.208 82.256C183.328 82.232 183.424 82.208 183.52 82.208C183.832 82.208 184 82.4 184.144 82.832C184.504 84.032 184.816 85.736 185.008 87.224C185.008 87.248 185.008 87.296 185.008 87.32C185.008 87.704 184.696 87.92 184.288 87.968C184.216 87.992 184.168 87.992 184.12 87.992C183.76 87.992 183.448 87.8 183.4 87.368C183.256 86 182.968 84.392 182.68 83.168C182.656 83.048 182.632 82.952 182.632 82.88C182.632 82.544 182.848 82.352 183.208 82.256ZM204.64 69.848C205.12 69.92 205.456 70.208 205.456 70.664C205.456 70.76 205.432 70.856 205.408 70.976C204.544 74.168 204.088 77.96 204.088 81.464C204.088 83.84 204.304 86.384 204.712 88.616C204.736 88.736 204.736 88.856 204.736 88.976C204.736 89.528 204.424 89.816 203.92 89.936C203.824 89.96 203.728 89.96 203.656 89.96C203.2 89.96 202.84 89.696 202.72 89.048C202.264 86.84 202.048 84.248 202.048 81.56C202.048 77.816 202.504 73.928 203.416 70.544C203.56 70.04 203.944 69.824 204.376 69.824C204.472 69.824 204.544 69.824 204.64 69.848ZM218.944 72.416C219.016 72.416 219.064 72.416 219.136 72.416C219.736 72.416 220.048 72.752 220.12 73.304C220.12 73.328 220.12 73.352 220.12 73.376C220.12 73.928 219.88 74.384 219.184 74.456C217.168 74.696 214.288 74.816 211.672 74.816C210.784 74.816 209.92 74.792 209.128 74.768C208.384 74.744 208.12 74.264 208.12 73.712C208.144 73.184 208.48 72.704 209.104 72.704C209.128 72.704 209.128 72.704 209.152 72.704C209.92 72.728 210.784 72.752 211.672 72.752C214.216 72.752 217 72.632 218.944 72.416ZM210.64 80.144C210.856 80.36 210.952 80.576 210.952 80.792C210.952 81.032 210.832 81.248 210.64 81.44C209.632 82.4 209.248 83.312 209.248 84.224C209.248 85.712 210.544 86.48 213.904 86.48C215.968 86.48 218.176 86.264 219.808 85.904C219.904 85.88 220 85.88 220.096 85.88C220.576 85.88 220.936 86.192 221.032 86.672C221.056 86.768 221.056 86.84 221.056 86.936C221.056 87.416 220.768 87.872 220.24 87.968C218.464 88.328 216.352 88.496 214.144 88.496C209.728 88.496 207.376 87.248 207.376 84.224C207.376 82.76 207.976 81.392 209.2 80.24C209.464 80 209.752 79.88 210.016 79.88C210.232 79.88 210.448 79.976 210.64 80.144ZM74.32 123.88H67.648C67.624 124.168 67.576 124.456 67.528 124.744C67.528 124.816 67.504 124.912 67.504 124.984C68.872 128.512 71.128 130.864 74.008 132.568C74.272 132.736 74.44 133.024 74.44 133.336C74.44 133.528 74.392 133.72 74.272 133.912C74.056 134.272 73.744 134.44 73.432 134.44C73.24 134.44 73.072 134.392 72.928 134.296C70.264 132.568 68.152 130.216 66.928 127.504C66.016 130.36 64.072 132.784 61.216 134.608C61.048 134.728 60.88 134.776 60.688 134.776C60.376 134.776 60.064 134.608 59.848 134.272C59.728 134.128 59.68 133.936 59.68 133.768C59.68 133.432 59.848 133.144 60.136 132.976C62.896 131.416 64.768 129.016 65.44 126.064C65.608 125.392 65.728 124.672 65.824 123.88H59.752C59.224 123.88 58.96 124.048 58.96 124.576V140.152C58.96 140.584 58.552 140.872 58 140.872C57.472 140.872 57.04 140.584 57.04 140.152V124.288C57.04 122.848 57.856 122.152 59.344 122.152H65.968C65.992 121.336 66.016 120.424 66.016 119.416C66.016 118.96 66.4 118.696 66.928 118.696C67.528 118.696 67.888 118.96 67.888 119.44C67.888 120.424 67.864 121.336 67.816 122.152H74.68C76.144 122.152 76.984 122.848 76.984 124.288V138.112C76.984 139.768 76.048 140.488 74.056 140.488C73.024 140.488 71.968 140.392 71.08 140.224C70.648 140.152 70.384 139.84 70.384 139.36C70.384 139.288 70.384 139.216 70.408 139.144C70.48 138.616 70.816 138.352 71.2 138.352C71.248 138.352 71.296 138.352 71.368 138.376C72.04 138.52 73 138.664 73.696 138.664C74.92 138.664 75.112 138.448 75.112 137.632V124.576C75.112 124.048 74.848 123.88 74.32 123.88ZM93.904 125.92H96.184C96.136 124.096 96.112 121.984 96.112 119.536C96.112 119.032 96.472 118.816 96.976 118.816C97.48 118.816 97.864 119.032 97.864 119.536C97.864 119.968 97.864 120.4 97.864 120.832C97.864 122.728 97.888 124.408 97.912 125.92H101.632C102.04 125.92 102.256 126.232 102.256 126.688C102.256 127.168 102.04 127.504 101.632 127.504H97.96C98.056 129.496 98.2 131.488 98.464 133.456C99.016 132.256 99.472 130.936 99.808 129.424C99.904 129.064 100.144 128.896 100.456 128.896C100.576 128.896 100.672 128.92 100.792 128.944C101.128 129.064 101.344 129.304 101.344 129.664C101.344 129.736 101.344 129.832 101.32 129.904C100.792 131.968 100 133.864 98.968 135.568C99.304 136.624 99.808 137.608 100.264 138.28C100.384 138.472 100.504 138.568 100.6 138.568C100.72 138.568 100.816 138.448 100.912 138.232C101.128 137.704 101.272 136.816 101.296 135.856C101.296 135.424 101.56 135.256 101.968 135.256C101.992 135.256 102.016 135.256 102.04 135.256C102.472 135.28 102.736 135.496 102.736 135.904C102.736 135.928 102.736 135.928 102.736 135.952C102.664 137.416 102.4 138.904 101.992 139.72C101.704 140.296 101.272 140.584 100.768 140.584C100.36 140.584 99.904 140.368 99.472 139.912C98.848 139.216 98.32 138.28 97.864 137.176C96.952 138.376 95.92 139.456 94.792 140.464C94.576 140.656 94.336 140.728 94.144 140.728C93.904 140.728 93.688 140.608 93.544 140.44C93.376 140.248 93.304 140.056 93.304 139.84C93.304 139.6 93.448 139.336 93.712 139.144C95.104 138.112 96.28 136.84 97.24 135.424C97.048 134.728 96.88 134.032 96.76 133.312C96.52 131.824 96.352 129.928 96.256 127.504H87.616C87.208 127.504 86.968 127.168 86.968 126.688C86.968 126.232 87.208 125.92 87.616 125.92H89.296C89.152 124.84 88.96 123.76 88.696 122.704H88.12C87.736 122.704 87.544 122.392 87.544 121.96C87.544 121.528 87.736 121.24 88.12 121.24H90.808V119.512C90.808 119.08 91.168 118.864 91.624 118.864C92.128 118.864 92.44 119.08 92.44 119.512V121.24H95.248C95.68 121.24 95.848 121.528 95.848 121.96C95.848 122.392 95.704 122.704 95.296 122.704H94.528C94.408 123.784 94.168 124.864 93.904 125.92ZM90.688 125.92H92.488C92.728 124.864 92.968 123.784 93.064 122.704H90.16C90.376 123.76 90.592 124.84 90.688 125.92ZM80.848 121.168H80.32C79.912 121.168 79.672 120.856 79.672 120.376C79.672 119.872 79.912 119.536 80.32 119.536H87.04C87.472 119.536 87.688 119.872 87.688 120.376C87.688 120.856 87.472 121.168 87.04 121.168H86.584V140.44C86.584 140.872 86.272 141.112 85.768 141.112C85.24 141.112 84.952 140.872 84.952 140.44V136.312C83.464 136.792 81.856 137.2 80.392 137.512C80.32 137.536 80.248 137.536 80.176 137.536C79.792 137.536 79.528 137.272 79.408 136.816C79.384 136.72 79.384 136.624 79.384 136.528C79.384 136.12 79.6 135.856 79.984 135.808C80.272 135.76 80.56 135.712 80.848 135.664V121.168ZM82.456 121.168V124.672H84.976V121.168H82.456ZM82.456 126.208V129.52H84.976V126.208H82.456ZM82.456 131.032V135.328C83.296 135.136 84.16 134.92 84.976 134.656V131.032H82.456ZM98.776 120.232C98.92 120.16 99.088 120.112 99.232 120.112C99.472 120.112 99.688 120.232 99.832 120.448C100.48 121.408 101.296 122.872 101.68 123.88C101.728 124.024 101.752 124.144 101.752 124.264C101.752 124.552 101.608 124.768 101.32 124.912C101.176 124.96 101.032 125.008 100.888 125.008C100.624 125.008 100.384 124.864 100.264 124.552C99.88 123.568 99.064 122.056 98.488 121.144C98.416 121.048 98.392 120.952 98.392 120.832C98.392 120.616 98.512 120.376 98.776 120.232ZM88.144 136.768V130.624C88.144 129.424 88.744 128.92 89.92 128.92H93.112C94.288 128.92 94.84 129.424 94.84 130.624V136.768C94.84 137.968 94.288 138.496 93.112 138.496H89.92C88.744 138.496 88.144 137.968 88.144 136.768ZM89.656 132.808H93.352V130.936C93.352 130.504 93.136 130.36 92.728 130.36H90.28C89.872 130.36 89.656 130.504 89.656 130.936V132.808ZM89.656 134.2V136.48C89.656 136.936 89.872 137.056 90.28 137.056H92.728C93.136 137.056 93.352 136.936 93.352 136.48V134.2H89.656ZM116.08 122.896C115.864 126.544 115.336 129.904 114.496 132.472C113.656 134.944 112.96 136.024 112.12 136.816C111.352 137.56 110.344 137.872 109.36 137.872C106.864 137.872 104.872 135.448 104.872 131.416C104.872 125.44 109.048 121.12 115.6 121.12C121.264 121.12 125.008 124.816 125.008 130.096C125.008 133.48 123.544 136.048 121.048 137.632C119.656 138.52 117.928 139.072 116.008 139.36C115.912 139.384 115.816 139.384 115.744 139.384C115.24 139.384 114.832 139.144 114.736 138.544C114.712 138.472 114.712 138.376 114.712 138.304C114.712 137.824 115.024 137.464 115.576 137.368C117.328 137.128 119.176 136.528 120.376 135.64C121.888 134.512 122.992 132.568 122.992 130.048C122.992 125.992 120.328 123.04 116.08 122.896ZM114.088 122.968C109.696 123.376 106.816 126.736 106.816 131.392C106.816 134.272 108.04 135.784 109.312 135.784C109.864 135.784 110.416 135.592 110.92 135.088C111.448 134.584 112 133.552 112.576 131.8C113.32 129.544 113.92 126.256 114.088 122.968ZM140.2 124H139.408C138.472 125.92 137.344 127.768 136.144 129.256C135.952 129.496 135.688 129.616 135.424 129.616C135.208 129.616 134.968 129.544 134.776 129.376C134.584 129.184 134.464 128.92 134.464 128.632C134.464 128.416 134.536 128.2 134.68 128.008C136.672 125.776 138.424 122.44 139.24 119.32C139.36 118.912 139.648 118.696 140.056 118.696C140.152 118.696 140.248 118.72 140.368 118.744C140.872 118.864 141.112 119.152 141.112 119.512C141.112 119.608 141.088 119.704 141.064 119.8C140.824 120.616 140.512 121.456 140.176 122.296H149.344C149.8 122.296 150.016 122.656 150.016 123.136C150.016 123.664 149.8 124 149.344 124H142.024V127.696H148.552C148.984 127.696 149.224 128.08 149.224 128.536C149.224 129.04 148.984 129.4 148.552 129.4H142.024V133.12H148.648C149.08 133.12 149.296 133.48 149.296 133.96C149.296 134.464 149.08 134.824 148.648 134.824H142.024V140.32C142.024 140.752 141.664 140.992 141.112 140.992C140.536 140.992 140.2 140.752 140.2 140.32V124ZM131.392 140.248V130.048C131.392 129.04 131.44 127.912 131.608 126.832C130.96 127.96 130.168 129.016 129.376 129.856C129.184 130.072 128.944 130.168 128.728 130.168C128.488 130.168 128.272 130.072 128.056 129.88C127.84 129.688 127.744 129.448 127.744 129.184C127.744 128.968 127.84 128.728 128.008 128.56C130.408 126.136 132.424 122.92 133.48 119.296C133.6 118.912 133.912 118.72 134.296 118.72C134.416 118.72 134.536 118.744 134.656 118.768C135.136 118.888 135.4 119.176 135.4 119.536C135.4 119.632 135.376 119.752 135.328 119.848C134.8 121.432 134.128 123.016 133.264 124.552V140.248C133.264 140.704 132.88 140.944 132.304 140.944C131.752 140.944 131.392 140.704 131.392 140.248ZM157.816 124.12H152.704C152.296 124.12 152.056 123.832 152.056 123.352C152.056 122.872 152.296 122.56 152.704 122.56H156.184C155.8 121.864 155.248 121.12 154.792 120.568C154.672 120.424 154.6 120.256 154.6 120.112C154.6 119.872 154.768 119.656 155.08 119.488C155.248 119.416 155.416 119.368 155.584 119.368C155.848 119.368 156.088 119.512 156.304 119.752C156.952 120.568 157.6 121.6 158.08 122.56H159.856V119.392C159.856 118.912 160.216 118.696 160.72 118.696C161.296 118.696 161.584 118.912 161.584 119.392V122.56H164.008V119.416C164.008 118.936 164.344 118.72 164.872 118.72C165.448 118.72 165.736 118.936 165.736 119.416V122.56H167.8C168.52 121.648 169.096 120.688 169.528 119.872C169.72 119.512 169.96 119.368 170.272 119.368C170.392 119.368 170.536 119.392 170.68 119.44C171.04 119.56 171.232 119.872 171.232 120.16C171.232 120.28 171.208 120.4 171.136 120.496C170.776 121.096 170.272 121.816 169.696 122.56H173.296C173.704 122.56 173.944 122.872 173.944 123.352C173.944 123.832 173.704 124.12 173.296 124.12H167.968C167.632 125.008 167.2 125.872 166.72 126.688H172.384C172.768 126.688 172.984 126.976 172.984 127.408C172.984 127.864 172.768 128.152 172.384 128.152H163.72V129.808H170.944C171.328 129.808 171.544 130.096 171.544 130.528C171.544 130.96 171.328 131.272 170.944 131.272H163.72V132.952H173.248C173.632 132.952 173.872 133.24 173.872 133.696C173.872 134.152 173.632 134.44 173.248 134.44H164.992C167.296 136.336 170.128 137.584 173.536 138.352C173.992 138.448 174.208 138.808 174.208 139.192C174.208 139.312 174.184 139.408 174.16 139.504C174.04 139.96 173.728 140.224 173.296 140.224C173.2 140.224 173.104 140.224 173.008 140.176C169.432 139.24 165.712 137.392 163.48 134.944C163.624 135.448 163.72 136.072 163.72 136.672V140.488C163.72 140.896 163.384 141.184 162.832 141.184C162.328 141.184 161.992 140.896 161.992 140.488V136.672C161.992 136.072 162.064 135.496 162.256 134.944C160.096 137.248 156.928 139.072 153.16 140.152C153.04 140.176 152.92 140.2 152.8 140.2C152.392 140.2 152.08 139.96 151.96 139.552C151.912 139.408 151.888 139.288 151.888 139.192C151.888 138.808 152.104 138.544 152.464 138.448C155.944 137.536 158.704 136.216 160.768 134.44H152.704C152.344 134.44 152.08 134.152 152.08 133.696C152.08 133.24 152.344 132.952 152.704 132.952H161.992V131.272H155.008C154.624 131.272 154.408 130.96 154.408 130.528C154.408 130.096 154.624 129.808 155.008 129.808H161.992V128.152H153.64C153.256 128.152 153.04 127.864 153.04 127.408C153.04 126.976 153.256 126.688 153.64 126.688H158.992C158.68 125.8 158.296 124.936 157.816 124.12ZM166.096 124.12H159.688C160.144 124.936 160.48 125.8 160.792 126.688H164.872C165.352 125.872 165.76 125.008 166.096 124.12ZM181.744 128.368L181.84 128.512C183.712 127.192 185.056 126.544 186.544 126.544C188.272 126.544 189.544 127.288 189.856 129.352C192.016 128.584 194.104 127.936 195.76 127.456C195.904 127.432 196.048 127.408 196.168 127.408C196.6 127.408 196.912 127.624 197.056 128.056C197.08 128.2 197.104 128.32 197.104 128.44C197.104 128.872 196.864 129.208 196.336 129.328C194.584 129.784 192.328 130.384 190.024 131.224C190.072 132.088 190.096 132.928 190.096 133.792C190.096 134.248 190.096 134.704 190.072 135.16C190.048 135.76 189.664 136.072 189.136 136.072C188.584 136.072 188.248 135.76 188.248 135.16C188.248 134.512 188.248 133.72 188.248 132.952C188.248 132.568 188.248 132.16 188.248 131.8C184.888 133.096 183.4 134.536 183.4 136.024C183.4 137.44 184.96 138.184 188.344 138.184C190.648 138.184 193.048 137.968 194.824 137.656C194.944 137.632 195.04 137.632 195.16 137.632C195.64 137.632 195.952 137.872 196.048 138.376C196.072 138.472 196.072 138.544 196.072 138.616C196.072 139.12 195.736 139.528 195.184 139.6C193.384 139.912 191.056 140.104 188.488 140.104C183.976 140.104 181.432 138.856 181.432 136.096C181.432 133.816 183.64 131.584 188.104 129.976C187.96 128.512 187.24 128.104 186.184 128.104C184.144 128.104 181.504 129.688 178.624 132.616C178.408 132.856 178.12 132.976 177.856 132.976C177.616 132.976 177.4 132.88 177.208 132.688C176.992 132.496 176.896 132.232 176.896 131.968C176.896 131.68 177.016 131.416 177.232 131.2C179.296 129.28 181.36 126.784 182.92 124.312C182.584 124.312 182.2 124.312 181.816 124.312C180.616 124.312 179.248 124.288 178.168 124.24C177.64 124.216 177.328 123.832 177.328 123.352C177.328 123.328 177.328 123.28 177.328 123.256C177.376 122.776 177.712 122.368 178.192 122.368C178.216 122.368 178.24 122.368 178.264 122.368C179.392 122.464 180.928 122.488 182.512 122.488C182.968 122.488 183.424 122.488 183.88 122.488C184.36 121.624 184.792 120.736 185.08 119.872C185.248 119.368 185.584 119.176 185.968 119.176C186.088 119.176 186.184 119.2 186.304 119.224C186.784 119.32 187.048 119.608 187.048 119.968C187.048 120.088 187.024 120.232 186.952 120.376C186.664 121.072 186.352 121.72 185.992 122.44C188.032 122.368 190.888 122.08 193.528 121.696C193.6 121.672 193.672 121.672 193.744 121.672C194.224 121.672 194.536 121.936 194.608 122.44C194.608 122.488 194.608 122.536 194.608 122.608C194.608 123.064 194.32 123.4 193.792 123.496C190.768 123.928 187.768 124.192 185.032 124.264C184.096 125.848 182.992 127.288 181.744 128.368ZM215.872 134.872H221.008C221.44 134.872 221.68 135.208 221.68 135.688C221.68 136.12 221.44 136.456 221.008 136.456H210.064C208.576 136.456 207.88 135.904 207.88 134.536V127.912C207.88 127.192 207.976 126.376 208.096 125.728C207.664 126.304 207.232 126.832 206.776 127.36C206.56 127.576 206.32 127.696 206.056 127.696C205.84 127.696 205.624 127.6 205.456 127.456C205.264 127.264 205.168 127.048 205.168 126.808C205.168 126.616 205.24 126.4 205.432 126.232C207.256 124.384 208.816 121.84 209.68 119.44C209.824 118.984 210.112 118.816 210.472 118.816C210.568 118.816 210.688 118.84 210.808 118.864C211.216 118.96 211.456 119.248 211.456 119.584C211.456 119.68 211.432 119.776 211.408 119.872C211.048 120.76 210.64 121.624 210.184 122.44C210.664 122.368 211.24 122.32 211.744 122.32H214.216C214.792 121.36 215.272 120.376 215.608 119.464C215.728 119.128 216.016 118.96 216.376 118.96C216.496 118.96 216.592 118.984 216.712 119.008C217.072 119.104 217.312 119.344 217.312 119.656C217.312 119.752 217.288 119.848 217.264 119.968C217 120.664 216.568 121.48 216.04 122.32H220.792C221.2 122.32 221.44 122.68 221.44 123.112C221.44 123.544 221.2 123.904 220.792 123.904H215.872V126.448H220.024C220.408 126.448 220.648 126.808 220.648 127.216C220.648 127.624 220.408 128.032 220.024 128.032H215.872V130.504H220.024C220.408 130.504 220.648 130.864 220.648 131.272C220.648 131.68 220.408 132.088 220.024 132.088H215.872V134.872ZM209.608 130.504H214.168V128.032H209.608V130.504ZM209.608 132.088V134.248C209.608 134.704 209.824 134.872 210.28 134.872H214.168V132.088H209.608ZM214.168 123.904H210.28C209.824 123.904 209.608 124.048 209.608 124.504V126.448H214.168V123.904ZM203.2 135.856V130.576C203.2 130.096 203.056 130 202.624 130H200.512C200.08 130 199.792 129.664 199.792 129.136C199.792 128.584 200.08 128.32 200.512 128.32H203.248C204.472 128.32 205 128.968 205 130.24V135.808C205.744 137.2 206.848 137.968 208.12 138.256C209.248 138.52 210.76 138.616 212.728 138.616C215.728 138.616 218.92 138.52 221.32 138.328C221.344 138.328 221.392 138.328 221.44 138.328C221.968 138.328 222.256 138.64 222.28 139.216C222.28 139.264 222.28 139.288 222.28 139.336C222.28 139.84 221.992 140.2 221.392 140.224C219.256 140.32 216.256 140.392 213.616 140.392C213.232 140.392 212.848 140.392 212.488 140.392C210.424 140.368 208.624 140.224 207.496 139.888C206.128 139.504 204.928 138.64 204.088 137.296C203.32 138.256 202.144 139.408 201.088 140.224C200.944 140.32 200.776 140.368 200.608 140.368C200.368 140.368 200.128 140.248 199.936 140.032C199.768 139.816 199.696 139.6 199.696 139.384C199.696 139.096 199.84 138.832 200.08 138.664C200.944 138.064 202.384 136.84 203.2 135.856ZM202.168 119.632C203.272 120.664 204.4 121.96 205.168 123.04C205.336 123.256 205.408 123.496 205.408 123.736C205.408 124 205.288 124.24 205.072 124.432C204.88 124.6 204.64 124.672 204.4 124.672C204.136 124.672 203.872 124.552 203.68 124.312C202.984 123.328 201.76 121.816 200.8 120.88C200.632 120.736 200.56 120.52 200.56 120.304C200.56 120.064 200.656 119.824 200.872 119.632C201.088 119.464 201.304 119.392 201.52 119.392C201.784 119.392 202.024 119.488 202.168 119.632ZM232.984 135.688C231.544 137.464 230.008 137.992 228.64 137.992C226.48 137.992 224.848 136.264 224.848 133.168C224.848 130.216 226.36 127.528 228.904 125.632C228.592 124.288 228.328 122.896 228.136 121.48C228.136 121.408 228.136 121.36 228.136 121.312C228.136 120.832 228.4 120.472 228.88 120.4C228.976 120.376 229.048 120.376 229.12 120.376C229.576 120.376 229.888 120.64 229.936 121.168C230.08 122.32 230.272 123.496 230.488 124.648C232.096 123.784 234.04 123.28 236.344 123.28C236.536 122.296 236.704 121.312 236.824 120.4C236.896 119.824 237.208 119.56 237.688 119.56C237.76 119.56 237.832 119.56 237.904 119.584C238.432 119.632 238.744 119.992 238.744 120.472C238.744 120.544 238.744 120.616 238.72 120.688C238.6 121.552 238.432 122.488 238.24 123.448C239.608 123.664 240.712 124.072 241.672 124.72C243.736 126.04 245.032 128.176 245.032 131.128C245.032 135.856 241.48 139.024 235.888 139.72C235.792 139.744 235.72 139.744 235.648 139.744C235.096 139.744 234.736 139.432 234.664 138.952C234.64 138.88 234.64 138.808 234.64 138.736C234.64 138.28 234.928 137.896 235.504 137.824C240.04 137.248 243.016 134.776 243.016 131.152C243.016 128.992 242.056 127.24 240.592 126.208C239.8 125.656 238.888 125.32 237.856 125.152C237.568 126.328 237.256 127.456 236.896 128.464C236.176 130.48 235.216 132.52 234.208 134.056C234.4 134.392 234.64 134.704 234.856 135.04C235 135.232 235.072 135.472 235.072 135.712C235.072 135.952 234.976 136.216 234.736 136.408C234.568 136.552 234.328 136.648 234.088 136.648C233.848 136.648 233.632 136.552 233.488 136.384C233.296 136.144 233.152 135.928 232.984 135.688ZM231.952 134.104C230.944 132.232 230.008 129.952 229.384 127.528C227.656 128.968 226.72 131.032 226.72 133.024C226.72 134.896 227.584 136.096 228.712 136.096C229.624 136.096 230.776 135.64 231.952 134.104ZM233.104 132.496C233.872 131.2 234.592 129.544 235.168 127.888C235.48 126.976 235.744 126.016 235.984 124.984C234.232 124.984 232.408 125.488 230.92 126.328C231.448 128.56 232.216 130.696 233.104 132.496ZM260.656 132.76C261.304 132.952 261.832 133.144 262.384 133.384C264.304 134.2 266.464 135.4 268.144 136.864C268.408 137.128 268.552 137.44 268.552 137.728C268.552 137.944 268.48 138.16 268.336 138.352C268.12 138.64 267.808 138.784 267.496 138.784C267.232 138.784 266.992 138.688 266.776 138.496C265.312 137.152 263.536 136.072 261.88 135.232C261.544 135.088 261.16 134.896 260.776 134.728C260.8 135.064 260.8 135.448 260.8 135.76C260.8 138.736 259 139.888 255.736 139.888C252.496 139.888 250.36 138.352 250.36 136.024C250.36 133.696 252.304 132.064 256.264 132.064C257.056 132.064 257.92 132.16 258.808 132.328C258.712 131.224 258.64 130.144 258.592 129.04C257.632 129.088 256.72 129.088 255.76 129.088C254.08 129.088 252.784 129.088 250.984 128.968C250.48 128.92 250.168 128.56 250.168 128.08C250.168 128.056 250.168 128.032 250.168 127.984C250.216 127.456 250.528 127.12 251.032 127.12C251.056 127.12 251.056 127.12 251.08 127.12C252.808 127.216 254.056 127.264 255.688 127.264C256.624 127.264 257.56 127.264 258.496 127.216C258.448 126.28 258.424 125.272 258.4 124.216C257.656 124.24 256.936 124.24 256.168 124.24C253.816 124.24 251.848 124.192 250.6 124.12C250.048 124.072 249.808 123.664 249.808 123.208C249.808 123.184 249.808 123.136 249.808 123.088C249.856 122.608 250.168 122.272 250.696 122.272C250.72 122.272 250.72 122.272 250.744 122.272C252.016 122.344 253.96 122.392 256.048 122.392C256.816 122.392 257.584 122.392 258.352 122.368C258.352 121.696 258.352 120.928 258.352 120.136C258.352 119.56 258.664 119.272 259.312 119.272C259.912 119.272 260.2 119.536 260.2 120.184C260.2 120.952 260.2 121.648 260.224 122.344C262.672 122.272 264.856 122.104 267.04 121.816C267.136 121.792 267.208 121.792 267.28 121.792C267.76 121.792 268.024 122.08 268.096 122.56C268.12 122.632 268.12 122.704 268.12 122.776C268.12 123.184 267.856 123.52 267.376 123.592C265.072 123.904 262.792 124.096 260.224 124.192C260.224 125.128 260.272 126.064 260.32 127.168C262.648 127.048 264.784 126.856 267.016 126.544C267.064 126.544 267.112 126.544 267.16 126.544C267.616 126.544 267.904 126.856 267.976 127.336C267.976 127.408 267.976 127.456 267.976 127.504C267.976 127.984 267.664 128.296 267.208 128.368C264.976 128.68 262.816 128.872 260.392 128.968C260.464 130.264 260.56 131.464 260.656 132.76ZM258.904 134.224C257.992 133.96 257.008 133.816 256.12 133.816C253.432 133.816 252.28 134.656 252.28 136.048C252.28 137.344 253.672 138.04 255.616 138.04C257.872 138.04 258.952 137.416 258.928 135.232C258.928 134.896 258.928 134.56 258.904 134.224ZM285.04 132.016H284.92C284.296 134.104 282.832 134.8 280.936 134.8C278.44 134.8 276.664 133.096 276.664 130.696C276.664 128.176 278.656 126.4 281.392 126.4C282.568 126.4 283.552 126.784 284.248 127.504C284.224 126.64 284.224 125.416 284.224 124.288C280.696 124.36 277.024 124.504 273.544 124.72C273.52 124.72 273.472 124.72 273.448 124.72C272.896 124.72 272.584 124.336 272.56 123.784C272.56 123.76 272.56 123.736 272.56 123.736C272.56 123.232 272.872 122.848 273.424 122.824C276.808 122.632 280.552 122.512 284.2 122.44C284.2 121.6 284.176 120.76 284.176 120.04C284.176 119.512 284.488 119.176 285.088 119.176C285.784 119.176 286.096 119.464 286.096 120.088C286.096 120.76 286.096 121.552 286.096 122.416C287.392 122.392 288.664 122.368 289.888 122.368C290.752 122.368 291.616 122.368 292.432 122.392C293.08 122.392 293.416 122.704 293.416 123.352C293.416 123.376 293.416 123.4 293.416 123.424C293.416 124 293.08 124.264 292.528 124.264C291.112 124.24 289.624 124.216 288.064 124.216C287.416 124.216 286.768 124.216 286.096 124.24C286.096 125.848 286.096 127.552 286.096 129.208C286.576 130.192 286.792 131.224 286.792 132.352C286.792 135.472 285.448 137.488 282.904 138.832C281.824 139.408 280.528 139.84 279.088 140.104C279.016 140.128 278.944 140.128 278.848 140.128C278.368 140.128 277.984 139.864 277.888 139.336C277.864 139.24 277.864 139.144 277.864 139.072C277.864 138.568 278.152 138.208 278.632 138.112C282.928 137.32 285.04 135.304 285.04 132.472V132.016ZM284.08 130.168C284.08 128.872 283.048 128.008 281.512 128.008C279.88 128.008 278.632 129.088 278.632 130.6C278.632 132.208 279.736 133.048 281.248 133.048C282.928 133.048 284.08 131.872 284.08 130.168ZM297.908 133.312C299.972 133.312 301.652 134.992 301.652 137.056C301.652 139.12 299.972 140.8 297.908 140.8C295.844 140.8 294.164 139.12 294.164 137.056C294.164 134.992 295.844 133.312 297.908 133.312ZM297.908 134.824C296.708 134.824 295.676 135.856 295.676 137.056C295.676 138.256 296.708 139.288 297.908 139.288C299.108 139.288 300.14 138.256 300.14 137.056C300.14 135.856 299.108 134.824 297.908 134.824ZM66.64 173.136C66.976 173.376 67.144 173.688 67.144 174C67.144 174.192 67.096 174.384 67 174.552C66.808 174.912 66.448 175.104 66.064 175.104C65.872 175.104 65.68 175.056 65.512 174.936C63.904 173.904 61.912 172.824 60.256 172.152C59.896 172.008 59.704 171.72 59.704 171.384C59.704 171.192 59.752 171.024 59.872 170.832C60.088 170.472 60.4 170.28 60.76 170.28C60.928 170.28 61.096 170.304 61.288 170.376C62.92 171.024 64.96 172.056 66.64 173.136ZM59.296 176.208C61.072 176.904 63.304 178.104 64.96 179.136C65.32 179.352 65.464 179.664 65.464 179.976C65.464 180.192 65.392 180.432 65.272 180.624C65.08 180.936 64.744 181.128 64.384 181.128C64.168 181.128 63.928 181.056 63.712 180.912C62.32 179.952 60.136 178.752 58.336 177.984C58 177.84 57.808 177.576 57.808 177.24C57.808 177.048 57.856 176.856 57.976 176.664C58.168 176.28 58.456 176.112 58.792 176.112C58.96 176.112 59.104 176.136 59.296 176.208ZM76.096 174.648C76.552 174.792 76.84 175.128 76.84 175.608C76.84 175.728 76.816 175.848 76.792 175.992C75.664 180.048 73.336 183.48 70.24 185.784C67.432 187.872 63.184 189.216 59.368 189.48C59.344 189.48 59.296 189.48 59.248 189.48C58.648 189.48 58.216 189.144 58.144 188.496C58.144 188.424 58.144 188.376 58.144 188.328C58.144 187.8 58.456 187.44 59.104 187.392C62.608 187.152 66.568 185.952 69.088 184.032C71.8 181.968 73.816 179.088 74.8 175.416C74.92 174.912 75.232 174.6 75.712 174.6C75.832 174.6 75.952 174.624 76.096 174.648ZM100.12 181.104H81.856C81.256 181.104 80.92 180.72 80.92 180.072C80.92 179.448 81.256 178.992 81.88 178.992H100.096C100.72 178.992 101.056 179.448 101.056 180.072C101.056 180.72 100.72 181.104 100.12 181.104ZM114.657 186.984L114.753 171.048C114.753 170.448 115.137 170.088 115.785 170.088C116.385 170.088 116.841 170.448 116.841 171.048L116.745 186.408C116.745 186.84 116.937 187.08 117.345 187.08C117.513 187.08 117.753 187.032 118.041 186.912C120.729 185.736 122.097 183.6 123.321 180.984C123.513 180.6 123.777 180.432 124.113 180.432C124.281 180.432 124.473 180.48 124.641 180.576C124.977 180.72 125.193 181.056 125.193 181.44C125.193 181.56 125.169 181.704 125.097 181.872C123.633 185.496 120.705 188.448 117.873 189.144C117.441 189.24 117.057 189.288 116.721 189.288C115.377 189.288 114.657 188.52 114.657 186.984ZM108.465 176.256V171.216C108.465 170.616 108.873 170.232 109.497 170.232C110.097 170.232 110.553 170.592 110.553 171.24V176.424C110.553 180.288 110.073 183.096 109.233 185.064C108.393 186.936 107.217 188.496 105.849 189.504C105.561 189.744 105.249 189.84 104.961 189.84C104.649 189.84 104.337 189.696 104.145 189.456C103.953 189.24 103.881 189 103.881 188.736C103.881 188.4 104.049 188.088 104.361 187.896C105.585 187.032 106.641 185.784 107.337 184.128C108.057 182.328 108.465 179.928 108.465 176.256ZM143.289 175.056V179.568H146.073C147.513 179.568 148.185 180.12 148.185 181.608V188.184C148.185 189.672 147.513 190.224 146.073 190.224H139.617C138.177 190.224 137.529 189.672 137.529 188.184V181.608C137.529 180.12 138.177 179.568 139.617 179.568H141.465V169.632C141.465 169.2 141.849 168.96 142.377 168.96C142.929 168.96 143.289 169.2 143.289 169.632V173.328H148.713C149.145 173.328 149.385 173.688 149.385 174.192C149.385 174.672 149.145 175.056 148.713 175.056H143.289ZM139.353 181.944V187.824C139.353 188.4 139.569 188.544 140.121 188.544H145.593C146.121 188.544 146.361 188.4 146.361 187.824V181.944C146.361 181.368 146.121 181.224 145.593 181.224H140.121C139.569 181.224 139.353 181.368 139.353 181.944ZM130.785 185.808C131.145 185.952 131.337 186.192 131.337 186.504C131.337 186.624 131.313 186.744 131.265 186.864C130.761 188.112 129.945 189.48 129.081 190.44C128.865 190.656 128.601 190.776 128.337 190.776C128.145 190.776 127.929 190.704 127.737 190.536C127.545 190.368 127.425 190.128 127.425 189.888C127.425 189.696 127.497 189.48 127.665 189.312C128.409 188.544 129.225 187.296 129.705 186.168C129.825 185.856 130.089 185.712 130.377 185.712C130.521 185.712 130.641 185.736 130.785 185.808ZM128.337 183V171.384C128.337 169.92 128.961 169.44 130.353 169.44H133.977C135.345 169.44 135.969 169.92 135.969 171.384V183C135.969 184.464 135.345 184.944 133.977 184.944H130.353C128.961 184.944 128.337 184.464 128.337 183ZM134.289 174.048V171.672C134.289 171.192 134.025 171.072 133.617 171.072H130.689C130.257 171.072 130.017 171.192 130.017 171.672V174.048H134.289ZM134.289 178.56V175.584H130.017V178.56H134.289ZM134.289 180.096H130.017V182.736C130.017 183.216 130.257 183.336 130.689 183.336H133.617C134.025 183.336 134.289 183.216 134.289 182.736V180.096ZM133.425 185.808C133.545 185.76 133.665 185.736 133.785 185.736C134.121 185.736 134.409 185.928 134.553 186.264C134.961 187.128 135.561 188.016 136.185 188.856C136.329 189.048 136.401 189.24 136.401 189.432C136.401 189.672 136.281 189.912 136.041 190.08C135.873 190.224 135.681 190.296 135.489 190.296C135.249 190.296 134.985 190.152 134.793 189.888C134.145 189 133.521 187.896 133.065 186.96C132.993 186.768 132.945 186.6 132.945 186.456C132.945 186.144 133.137 185.928 133.425 185.808ZM156.561 179.256L156.705 179.28C157.113 177.408 157.545 176.136 158.049 175.152C159.441 172.44 161.529 171.048 163.713 171.048C167.025 171.048 169.809 173.52 169.809 179.04C169.809 183.216 168.465 186.096 165.921 187.92C164.241 189.12 161.769 189.984 159.249 190.296C159.177 190.296 159.129 190.296 159.081 190.296C158.553 190.296 158.121 190.008 158.025 189.48C158.001 189.384 158.001 189.288 158.001 189.216C158.001 188.688 158.337 188.328 158.913 188.256C161.313 187.944 163.425 187.2 164.841 186.12C166.785 184.632 167.745 182.304 167.745 178.968C167.745 175.008 165.945 172.944 163.569 172.944C161.649 172.944 159.945 174.336 158.793 176.808C157.881 178.752 157.329 181.056 157.329 182.88C157.329 183.576 157.017 184.008 156.345 184.056C156.321 184.056 156.297 184.056 156.297 184.056C155.769 184.056 155.361 183.744 155.217 183.048C155.025 181.92 154.881 180.336 154.881 178.8C154.881 176.112 155.457 172.92 156.201 170.064C156.369 169.488 156.705 169.224 157.161 169.224C157.257 169.224 157.329 169.224 157.401 169.248C157.905 169.32 158.169 169.608 158.169 170.04C158.169 170.16 158.145 170.304 158.097 170.448C157.521 172.584 156.969 175.176 156.825 176.784C156.753 177.552 156.657 178.44 156.561 179.256ZM187.305 173.304L187.065 170.184C187.041 170.136 187.041 170.088 187.041 170.04C187.041 169.488 187.449 169.2 187.977 169.176C188.001 169.176 188.025 169.176 188.049 169.176C188.649 169.176 189.009 169.464 189.057 170.04L189.249 173.04C189.753 172.968 190.209 172.944 190.593 172.944C194.529 172.944 196.545 175.2 196.545 178.272C196.545 181.656 194.217 183.744 190.857 183.744C189.297 183.744 187.905 183.456 186.729 182.832C186.345 182.616 186.153 182.28 186.153 181.92C186.153 181.776 186.177 181.608 186.249 181.464C186.417 181.104 186.753 180.888 187.113 180.888C187.257 180.888 187.425 180.936 187.569 181.008C188.385 181.416 189.489 181.728 190.617 181.728C193.017 181.728 194.529 180.336 194.529 178.344C194.529 176.256 193.137 174.768 190.521 174.768C189.177 174.768 187.089 175.152 185.025 175.752C184.209 175.992 183.393 176.28 182.673 176.592C183.945 180.696 185.049 184.968 185.961 189.168C185.985 189.288 186.009 189.408 186.009 189.528C186.009 189.984 185.721 190.296 185.241 190.44C185.121 190.464 185.025 190.464 184.929 190.464C184.449 190.464 184.065 190.224 183.945 189.72C183.057 185.52 182.073 181.272 180.825 177.264C179.505 177.792 178.209 178.368 177.057 178.872C176.889 178.944 176.745 178.968 176.577 178.968C176.217 178.968 175.881 178.752 175.737 178.368C175.665 178.224 175.641 178.08 175.641 177.936C175.641 177.552 175.857 177.192 176.265 177C177.489 176.448 178.833 175.92 180.225 175.416C179.817 174.144 179.337 172.872 178.857 171.552C178.833 171.456 178.809 171.336 178.809 171.24C178.809 170.832 179.121 170.52 179.553 170.376C179.721 170.328 179.865 170.304 179.985 170.304C180.393 170.304 180.729 170.52 180.873 170.976C181.329 172.224 181.761 173.496 182.145 174.768C182.937 174.48 183.681 174.24 184.401 174.024C185.385 173.736 186.393 173.472 187.305 173.304ZM205.353 188.784V185.328C203.697 186.24 201.945 186.984 200.289 187.488C200.169 187.512 200.049 187.536 199.953 187.536C199.545 187.536 199.233 187.296 199.113 186.912C199.089 186.792 199.065 186.672 199.065 186.576C199.065 186.216 199.257 185.928 199.665 185.808C202.257 185.064 205.209 183.744 207.393 182.136H200.001C199.545 182.136 199.305 181.824 199.305 181.32C199.305 180.816 199.545 180.48 200.001 180.48H209.001V178.536C209.001 177.984 209.409 177.792 209.913 177.792C210.441 177.792 210.825 177.984 210.825 178.536V180.48H220.497C221.001 180.48 221.241 180.792 221.241 181.296C221.241 181.8 220.977 182.136 220.497 182.136H211.833C212.313 183.288 213.105 184.296 213.969 185.16C215.217 184.416 216.225 183.576 217.065 182.736C217.233 182.592 217.449 182.472 217.713 182.472C217.905 182.472 218.121 182.544 218.337 182.688C218.577 182.88 218.697 183.12 218.697 183.36C218.697 183.576 218.601 183.816 218.409 183.984C217.497 184.848 216.417 185.664 215.337 186.312C216.969 187.488 218.937 188.328 221.025 188.88C221.433 189 221.601 189.24 221.601 189.6C221.601 189.744 221.577 189.912 221.529 190.056C221.409 190.488 221.097 190.752 220.665 190.752C220.569 190.752 220.449 190.728 220.353 190.704C219.081 190.368 217.881 189.96 216.705 189.336C215.553 188.712 214.449 187.968 213.489 187.08C211.977 185.712 210.777 184.032 210.033 182.136H209.841C209.001 182.928 208.089 183.6 207.153 184.248V188.472C208.929 188.112 210.657 187.704 212.097 187.272C212.217 187.248 212.313 187.224 212.409 187.224C212.793 187.224 213.009 187.44 213.153 187.824C213.177 187.944 213.201 188.04 213.201 188.136C213.201 188.496 212.961 188.784 212.601 188.904C209.745 189.768 205.833 190.56 202.713 190.992C202.641 190.992 202.593 190.992 202.545 190.992C202.113 190.992 201.777 190.728 201.705 190.224C201.681 190.152 201.681 190.08 201.681 190.008C201.681 189.576 201.969 189.264 202.449 189.216C203.361 189.096 204.345 188.952 205.353 188.784ZM204.465 172.656V178.872C204.465 179.376 204.081 179.592 203.553 179.592C203.025 179.592 202.665 179.352 202.665 178.872V176.16C202.665 175.56 202.713 174.84 202.833 174.192C202.065 174.984 201.177 175.752 200.457 176.232C200.241 176.376 200.025 176.448 199.833 176.448C199.545 176.448 199.305 176.304 199.113 176.064C198.993 175.92 198.945 175.728 198.945 175.56C198.945 175.296 199.065 175.008 199.281 174.864C201.513 173.352 203.433 171.48 204.705 169.464C204.921 169.128 205.209 168.984 205.497 168.984C205.641 168.984 205.809 169.032 205.977 169.104C206.289 169.272 206.433 169.512 206.433 169.8C206.433 169.992 206.361 170.184 206.241 170.376C205.761 171.168 205.161 171.912 204.465 172.656ZM205.905 173.472L210.345 172.992C209.985 172.056 209.697 171 209.529 169.848C209.505 169.8 209.505 169.728 209.505 169.68C209.505 169.2 209.817 168.936 210.321 168.864C210.369 168.864 210.441 168.864 210.489 168.864C210.993 168.864 211.281 169.128 211.329 169.584C211.521 170.808 211.833 171.864 212.217 172.8L220.185 171.936C220.233 171.936 220.257 171.936 220.305 171.936C220.737 171.936 220.977 172.224 221.001 172.68C221.001 172.728 221.001 172.776 221.001 172.824C221.001 173.232 220.785 173.472 220.353 173.52L213.057 174.312C214.257 176.064 215.961 177.144 217.953 177.672C218.145 177.72 218.313 177.744 218.457 177.744C218.697 177.744 218.865 177.672 218.985 177.504C219.177 177.24 219.297 176.832 219.393 176.232C219.465 175.848 219.729 175.632 220.113 175.632C220.209 175.632 220.305 175.632 220.401 175.656C220.809 175.752 221.097 176.04 221.097 176.472C221.097 176.544 221.097 176.592 221.073 176.664C220.929 177.576 220.617 178.512 220.089 179.016C219.753 179.352 219.249 179.496 218.673 179.496C218.313 179.496 217.905 179.448 217.497 179.328C214.929 178.68 212.625 177.096 211.113 174.504L206.049 175.056C206.025 175.056 206.001 175.056 205.953 175.056C205.593 175.056 205.377 174.816 205.305 174.336C205.305 174.288 205.305 174.24 205.305 174.216C205.305 173.784 205.521 173.52 205.905 173.472ZM213.969 168.84C214.929 169.152 216.177 169.752 217.041 170.304C217.329 170.496 217.473 170.736 217.473 171C217.473 171.144 217.425 171.312 217.329 171.456C217.209 171.72 216.969 171.84 216.705 171.84C216.537 171.84 216.369 171.792 216.201 171.696C215.409 171.216 214.233 170.664 213.321 170.28C212.985 170.16 212.841 169.92 212.841 169.656C212.841 169.512 212.865 169.368 212.937 169.224C213.105 168.936 213.345 168.792 213.633 168.792C213.729 168.792 213.849 168.816 213.969 168.84ZM239.457 177.6H244.401C244.833 177.6 245.073 177.912 245.073 178.392C245.073 178.872 244.833 179.208 244.401 179.208H233.121C232.689 179.208 232.449 178.896 232.449 178.416C232.449 177.912 232.689 177.6 233.121 177.6H237.681V174.024H232.833C232.377 174.024 232.161 173.688 232.161 173.208C232.161 172.704 232.377 172.368 232.833 172.368H237.681V169.368C237.681 168.936 238.041 168.696 238.593 168.696C239.145 168.696 239.457 168.936 239.457 169.368V172.368H244.833C245.289 172.368 245.529 172.704 245.529 173.208C245.529 173.664 245.289 174.024 244.833 174.024H239.457V177.6ZM235.425 181.608H241.905C243.321 181.608 243.993 182.136 243.993 183.6V188.376C243.993 189.816 243.321 190.344 241.905 190.344H235.425C234.033 190.344 233.385 189.816 233.385 188.376V183.6C233.385 182.136 234.033 181.608 235.425 181.608ZM235.929 188.688H241.449C241.977 188.688 242.217 188.52 242.217 187.992V183.936C242.217 183.408 241.977 183.24 241.449 183.24H235.929C235.377 183.24 235.161 183.408 235.161 183.936V187.992C235.161 188.52 235.377 188.688 235.929 188.688ZM230.745 170.904H224.601C224.193 170.904 223.977 170.52 223.977 170.088C223.977 169.632 224.193 169.32 224.601 169.32H230.745C231.129 169.32 231.345 169.632 231.345 170.088C231.345 170.52 231.129 170.904 230.745 170.904ZM230.697 177.912H224.577C224.169 177.912 223.977 177.552 223.977 177.12C223.977 176.688 224.169 176.328 224.577 176.328H230.697C231.081 176.328 231.297 176.688 231.297 177.12C231.297 177.528 231.081 177.912 230.697 177.912ZM223.737 172.8H231.009C231.441 172.8 231.657 173.112 231.657 173.592C231.657 174.048 231.441 174.432 231.009 174.432H223.737C223.305 174.432 223.089 174.072 223.089 173.592C223.089 173.112 223.305 172.8 223.737 172.8ZM231.369 184.896V188.568C231.369 189.816 230.793 190.344 229.593 190.344H225.897C224.673 190.344 224.097 189.816 224.097 188.568V184.896C224.097 183.672 224.673 183.168 225.897 183.168H229.593C230.793 183.168 231.369 183.672 231.369 184.896ZM226.425 188.856H229.065C229.473 188.856 229.689 188.712 229.689 188.28V185.16C229.689 184.728 229.473 184.584 229.065 184.584H226.425C225.993 184.584 225.777 184.728 225.777 185.16V188.28C225.777 188.712 225.993 188.856 226.425 188.856ZM230.697 181.368H224.577C224.169 181.368 223.977 181.008 223.977 180.576C223.977 180.144 224.169 179.784 224.577 179.784H230.697C231.081 179.784 231.297 180.144 231.297 180.576C231.297 181.008 231.081 181.368 230.697 181.368ZM256.257 185.688C254.817 187.464 253.281 187.992 251.913 187.992C249.753 187.992 248.121 186.264 248.121 183.168C248.121 180.216 249.633 177.528 252.177 175.632C251.865 174.288 251.601 172.896 251.409 171.48C251.409 171.408 251.409 171.36 251.409 171.312C251.409 170.832 251.673 170.472 252.153 170.4C252.249 170.376 252.321 170.376 252.393 170.376C252.849 170.376 253.161 170.64 253.209 171.168C253.353 172.32 253.545 173.496 253.761 174.648C255.369 173.784 257.313 173.28 259.617 173.28C259.809 172.296 259.977 171.312 260.097 170.4C260.169 169.824 260.481 169.56 260.961 169.56C261.033 169.56 261.105 169.56 261.177 169.584C261.705 169.632 262.017 169.992 262.017 170.472C262.017 170.544 262.017 170.616 261.993 170.688C261.873 171.552 261.705 172.488 261.513 173.448C262.881 173.664 263.985 174.072 264.945 174.72C267.009 176.04 268.305 178.176 268.305 181.128C268.305 185.856 264.753 189.024 259.161 189.72C259.065 189.744 258.993 189.744 258.921 189.744C258.369 189.744 258.009 189.432 257.937 188.952C257.913 188.88 257.913 188.808 257.913 188.736C257.913 188.28 258.201 187.896 258.777 187.824C263.313 187.248 266.289 184.776 266.289 181.152C266.289 178.992 265.329 177.24 263.865 176.208C263.073 175.656 262.161 175.32 261.129 175.152C260.841 176.328 260.529 177.456 260.169 178.464C259.449 180.48 258.489 182.52 257.481 184.056C257.673 184.392 257.913 184.704 258.129 185.04C258.273 185.232 258.345 185.472 258.345 185.712C258.345 185.952 258.249 186.216 258.009 186.408C257.841 186.552 257.601 186.648 257.361 186.648C257.121 186.648 256.905 186.552 256.761 186.384C256.569 186.144 256.425 185.928 256.257 185.688ZM255.225 184.104C254.217 182.232 253.281 179.952 252.657 177.528C250.929 178.968 249.993 181.032 249.993 183.024C249.993 184.896 250.857 186.096 251.985 186.096C252.897 186.096 254.049 185.64 255.225 184.104ZM256.377 182.496C257.145 181.2 257.865 179.544 258.441 177.888C258.753 176.976 259.017 176.016 259.257 174.984C257.505 174.984 255.681 175.488 254.193 176.328C254.721 178.56 255.489 180.696 256.377 182.496ZM62.08 220.952V231.488C62.08 232.112 61.648 232.472 61 232.472C60.376 232.472 59.92 232.136 59.92 231.512V220.976C59.92 220.352 60.376 219.992 61 219.992C61.648 219.992 62.08 220.328 62.08 220.952ZM71.824 228.488V221C71.824 220.376 72.232 219.992 72.856 219.992C73.504 219.992 73.984 220.328 73.984 220.952V228.776C73.984 232.376 73.072 234.896 71.032 236.696C69.136 238.352 66.328 239.456 63.664 239.768C63.616 239.768 63.544 239.768 63.496 239.768C62.92 239.768 62.536 239.432 62.416 238.928C62.392 238.832 62.392 238.76 62.392 238.664C62.392 238.184 62.704 237.8 63.256 237.728C65.68 237.416 68.08 236.456 69.592 235.088C71.152 233.672 71.824 231.608 71.824 228.488ZM91.816 225.272V239.504C91.816 240.128 91.312 240.416 90.736 240.416C90.16 240.416 89.752 240.128 89.752 239.504V225.272H81.712C81.208 225.272 80.872 224.864 80.872 224.312C80.872 223.784 81.208 223.328 81.712 223.328H89.752V220.52C89.752 219.896 90.16 219.608 90.736 219.608C91.312 219.608 91.816 219.896 91.816 220.52V223.328H100.288C100.792 223.328 101.128 223.784 101.128 224.312C101.128 224.864 100.792 225.272 100.288 225.272H91.816ZM84.088 228.536C84.184 227.984 84.568 227.72 85.024 227.72C85.12 227.72 85.24 227.744 85.36 227.768C85.816 227.84 86.152 228.2 86.152 228.728C86.152 228.824 86.128 228.896 86.128 228.992C85.456 232.256 84.16 235.448 82.552 237.728C82.312 238.088 81.952 238.256 81.616 238.256C81.4 238.256 81.208 238.208 81.04 238.088C80.704 237.896 80.536 237.584 80.536 237.248C80.536 237.032 80.608 236.792 80.752 236.6C82.312 234.488 83.536 231.44 84.088 228.536ZM96.304 227.768C96.4 227.744 96.496 227.744 96.592 227.744C97.048 227.744 97.456 227.984 97.576 228.56C98.152 231.488 99.376 234.44 101.104 236.576C101.224 236.768 101.296 237.008 101.296 237.224C101.296 237.584 101.128 237.92 100.864 238.088C100.648 238.208 100.432 238.28 100.216 238.28C99.88 238.28 99.568 238.112 99.304 237.752C97.672 235.568 96.208 232.232 95.56 228.992C95.536 228.896 95.512 228.8 95.512 228.704C95.512 228.2 95.848 227.84 96.304 227.768ZM96.208 219.368C96.208 219.056 96.52 218.72 96.904 218.72C97.168 218.72 97.336 218.792 97.528 218.984C98.272 219.728 99.136 220.76 99.592 221.552C99.664 221.696 99.736 221.864 99.736 222.104C99.736 222.488 99.4 222.8 98.968 222.8C98.68 222.8 98.512 222.704 98.344 222.416C97.84 221.6 97.12 220.688 96.448 219.944C96.304 219.776 96.208 219.584 96.208 219.368ZM99.448 218.6C99.448 218.288 99.808 217.976 100.144 217.976C100.408 217.976 100.576 218.072 100.792 218.264C101.416 218.864 102.328 220.112 102.76 220.88C102.832 221.024 102.904 221.216 102.904 221.48C102.904 221.768 102.616 222.152 102.16 222.152C101.872 222.152 101.704 222.032 101.536 221.768C101.008 220.856 100.36 219.92 99.736 219.224C99.544 219.008 99.448 218.888 99.448 218.6ZM108.088 221.624C109.84 222.728 112.024 224.432 113.416 226.136C113.608 226.376 113.704 226.64 113.704 226.904C113.704 227.192 113.584 227.48 113.368 227.72C113.176 227.936 112.912 228.056 112.624 228.056C112.336 228.056 112.024 227.912 111.736 227.6C110.416 226.088 108.448 224.384 106.72 223.208C106.456 223.016 106.336 222.728 106.336 222.44C106.336 222.2 106.432 221.936 106.6 221.744C106.816 221.48 107.08 221.384 107.368 221.384C107.632 221.384 107.872 221.48 108.088 221.624ZM124.168 223.376C124.672 223.52 124.984 223.856 124.984 224.36C124.984 224.504 124.96 224.648 124.936 224.792C123.952 228.872 121.672 232.76 118.336 235.28C115.432 237.464 110.992 238.88 107.272 239.024C107.248 239.024 107.248 239.024 107.224 239.024C106.6 239.024 106.144 238.664 106.096 238.064C106.096 238.016 106.096 237.992 106.096 237.944C106.096 237.368 106.456 236.912 107.056 236.888C110.608 236.72 114.688 235.328 117.088 233.48C119.896 231.296 121.984 227.792 122.848 224.24C123.016 223.592 123.376 223.328 123.808 223.328C123.928 223.328 124.048 223.352 124.168 223.376ZM130.12 220.952H146.296C147.376 220.952 148 221.312 148.432 221.864C148.696 222.224 148.84 222.68 148.84 223.208C148.84 223.664 148.72 224.192 148.48 224.72C147.256 227.312 144.616 229.616 142.192 230.552C142 230.624 141.832 230.672 141.664 230.672C141.328 230.672 141.016 230.528 140.848 230.216C140.752 230.048 140.704 229.856 140.704 229.688C140.704 229.28 140.944 228.944 141.304 228.776C143.416 227.864 145.432 226.16 146.536 224.12C146.632 223.904 146.704 223.688 146.704 223.52C146.704 223.184 146.464 222.944 145.912 222.944H130.12C129.544 222.944 129.256 222.584 129.256 221.96C129.256 221.336 129.568 220.952 130.12 220.952ZM138.352 225.104C139 225.104 139.408 225.44 139.408 226.088C139.384 230.288 138.856 232.664 137.896 234.584C136.576 237.248 134.272 239 131.656 239.864C131.488 239.936 131.32 239.96 131.152 239.96C130.768 239.96 130.48 239.768 130.288 239.336C130.216 239.168 130.192 239 130.192 238.856C130.192 238.472 130.408 238.16 130.888 237.992C133.168 237.224 135.064 235.688 136.024 233.624C136.84 231.872 137.248 229.856 137.248 226.136C137.248 225.44 137.704 225.104 138.352 225.104ZM167.649 224.48L159.921 224.6C158.529 226.76 156.609 228.752 154.497 230.144C154.281 230.264 154.089 230.336 153.873 230.336C153.561 230.336 153.273 230.168 153.057 229.904C152.937 229.736 152.865 229.52 152.865 229.28C152.865 228.968 153.009 228.608 153.369 228.392C155.745 226.856 158.145 224.216 159.753 220.208C159.921 219.776 160.209 219.512 160.689 219.512C160.809 219.512 160.953 219.536 161.121 219.584C161.625 219.704 161.865 220.064 161.865 220.448C161.865 220.544 161.841 220.664 161.817 220.76C161.673 221.264 161.337 221.936 160.881 222.728L168.393 222.584C169.929 222.56 170.889 223.424 170.889 224.984C170.889 225.272 170.865 225.56 170.793 225.896C169.353 232.688 164.577 238.184 156.393 240.152C156.297 240.176 156.201 240.176 156.105 240.176C155.625 240.176 155.265 239.936 155.121 239.48C155.097 239.36 155.073 239.24 155.073 239.12C155.073 238.688 155.337 238.328 155.865 238.208C162.873 236.36 167.169 232.088 168.609 225.584C168.633 225.416 168.657 225.296 168.657 225.152C168.657 224.696 168.417 224.48 167.745 224.48C167.721 224.48 167.697 224.48 167.649 224.48ZM181.377 227.552L177.009 228.2C176.937 228.224 176.865 228.224 176.817 228.224C176.313 228.224 175.953 227.912 175.881 227.384C175.881 227.336 175.881 227.288 175.881 227.24C175.881 226.76 176.169 226.352 176.697 226.256L181.377 225.584V220.664C181.377 220.04 181.737 219.704 182.409 219.704C183.081 219.704 183.441 220.04 183.441 220.688V225.296L193.329 223.88C193.545 223.856 193.761 223.832 193.953 223.832C194.697 223.832 195.273 224.048 195.609 224.48C195.873 224.792 196.041 225.224 196.041 225.752C196.041 226.136 195.969 226.544 195.777 226.976C194.769 229.328 192.465 231.68 190.449 232.808C190.185 232.952 189.969 233.024 189.753 233.024C189.465 233.024 189.225 232.88 188.985 232.616C188.841 232.472 188.769 232.256 188.769 232.064C188.769 231.728 188.961 231.368 189.297 231.176C191.001 230.216 192.873 228.464 193.665 226.688C193.761 226.496 193.809 226.328 193.809 226.184C193.809 225.92 193.641 225.752 193.305 225.752C193.257 225.752 193.161 225.752 193.089 225.776L183.441 227.24V233.696C183.441 236.768 183.753 237.152 188.577 237.152C190.569 237.152 192.513 236.96 193.929 236.72C194.049 236.696 194.169 236.696 194.265 236.696C194.865 236.696 195.201 236.984 195.273 237.488C195.297 237.584 195.297 237.656 195.297 237.728C195.297 238.232 195.009 238.616 194.433 238.712C192.873 238.976 190.953 239.12 188.649 239.12C182.457 239.12 181.377 238.208 181.377 233.792V227.552ZM204.273 224.456V220.616C204.273 220.04 204.657 219.704 205.281 219.704C205.881 219.704 206.337 220.04 206.337 220.616V224.432H214.185V220.616C214.185 220.04 214.545 219.704 215.169 219.704C215.769 219.704 216.225 220.04 216.225 220.616V224.432H219.897C220.545 224.432 220.809 224.84 220.809 225.368C220.809 225.896 220.545 226.328 219.921 226.328H216.225V228.896C216.225 231.8 215.625 234.08 214.473 235.76C212.985 237.92 210.321 239.48 207.369 239.984C207.249 240.008 207.153 240.008 207.057 240.008C206.529 240.008 206.217 239.744 206.121 239.264C206.097 239.168 206.097 239.096 206.097 239C206.097 238.52 206.409 238.208 206.961 238.112C209.313 237.704 211.617 236.288 212.769 234.608C213.729 233.216 214.185 231.32 214.185 228.488V226.328H206.337V232.232C206.337 232.832 205.881 233.144 205.281 233.144C204.657 233.144 204.273 232.832 204.273 232.232V226.328H200.577C199.953 226.328 199.689 225.896 199.689 225.368C199.689 224.84 199.953 224.456 200.601 224.456H204.273ZM229.353 220.952V231.488C229.353 232.112 228.921 232.472 228.273 232.472C227.649 232.472 227.193 232.136 227.193 231.512V220.976C227.193 220.352 227.649 219.992 228.273 219.992C228.921 219.992 229.353 220.328 229.353 220.952ZM239.097 228.488V221C239.097 220.376 239.505 219.992 240.129 219.992C240.777 219.992 241.257 220.328 241.257 220.952V228.776C241.257 232.376 240.345 234.896 238.305 236.696C236.409 238.352 233.601 239.456 230.937 239.768C230.889 239.768 230.817 239.768 230.769 239.768C230.193 239.768 229.809 239.432 229.689 238.928C229.665 238.832 229.665 238.76 229.665 238.664C229.665 238.184 229.977 237.8 230.529 237.728C232.953 237.416 235.353 236.456 236.865 235.088C238.425 233.672 239.097 231.608 239.097 228.488ZM267.393 231.104H249.129C248.529 231.104 248.193 230.72 248.193 230.072C248.193 229.448 248.529 228.992 249.153 228.992H267.369C267.993 228.992 268.329 229.448 268.329 230.072C268.329 230.72 267.993 231.104 267.393 231.104ZM283.473 224H282.681C281.745 225.92 280.617 227.768 279.417 229.256C279.225 229.496 278.961 229.616 278.697 229.616C278.481 229.616 278.241 229.544 278.049 229.376C277.857 229.184 277.737 228.92 277.737 228.632C277.737 228.416 277.809 228.2 277.953 228.008C279.945 225.776 281.697 222.44 282.513 219.32C282.633 218.912 282.921 218.696 283.329 218.696C283.425 218.696 283.521 218.72 283.641 218.744C284.145 218.864 284.385 219.152 284.385 219.512C284.385 219.608 284.361 219.704 284.337 219.8C284.097 220.616 283.785 221.456 283.449 222.296H292.617C293.073 222.296 293.289 222.656 293.289 223.136C293.289 223.664 293.073 224 292.617 224H285.297V227.696H291.825C292.257 227.696 292.497 228.08 292.497 228.536C292.497 229.04 292.257 229.4 291.825 229.4H285.297V233.12H291.921C292.353 233.12 292.569 233.48 292.569 233.96C292.569 234.464 292.353 234.824 291.921 234.824H285.297V240.32C285.297 240.752 284.937 240.992 284.385 240.992C283.809 240.992 283.473 240.752 283.473 240.32V224ZM274.665 240.248V230.048C274.665 229.04 274.713 227.912 274.881 226.832C274.233 227.96 273.441 229.016 272.649 229.856C272.457 230.072 272.217 230.168 272.001 230.168C271.761 230.168 271.545 230.072 271.329 229.88C271.113 229.688 271.017 229.448 271.017 229.184C271.017 228.968 271.113 228.728 271.281 228.56C273.681 226.136 275.697 222.92 276.753 219.296C276.873 218.912 277.185 218.72 277.569 218.72C277.689 218.72 277.809 218.744 277.929 218.768C278.409 218.888 278.673 219.176 278.673 219.536C278.673 219.632 278.649 219.752 278.601 219.848C278.073 221.432 277.401 223.016 276.537 224.552V240.248C276.537 240.704 276.153 240.944 275.577 240.944C275.025 240.944 274.665 240.704 274.665 240.248ZM300.561 229.256L300.705 229.28C301.113 227.408 301.545 226.136 302.049 225.152C303.441 222.44 305.529 221.048 307.713 221.048C311.025 221.048 313.809 223.52 313.809 229.04C313.809 233.216 312.465 236.096 309.921 237.92C308.241 239.12 305.769 239.984 303.249 240.296C303.177 240.296 303.129 240.296 303.081 240.296C302.553 240.296 302.121 240.008 302.025 239.48C302.001 239.384 302.001 239.288 302.001 239.216C302.001 238.688 302.337 238.328 302.913 238.256C305.313 237.944 307.425 237.2 308.841 236.12C310.785 234.632 311.745 232.304 311.745 228.968C311.745 225.008 309.945 222.944 307.569 222.944C305.649 222.944 303.945 224.336 302.793 226.808C301.881 228.752 301.329 231.056 301.329 232.88C301.329 233.576 301.017 234.008 300.345 234.056C300.321 234.056 300.297 234.056 300.297 234.056C299.769 234.056 299.361 233.744 299.217 233.048C299.025 231.92 298.881 230.336 298.881 228.8C298.881 226.112 299.457 222.92 300.201 220.064C300.369 219.488 300.705 219.224 301.161 219.224C301.257 219.224 301.329 219.224 301.401 219.248C301.905 219.32 302.169 219.608 302.169 220.04C302.169 220.16 302.145 220.304 302.097 220.448C301.521 222.584 300.969 225.176 300.825 226.784C300.753 227.552 300.657 228.44 300.561 229.256ZM334.761 222.584C336.585 223.28 338.505 224.312 339.849 225.224C340.185 225.44 340.329 225.8 340.329 226.112C340.329 226.304 340.281 226.496 340.185 226.664C339.993 226.952 339.681 227.12 339.369 227.12C339.153 227.12 338.961 227.048 338.769 226.928C337.353 225.944 335.553 225.008 333.753 224.288C333.441 224.168 333.297 223.88 333.297 223.568C333.297 223.376 333.345 223.184 333.441 223.016C333.657 222.68 333.969 222.512 334.329 222.512C334.473 222.512 334.617 222.536 334.761 222.584ZM326.529 225.224C325.377 228.992 323.817 232.784 322.017 235.928C321.777 236.336 321.465 236.552 321.129 236.552C320.913 236.552 320.697 236.48 320.457 236.336C320.145 236.144 320.001 235.856 320.001 235.544C320.001 235.328 320.073 235.064 320.217 234.824C321.873 232.016 323.481 228.584 324.465 225.344C323.577 225.392 322.641 225.416 321.705 225.416C321.417 225.416 321.105 225.416 320.793 225.416C320.241 225.416 319.953 225.056 319.953 224.48C319.953 223.904 320.289 223.544 320.841 223.544C321.177 223.544 321.513 223.544 321.873 223.544C322.905 223.544 323.985 223.52 325.017 223.472C325.353 222.296 325.641 221.096 325.881 219.872C325.929 219.344 326.289 219.08 326.769 219.08C326.841 219.08 326.913 219.08 327.009 219.104C327.537 219.2 327.849 219.464 327.849 219.944C327.849 220.04 327.849 220.136 327.825 220.256C327.609 221.24 327.369 222.272 327.105 223.304C328.281 223.208 329.409 223.112 330.417 222.968C330.489 222.944 330.561 222.944 330.633 222.944C331.113 222.944 331.401 223.232 331.497 223.736C331.497 223.784 331.497 223.832 331.497 223.88C331.497 224.336 331.209 224.696 330.633 224.792C329.385 224.984 327.969 225.104 326.529 225.224ZM335.673 233.384C337.281 234.152 338.985 235.28 340.185 236.48C340.425 236.72 340.545 237.008 340.545 237.272C340.545 237.512 340.449 237.752 340.281 237.944C340.065 238.16 339.825 238.28 339.585 238.28C339.345 238.28 339.081 238.16 338.865 237.968C337.929 237.032 336.753 236.048 335.745 235.472C335.793 235.76 335.793 236.072 335.793 236.288C335.673 238.904 333.993 240.128 330.729 240.128C327.729 240.128 325.737 238.544 325.737 236.288C325.737 233.984 327.777 232.328 330.753 232.328C331.761 232.328 332.745 232.472 333.729 232.736C333.585 231.392 333.465 229.496 333.465 227.936C333.465 227.24 333.873 226.952 334.401 226.952C334.977 226.952 335.385 227.264 335.385 227.936C335.385 230 335.481 231.68 335.673 233.384ZM333.873 234.656C332.913 234.224 331.833 234.032 330.801 234.032C328.857 234.032 327.633 234.944 327.633 236.264C327.633 237.584 328.809 238.328 330.777 238.328C332.817 238.328 333.921 237.56 333.921 235.856C333.921 235.472 333.921 235.136 333.873 234.656ZM353.145 227.24C355.521 226.232 358.329 225.272 360.465 224.72C360.609 224.696 360.729 224.672 360.849 224.672C361.329 224.672 361.641 224.912 361.785 225.392C361.809 225.512 361.833 225.632 361.833 225.752C361.833 226.184 361.569 226.544 361.017 226.688C358.521 227.312 355.113 228.416 352.569 229.568C349.449 230.984 347.817 232.784 347.817 234.536C347.817 236.624 349.353 237.68 354.441 237.68C356.793 237.68 359.433 237.416 361.257 237.032C361.353 237.008 361.449 237.008 361.545 237.008C362.073 237.008 362.433 237.32 362.505 237.872C362.529 237.968 362.529 238.04 362.529 238.136C362.529 238.64 362.193 239.048 361.617 239.168C359.769 239.576 357.153 239.744 354.345 239.744C348.465 239.768 345.753 238.136 345.753 234.512C345.753 232.088 347.769 229.736 351.225 228.056C350.505 225.896 349.929 223.4 349.473 220.976C349.449 220.904 349.449 220.832 349.449 220.76C349.449 220.232 349.857 219.92 350.313 219.824C350.409 219.8 350.481 219.8 350.577 219.8C351.057 219.8 351.465 220.064 351.537 220.616C351.945 222.896 352.449 225.224 353.145 227.24ZM359.481 220.016C359.481 219.704 359.793 219.368 360.177 219.368C360.441 219.368 360.609 219.44 360.801 219.632C361.545 220.352 362.433 221.504 362.889 222.296C362.961 222.44 363.057 222.608 363.057 222.92C363.057 223.28 362.721 223.592 362.265 223.592C361.977 223.592 361.785 223.472 361.641 223.184C361.137 222.32 360.393 221.336 359.721 220.592C359.577 220.424 359.481 220.232 359.481 220.016ZM362.337 218.696C362.337 218.384 362.697 218.072 363.033 218.072C363.297 218.072 363.465 218.168 363.681 218.36C364.305 218.96 365.217 220.208 365.649 220.976C365.721 221.12 365.793 221.312 365.793 221.576C365.793 221.864 365.505 222.248 365.049 222.248C364.761 222.248 364.593 222.128 364.425 221.864C363.897 220.952 363.273 220.016 362.625 219.32C362.409 219.104 362.337 218.984 362.337 218.696ZM69.232 283.72V280.432H64.24C63.832 280.432 63.592 280.096 63.592 279.664C63.592 279.208 63.832 278.92 64.24 278.92H69.232V276.856H64.912C64.528 276.856 64.336 276.496 64.336 276.088C64.336 275.68 64.528 275.368 64.912 275.368H69.232V273.424H64.384C63.976 273.424 63.76 273.088 63.76 272.68C63.76 272.248 63.976 271.936 64.384 271.936H67.072C66.688 271.096 66.16 270.232 65.848 269.776C65.752 269.632 65.704 269.512 65.704 269.368C65.704 269.104 65.872 268.864 66.16 268.768C66.304 268.696 66.448 268.672 66.568 268.672C66.856 268.672 67.12 268.816 67.288 269.056C67.768 269.752 68.368 270.856 68.824 271.936H71.536C72.208 270.904 72.76 269.848 72.976 269.248C73.12 268.864 73.384 268.672 73.768 268.672C73.864 268.672 73.96 268.672 74.08 268.696C74.464 268.792 74.704 269.056 74.704 269.392C74.704 269.488 74.68 269.608 74.632 269.728C74.368 270.28 73.888 271.096 73.312 271.936H76.84C77.248 271.936 77.464 272.248 77.464 272.68C77.464 273.088 77.248 273.424 76.84 273.424H70.864V275.368H76.216C76.6 275.368 76.792 275.68 76.792 276.088C76.792 276.496 76.6 276.856 76.216 276.856H70.864V278.92H77.248C77.656 278.92 77.872 279.208 77.872 279.664C77.872 280.096 77.656 280.432 77.248 280.432H71.056C71.536 281.656 72.208 282.808 72.976 283.864C73.888 283.096 74.656 282.16 75.28 281.296C75.424 281.08 75.664 280.96 75.904 280.96C76.072 280.96 76.264 281.032 76.432 281.152C76.696 281.32 76.816 281.56 76.816 281.8C76.816 281.968 76.768 282.112 76.648 282.256C75.952 283.192 74.92 284.2 73.936 285.016C75.04 286.24 76.36 287.272 77.776 288.184C78.016 288.328 78.184 288.616 78.184 288.928C78.184 289.12 78.136 289.312 77.992 289.48C77.8 289.744 77.584 289.864 77.32 289.864C77.128 289.864 76.912 289.792 76.672 289.648C73.672 287.608 71.704 285.256 70.504 281.92C70.744 283.336 70.864 284.848 70.864 285.856V288.688C70.864 290.032 70.336 290.872 68.584 290.872C67.84 290.872 67 290.8 66.424 290.656C66.064 290.584 65.848 290.32 65.848 289.912C65.848 289.84 65.848 289.768 65.872 289.672C65.944 289.24 66.28 288.976 66.568 288.976C66.616 288.976 66.64 288.976 66.688 288.976C67.168 289.096 67.816 289.192 68.296 289.192C69.016 289.192 69.232 288.976 69.232 288.136V285.592C67.36 286.96 65.2 288.304 63.544 289.024C63.376 289.12 63.232 289.144 63.088 289.144C62.752 289.144 62.464 288.952 62.344 288.616C62.272 288.496 62.248 288.352 62.248 288.232C62.248 287.92 62.416 287.632 62.752 287.488C64.648 286.744 67.24 285.28 69.232 283.72ZM61.024 273.472H62.896C63.304 273.472 63.544 273.784 63.544 274.264C63.544 274.744 63.304 275.08 62.896 275.08H61.12C61.672 276.448 62.392 277.648 63.04 278.488C63.208 278.704 63.28 278.92 63.28 279.136C63.28 279.352 63.208 279.568 63.016 279.712C62.872 279.856 62.704 279.904 62.536 279.904C62.296 279.904 62.056 279.784 61.936 279.568C61.504 278.848 61.12 277.984 60.736 276.784C60.904 278.152 61.024 279.664 61.024 280.672V290.44C61.024 290.896 60.712 291.136 60.16 291.136C59.632 291.136 59.296 290.896 59.296 290.44V282.04C59.296 280.84 59.44 279.064 59.656 277.192C59.2 279.52 58.168 282.112 56.992 283.84C56.8 284.104 56.56 284.224 56.344 284.224C56.152 284.224 55.96 284.152 55.792 284.008C55.576 283.816 55.48 283.576 55.48 283.312C55.48 283.12 55.528 282.928 55.648 282.76C57.064 280.744 58.432 277.936 59.056 275.08H56.776C56.344 275.08 56.104 274.744 56.104 274.264C56.104 273.784 56.344 273.472 56.776 273.472H59.296V269.32C59.296 268.864 59.632 268.624 60.16 268.624C60.712 268.624 61.024 268.864 61.024 269.32V273.472ZM64.264 282.328C64.12 282.16 64.048 281.992 64.048 281.848C64.048 281.632 64.168 281.44 64.384 281.272C64.552 281.128 64.72 281.056 64.912 281.056C65.104 281.056 65.296 281.152 65.44 281.296C65.896 281.752 66.592 282.592 67.096 283.36C67.168 283.48 67.216 283.624 67.216 283.792C67.216 284.008 67.12 284.224 66.928 284.392C66.736 284.536 66.52 284.608 66.328 284.608C66.064 284.608 65.848 284.488 65.728 284.296C65.368 283.72 64.768 282.928 64.264 282.328ZM95.488 275.68H88.528C88 276.712 87.208 277.936 86.32 279.136C85.168 280.696 83.8 282.16 82.768 283.144C82.576 283.336 82.336 283.408 82.096 283.408C81.808 283.408 81.52 283.288 81.328 283.096C81.112 282.88 80.992 282.616 80.992 282.352C80.992 282.088 81.088 281.848 81.328 281.656C82.864 280.408 84.664 278.296 85.936 276.232C87.112 274.336 88.12 271.888 88.672 270.088C88.792 269.68 89.152 269.464 89.536 269.464C89.68 269.464 89.848 269.488 89.992 269.56C90.448 269.728 90.688 270.016 90.688 270.4C90.688 270.496 90.664 270.616 90.64 270.736C90.352 271.672 89.848 272.824 89.344 273.904L96.52 273.856C97.576 273.856 98.296 274.6 98.296 275.56C98.296 275.824 98.248 276.112 98.128 276.4C97.12 278.824 95.248 282.04 93.064 284.512C94.192 285.496 95.296 286.552 96.136 287.512C96.328 287.728 96.4 287.968 96.4 288.184C96.4 288.496 96.256 288.76 96.04 288.976C95.824 289.144 95.584 289.264 95.32 289.264C95.056 289.264 94.792 289.144 94.576 288.88C92.704 286.672 89.872 284.128 87.472 282.568C87.208 282.4 87.112 282.16 87.112 281.92C87.112 281.68 87.208 281.44 87.4 281.248C87.616 281.008 87.88 280.888 88.144 280.888C88.336 280.888 88.552 280.96 88.768 281.104C89.632 281.68 90.64 282.448 91.624 283.264C93.496 281.2 95.032 278.512 95.968 276.376C96.016 276.256 96.04 276.136 96.04 276.064C96.04 275.8 95.848 275.68 95.488 275.68ZM112.816 287.584C111.184 288.88 109.84 289.264 108.568 289.264C106.696 289.264 105.304 287.896 105.304 285.544C105.304 282.352 107.704 279.496 111.064 278.008C111.04 277.672 111.04 277.336 111.04 276.976C111.04 276.016 111.064 275.056 111.088 274.12C109.744 274.144 108.256 274.168 106.84 274.168C106.216 274.144 105.928 273.808 105.928 273.232C105.928 272.728 106.24 272.368 106.768 272.368C107.176 272.368 107.608 272.368 108.016 272.368C109.048 272.368 110.104 272.368 111.184 272.344C111.208 271.504 111.256 270.64 111.328 269.896C111.376 269.44 111.712 269.128 112.24 269.128C112.288 269.128 112.312 269.128 112.36 269.128C112.936 269.176 113.176 269.44 113.176 269.896C113.176 269.92 113.176 269.968 113.176 270.016C113.104 270.712 113.056 271.456 113.008 272.272C116.08 272.152 119.008 271.936 121.672 271.528C121.72 271.528 121.792 271.528 121.84 271.528C122.32 271.528 122.632 271.816 122.704 272.32C122.704 272.392 122.704 272.44 122.704 272.488C122.704 272.968 122.416 273.28 121.864 273.352C119.2 273.712 116.152 273.928 112.864 274.048C112.84 274.936 112.816 275.824 112.816 276.736C112.816 276.952 112.816 277.168 112.816 277.384C113.8 277.12 115.168 276.88 116.92 276.88C117.016 276.472 117.088 276.112 117.136 275.824C117.208 275.44 117.496 275.224 117.928 275.224C117.976 275.224 118.048 275.224 118.12 275.248C118.6 275.296 118.888 275.584 118.888 275.992C118.888 276.04 118.888 276.088 118.888 276.136C118.84 276.424 118.768 276.736 118.696 277.048C122.608 277.648 124.6 280 124.6 283.216C124.6 287.104 121.168 290.128 116.008 290.32C115.984 290.32 115.984 290.32 115.96 290.32C115.384 290.32 115.024 289.912 115 289.408C115 289.384 115 289.36 115 289.36C115 288.808 115.36 288.496 115.84 288.472C120.112 288.256 122.584 286.024 122.584 283.12C122.584 280.72 121.096 278.992 118.288 278.632C117.496 281.608 115.912 284.536 114.256 286.264C114.376 286.552 114.496 286.864 114.664 287.224C114.736 287.368 114.784 287.536 114.784 287.704C114.784 288.04 114.616 288.328 114.256 288.52C114.088 288.592 113.92 288.64 113.776 288.64C113.488 288.64 113.248 288.496 113.104 288.232C113.008 288.04 112.912 287.8 112.816 287.584ZM112.192 285.808C111.64 284.128 111.28 281.968 111.16 279.76C108.52 281.176 107.128 283.432 107.128 285.424C107.128 286.744 107.824 287.392 108.808 287.392C109.696 287.392 110.896 286.96 112.192 285.808ZM113.608 284.392C114.832 282.88 115.96 280.744 116.584 278.416C114.832 278.416 113.536 278.728 112.864 278.992C112.912 280.984 113.176 282.832 113.608 284.392ZM133.288 279.256L133.432 279.28C133.84 277.408 134.272 276.136 134.776 275.152C136.168 272.44 138.256 271.048 140.44 271.048C143.752 271.048 146.536 273.52 146.536 279.04C146.536 283.216 145.192 286.096 142.648 287.92C140.968 289.12 138.496 289.984 135.976 290.296C135.904 290.296 135.856 290.296 135.808 290.296C135.28 290.296 134.848 290.008 134.752 289.48C134.728 289.384 134.728 289.288 134.728 289.216C134.728 288.688 135.064 288.328 135.64 288.256C138.04 287.944 140.152 287.2 141.568 286.12C143.512 284.632 144.472 282.304 144.472 278.968C144.472 275.008 142.672 272.944 140.296 272.944C138.376 272.944 136.672 274.336 135.52 276.808C134.608 278.752 134.056 281.056 134.056 282.88C134.056 283.576 133.744 284.008 133.072 284.056C133.048 284.056 133.024 284.056 133.024 284.056C132.496 284.056 132.088 283.744 131.944 283.048C131.752 281.92 131.608 280.336 131.608 278.8C131.608 276.112 132.184 272.92 132.928 270.064C133.096 269.488 133.432 269.224 133.888 269.224C133.984 269.224 134.056 269.224 134.128 269.248C134.632 269.32 134.896 269.608 134.896 270.04C134.896 270.16 134.872 270.304 134.824 270.448C134.248 272.584 133.696 275.176 133.552 276.784C133.48 277.552 133.384 278.44 133.288 279.256ZM164.656 282.76C165.304 282.952 165.832 283.144 166.384 283.384C168.304 284.2 170.464 285.4 172.144 286.864C172.408 287.128 172.552 287.44 172.552 287.728C172.552 287.944 172.48 288.16 172.336 288.352C172.12 288.64 171.808 288.784 171.496 288.784C171.232 288.784 170.992 288.688 170.776 288.496C169.312 287.152 167.536 286.072 165.88 285.232C165.544 285.088 165.16 284.896 164.776 284.728C164.8 285.064 164.8 285.448 164.8 285.76C164.8 288.736 163 289.888 159.736 289.888C156.496 289.888 154.36 288.352 154.36 286.024C154.36 283.696 156.304 282.064 160.264 282.064C161.056 282.064 161.92 282.16 162.808 282.328C162.712 281.224 162.64 280.144 162.592 279.04C161.632 279.088 160.72 279.088 159.76 279.088C158.08 279.088 156.784 279.088 154.984 278.968C154.48 278.92 154.168 278.56 154.168 278.08C154.168 278.056 154.168 278.032 154.168 277.984C154.216 277.456 154.528 277.12 155.032 277.12C155.056 277.12 155.056 277.12 155.08 277.12C156.808 277.216 158.056 277.264 159.688 277.264C160.624 277.264 161.56 277.264 162.496 277.216C162.448 276.28 162.424 275.272 162.4 274.216C161.656 274.24 160.936 274.24 160.168 274.24C157.816 274.24 155.848 274.192 154.6 274.12C154.048 274.072 153.808 273.664 153.808 273.208C153.808 273.184 153.808 273.136 153.808 273.088C153.856 272.608 154.168 272.272 154.696 272.272C154.72 272.272 154.72 272.272 154.744 272.272C156.016 272.344 157.96 272.392 160.048 272.392C160.816 272.392 161.584 272.392 162.352 272.368C162.352 271.696 162.352 270.928 162.352 270.136C162.352 269.56 162.664 269.272 163.312 269.272C163.912 269.272 164.2 269.536 164.2 270.184C164.2 270.952 164.2 271.648 164.224 272.344C166.672 272.272 168.856 272.104 171.04 271.816C171.136 271.792 171.208 271.792 171.28 271.792C171.76 271.792 172.024 272.08 172.096 272.56C172.12 272.632 172.12 272.704 172.12 272.776C172.12 273.184 171.856 273.52 171.376 273.592C169.072 273.904 166.792 274.096 164.224 274.192C164.224 275.128 164.272 276.064 164.32 277.168C166.648 277.048 168.784 276.856 171.016 276.544C171.064 276.544 171.112 276.544 171.16 276.544C171.616 276.544 171.904 276.856 171.976 277.336C171.976 277.408 171.976 277.456 171.976 277.504C171.976 277.984 171.664 278.296 171.208 278.368C168.976 278.68 166.816 278.872 164.392 278.968C164.464 280.264 164.56 281.464 164.656 282.76ZM162.904 284.224C161.992 283.96 161.008 283.816 160.12 283.816C157.432 283.816 156.28 284.656 156.28 286.048C156.28 287.344 157.672 288.04 159.616 288.04C161.872 288.04 162.952 287.416 162.928 285.232C162.928 284.896 162.928 284.56 162.904 284.224ZM189.04 282.016H188.92C188.296 284.104 186.832 284.8 184.936 284.8C182.44 284.8 180.664 283.096 180.664 280.696C180.664 278.176 182.656 276.4 185.392 276.4C186.568 276.4 187.552 276.784 188.248 277.504C188.224 276.64 188.224 275.416 188.224 274.288C184.696 274.36 181.024 274.504 177.544 274.72C177.52 274.72 177.472 274.72 177.448 274.72C176.896 274.72 176.584 274.336 176.56 273.784C176.56 273.76 176.56 273.736 176.56 273.736C176.56 273.232 176.872 272.848 177.424 272.824C180.808 272.632 184.552 272.512 188.2 272.44C188.2 271.6 188.176 270.76 188.176 270.04C188.176 269.512 188.488 269.176 189.088 269.176C189.784 269.176 190.096 269.464 190.096 270.088C190.096 270.76 190.096 271.552 190.096 272.416C191.392 272.392 192.664 272.368 193.888 272.368C194.752 272.368 195.616 272.368 196.432 272.392C197.08 272.392 197.416 272.704 197.416 273.352C197.416 273.376 197.416 273.4 197.416 273.424C197.416 274 197.08 274.264 196.528 274.264C195.112 274.24 193.624 274.216 192.064 274.216C191.416 274.216 190.768 274.216 190.096 274.24C190.096 275.848 190.096 277.552 190.096 279.208C190.576 280.192 190.792 281.224 190.792 282.352C190.792 285.472 189.448 287.488 186.904 288.832C185.824 289.408 184.528 289.84 183.088 290.104C183.016 290.128 182.944 290.128 182.848 290.128C182.368 290.128 181.984 289.864 181.888 289.336C181.864 289.24 181.864 289.144 181.864 289.072C181.864 288.568 182.152 288.208 182.632 288.112C186.928 287.32 189.04 285.304 189.04 282.472V282.016ZM188.08 280.168C188.08 278.872 187.048 278.008 185.512 278.008C183.88 278.008 182.632 279.088 182.632 280.6C182.632 282.208 183.736 283.048 185.248 283.048C186.928 283.048 188.08 281.872 188.08 280.168ZM201.908 283.312C203.972 283.312 205.652 284.992 205.652 287.056C205.652 289.12 203.972 290.8 201.908 290.8C199.844 290.8 198.164 289.12 198.164 287.056C198.164 284.992 199.844 283.312 201.908 283.312ZM201.908 284.824C200.708 284.824 199.676 285.856 199.676 287.056C199.676 288.256 200.708 289.288 201.908 289.288C203.108 289.288 204.14 288.256 204.14 287.056C204.14 285.856 203.108 284.824 201.908 284.824Z" fill="black"/>
</svg>
