<svg width="616" height="264" viewBox="0 0 616 264" fill="none" xmlns="http://www.w3.org/2000/svg">
<g clip-path="url(#clip0_417_3)">
<path d="M538.289 138.178V39.27C538.289 18.095 517.34 0.916656 491.466 0.916656H47.9425C22.0688 0.916656 1.11914 18.0767 1.11914 39.27V224.748C1.11914 245.923 22.0688 263.102 47.9425 263.102H491.488C517.34 263.102 538.312 245.942 538.312 224.748L539.431 207.185V206.085C543.034 176.202 602.414 187.715 614.277 195.232C614.612 195.433 615.06 195.158 614.881 194.847C605.413 178.512 543.773 157.117 538.312 136.583" fill="#FFFAE3"/>
<path d="M538.289 138.178V39.27C538.289 18.095 517.34 0.916656 491.466 0.916656H47.9425C22.0688 0.916656 1.11914 18.0767 1.11914 39.27V224.748C1.11914 245.923 22.0688 263.102 47.9425 263.102H491.488C517.34 263.102 538.312 245.942 538.312 224.748L539.431 207.185V206.085C543.034 176.202 602.414 187.715 614.277 195.232C614.612 195.433 615.06 195.158 614.881 194.847C605.413 178.512 543.773 157.117 538.312 136.583" stroke="#141414" stroke-miterlimit="10"/>
</g>
<path d="M56.408 83.008H50.776C50.328 84.32 49.912 85.6 49.272 86.816C48.376 88.448 47.256 89.952 45.976 91.328C49.336 92.576 52.728 94.048 55.64 95.648C56.088 95.872 56.312 96.256 56.312 96.704C56.312 96.928 56.248 97.184 56.088 97.472C55.832 97.92 55.448 98.176 55 98.176C54.744 98.176 54.488 98.112 54.2 97.952C51.16 96.192 47.608 94.528 43.992 93.088C40.536 95.776 36.024 97.472 30.648 98.432C30.584 98.432 30.52 98.432 30.488 98.432C29.88 98.432 29.336 98.112 29.208 97.376C29.176 97.248 29.176 97.152 29.176 97.056C29.176 96.416 29.592 95.968 30.168 95.904C34.488 95.168 38.232 94.016 41.272 92.064C38.968 91.264 36.664 90.56 34.552 90.016C33.752 89.824 33.304 89.184 33.304 88.48C33.304 88.032 33.464 87.584 33.816 87.168C34.84 85.92 35.832 84.512 36.792 83.008H29.656C29.08 83.008 28.76 82.496 28.76 81.856C28.76 81.184 29.08 80.704 29.656 80.704H38.104C38.84 79.296 39.48 77.856 39.96 76.48C40.152 75.936 40.472 75.68 40.984 75.68C41.144 75.68 41.304 75.712 41.496 75.776C42.104 75.968 42.456 76.32 42.456 76.832C42.456 76.992 42.424 77.184 42.328 77.408C41.88 78.496 41.368 79.616 40.792 80.704H56.408C57.016 80.704 57.336 81.184 57.336 81.856C57.336 82.496 57.016 83.008 56.408 83.008ZM48.12 83.008H39.512C38.552 84.608 37.528 86.112 36.472 87.456C36.312 87.68 36.216 87.84 36.216 87.936C36.216 88.096 36.376 88.224 36.792 88.32C38.808 88.896 41.08 89.6 43.448 90.4C44.856 89.184 46.008 87.68 46.872 86.048C47.384 85.088 47.736 84.064 48.12 83.008ZM44.056 72.256H53.976C55.896 72.256 56.76 73.088 56.76 74.976V78.016C56.76 78.656 56.248 78.976 55.48 78.976C54.744 78.976 54.2 78.656 54.2 78.048V75.456C54.2 74.752 53.848 74.528 53.176 74.528H32.792C32.12 74.528 31.768 74.752 31.768 75.456V78.048C31.768 78.656 31.224 78.976 30.488 78.976C29.72 78.976 29.208 78.656 29.208 78.016V74.976C29.208 73.088 30.072 72.256 31.992 72.256H41.56V69.952C41.56 69.28 42.008 68.928 42.808 68.928C43.64 68.928 44.056 69.28 44.056 69.952V72.256ZM75.96 95.008H88.472C89.048 95.008 89.368 95.456 89.368 96.16C89.368 96.832 89.048 97.344 88.472 97.344H61.496C60.92 97.344 60.6 96.864 60.6 96.16C60.6 95.488 60.92 95.008 61.496 95.008H73.528V89.312H65.72C65.144 89.312 64.824 88.832 64.824 88.16C64.824 87.488 65.144 87.072 65.72 87.072H73.528V82.336H66.968C66.392 82.336 66.072 81.856 66.072 81.184C66.072 80.512 66.392 80.096 66.968 80.096H82.872C83.48 80.096 83.8 80.512 83.8 81.184C83.8 81.856 83.48 82.336 82.872 82.336H75.96V87.072H84.28C84.856 87.072 85.144 87.488 85.144 88.16C85.144 88.832 84.856 89.312 84.28 89.312H75.96V95.008ZM72.92 69.888C73.368 69.344 74.104 69.056 74.84 69.056C75.576 69.056 76.344 69.344 76.76 69.888C80.152 74.496 84.6 77.408 89.208 79.616C89.816 79.872 90.072 80.352 90.072 80.864C90.072 81.056 90.04 81.28 89.944 81.504C89.752 81.984 89.272 82.304 88.76 82.304C88.568 82.304 88.376 82.272 88.184 82.176C83.224 79.776 78.2 75.808 75.288 71.872C75.128 71.648 75 71.552 74.872 71.552C74.744 71.552 74.584 71.648 74.456 71.84C71.576 76.032 66.616 79.904 62.168 82.016C61.848 82.176 61.528 82.272 61.208 82.272C60.76 82.272 60.376 82.08 60.152 81.632C60.056 81.408 59.992 81.184 59.992 80.96C59.992 80.48 60.28 80 60.952 79.68C64.984 77.76 69.368 74.816 72.92 69.888ZM98.52 70.464C99.16 70.56 99.608 70.944 99.608 71.552C99.608 71.68 99.576 71.808 99.544 71.968C98.392 76.224 97.784 81.28 97.784 85.952C97.784 89.12 98.072 92.512 98.616 95.488C98.648 95.648 98.648 95.808 98.648 95.968C98.648 96.704 98.232 97.088 97.56 97.248C97.432 97.28 97.304 97.28 97.208 97.28C96.6 97.28 96.12 96.928 95.96 96.064C95.352 93.12 95.064 89.664 95.064 86.08C95.064 81.088 95.672 75.904 96.888 71.392C97.08 70.72 97.592 70.432 98.168 70.432C98.296 70.432 98.392 70.432 98.52 70.464ZM117.592 73.888C117.688 73.888 117.752 73.888 117.848 73.888C118.648 73.888 119.064 74.336 119.16 75.072C119.16 75.104 119.16 75.136 119.16 75.168C119.16 75.904 118.84 76.512 117.912 76.608C115.224 76.928 111.384 77.088 107.896 77.088C106.712 77.088 105.56 77.056 104.504 77.024C103.512 76.992 103.16 76.352 103.16 75.616C103.192 74.912 103.64 74.272 104.472 74.272C104.504 74.272 104.504 74.272 104.536 74.272C105.56 74.304 106.712 74.336 107.896 74.336C111.288 74.336 115 74.176 117.592 73.888ZM106.52 84.192C106.808 84.48 106.936 84.768 106.936 85.056C106.936 85.376 106.776 85.664 106.52 85.92C105.176 87.2 104.664 88.416 104.664 89.632C104.664 91.616 106.392 92.64 110.872 92.64C113.624 92.64 116.568 92.352 118.744 91.872C118.872 91.84 119 91.84 119.128 91.84C119.768 91.84 120.248 92.256 120.376 92.896C120.408 93.024 120.408 93.12 120.408 93.248C120.408 93.888 120.024 94.496 119.32 94.624C116.952 95.104 114.136 95.328 111.192 95.328C105.304 95.328 102.168 93.664 102.168 89.632C102.168 87.68 102.968 85.856 104.6 84.32C104.952 84 105.336 83.84 105.688 83.84C105.976 83.84 106.264 83.968 106.52 84.192ZM140.6 76H139.544C138.296 78.56 136.792 81.024 135.192 83.008C134.936 83.328 134.584 83.488 134.232 83.488C133.944 83.488 133.624 83.392 133.368 83.168C133.112 82.912 132.952 82.56 132.952 82.176C132.952 81.888 133.048 81.6 133.24 81.344C135.896 78.368 138.232 73.92 139.32 69.76C139.48 69.216 139.864 68.928 140.408 68.928C140.536 68.928 140.664 68.96 140.824 68.992C141.496 69.152 141.816 69.536 141.816 70.016C141.816 70.144 141.784 70.272 141.752 70.4C141.432 71.488 141.016 72.608 140.568 73.728H152.792C153.4 73.728 153.688 74.208 153.688 74.848C153.688 75.552 153.4 76 152.792 76H143.032V80.928H151.736C152.312 80.928 152.632 81.44 152.632 82.048C152.632 82.72 152.312 83.2 151.736 83.2H143.032V88.16H151.864C152.44 88.16 152.728 88.64 152.728 89.28C152.728 89.952 152.44 90.432 151.864 90.432H143.032V97.76C143.032 98.336 142.552 98.656 141.816 98.656C141.048 98.656 140.6 98.336 140.6 97.76V76ZM128.856 97.664V84.064C128.856 82.72 128.92 81.216 129.144 79.776C128.28 81.28 127.224 82.688 126.168 83.808C125.912 84.096 125.592 84.224 125.304 84.224C124.984 84.224 124.696 84.096 124.408 83.84C124.12 83.584 123.992 83.264 123.992 82.912C123.992 82.624 124.12 82.304 124.344 82.08C127.544 78.848 130.232 74.56 131.64 69.728C131.8 69.216 132.216 68.96 132.728 68.96C132.888 68.96 133.048 68.992 133.208 69.024C133.848 69.184 134.2 69.568 134.2 70.048C134.2 70.176 134.168 70.336 134.104 70.464C133.4 72.576 132.504 74.688 131.352 76.736V97.664C131.352 98.272 130.84 98.592 130.072 98.592C129.336 98.592 128.856 98.272 128.856 97.664ZM164.088 76.16H157.272C156.728 76.16 156.408 75.776 156.408 75.136C156.408 74.496 156.728 74.08 157.272 74.08H161.912C161.4 73.152 160.664 72.16 160.056 71.424C159.896 71.232 159.8 71.008 159.8 70.816C159.8 70.496 160.024 70.208 160.44 69.984C160.664 69.888 160.888 69.824 161.112 69.824C161.464 69.824 161.784 70.016 162.072 70.336C162.936 71.424 163.8 72.8 164.44 74.08H166.808V69.856C166.808 69.216 167.288 68.928 167.96 68.928C168.728 68.928 169.112 69.216 169.112 69.856V74.08H172.344V69.888C172.344 69.248 172.792 68.96 173.496 68.96C174.264 68.96 174.648 69.248 174.648 69.888V74.08H177.4C178.36 72.864 179.128 71.584 179.704 70.496C179.96 70.016 180.28 69.824 180.696 69.824C180.856 69.824 181.048 69.856 181.24 69.92C181.72 70.08 181.976 70.496 181.976 70.88C181.976 71.04 181.944 71.2 181.848 71.328C181.368 72.128 180.696 73.088 179.928 74.08H184.728C185.272 74.08 185.592 74.496 185.592 75.136C185.592 75.776 185.272 76.16 184.728 76.16H177.624C177.176 77.344 176.6 78.496 175.96 79.584H183.512C184.024 79.584 184.312 79.968 184.312 80.544C184.312 81.152 184.024 81.536 183.512 81.536H171.96V83.744H181.592C182.104 83.744 182.392 84.128 182.392 84.704C182.392 85.28 182.104 85.696 181.592 85.696H171.96V87.936H184.664C185.176 87.936 185.496 88.32 185.496 88.928C185.496 89.536 185.176 89.92 184.664 89.92H173.656C176.728 92.448 180.504 94.112 185.048 95.136C185.656 95.264 185.944 95.744 185.944 96.256C185.944 96.416 185.912 96.544 185.88 96.672C185.72 97.28 185.304 97.632 184.728 97.632C184.6 97.632 184.472 97.632 184.344 97.568C179.576 96.32 174.616 93.856 171.64 90.592C171.832 91.264 171.96 92.096 171.96 92.896V97.984C171.96 98.528 171.512 98.912 170.776 98.912C170.104 98.912 169.656 98.528 169.656 97.984V92.896C169.656 92.096 169.752 91.328 170.008 90.592C167.128 93.664 162.904 96.096 157.88 97.536C157.72 97.568 157.56 97.6 157.4 97.6C156.856 97.6 156.44 97.28 156.28 96.736C156.216 96.544 156.184 96.384 156.184 96.256C156.184 95.744 156.472 95.392 156.952 95.264C161.592 94.048 165.272 92.288 168.024 89.92H157.272C156.792 89.92 156.44 89.536 156.44 88.928C156.44 88.32 156.792 87.936 157.272 87.936H169.656V85.696H160.344C159.832 85.696 159.544 85.28 159.544 84.704C159.544 84.128 159.832 83.744 160.344 83.744H169.656V81.536H158.52C158.008 81.536 157.72 81.152 157.72 80.544C157.72 79.968 158.008 79.584 158.52 79.584H165.656C165.24 78.4 164.728 77.248 164.088 76.16ZM175.128 76.16H166.584C167.192 77.248 167.64 78.4 168.056 79.584H173.496C174.136 78.496 174.68 77.344 175.128 76.16ZM205.72 86.688H205.56C204.728 89.472 202.776 90.4 200.248 90.4C196.92 90.4 194.552 88.128 194.552 84.928C194.552 81.568 197.208 79.2 200.856 79.2C202.424 79.2 203.736 79.712 204.664 80.672C204.632 79.52 204.632 77.888 204.632 76.384C199.928 76.48 195.032 76.672 190.392 76.96C190.36 76.96 190.296 76.96 190.264 76.96C189.528 76.96 189.112 76.448 189.08 75.712C189.08 75.68 189.08 75.648 189.08 75.648C189.08 74.976 189.496 74.464 190.232 74.432C194.744 74.176 199.736 74.016 204.6 73.92C204.6 72.8 204.568 71.68 204.568 70.72C204.568 70.016 204.984 69.568 205.784 69.568C206.712 69.568 207.128 69.952 207.128 70.784C207.128 71.68 207.128 72.736 207.128 73.888C208.856 73.856 210.552 73.824 212.184 73.824C213.336 73.824 214.488 73.824 215.576 73.856C216.44 73.856 216.888 74.272 216.888 75.136C216.888 75.168 216.888 75.2 216.888 75.232C216.888 76 216.44 76.352 215.704 76.352C213.816 76.32 211.832 76.288 209.752 76.288C208.888 76.288 208.024 76.288 207.128 76.32C207.128 78.464 207.128 80.736 207.128 82.944C207.768 84.256 208.056 85.632 208.056 87.136C208.056 91.296 206.264 93.984 202.872 95.776C201.432 96.544 199.704 97.12 197.784 97.472C197.688 97.504 197.592 97.504 197.464 97.504C196.824 97.504 196.312 97.152 196.184 96.448C196.152 96.32 196.152 96.192 196.152 96.096C196.152 95.424 196.536 94.944 197.176 94.816C202.904 93.76 205.72 91.072 205.72 87.296V86.688ZM204.44 84.224C204.44 82.496 203.064 81.344 201.016 81.344C198.84 81.344 197.176 82.784 197.176 84.8C197.176 86.944 198.648 88.064 200.664 88.064C202.904 88.064 204.44 86.496 204.44 84.224ZM231 82.56L231.064 82.688C233.56 81.568 235.896 81.024 238.168 81.024C243.928 81.024 247.448 84.064 247.448 88.416C247.448 93.792 242.552 97.184 234.744 97.184C230.008 97.184 226.936 95.2 226.936 92.224C226.936 89.728 229.016 87.904 232.152 87.904C235.608 87.904 238.456 89.984 239 94.208C242.264 93.44 244.696 91.424 244.696 88.448C244.696 85.408 242.2 83.2 237.656 83.2C233.4 83.2 229.528 84.608 224.28 87.872C223.992 88.032 223.704 88.096 223.416 88.096C222.968 88.096 222.52 87.904 222.264 87.488C222.104 87.264 222.04 87.04 222.04 86.784C222.04 86.304 222.296 85.824 222.776 85.568C228.056 82.336 235.16 77.12 239.192 73.568C235.704 73.856 230.808 74.048 226.712 74.08C226.04 74.08 225.528 73.6 225.528 72.832C225.528 72.096 225.912 71.52 226.648 71.52C230.968 71.52 236.44 71.36 240.696 71.072C240.792 71.072 240.888 71.072 240.984 71.072C241.72 71.072 242.264 71.328 242.584 71.872C242.744 72.16 242.84 72.448 242.84 72.8C242.84 73.248 242.648 73.696 242.232 74.112C239.48 76.672 236.472 78.976 233.88 80.704C232.984 81.312 231.896 82.048 231 82.56ZM236.504 94.784C236.248 91.648 234.232 90.08 232.024 90.08C230.36 90.08 229.4 90.944 229.4 92.128C229.4 93.6 231.32 94.816 234.168 94.848C234.936 94.848 235.736 94.848 236.504 94.784ZM259.928 77.696C258.296 77.76 256.6 77.856 255.128 77.856C254.904 77.856 254.712 77.856 254.488 77.856C253.72 77.824 253.336 77.376 253.336 76.608C253.336 76.576 253.336 76.544 253.336 76.512C253.368 75.808 253.752 75.328 254.552 75.328C256.28 75.328 258.424 75.296 260.504 75.168C260.856 73.664 261.176 72.16 261.432 70.656C261.56 69.952 261.976 69.632 262.648 69.632C262.744 69.632 262.84 69.632 262.936 69.664C263.672 69.728 264.088 70.208 264.088 70.784C264.088 70.848 264.088 70.944 264.056 71.04C263.832 72.288 263.576 73.6 263.256 74.976C265.4 74.784 267.512 74.528 269.208 74.208C269.304 74.176 269.432 74.176 269.528 74.176C270.136 74.176 270.584 74.496 270.68 75.2C270.712 75.296 270.712 75.424 270.712 75.52C270.712 76.096 270.328 76.576 269.784 76.672C267.736 77.024 265.208 77.312 262.616 77.504C261.016 83.84 258.84 90.528 256.376 95.744C256.088 96.32 255.64 96.608 255.16 96.608C254.904 96.608 254.68 96.544 254.424 96.416C253.976 96.192 253.72 95.776 253.72 95.264C253.72 95.04 253.784 94.752 253.912 94.464C256.248 89.632 258.424 83.552 259.928 77.696ZM275.192 78.752C276.024 78.752 276.984 78.784 277.976 78.848C278.776 78.88 279.224 79.456 279.224 80.192C279.224 80.928 278.744 81.44 278.008 81.44C277.976 81.44 277.912 81.44 277.88 81.44C277.048 81.408 275.928 81.408 275.032 81.408C272.76 81.408 269.752 81.664 267.576 82.08C267.48 82.112 267.384 82.112 267.288 82.112C266.616 82.112 266.104 81.696 266.04 80.992C266.008 80.896 266.008 80.832 266.008 80.736C266.008 80.16 266.36 79.648 267.032 79.52C269.4 79.072 272.568 78.752 275.192 78.752ZM267.288 88.768C266.456 89.6 266.072 90.432 266.072 91.392C266.072 92.48 266.552 93.152 267.512 93.632C268.44 94.08 269.912 94.24 271.896 94.24C274.36 94.24 277.016 93.984 278.84 93.6C279 93.568 279.128 93.568 279.288 93.568C279.96 93.568 280.376 93.952 280.472 94.56C280.504 94.688 280.504 94.784 280.504 94.88C280.504 95.52 280.152 96.032 279.32 96.224C277.432 96.672 274.808 96.896 272.088 96.896C269.528 96.896 267.512 96.576 266.136 95.872C264.312 94.944 263.576 93.568 263.576 91.552C263.576 90.112 264.312 88.384 265.528 87.264C265.816 87.008 266.104 86.88 266.392 86.88C266.648 86.88 266.872 86.976 267.096 87.104C267.416 87.296 267.608 87.68 267.608 88.032C267.608 88.288 267.512 88.544 267.288 88.768ZM296.312 91.584C294.392 93.952 292.344 94.656 290.52 94.656C287.64 94.656 285.464 92.352 285.464 88.224C285.464 84.288 287.48 80.704 290.872 78.176C290.456 76.384 290.104 74.528 289.848 72.64C289.848 72.544 289.848 72.48 289.848 72.416C289.848 71.776 290.2 71.296 290.84 71.2C290.968 71.168 291.064 71.168 291.16 71.168C291.768 71.168 292.184 71.52 292.248 72.224C292.44 73.76 292.696 75.328 292.984 76.864C295.128 75.712 297.72 75.04 300.792 75.04C301.048 73.728 301.272 72.416 301.432 71.2C301.528 70.432 301.944 70.08 302.584 70.08C302.68 70.08 302.776 70.08 302.872 70.112C303.576 70.176 303.992 70.656 303.992 71.296C303.992 71.392 303.992 71.488 303.96 71.584C303.8 72.736 303.576 73.984 303.32 75.264C305.144 75.552 306.616 76.096 307.896 76.96C310.648 78.72 312.376 81.568 312.376 85.504C312.376 91.808 307.64 96.032 300.184 96.96C300.056 96.992 299.96 96.992 299.864 96.992C299.128 96.992 298.648 96.576 298.552 95.936C298.52 95.84 298.52 95.744 298.52 95.648C298.52 95.04 298.904 94.528 299.672 94.432C305.72 93.664 309.688 90.368 309.688 85.536C309.688 82.656 308.408 80.32 306.456 78.944C305.4 78.208 304.184 77.76 302.808 77.536C302.424 79.104 302.008 80.608 301.528 81.952C300.568 84.64 299.288 87.36 297.944 89.408C298.2 89.856 298.52 90.272 298.808 90.72C299 90.976 299.096 91.296 299.096 91.616C299.096 91.936 298.968 92.288 298.648 92.544C298.424 92.736 298.104 92.864 297.784 92.864C297.464 92.864 297.176 92.736 296.984 92.512C296.728 92.192 296.536 91.904 296.312 91.584ZM294.936 89.472C293.592 86.976 292.344 83.936 291.512 80.704C289.208 82.624 287.96 85.376 287.96 88.032C287.96 90.528 289.112 92.128 290.616 92.128C291.832 92.128 293.368 91.52 294.936 89.472ZM296.472 87.328C297.496 85.6 298.456 83.392 299.224 81.184C299.64 79.968 299.992 78.688 300.312 77.312C297.976 77.312 295.544 77.984 293.56 79.104C294.264 82.08 295.288 84.928 296.472 87.328ZM322.52 70.464C323.16 70.56 323.608 70.944 323.608 71.552C323.608 71.68 323.576 71.808 323.544 71.968C322.392 76.224 321.784 81.28 321.784 85.952C321.784 89.12 322.072 92.512 322.616 95.488C322.648 95.648 322.648 95.808 322.648 95.968C322.648 96.704 322.232 97.088 321.56 97.248C321.432 97.28 321.304 97.28 321.208 97.28C320.6 97.28 320.12 96.928 319.96 96.064C319.352 93.12 319.064 89.664 319.064 86.08C319.064 81.088 319.672 75.904 320.888 71.392C321.08 70.72 321.592 70.432 322.168 70.432C322.296 70.432 322.392 70.432 322.52 70.464ZM341.592 73.888C341.688 73.888 341.752 73.888 341.848 73.888C342.648 73.888 343.064 74.336 343.16 75.072C343.16 75.104 343.16 75.136 343.16 75.168C343.16 75.904 342.84 76.512 341.912 76.608C339.224 76.928 335.384 77.088 331.896 77.088C330.712 77.088 329.56 77.056 328.504 77.024C327.512 76.992 327.16 76.352 327.16 75.616C327.192 74.912 327.64 74.272 328.472 74.272C328.504 74.272 328.504 74.272 328.536 74.272C329.56 74.304 330.712 74.336 331.896 74.336C335.288 74.336 339 74.176 341.592 73.888ZM330.52 84.192C330.808 84.48 330.936 84.768 330.936 85.056C330.936 85.376 330.776 85.664 330.52 85.92C329.176 87.2 328.664 88.416 328.664 89.632C328.664 91.616 330.392 92.64 334.872 92.64C337.624 92.64 340.568 92.352 342.744 91.872C342.872 91.84 343 91.84 343.128 91.84C343.768 91.84 344.248 92.256 344.376 92.896C344.408 93.024 344.408 93.12 344.408 93.248C344.408 93.888 344.024 94.496 343.32 94.624C340.952 95.104 338.136 95.328 335.192 95.328C329.304 95.328 326.168 93.664 326.168 89.632C326.168 87.68 326.968 85.856 328.6 84.32C328.952 84 329.336 83.84 329.688 83.84C329.976 83.84 330.264 83.968 330.52 84.192ZM37.24 130.736C38.168 127.792 38.936 124.144 39.384 120.24C39.448 119.696 39.96 119.344 40.568 119.344C40.664 119.344 40.728 119.344 40.824 119.344C41.528 119.44 41.976 119.792 41.976 120.432C41.976 120.496 41.976 120.528 41.976 120.592C41.304 125.584 40.408 129.648 39.192 132.976C41.112 135.28 42.872 137.584 44.216 139.632C44.376 139.856 44.44 140.112 44.44 140.368C44.44 140.752 44.28 141.104 43.96 141.392C43.672 141.616 43.32 141.744 43 141.744C42.648 141.744 42.296 141.584 42.104 141.296C40.984 139.536 39.608 137.616 38.04 135.696C35.96 140.272 33.464 144.048 30.424 147.024C30.136 147.312 29.784 147.44 29.432 147.44C29.08 147.44 28.76 147.312 28.472 147.024C28.216 146.768 28.056 146.384 28.056 146.032C28.056 145.712 28.184 145.392 28.408 145.168C31.384 142.32 34.264 138.192 36.216 133.488C34.072 130.992 31.704 128.528 29.304 126.384C29.048 126.16 28.92 125.904 28.92 125.616C28.92 125.296 29.08 124.976 29.368 124.656C29.656 124.368 30.04 124.24 30.36 124.24C30.68 124.24 30.968 124.336 31.192 124.528C33.144 126.32 35.224 128.464 37.24 130.736ZM48.952 121.808V140.304C48.952 140.912 48.408 141.264 47.672 141.264C46.936 141.264 46.392 140.912 46.392 140.304V121.776C46.392 121.2 46.936 120.88 47.672 120.88C48.408 120.88 48.952 121.2 48.952 121.808ZM56.44 120.4V145.136C56.44 147.184 55.288 148.176 52.76 148.176C51.512 148.176 50.264 148.08 49.464 147.92C48.888 147.824 48.536 147.408 48.536 146.768C48.536 146.672 48.536 146.576 48.568 146.48C48.696 145.84 49.112 145.488 49.592 145.488C49.688 145.488 49.752 145.488 49.848 145.52C50.648 145.68 51.64 145.776 52.344 145.776C53.656 145.776 53.88 145.552 53.88 144.528V120.4C53.88 119.76 54.424 119.44 55.16 119.44C55.928 119.44 56.44 119.76 56.44 120.4ZM67.8 125.296H71.288C71.864 125.296 72.152 125.744 72.152 126.384C72.152 127.024 71.864 127.504 71.288 127.504H67.8V133.616C68.824 133.2 69.816 132.784 70.712 132.336C70.84 132.272 70.968 132.24 71.096 132.24C71.48 132.24 71.832 132.496 71.992 132.912C72.056 133.104 72.088 133.296 72.088 133.456C72.088 133.84 71.896 134.16 71.544 134.352C70.424 134.928 69.144 135.504 67.8 136.048V145.36C67.8 147.6 66.872 148.368 64.44 148.368C63.512 148.368 62.552 148.272 61.592 148.048C61.112 147.952 60.792 147.6 60.792 146.992C60.792 146.896 60.792 146.768 60.824 146.64C60.984 146.032 61.336 145.744 61.72 145.744C61.816 145.744 61.912 145.744 61.976 145.776C62.52 145.904 63.512 146.032 64.088 146.032C65.144 146.032 65.368 145.808 65.368 144.912V137.008C64.152 137.456 62.968 137.872 61.816 138.224C61.688 138.256 61.56 138.288 61.432 138.288C60.984 138.288 60.632 137.936 60.44 137.36C60.408 137.168 60.376 137.008 60.376 136.88C60.376 136.4 60.664 136.08 61.112 135.952C62.52 135.536 63.96 135.088 65.368 134.576V127.504H61.592C61.016 127.504 60.696 127.024 60.696 126.384C60.696 125.744 61.016 125.296 61.592 125.296H65.368V119.92C65.368 119.28 65.88 118.96 66.616 118.96C67.352 118.96 67.8 119.28 67.8 119.92V125.296ZM85.624 142.704C84.536 139.824 83.256 136.944 81.816 134.064C81.688 133.872 81.656 133.68 81.656 133.52C81.656 133.104 81.912 132.784 82.328 132.56C82.584 132.464 82.84 132.4 83.032 132.4C83.448 132.4 83.8 132.592 84.024 133.008C86.232 137.168 88.152 141.584 89.624 146.064C89.688 146.256 89.72 146.448 89.72 146.608C89.72 147.152 89.4 147.568 88.792 147.728C88.568 147.792 88.376 147.824 88.184 147.824C87.64 147.824 87.256 147.536 87.096 147.024C86.872 146.256 86.648 145.52 86.392 144.784C81.272 145.936 76.056 146.768 70.744 147.376C70.712 147.376 70.648 147.376 70.616 147.376C69.976 147.376 69.496 146.96 69.432 146.192C69.432 146.128 69.432 146.096 69.432 146.032C69.432 145.328 69.816 144.912 70.392 144.848C70.968 144.816 71.544 144.752 72.12 144.688C74.648 137.392 76.664 128.496 77.848 120.368C77.912 119.664 78.36 119.376 79.032 119.376C79.128 119.376 79.224 119.376 79.352 119.408C80.12 119.472 80.536 119.92 80.536 120.496C80.536 120.56 80.536 120.624 80.536 120.72C79.256 128.688 77.176 137.328 74.776 144.432C78.424 143.984 82.04 143.44 85.624 142.704ZM112.856 130.576H113.048C113.944 129.616 114.744 128.624 115.576 127.632C114.616 126.384 113.592 125.232 112.664 124.368C112.408 124.112 112.28 123.856 112.28 123.6C112.28 123.376 112.376 123.152 112.568 122.96C112.76 122.736 112.952 122.64 113.176 122.64C113.4 122.64 113.624 122.736 113.848 122.96C113.912 123.024 114.008 123.088 114.072 123.184C114.872 122.032 115.512 120.912 116.088 119.696C116.248 119.408 116.568 119.248 116.888 119.248C117.08 119.248 117.272 119.28 117.432 119.376C117.848 119.568 118.04 119.888 118.04 120.208C118.04 120.368 118.008 120.496 117.912 120.656C117.208 121.936 116.376 123.184 115.32 124.496C115.8 125.04 116.28 125.584 116.728 126.16C117.688 124.944 118.52 123.76 119.16 122.832C119.32 122.576 119.576 122.448 119.896 122.448C120.12 122.448 120.344 122.512 120.536 122.64C120.856 122.832 120.984 123.12 120.984 123.376C120.984 123.568 120.92 123.76 120.792 123.952C119.384 125.872 117.08 128.624 115.352 130.448C116.632 130.384 117.912 130.224 119.192 130.064C119 129.648 118.808 129.264 118.616 128.88C118.52 128.72 118.488 128.56 118.488 128.432C118.488 128.08 118.712 127.824 119.064 127.696C119.192 127.664 119.32 127.632 119.416 127.632C119.8 127.632 120.12 127.824 120.312 128.208C120.792 129.104 121.688 131.088 121.976 132.016C122.072 132.304 122.104 132.528 122.104 132.72C122.104 133.104 121.912 133.36 121.56 133.488C121.4 133.52 121.272 133.552 121.144 133.552C120.76 133.552 120.44 133.328 120.248 132.784C120.12 132.432 119.992 132.016 119.832 131.6C118.424 131.792 117.016 132.016 115.576 132.144C115.704 132.144 115.864 132.176 115.992 132.24C116.888 132.56 117.816 133.008 118.68 133.52C119 133.712 119.192 134 119.192 134.352C119.192 134.512 119.16 134.704 119.064 134.896C118.936 135.088 118.776 135.184 118.584 135.248H121.08C121.656 135.248 121.944 135.664 121.944 136.272C121.944 136.88 121.656 137.328 121.08 137.328H113.08C113.336 138.256 113.624 139.12 113.976 139.92C114.2 140.432 114.424 140.912 114.68 141.392C115.736 140.464 116.664 139.44 117.368 138.416C117.592 138.096 117.912 137.936 118.232 137.936C118.456 137.936 118.712 138 118.904 138.16C119.192 138.384 119.352 138.672 119.352 138.96C119.352 139.184 119.256 139.44 119.096 139.664C118.168 140.88 117.016 142.064 115.768 143.152C116.568 144.272 117.4 145.104 118.264 145.648C118.552 145.84 118.776 145.936 119 145.936C119.224 145.936 119.416 145.776 119.544 145.488C119.896 144.688 120.056 143.632 120.216 142.48C120.28 142.032 120.664 141.68 121.208 141.68C121.272 141.68 121.336 141.68 121.4 141.68C122.008 141.776 122.264 142.192 122.264 142.704C122.264 142.736 122.264 142.736 122.264 142.768C122.136 144.464 121.72 146.16 121.048 147.184C120.568 147.92 119.896 148.336 119.128 148.336C118.584 148.336 117.976 148.144 117.336 147.76C116.248 147.12 115.096 145.968 114.072 144.464C111.704 146.16 109.048 147.472 106.616 148.176C106.424 148.24 106.232 148.272 106.04 148.272C105.592 148.272 105.208 148.048 105.048 147.568C105.016 147.44 104.984 147.312 104.984 147.184C104.984 146.704 105.272 146.32 105.816 146.16C108.248 145.488 110.776 144.24 112.984 142.704C112.6 142.064 112.28 141.36 111.96 140.624C111.544 139.632 111.192 138.544 110.904 137.328H105.72C105.688 137.808 105.624 138.288 105.56 138.736C106.552 140.016 107.992 141.072 109.08 141.744C109.464 142 109.72 142.32 109.72 142.736C109.72 142.896 109.688 143.088 109.592 143.28C109.4 143.664 109.08 143.824 108.76 143.824C108.568 143.824 108.344 143.76 108.152 143.664C107.32 143.184 106.04 142.064 105.144 140.976C104.472 143.76 103.192 146.064 101.272 147.792C101.048 148.016 100.76 148.144 100.472 148.144C100.184 148.144 99.896 148.016 99.64 147.76C99.448 147.568 99.352 147.28 99.352 146.992C99.352 146.672 99.48 146.32 99.768 146.064C102.008 144.176 103.32 141.296 103.544 137.328H101.24C100.664 137.328 100.344 136.88 100.344 136.304C100.344 135.664 100.664 135.248 101.24 135.248H110.488C109.784 131.024 109.56 125.744 109.56 119.696C109.56 119.12 109.944 118.768 110.68 118.768C111.416 118.768 111.768 119.088 111.768 119.76C111.768 126.032 111.864 131.152 112.632 135.248H118.008C117.912 135.216 117.816 135.184 117.72 135.12C116.856 134.576 115.96 134.128 115.16 133.808C114.84 133.68 114.616 133.392 114.616 133.072C114.616 132.944 114.648 132.784 114.712 132.656C114.872 132.4 115.064 132.24 115.288 132.176C114.52 132.24 113.784 132.304 113.08 132.368C113.016 132.368 112.952 132.368 112.888 132.368C112.344 132.368 112.216 132.08 112.152 131.504C112.152 131.44 112.152 131.408 112.152 131.344C112.152 130.864 112.44 130.576 112.856 130.576ZM100.184 127.28H98.168C98.776 128.72 99.512 129.968 100.248 130.896C100.44 131.12 100.536 131.408 100.536 131.664C100.536 131.728 100.536 131.76 100.504 131.824C100.632 131.568 100.856 131.44 101.144 131.408C101.24 131.408 101.336 131.408 101.432 131.376C102.328 130.32 103.192 129.2 104.024 128.048C102.936 126.512 101.72 125.2 100.632 124.24C100.408 124.016 100.28 123.76 100.28 123.504C100.28 123.28 100.376 123.056 100.568 122.864C100.792 122.64 101.048 122.512 101.272 122.512C101.496 122.512 101.688 122.608 101.88 122.768C102.072 122.928 102.264 123.12 102.456 123.312C103.288 122.064 103.992 120.72 104.472 119.696C104.632 119.344 104.984 119.152 105.336 119.152C105.496 119.152 105.688 119.184 105.848 119.28C106.232 119.472 106.456 119.792 106.456 120.176C106.456 120.304 106.424 120.432 106.392 120.56C105.816 121.776 104.856 123.312 103.8 124.72C104.28 125.296 104.728 125.872 105.144 126.448C105.848 125.424 106.456 124.432 106.936 123.568C107.096 123.248 107.416 123.088 107.736 123.088C107.96 123.088 108.152 123.152 108.312 123.28C108.6 123.504 108.76 123.824 108.76 124.112C108.76 124.272 108.728 124.432 108.632 124.592C107.448 126.576 105.592 129.136 103.896 131.184C104.088 131.184 104.28 131.152 104.472 131.12C105.336 131.024 106.2 130.928 107.096 130.768C106.872 130.288 106.648 129.84 106.488 129.52C106.392 129.36 106.36 129.232 106.36 129.104C106.36 128.784 106.584 128.528 106.936 128.4C107.064 128.336 107.192 128.304 107.32 128.304C107.608 128.304 107.864 128.464 108.024 128.752C108.6 129.744 109.336 131.408 109.688 132.656C109.72 132.752 109.72 132.848 109.72 132.944C109.72 133.296 109.528 133.616 109.176 133.744C109.048 133.776 108.92 133.808 108.792 133.808C108.44 133.808 108.152 133.616 108.024 133.232C107.928 132.944 107.832 132.624 107.704 132.304C105.592 132.72 103.32 133.072 101.432 133.264C101.4 133.264 101.336 133.264 101.304 133.264C100.856 133.264 100.536 132.976 100.44 132.4C100.44 132.336 100.44 132.304 100.44 132.24C100.44 132.208 100.44 132.144 100.44 132.112C100.408 132.176 100.344 132.272 100.28 132.368C100.12 132.56 99.864 132.656 99.608 132.656C99.32 132.656 99 132.528 98.84 132.208C98.488 131.6 98.072 130.672 97.72 129.584C97.88 131.088 98.104 133.392 98.104 134.832V147.888C98.104 148.464 97.656 148.816 96.952 148.816C96.248 148.816 95.864 148.464 95.864 147.888V137.168C95.864 135.728 96.056 132.944 96.344 130.544C95.704 133.52 94.648 136.848 93.72 138.832C93.496 139.344 93.08 139.6 92.664 139.6C92.472 139.6 92.28 139.536 92.088 139.408C91.768 139.216 91.64 138.928 91.64 138.608C91.64 138.32 91.736 138.032 91.896 137.744C93.464 135.216 95 130.768 95.608 127.28H93.08C92.504 127.28 92.184 126.864 92.184 126.256C92.184 125.648 92.504 125.264 93.08 125.264H95.864V119.76C95.864 119.184 96.248 118.832 96.952 118.832C97.656 118.832 98.104 119.184 98.104 119.76V125.264H100.184C100.728 125.264 101.016 125.616 101.016 126.256C101.016 126.864 100.728 127.28 100.184 127.28ZM126.616 122.352H124.792C124.216 122.352 123.928 121.872 123.928 121.232C123.928 120.592 124.216 120.112 124.792 120.112H138.488C139.064 120.112 139.352 120.592 139.352 121.232C139.352 121.872 139.064 122.352 138.488 122.352H137.08V147.856C137.08 148.432 136.696 148.752 135.96 148.752C135.192 148.752 134.84 148.432 134.84 147.856V141.68C131.544 142.768 128.472 143.536 125.336 144.08C125.24 144.112 125.176 144.112 125.08 144.112C124.6 144.112 124.152 143.76 123.992 143.056C123.96 142.928 123.96 142.8 123.96 142.704C123.96 142.096 124.312 141.744 124.792 141.648C125.4 141.552 126.008 141.488 126.616 141.36V122.352ZM128.856 122.352V126.864H134.84V122.352H128.856ZM128.856 128.88V133.36H134.84V128.88H128.856ZM128.856 135.44V140.976C130.872 140.56 132.888 140.048 134.84 139.472V135.44H128.856ZM140.216 124.496H139.544C138.936 124.496 138.552 124.016 138.552 123.344C138.552 122.672 138.936 122.192 139.544 122.192H149.944C151.8 122.192 152.76 122.96 152.76 124.592C152.76 124.848 152.728 125.104 152.696 125.424C152.056 129.52 150.712 133.808 148.568 137.584C148.216 138.16 147.896 138.736 147.512 139.312C149.08 141.456 151.032 143.408 153.432 145.072C153.784 145.296 153.976 145.648 153.976 146.064C153.976 146.352 153.88 146.64 153.688 146.928C153.4 147.312 153.048 147.504 152.696 147.504C152.408 147.504 152.152 147.408 151.896 147.248C149.592 145.648 147.64 143.664 146.04 141.424C144.28 143.76 142.296 145.744 140.088 147.376C139.8 147.568 139.512 147.664 139.256 147.664C138.872 147.664 138.52 147.472 138.232 147.12C138.04 146.832 137.944 146.576 137.944 146.32C137.944 145.904 138.168 145.52 138.584 145.232C140.856 143.632 142.904 141.52 144.6 139.216C144.152 138.416 143.736 137.616 143.352 136.816C141.816 133.584 140.504 128.592 140.216 124.496ZM149.208 124.496H142.36C142.808 128.4 143.896 132.592 145.496 135.92C145.688 136.272 145.88 136.656 146.072 137.008C146.232 136.752 146.36 136.496 146.52 136.24C148.376 132.976 149.56 129.264 150.136 125.584C150.168 125.424 150.168 125.296 150.168 125.168C150.168 124.656 149.912 124.496 149.208 124.496ZM169.368 122.32H166.872C166.296 122.32 165.976 121.776 165.976 121.168C165.976 120.496 166.296 120.048 166.872 120.048H178.648C180.12 120.048 180.824 120.816 180.824 121.968C180.824 122.224 180.792 122.512 180.728 122.8C180.312 124.496 179.544 126.672 178.936 128.144C178.872 128.304 178.84 128.432 178.84 128.528C178.84 128.752 179 128.848 179.384 128.848H182.488C183.896 128.848 184.632 129.584 184.632 130.768C184.632 131.184 184.536 131.664 184.344 132.176C183.256 135.376 181.464 138.416 179.192 141.04C181.08 142.928 183.288 144.592 185.656 145.84C186.072 146.064 186.296 146.48 186.296 146.896C186.296 147.184 186.2 147.504 186.04 147.76C185.752 148.176 185.368 148.368 184.952 148.368C184.696 148.368 184.408 148.272 184.152 148.112C181.912 146.736 179.544 144.88 177.56 142.8C175.192 145.136 172.44 147.024 169.496 148.304C169.336 148.368 169.144 148.4 168.984 148.4C168.504 148.4 168.056 148.176 167.8 147.696C167.704 147.504 167.672 147.28 167.672 147.088C167.672 146.64 167.928 146.256 168.376 146.032C171.288 144.848 173.848 143.12 175.992 141.04C175.896 140.912 175.832 140.816 175.768 140.72C173.624 137.968 172.184 134.448 171.192 130C170.968 133.328 170.584 136.144 169.944 138.704C169.08 142.096 167.576 145.36 165.752 147.824C165.464 148.208 165.048 148.464 164.6 148.464C164.376 148.464 164.152 148.4 163.928 148.24C163.576 147.984 163.384 147.632 163.384 147.248C163.384 146.992 163.48 146.672 163.704 146.416C165.464 144.176 166.808 141.424 167.672 138.256C168.824 134.032 169.336 128.688 169.368 122.32ZM177.592 122.32H171.768C172.248 128.944 174.008 134.224 176.952 138.352C177.144 138.672 177.4 138.96 177.624 139.248C179.48 137.04 180.92 134.544 181.848 131.856C181.944 131.664 181.976 131.504 181.976 131.376C181.976 131.088 181.752 131.024 181.272 131.024H177.976C176.76 131.024 176.12 130.48 176.12 129.616C176.12 129.36 176.184 129.04 176.312 128.688C177.016 126.992 177.752 124.72 178.136 123.056C178.168 122.96 178.168 122.864 178.168 122.8C178.168 122.48 177.944 122.32 177.592 122.32ZM162.808 125.328H165.56C166.104 125.328 166.456 125.776 166.456 126.416C166.456 127.088 166.104 127.536 165.56 127.536H162.808V134.064C163.672 133.712 164.472 133.36 165.176 133.04C165.368 132.944 165.528 132.912 165.688 132.912C166.04 132.912 166.328 133.104 166.488 133.52C166.584 133.712 166.616 133.904 166.616 134.096C166.616 134.448 166.424 134.8 166.072 134.992C165.08 135.504 163.96 136.016 162.808 136.496V145.584C162.808 147.6 162.008 148.464 159.672 148.464C158.776 148.464 157.944 148.368 157.464 148.272C156.888 148.144 156.536 147.76 156.536 147.184C156.536 147.056 156.536 146.96 156.568 146.832C156.696 146.192 157.048 145.936 157.464 145.936C157.592 145.936 157.688 145.968 157.816 146C158.232 146.096 158.744 146.16 159.224 146.16C160.248 146.16 160.44 145.968 160.44 145.072V137.392C159.448 137.744 158.456 138.096 157.56 138.352C157.4 138.384 157.272 138.416 157.176 138.416C156.696 138.416 156.344 138.128 156.184 137.552C156.12 137.36 156.088 137.2 156.088 137.04C156.088 136.56 156.344 136.24 156.792 136.144C157.944 135.824 159.192 135.408 160.44 134.96V127.536H157.048C156.472 127.536 156.152 127.088 156.152 126.416C156.152 125.776 156.472 125.328 157.048 125.328H160.44V119.888C160.44 119.28 160.92 118.96 161.656 118.96C162.392 118.96 162.808 119.28 162.808 119.888V125.328ZM204.6 126H203.544C202.296 128.56 200.792 131.024 199.192 133.008C198.936 133.328 198.584 133.488 198.232 133.488C197.944 133.488 197.624 133.392 197.368 133.168C197.112 132.912 196.952 132.56 196.952 132.176C196.952 131.888 197.048 131.6 197.24 131.344C199.896 128.368 202.232 123.92 203.32 119.76C203.48 119.216 203.864 118.928 204.408 118.928C204.536 118.928 204.664 118.96 204.824 118.992C205.496 119.152 205.816 119.536 205.816 120.016C205.816 120.144 205.784 120.272 205.752 120.4C205.432 121.488 205.016 122.608 204.568 123.728H216.792C217.4 123.728 217.688 124.208 217.688 124.848C217.688 125.552 217.4 126 216.792 126H207.032V130.928H215.736C216.312 130.928 216.632 131.44 216.632 132.048C216.632 132.72 216.312 133.2 215.736 133.2H207.032V138.16H215.864C216.44 138.16 216.728 138.64 216.728 139.28C216.728 139.952 216.44 140.432 215.864 140.432H207.032V147.76C207.032 148.336 206.552 148.656 205.816 148.656C205.048 148.656 204.6 148.336 204.6 147.76V126ZM192.856 147.664V134.064C192.856 132.72 192.92 131.216 193.144 129.776C192.28 131.28 191.224 132.688 190.168 133.808C189.912 134.096 189.592 134.224 189.304 134.224C188.984 134.224 188.696 134.096 188.408 133.84C188.12 133.584 187.992 133.264 187.992 132.912C187.992 132.624 188.12 132.304 188.344 132.08C191.544 128.848 194.232 124.56 195.64 119.728C195.8 119.216 196.216 118.96 196.728 118.96C196.888 118.96 197.048 118.992 197.208 119.024C197.848 119.184 198.2 119.568 198.2 120.048C198.2 120.176 198.168 120.336 198.104 120.464C197.4 122.576 196.504 124.688 195.352 126.736V147.664C195.352 148.272 194.84 148.592 194.072 148.592C193.336 148.592 192.856 148.272 192.856 147.664ZM228.088 126.16H221.272C220.728 126.16 220.408 125.776 220.408 125.136C220.408 124.496 220.728 124.08 221.272 124.08H225.912C225.4 123.152 224.664 122.16 224.056 121.424C223.896 121.232 223.8 121.008 223.8 120.816C223.8 120.496 224.024 120.208 224.44 119.984C224.664 119.888 224.888 119.824 225.112 119.824C225.464 119.824 225.784 120.016 226.072 120.336C226.936 121.424 227.8 122.8 228.44 124.08H230.808V119.856C230.808 119.216 231.288 118.928 231.96 118.928C232.728 118.928 233.112 119.216 233.112 119.856V124.08H236.344V119.888C236.344 119.248 236.792 118.96 237.496 118.96C238.264 118.96 238.648 119.248 238.648 119.888V124.08H241.4C242.36 122.864 243.128 121.584 243.704 120.496C243.96 120.016 244.28 119.824 244.696 119.824C244.856 119.824 245.048 119.856 245.24 119.92C245.72 120.08 245.976 120.496 245.976 120.88C245.976 121.04 245.944 121.2 245.848 121.328C245.368 122.128 244.696 123.088 243.928 124.08H248.728C249.272 124.08 249.592 124.496 249.592 125.136C249.592 125.776 249.272 126.16 248.728 126.16H241.624C241.176 127.344 240.6 128.496 239.96 129.584H247.512C248.024 129.584 248.312 129.968 248.312 130.544C248.312 131.152 248.024 131.536 247.512 131.536H235.96V133.744H245.592C246.104 133.744 246.392 134.128 246.392 134.704C246.392 135.28 246.104 135.696 245.592 135.696H235.96V137.936H248.664C249.176 137.936 249.496 138.32 249.496 138.928C249.496 139.536 249.176 139.92 248.664 139.92H237.656C240.728 142.448 244.504 144.112 249.048 145.136C249.656 145.264 249.944 145.744 249.944 146.256C249.944 146.416 249.912 146.544 249.88 146.672C249.72 147.28 249.304 147.632 248.728 147.632C248.6 147.632 248.472 147.632 248.344 147.568C243.576 146.32 238.616 143.856 235.64 140.592C235.832 141.264 235.96 142.096 235.96 142.896V147.984C235.96 148.528 235.512 148.912 234.776 148.912C234.104 148.912 233.656 148.528 233.656 147.984V142.896C233.656 142.096 233.752 141.328 234.008 140.592C231.128 143.664 226.904 146.096 221.88 147.536C221.72 147.568 221.56 147.6 221.4 147.6C220.856 147.6 220.44 147.28 220.28 146.736C220.216 146.544 220.184 146.384 220.184 146.256C220.184 145.744 220.472 145.392 220.952 145.264C225.592 144.048 229.272 142.288 232.024 139.92H221.272C220.792 139.92 220.44 139.536 220.44 138.928C220.44 138.32 220.792 137.936 221.272 137.936H233.656V135.696H224.344C223.832 135.696 223.544 135.28 223.544 134.704C223.544 134.128 223.832 133.744 224.344 133.744H233.656V131.536H222.52C222.008 131.536 221.72 131.152 221.72 130.544C221.72 129.968 222.008 129.584 222.52 129.584H229.656C229.24 128.4 228.728 127.248 228.088 126.16ZM239.128 126.16H230.584C231.192 127.248 231.64 128.4 232.056 129.584H237.496C238.136 128.496 238.68 127.344 239.128 126.16ZM267 128.944H269.976C273.016 126.64 275.48 124.016 277.656 121.072C277.912 120.752 278.232 120.56 278.616 120.56C278.84 120.56 279.096 120.624 279.32 120.784C279.736 121.008 279.896 121.392 279.896 121.776C279.896 122.064 279.8 122.32 279.608 122.544C277.624 124.944 275.64 126.992 273.368 128.944H280.664C281.24 128.944 281.592 129.392 281.592 130.064C281.592 130.736 281.24 131.184 280.664 131.184H270.552C268.792 132.464 266.808 133.584 264.792 134.416C265.944 134.256 267.096 134.224 268.248 134.224H275.064C277.048 134.224 277.88 134.928 277.88 136.656V145.52C277.88 147.248 277.048 147.952 275.064 147.952H261.944C259.928 147.952 259.128 147.248 259.128 145.52V140.848C259.128 139.92 259.256 138.672 259.384 137.584C257.56 138.512 255.704 139.28 253.88 139.92C253.688 139.984 253.496 140.016 253.336 140.016C252.824 140.016 252.408 139.728 252.216 139.184C252.152 139.024 252.12 138.864 252.12 138.704C252.12 138.192 252.44 137.744 253.016 137.584C256.856 136.432 262.296 133.936 266.712 131.184H253.624C253.048 131.184 252.696 130.736 252.696 130.064C252.696 129.424 253.048 128.944 253.624 128.944H264.6V125.168H256.632C256.088 125.168 255.736 124.752 255.736 124.08C255.736 123.44 256.088 122.992 256.632 122.992H264.6V119.888C264.6 119.312 265.048 118.96 265.816 118.96C266.52 118.96 267 119.312 267 119.888V122.992H272.632C273.176 122.992 273.56 123.472 273.56 124.112C273.56 124.752 273.176 125.168 272.536 125.168H267V128.944ZM261.56 139.792H275.448V137.072C275.448 136.432 275.16 136.272 274.52 136.272H262.456C261.848 136.272 261.56 136.432 261.56 137.072V139.792ZM261.56 141.84V145.008C261.56 145.648 261.848 145.84 262.456 145.84H274.52C275.16 145.84 275.448 145.648 275.448 145.008V141.84H261.56ZM312.408 133.008H306.776C306.328 134.32 305.912 135.6 305.272 136.816C304.376 138.448 303.256 139.952 301.976 141.328C305.336 142.576 308.728 144.048 311.64 145.648C312.088 145.872 312.312 146.256 312.312 146.704C312.312 146.928 312.248 147.184 312.088 147.472C311.832 147.92 311.448 148.176 311 148.176C310.744 148.176 310.488 148.112 310.2 147.952C307.16 146.192 303.608 144.528 299.992 143.088C296.536 145.776 292.024 147.472 286.648 148.432C286.584 148.432 286.52 148.432 286.488 148.432C285.88 148.432 285.336 148.112 285.208 147.376C285.176 147.248 285.176 147.152 285.176 147.056C285.176 146.416 285.592 145.968 286.168 145.904C290.488 145.168 294.232 144.016 297.272 142.064C294.968 141.264 292.664 140.56 290.552 140.016C289.752 139.824 289.304 139.184 289.304 138.48C289.304 138.032 289.464 137.584 289.816 137.168C290.84 135.92 291.832 134.512 292.792 133.008H285.656C285.08 133.008 284.76 132.496 284.76 131.856C284.76 131.184 285.08 130.704 285.656 130.704H294.104C294.84 129.296 295.48 127.856 295.96 126.48C296.152 125.936 296.472 125.68 296.984 125.68C297.144 125.68 297.304 125.712 297.496 125.776C298.104 125.968 298.456 126.32 298.456 126.832C298.456 126.992 298.424 127.184 298.328 127.408C297.88 128.496 297.368 129.616 296.792 130.704H312.408C313.016 130.704 313.336 131.184 313.336 131.856C313.336 132.496 313.016 133.008 312.408 133.008ZM304.12 133.008H295.512C294.552 134.608 293.528 136.112 292.472 137.456C292.312 137.68 292.216 137.84 292.216 137.936C292.216 138.096 292.376 138.224 292.792 138.32C294.808 138.896 297.08 139.6 299.448 140.4C300.856 139.184 302.008 137.68 302.872 136.048C303.384 135.088 303.736 134.064 304.12 133.008ZM300.056 122.256H309.976C311.896 122.256 312.76 123.088 312.76 124.976V128.016C312.76 128.656 312.248 128.976 311.48 128.976C310.744 128.976 310.2 128.656 310.2 128.048V125.456C310.2 124.752 309.848 124.528 309.176 124.528H288.792C288.12 124.528 287.768 124.752 287.768 125.456V128.048C287.768 128.656 287.224 128.976 286.488 128.976C285.72 128.976 285.208 128.656 285.208 128.016V124.976C285.208 123.088 286.072 122.256 287.992 122.256H297.56V119.952C297.56 119.28 298.008 118.928 298.808 118.928C299.64 118.928 300.056 119.28 300.056 119.952V122.256ZM331.96 145.008H344.472C345.048 145.008 345.368 145.456 345.368 146.16C345.368 146.832 345.048 147.344 344.472 147.344H317.496C316.92 147.344 316.6 146.864 316.6 146.16C316.6 145.488 316.92 145.008 317.496 145.008H329.528V139.312H321.72C321.144 139.312 320.824 138.832 320.824 138.16C320.824 137.488 321.144 137.072 321.72 137.072H329.528V132.336H322.968C322.392 132.336 322.072 131.856 322.072 131.184C322.072 130.512 322.392 130.096 322.968 130.096H338.872C339.48 130.096 339.8 130.512 339.8 131.184C339.8 131.856 339.48 132.336 338.872 132.336H331.96V137.072H340.28C340.856 137.072 341.144 137.488 341.144 138.16C341.144 138.832 340.856 139.312 340.28 139.312H331.96V145.008ZM328.92 119.888C329.368 119.344 330.104 119.056 330.84 119.056C331.576 119.056 332.344 119.344 332.76 119.888C336.152 124.496 340.6 127.408 345.208 129.616C345.816 129.872 346.072 130.352 346.072 130.864C346.072 131.056 346.04 131.28 345.944 131.504C345.752 131.984 345.272 132.304 344.76 132.304C344.568 132.304 344.376 132.272 344.184 132.176C339.224 129.776 334.2 125.808 331.288 121.872C331.128 121.648 331 121.552 330.872 121.552C330.744 121.552 330.584 121.648 330.456 121.84C327.576 126.032 322.616 129.904 318.168 132.016C317.848 132.176 317.528 132.272 317.208 132.272C316.76 132.272 316.376 132.08 316.152 131.632C316.056 131.408 315.992 131.184 315.992 130.96C315.992 130.48 316.28 130 316.952 129.68C320.984 127.76 325.368 124.816 328.92 119.888ZM362.808 121.616H365.784C367.48 121.616 368.12 122.192 368.12 123.824V126.352H369.24C369.752 126.352 370.04 126.736 370.04 127.28C370.04 127.888 369.752 128.272 369.24 128.272H356.6C356.088 128.272 355.832 127.888 355.832 127.312C355.832 126.736 356.088 126.352 356.6 126.352H359.096C359.48 125.424 359.8 124.464 360.088 123.504H357.56C357.08 123.504 356.824 123.152 356.824 122.576C356.824 122.032 357.08 121.616 357.56 121.616H360.568C360.696 121.008 360.824 120.4 360.952 119.792C361.048 119.184 361.432 118.928 362.008 118.928C362.104 118.928 362.2 118.928 362.296 118.96C362.936 118.992 363.224 119.312 363.224 119.792C363.224 119.888 363.224 119.984 363.192 120.08C363.064 120.592 362.936 121.104 362.808 121.616ZM365.176 123.504H362.296C362.008 124.464 361.688 125.424 361.336 126.352H366.008V124.208C366.008 123.6 365.784 123.504 365.176 123.504ZM372.984 130.224H370.648C370.072 130.224 369.752 129.808 369.752 129.136C369.752 128.464 370.072 128.016 370.648 128.016H377.432C378.008 128.016 378.328 128.464 378.328 129.136C378.328 129.808 378.008 130.224 377.432 130.224H375.352V145.552C375.352 147.504 374.456 148.464 372.184 148.464C371.256 148.464 370.392 148.4 369.72 148.24C369.336 148.144 368.984 147.824 368.984 147.248C368.984 147.152 368.984 147.056 369.016 146.928C369.144 146.352 369.496 146.032 369.912 146.032C369.976 146.032 370.04 146.032 370.104 146.064C370.552 146.16 371.224 146.256 371.8 146.256C372.696 146.256 372.984 145.968 372.984 145.072V130.224ZM363.288 136.208H359.032C357.4 136.208 356.728 135.664 356.728 134.096V132.112C356.728 130.544 357.4 130 359.032 130H366.424C368.056 130 368.728 130.544 368.728 132.112V134.096C368.728 135.664 368.056 136.208 366.424 136.208H365.4V138.064H368.824C369.336 138.064 369.624 138.416 369.624 138.992C369.624 139.6 369.336 139.92 368.824 139.92H365.4V142.672H369.592C370.104 142.672 370.392 143.088 370.392 143.664C370.392 144.272 370.104 144.624 369.592 144.624H365.4V147.92C365.4 148.464 364.984 148.784 364.312 148.784C363.64 148.784 363.288 148.464 363.288 147.92V144.624H355.544C355.032 144.624 354.744 144.24 354.744 143.664C354.744 143.088 355.032 142.672 355.544 142.672H357.464V139.92H356.408C355.928 139.92 355.64 139.6 355.64 138.992C355.64 138.416 355.928 138.064 356.408 138.064H363.288V136.208ZM363.288 139.92H359.512V142.672H363.288V139.92ZM359.672 134.48H365.784C366.36 134.48 366.616 134.352 366.616 133.808V132.432C366.616 131.888 366.36 131.76 365.784 131.76H359.672C359.096 131.76 358.84 131.888 358.84 132.432V133.808C358.84 134.352 359.096 134.48 359.672 134.48ZM351.032 147.856V138.16C351.032 137.008 351.096 135.792 351.288 134.48C350.776 135.184 350.2 135.824 349.656 136.368C349.432 136.592 349.144 136.72 348.824 136.72C348.536 136.72 348.248 136.592 348.056 136.336C347.832 136.112 347.704 135.792 347.704 135.504C347.704 135.216 347.832 134.896 348.088 134.64C350.232 132.592 352.152 130.096 353.4 127.472C353.592 127.088 353.944 126.864 354.328 126.864C354.52 126.864 354.712 126.928 354.904 127.056C355.32 127.248 355.544 127.568 355.544 127.952C355.544 128.144 355.48 128.336 355.352 128.528C354.776 129.712 354.104 130.832 353.4 131.888V147.856C353.4 148.464 352.952 148.784 352.216 148.784C351.512 148.784 351.032 148.464 351.032 147.856ZM355.064 119.248C355.448 119.44 355.672 119.76 355.672 120.144C355.672 120.336 355.608 120.56 355.48 120.784C354.168 123.024 352.312 125.328 350.168 127.152C349.944 127.408 349.624 127.536 349.304 127.536C349.016 127.536 348.728 127.408 348.472 127.12C348.28 126.864 348.184 126.608 348.184 126.32C348.184 126 348.344 125.68 348.632 125.424C350.552 123.792 352.344 121.712 353.4 119.728C353.592 119.312 353.976 119.088 354.424 119.088C354.616 119.088 354.84 119.152 355.064 119.248ZM370.808 121.04H376.76C377.336 121.04 377.656 121.456 377.656 122.128C377.656 122.8 377.336 123.216 376.76 123.216H370.808C370.232 123.216 369.912 122.8 369.912 122.128C369.912 121.456 370.232 121.04 370.808 121.04ZM396.568 145.04H408.536C409.112 145.04 409.464 145.52 409.464 146.224C409.464 146.896 409.112 147.376 408.536 147.376H381.4C380.824 147.376 380.504 146.896 380.504 146.224C380.504 145.52 380.824 145.04 381.4 145.04H393.976V136.944H385.496C384.92 136.944 384.536 136.464 384.536 135.792C384.536 135.12 384.92 134.64 385.496 134.64H393.976V127.952H386.488C385.432 130.128 384.184 132.176 382.776 133.936C382.488 134.256 382.168 134.416 381.848 134.416C381.528 134.416 381.176 134.288 380.92 134.032C380.632 133.808 380.472 133.488 380.472 133.168C380.472 132.88 380.6 132.56 380.824 132.272C383.288 129.296 385.368 125.232 386.424 121.168C386.584 120.624 386.968 120.368 387.48 120.368C387.608 120.368 387.768 120.4 387.928 120.432C388.536 120.592 388.92 121.008 388.92 121.488C388.92 121.584 388.92 121.712 388.856 121.808C388.504 123.056 388.024 124.368 387.48 125.648H393.976V120.016C393.976 119.408 394.52 119.024 395.256 119.024C396.024 119.024 396.568 119.408 396.568 120.016V125.648H407.352C407.928 125.648 408.248 126.096 408.248 126.8C408.248 127.472 407.928 127.952 407.352 127.952H396.568V134.64H405.656C406.232 134.64 406.584 135.12 406.584 135.792C406.584 136.464 406.232 136.944 405.656 136.944H396.568V145.04ZM422.872 134.8H416.824C415.8 135.472 414.744 136.112 413.624 136.688C413.432 136.784 413.208 136.848 412.984 136.848C412.664 136.848 412.312 136.688 412.088 136.272C411.992 136.048 411.928 135.824 411.928 135.632C411.928 135.248 412.152 134.928 412.536 134.736C415.16 133.456 417.592 131.824 419.768 129.936H412.888C412.312 129.936 412.024 129.552 412.024 129.008C412.024 128.4 412.312 128.016 412.888 128.016H418.552V124.56H414.072C413.528 124.56 413.208 124.144 413.208 123.568C413.208 122.992 413.528 122.576 414.072 122.576H418.552V119.92C418.552 119.344 419.032 119.024 419.672 119.024C420.344 119.024 420.792 119.344 420.792 119.92V122.576H423.672C424.216 122.576 424.536 122.96 424.536 123.536C424.536 124.144 424.184 124.56 423.672 124.56H420.792V128.016H421.816C423.864 125.904 425.592 123.568 427 120.976C427.192 120.624 427.544 120.4 427.96 120.4C428.152 120.4 428.344 120.432 428.536 120.528C428.952 120.752 429.176 121.136 429.176 121.488C429.176 121.68 429.144 121.84 429.048 122C427.896 124.08 426.456 126.096 424.76 128.016H427.064C427.544 128.016 427.864 128.336 427.864 128.88C427.864 128.88 427.864 128.912 427.864 128.944C427.832 129.488 427.48 129.936 426.936 129.936H422.904C421.816 130.992 420.664 131.984 419.48 132.912H424.152C425.368 132.912 426.008 133.68 426.008 134.512C426.008 134.928 425.848 135.376 425.464 135.728C424.504 136.72 423 137.744 421.656 138.48V139.184C423.48 138.992 425.176 138.704 426.68 138.448C426.776 138.416 426.84 138.416 426.904 138.416C427.384 138.416 427.736 138.672 427.832 139.248C427.864 139.344 427.864 139.44 427.864 139.536C427.864 140.016 427.576 140.4 427 140.528C425.4 140.816 423.544 141.104 421.656 141.328V145.84C421.656 147.76 420.6 148.464 418.648 148.464C417.624 148.464 416.632 148.368 416.024 148.24C415.608 148.144 415.224 147.824 415.224 147.216C415.224 147.12 415.224 146.992 415.256 146.896C415.352 146.288 415.8 146 416.248 146C416.312 146 416.376 146 416.44 146.032C416.92 146.128 417.592 146.256 418.232 146.256C419.224 146.256 419.416 146.128 419.416 145.264V141.584C417.336 141.776 415.224 141.936 413.24 142.064C413.208 142.064 413.208 142.064 413.176 142.064C412.6 142.064 412.216 141.712 412.152 141.008C412.152 140.944 412.152 140.88 412.152 140.848C412.152 140.24 412.472 139.856 412.984 139.856C415.064 139.792 417.272 139.664 419.416 139.44V137.776C419.416 137.232 419.896 136.944 420.568 136.944H420.632C421.656 136.432 422.552 135.856 423.16 135.312C423.256 135.216 423.32 135.12 423.32 135.056C423.32 134.896 423.128 134.8 422.872 134.8ZM440.728 127.056H439.352C439.192 129.36 438.968 131.6 438.328 133.808C437.72 136.016 436.824 138.192 435.576 140.08C437.144 142.384 439.064 144.272 441.528 146C441.88 146.256 442.04 146.608 442.04 146.96C442.04 147.248 441.944 147.536 441.752 147.792C441.464 148.176 441.08 148.4 440.696 148.4C440.472 148.4 440.216 148.304 439.992 148.144C437.688 146.416 435.736 144.432 434.136 142.16C432.312 144.464 430.008 146.512 427.288 148.24C427 148.432 426.68 148.528 426.36 148.528C426.008 148.528 425.656 148.368 425.4 148.016C425.208 147.76 425.144 147.504 425.144 147.248C425.144 146.8 425.368 146.416 425.72 146.192C428.664 144.4 431 142.384 432.792 140.016C431.448 137.52 430.488 134.8 429.976 132.016C429.56 132.784 429.144 133.488 428.664 134.16C428.472 134.448 428.184 134.608 427.832 134.608C427.576 134.608 427.32 134.512 427.064 134.288C426.744 134.032 426.584 133.712 426.584 133.392C426.584 133.136 426.68 132.912 426.84 132.656C429.24 129.264 430.84 124.432 431.48 120.016C431.608 119.344 431.96 119.088 432.504 119.088C432.632 119.088 432.728 119.088 432.824 119.12C433.496 119.216 433.848 119.536 433.848 120.112C433.848 120.176 433.848 120.24 433.848 120.336C433.592 121.808 433.272 123.344 432.824 124.88H440.696C441.304 124.88 441.624 125.328 441.624 125.936C441.624 126.576 441.336 127.056 440.728 127.056ZM437.016 127.056H432.12C431.928 127.696 431.672 128.304 431.416 128.944C431.992 131.952 432.824 135.024 434.232 137.776C435.288 135.856 436.024 133.776 436.472 131.632C436.792 130.128 436.92 128.592 437.016 127.056ZM472.76 123.92H464.536C467.192 125.424 469.848 127.216 471.832 128.912C472.088 129.136 472.216 129.424 472.216 129.744C472.216 130.032 472.088 130.352 471.896 130.576C471.672 130.8 471.384 130.928 471.064 130.928C470.808 130.928 470.552 130.832 470.296 130.608C469.688 130 468.984 129.424 468.216 128.816C461.272 129.552 453.976 129.872 446.648 129.936C445.976 129.936 445.624 129.552 445.624 128.848C445.624 128.816 445.624 128.784 445.624 128.784C445.624 128.176 446.008 127.792 446.616 127.792C447.416 127.792 448.216 127.792 449.016 127.792C449.752 127.792 450.488 127.792 451.224 127.792C452.248 126.576 453.208 125.296 454.008 123.92H445.304C444.728 123.92 444.44 123.504 444.44 122.864C444.44 122.224 444.728 121.776 445.304 121.776H457.528V119.632C457.528 119.056 457.976 118.768 458.776 118.768C459.608 118.768 460.024 119.056 460.024 119.632V121.776H472.76C473.304 121.776 473.624 122.224 473.624 122.864C473.624 123.504 473.304 123.92 472.76 123.92ZM463 123.92H456.728C455.896 125.264 454.968 126.512 453.976 127.76C457.912 127.632 461.88 127.536 465.784 127.056C464.888 126.448 463.96 125.872 463.032 125.36C462.776 125.2 462.616 124.944 462.616 124.688C462.616 124.464 462.712 124.24 462.872 124.048L463 123.92ZM451.16 142.768V147.856C451.16 148.432 450.68 148.752 449.976 148.752C449.24 148.752 448.728 148.432 448.728 147.824V134.096C448.728 132.24 449.624 131.6 451.608 131.6H466.36C468.344 131.6 469.24 132.24 469.24 134.096V145.648C469.24 147.632 468.12 148.4 465.624 148.4C464.344 148.4 462.872 148.24 462.136 148.048C461.592 147.952 461.336 147.568 461.336 147.088C461.336 146.992 461.336 146.896 461.368 146.768C461.496 146.224 461.88 145.968 462.328 145.968C462.424 145.968 462.552 146 462.648 146C463.32 146.16 464.504 146.288 465.368 146.288C466.552 146.288 466.872 146.096 466.872 145.232V142.768H451.16ZM451.16 138.224V140.72H466.872V138.224H451.16ZM466.872 136.176V134.576C466.872 133.936 466.552 133.744 465.912 133.744H452.152C451.512 133.744 451.16 133.936 451.16 134.576V136.176H466.872ZM492.44 124.528C492.152 129.392 491.448 133.872 490.328 137.296C489.208 140.592 488.28 142.032 487.16 143.088C486.136 144.08 484.792 144.496 483.48 144.496C480.152 144.496 477.496 141.264 477.496 135.888C477.496 127.92 483.064 122.16 491.8 122.16C499.352 122.16 504.344 127.088 504.344 134.128C504.344 138.64 502.392 142.064 499.064 144.176C497.208 145.36 494.904 146.096 492.344 146.48C492.216 146.512 492.088 146.512 491.992 146.512C491.32 146.512 490.776 146.192 490.648 145.392C490.616 145.296 490.616 145.168 490.616 145.072C490.616 144.432 491.032 143.952 491.768 143.824C494.104 143.504 496.568 142.704 498.168 141.52C500.184 140.016 501.656 137.424 501.656 134.064C501.656 128.656 498.104 124.72 492.44 124.528ZM489.784 124.624C483.928 125.168 480.088 129.648 480.088 135.856C480.088 139.696 481.72 141.712 483.416 141.712C484.152 141.712 484.888 141.456 485.56 140.784C486.264 140.112 487 138.736 487.768 136.4C488.76 133.392 489.56 129.008 489.784 124.624ZM49.176 182.784H53.496C55.256 182.784 56.056 183.456 56.056 184.96V191.232H57.176C57.72 191.232 58.008 191.616 58.008 192.192C58.008 192.768 57.72 193.184 57.176 193.184H56.056V195.872C56.056 197.664 55.064 198.368 52.76 198.368C51.768 198.368 50.712 198.336 49.848 198.176C49.368 198.08 49.048 197.728 49.048 197.184C49.048 197.12 49.048 197.024 49.08 196.96C49.176 196.384 49.56 196.128 49.976 196.128C50.04 196.128 50.104 196.128 50.168 196.16C50.872 196.288 51.736 196.384 52.472 196.384C53.72 196.384 53.976 196.192 53.976 195.424V193.184H42.552V197.856C42.552 198.4 42.168 198.688 41.496 198.688C40.856 198.688 40.408 198.4 40.408 197.856V193.184H39.448C38.904 193.184 38.584 192.768 38.584 192.192C38.584 191.616 38.904 191.232 39.448 191.232H40.408V184.96C40.408 183.456 41.208 182.784 42.968 182.784H47.096V180.96H39.576C39.064 180.96 38.776 180.544 38.776 180.032C38.776 179.456 39.064 179.104 39.576 179.104H43.576V176.96H40.568C40.12 176.96 39.832 176.544 39.832 176.096C39.832 175.584 40.12 175.136 40.568 175.136H43.576V173.184H39.864C39.384 173.184 39.128 172.736 39.128 172.224C39.128 171.712 39.384 171.328 39.864 171.328H43.576V169.824C43.576 169.248 43.992 168.992 44.632 168.992C45.336 168.992 45.688 169.248 45.688 169.824V171.328H50.552V169.792C50.552 169.248 50.936 168.96 51.608 168.96C52.28 168.96 52.664 169.248 52.664 169.792V171.328H56.696C57.144 171.328 57.464 171.712 57.464 172.224C57.464 172.768 57.144 173.184 56.696 173.184H52.664V175.136H55.896C56.344 175.136 56.632 175.584 56.632 176.096C56.632 176.576 56.344 176.96 55.896 176.96H52.664V179.104H57.176C57.688 179.104 57.976 179.456 57.976 180.032C57.976 180.544 57.688 180.96 57.176 180.96H49.176V182.784ZM47.096 191.232V188.768H42.552V191.232H47.096ZM49.176 191.232H53.976V188.768H49.176V191.232ZM47.096 187.072V184.576H43.384C42.84 184.576 42.552 184.736 42.552 185.28V187.072H47.096ZM49.176 187.072H53.976V185.28C53.976 184.736 53.688 184.576 53.144 184.576H49.176V187.072ZM45.688 179.104H50.552V176.96H45.688V179.104ZM45.688 175.136H50.552V173.184H45.688V175.136ZM29.208 174.432H37.624C38.2 174.432 38.488 174.848 38.488 175.52C38.488 176.128 38.2 176.608 37.624 176.608H29.208C28.632 176.608 28.344 176.128 28.344 175.52C28.344 174.88 28.632 174.432 29.208 174.432ZM36.984 181.28H30.008C29.464 181.28 29.176 180.8 29.176 180.224C29.176 179.648 29.464 179.168 30.008 179.168H36.984C37.496 179.168 37.784 179.648 37.784 180.224C37.784 180.768 37.496 181.28 36.984 181.28ZM36.984 185.888H29.976C29.432 185.888 29.144 185.376 29.144 184.832C29.144 184.256 29.432 183.776 29.976 183.776H36.984C37.528 183.776 37.816 184.256 37.816 184.8C37.816 185.376 37.528 185.888 36.984 185.888ZM30.04 169.792H37.016C37.528 169.792 37.848 170.24 37.848 170.88C37.848 171.488 37.528 171.904 37.016 171.904H30.04C29.528 171.904 29.208 171.488 29.208 170.88C29.208 170.24 29.528 169.792 30.04 169.792ZM37.912 190.56V195.616C37.912 197.312 37.144 197.984 35.448 197.984H31.736C30.04 197.984 29.272 197.312 29.272 195.616V190.56C29.272 188.928 30.04 188.288 31.736 188.288H35.448C37.144 188.288 37.912 188.928 37.912 190.56ZM31.448 190.912V195.2C31.448 195.776 31.768 196 32.312 196H34.872C35.416 196 35.736 195.776 35.736 195.2V190.912C35.736 190.336 35.416 190.176 34.872 190.176H32.312C31.768 190.176 31.448 190.336 31.448 190.912ZM75.608 184.992H82.808C84.856 184.992 85.688 185.728 85.688 187.456V195.52C85.688 197.312 84.856 198.016 82.808 198.016H67.256C65.24 198.016 64.376 197.312 64.376 195.52V187.456C64.376 185.728 65.24 184.992 67.256 184.992H73.048C73.496 184.256 73.848 183.52 74.136 182.912C74.296 182.528 74.68 182.272 75.16 182.272C75.288 182.272 75.448 182.304 75.608 182.336C76.152 182.496 76.44 182.848 76.44 183.232C76.44 183.328 76.408 183.424 76.408 183.52C76.216 183.904 75.928 184.48 75.608 184.992ZM66.808 190.24H83.256V187.904C83.256 187.264 82.968 187.104 82.328 187.104H67.704C67.064 187.104 66.808 187.264 66.808 187.904V190.24ZM66.808 192.352V195.04C66.808 195.68 67.064 195.84 67.704 195.84H82.328C82.968 195.84 83.256 195.68 83.256 195.04V192.352H66.808ZM61.656 169.984H71.576C73.496 169.984 74.264 170.688 74.264 172.512V180.512C74.264 182.304 72.984 182.976 71.096 182.976C70.104 182.976 69.304 182.912 68.6 182.752C68.152 182.656 67.8 182.272 67.8 181.76C67.8 181.664 67.8 181.536 67.832 181.44C67.96 180.96 68.312 180.672 68.76 180.672C68.824 180.672 68.92 180.672 68.984 180.704C69.56 180.832 70.072 180.928 70.808 180.928C71.736 180.928 71.96 180.832 71.96 180.032V172.928C71.96 172.288 71.672 172.128 71.064 172.128H61.656C61.08 172.128 60.728 171.712 60.728 171.072C60.728 170.4 61.08 169.984 61.656 169.984ZM88.44 172.512V180.736C88.44 182.528 87.256 183.168 85.368 183.168C84.216 183.168 83 183.072 82.36 182.88C81.944 182.784 81.56 182.432 81.56 181.888C81.56 181.76 81.56 181.664 81.592 181.536C81.72 181.056 82.072 180.768 82.552 180.768C82.648 180.768 82.776 180.768 82.872 180.8C83.352 180.928 84.12 181.056 84.92 181.056C85.848 181.056 86.072 180.928 86.072 180.032V172.928C86.072 172.288 85.784 172.128 85.176 172.128H76.12C75.576 172.128 75.224 171.712 75.224 171.072C75.224 170.4 75.576 169.984 76.12 169.984H85.72C87.672 169.984 88.44 170.688 88.44 172.512ZM83.16 176.768C83.384 176.64 83.64 176.576 83.832 176.576C84.216 176.576 84.504 176.768 84.728 177.12C84.792 177.28 84.856 177.472 84.856 177.664C84.856 177.984 84.728 178.304 84.344 178.528C82.488 179.648 79.544 181.056 77.24 181.728C77.048 181.792 76.888 181.824 76.728 181.824C76.28 181.824 75.928 181.6 75.768 181.184C75.672 180.992 75.64 180.832 75.64 180.672C75.64 180.224 75.96 179.84 76.44 179.712C78.616 179.072 81.4 177.824 83.16 176.768ZM64.408 172.96C65.464 173.344 67 174.048 68.152 174.784C68.472 175.008 68.664 175.36 68.664 175.712C68.664 175.936 68.6 176.128 68.472 176.32C68.216 176.64 67.832 176.8 67.48 176.8C67.256 176.8 67.032 176.736 66.872 176.64C65.72 175.936 64.344 175.264 63.224 174.784C62.904 174.624 62.744 174.368 62.744 174.048C62.744 173.856 62.808 173.632 62.936 173.44C63.128 173.088 63.512 172.864 63.96 172.864C64.088 172.864 64.248 172.896 64.408 172.96ZM69.048 177.12C69.304 176.96 69.592 176.864 69.848 176.864C70.2 176.864 70.488 177.024 70.68 177.312C70.808 177.536 70.872 177.76 70.872 177.984C70.872 178.304 70.712 178.624 70.36 178.848C68.376 180.096 65.112 181.632 62.68 182.592C62.424 182.688 62.2 182.72 62.008 182.72C61.496 182.72 61.112 182.464 60.952 182.048C60.888 181.888 60.856 181.728 60.856 181.568C60.856 181.12 61.144 180.672 61.656 180.512C64.024 179.712 67.288 178.208 69.048 177.12ZM78.168 172.96C79.224 173.344 80.728 174.08 81.848 174.752C82.168 174.976 82.36 175.296 82.36 175.648C82.36 175.808 82.328 176 82.232 176.16C81.976 176.608 81.56 176.8 81.176 176.8C80.984 176.8 80.792 176.736 80.632 176.64C79.48 175.936 78.104 175.264 77.08 174.816C76.696 174.656 76.504 174.368 76.504 174.048C76.504 173.824 76.568 173.632 76.696 173.44C76.888 173.088 77.272 172.864 77.72 172.864C77.848 172.864 78.008 172.896 78.168 172.96ZM103.16 183.168C104.152 183.2 105.112 183.232 106.04 183.232C107.864 183.232 109.528 183.168 111 183.008C111.064 183.008 111.16 183.008 111.224 183.008C111.96 183.008 112.312 183.424 112.376 184.096C112.376 184.16 112.376 184.224 112.376 184.288C112.376 184.96 112.024 185.44 111.192 185.536C109.688 185.696 107.896 185.76 105.976 185.76C104.984 185.76 103.96 185.728 102.904 185.696C102.648 187.328 102.552 188.576 102.552 189.824C102.552 191.328 103.064 192.544 104.024 193.344C105.144 194.272 106.872 194.688 109.112 194.688C113.816 194.688 116.632 192.64 116.632 189.28C116.632 187.52 115.96 185.76 114.68 184.256C114.488 184.032 114.392 183.744 114.392 183.488C114.392 183.104 114.616 182.72 114.968 182.464C115.224 182.304 115.48 182.24 115.736 182.24C116.12 182.24 116.504 182.432 116.824 182.816C118.392 184.704 119.32 187.04 119.32 189.152C119.32 194.336 115.32 197.248 109.208 197.248C106.264 197.248 103.928 196.672 102.328 195.392C100.792 194.176 99.992 192.416 99.992 189.728C99.992 188.544 100.088 187.264 100.312 185.568C98.488 185.408 96.632 185.184 95 184.864C94.392 184.736 94.008 184.256 94.008 183.648C94.008 183.552 94.008 183.488 94.04 183.392C94.136 182.72 94.584 182.336 95.16 182.336C95.224 182.336 95.32 182.336 95.416 182.368C96.984 182.656 98.776 182.88 100.696 183.04C100.952 181.28 101.272 179.424 101.624 177.696C99.608 177.568 97.72 177.344 95.928 177.056C95.352 176.992 95 176.48 95 175.904C95 175.808 95 175.712 95.032 175.616C95.128 175.008 95.544 174.624 96.12 174.624C96.184 174.624 96.28 174.624 96.344 174.624C97.912 174.848 99.768 175.072 102.072 175.2C102.328 173.76 102.648 172.256 102.904 170.848C103.032 170.144 103.448 169.792 104.088 169.792C104.184 169.792 104.28 169.792 104.408 169.824C105.176 169.92 105.464 170.432 105.464 170.976C105.464 171.072 105.464 171.2 105.432 171.296C105.144 172.608 104.856 173.984 104.6 175.328C105.016 175.328 105.464 175.328 105.912 175.328C107.736 175.328 109.656 175.264 111.672 175.072C111.704 175.072 111.768 175.072 111.8 175.072C112.472 175.072 112.92 175.52 112.952 176.16C112.952 176.192 112.952 176.224 112.952 176.288C112.952 176.992 112.664 177.504 111.96 177.568C110.136 177.728 108.28 177.824 106.424 177.824C105.656 177.824 104.856 177.824 104.088 177.792C103.736 179.552 103.416 181.44 103.16 183.168ZM131.832 170.4C132.728 170.432 133.176 170.912 133.176 171.712C133.176 171.744 133.176 171.776 133.176 171.808C133.016 176.512 132.76 182.176 132.76 187.296C132.76 190.304 133.144 191.968 134.168 192.96C135.224 193.952 136.824 194.304 139.032 194.304C141.496 194.304 143.992 193.504 145.88 191.552C147.32 190.08 148.504 187.84 149.272 185.184C149.496 184.448 149.944 184.096 150.488 184.096C150.648 184.096 150.84 184.128 151 184.192C151.576 184.352 151.992 184.864 151.992 185.504C151.992 185.664 151.96 185.856 151.896 186.048C150.904 189.28 149.56 191.872 147.64 193.728C145.272 196.032 142.264 197.12 138.968 197.12C135.96 197.12 133.72 196.416 132.152 194.912C130.68 193.472 130.008 191.392 130.008 187.328C130.008 182.368 130.168 176.448 130.392 171.744C130.424 170.912 130.936 170.4 131.768 170.4C131.768 170.4 131.8 170.4 131.832 170.4ZM173.112 178.944C178.584 178.944 181.432 182.048 181.432 186.272C181.432 190.016 179.576 192.992 176.12 194.528C173.816 195.584 170.168 196.16 167 196.16C166.904 196.16 166.84 196.16 166.744 196.16C165.912 196.16 165.4 195.648 165.4 194.944C165.4 194.912 165.4 194.88 165.4 194.88C165.4 194.144 165.848 193.568 166.648 193.568C169.592 193.568 173.112 193.12 175.224 192.16C177.688 191.04 178.872 188.992 178.872 186.336C178.872 183.328 177.016 181.312 173.176 181.312C169.944 181.312 165.528 182.176 161.784 183.392C161.624 183.424 161.464 183.456 161.304 183.456C160.728 183.456 160.28 183.104 160.152 182.592C160.12 182.432 160.088 182.272 160.088 182.112C160.088 181.568 160.376 181.152 161.016 180.96C164.824 179.808 169.4 178.944 173.112 178.944ZM196.568 176.864C197.048 174.912 197.4 172.928 197.688 170.976C197.784 170.144 198.264 169.856 198.904 169.856C199 169.856 199.096 169.856 199.192 169.888C199.928 169.952 200.344 170.336 200.344 170.976C200.344 171.072 200.344 171.168 200.312 171.264C200.056 173.088 199.672 174.976 199.256 176.736C200.184 176.704 200.952 176.672 201.72 176.672C206.104 176.672 208.024 178.912 208.024 183.904C208.024 186.976 207.576 190.144 206.904 192.448C206.008 195.584 204.184 196.736 201.624 196.736C200.088 196.736 198.296 196.32 196.984 195.584C196.536 195.328 196.28 194.88 196.28 194.4C196.28 194.176 196.312 193.952 196.44 193.76C196.632 193.312 197.016 193.056 197.464 193.056C197.72 193.056 198.008 193.12 198.296 193.28C199.224 193.728 200.504 194.08 201.688 194.08C203.032 194.08 203.864 193.504 204.44 191.456C204.952 189.664 205.368 186.624 205.368 183.776C205.368 180.224 204.44 179.04 201.432 179.04C200.344 179.04 199.48 179.104 198.68 179.168C198.168 181.024 197.592 182.912 196.952 184.768C195.448 189.088 193.72 192.96 191.768 196.128C191.448 196.704 191 196.928 190.552 196.928C190.328 196.928 190.072 196.864 189.848 196.704C189.4 196.448 189.144 196.032 189.144 195.584C189.144 195.328 189.208 195.04 189.4 194.752C191.32 191.68 193.048 188.032 194.488 183.968C195 182.464 195.544 180.928 195.96 179.36C194.328 179.488 192.056 179.808 190.232 180.064C190.136 180.096 190.04 180.096 189.944 180.096C189.4 180.096 188.952 179.744 188.856 179.072C188.824 179.008 188.824 178.912 188.824 178.816C188.824 178.208 189.24 177.728 189.912 177.632C191.832 177.344 194.488 177.024 196.568 176.864ZM217.048 186.304C217.112 186.496 217.144 186.72 217.144 186.88C217.144 187.456 216.856 187.872 216.344 188.032C216.152 188.128 215.928 188.16 215.736 188.16C215.192 188.16 214.744 187.84 214.52 187.168C213.336 183.552 211.128 178.912 208.6 175.776C208.44 175.584 208.376 175.36 208.376 175.136C208.376 174.72 208.632 174.272 209.08 174.048C209.304 173.92 209.528 173.856 209.752 173.856C210.2 173.856 210.616 174.08 210.904 174.432C213.4 177.536 215.896 182.464 217.048 186.304ZM227.384 183.008L227.576 183.04C228.12 180.544 228.696 178.848 229.368 177.536C231.224 173.92 234.008 172.064 236.92 172.064C241.336 172.064 245.048 175.36 245.048 182.72C245.048 188.288 243.256 192.128 239.864 194.56C237.624 196.16 234.328 197.312 230.968 197.728C230.872 197.728 230.808 197.728 230.744 197.728C230.04 197.728 229.464 197.344 229.336 196.64C229.304 196.512 229.304 196.384 229.304 196.288C229.304 195.584 229.752 195.104 230.52 195.008C233.72 194.592 236.536 193.6 238.424 192.16C241.016 190.176 242.296 187.072 242.296 182.624C242.296 177.344 239.896 174.592 236.728 174.592C234.168 174.592 231.896 176.448 230.36 179.744C229.144 182.336 228.408 185.408 228.408 187.84C228.408 188.768 227.992 189.344 227.096 189.408C227.064 189.408 227.032 189.408 227.032 189.408C226.328 189.408 225.784 188.992 225.592 188.064C225.336 186.56 225.144 184.448 225.144 182.4C225.144 178.816 225.912 174.56 226.904 170.752C227.128 169.984 227.576 169.632 228.184 169.632C228.312 169.632 228.408 169.632 228.504 169.664C229.176 169.76 229.528 170.144 229.528 170.72C229.528 170.88 229.496 171.072 229.432 171.264C228.664 174.112 227.928 177.568 227.736 179.712C227.64 180.736 227.512 181.92 227.384 183.008ZM255.96 177.92H259.192C258.712 176.512 258.136 175.136 257.464 173.792C256.696 173.792 255.96 173.824 255.192 173.824C254.456 173.824 254.072 173.376 254.072 172.672C254.072 172 254.424 171.584 255.16 171.584C259.32 171.584 263.736 171.392 268.088 170.912C271.48 170.56 274.712 169.984 277.592 169.184C277.752 169.152 277.912 169.12 278.072 169.12C278.584 169.12 278.968 169.376 279.128 169.92C279.16 170.112 279.192 170.272 279.192 170.4C279.192 170.976 278.872 171.328 278.296 171.456C275.384 172.192 272.056 172.704 268.664 173.088C268.12 173.152 267.544 173.216 267 173.248C267.672 174.784 268.28 176.32 268.728 177.92H272.28C273.336 176.288 274.136 174.688 274.648 173.28C274.808 172.8 275.192 172.544 275.672 172.544C275.832 172.544 276.024 172.576 276.216 172.64C276.792 172.8 277.08 173.152 277.08 173.568C277.08 173.728 277.048 173.92 276.952 174.144C276.44 175.296 275.704 176.672 274.904 177.92H277.976C280.024 177.92 280.92 178.688 280.92 180.576V183.936C280.92 184.64 280.376 184.896 279.704 184.896C278.968 184.896 278.488 184.64 278.488 183.936V181.088C278.488 180.416 278.136 180.192 277.496 180.192H256.44C255.832 180.192 255.48 180.416 255.48 181.088V183.936C255.48 184.64 254.936 184.896 254.232 184.896C253.528 184.896 253.016 184.64 253.016 183.936V180.576C253.016 178.688 253.944 177.92 255.96 177.92ZM261.624 177.92H266.36C265.88 176.384 265.336 174.912 264.632 173.44C263.032 173.568 261.432 173.664 259.832 173.728C260.504 175.104 261.08 176.48 261.624 177.92ZM259.544 185.76H257.688C257.112 185.76 256.76 185.376 256.76 184.704C256.76 184 257.112 183.616 257.688 183.616H273.752C275.224 183.616 276.184 184.384 276.184 185.536C276.184 186.176 275.896 186.88 275.256 187.648C273.688 189.536 271.672 191.264 269.4 192.8C272.632 194.496 276.408 195.52 280.28 196.096C281.016 196.224 281.528 196.544 281.528 197.248C281.528 197.376 281.528 197.472 281.496 197.568C281.4 198.368 280.888 198.688 280.216 198.688C280.12 198.688 280.024 198.688 279.928 198.656C275.48 197.92 270.968 196.512 267.16 194.144C263.224 196.352 258.68 197.952 254.104 198.656C254.008 198.688 253.912 198.688 253.816 198.688C253.24 198.688 252.76 198.368 252.632 197.696C252.6 197.568 252.6 197.472 252.6 197.376C252.6 196.8 252.952 196.416 253.528 196.32C257.56 195.712 261.56 194.432 265.08 192.672C263.576 191.456 262.2 190.048 261.08 188.448C260.472 187.616 259.992 186.688 259.544 185.76ZM272.76 185.76H262.04C262.616 186.752 263.192 187.712 263.96 188.576C264.92 189.696 266.04 190.624 267.224 191.488C269.464 190.112 271.448 188.512 272.984 186.72C273.176 186.464 273.272 186.272 273.272 186.112C273.272 185.888 273.08 185.76 272.76 185.76ZM307.768 179.68C307.8 180.672 307.8 181.6 307.8 182.592C307.8 187.328 306.968 190.624 305.624 192.8C304.248 195.04 301.784 196.864 299.128 197.696C298.904 197.76 298.712 197.792 298.52 197.792C297.976 197.792 297.56 197.536 297.368 196.96C297.272 196.704 297.24 196.512 297.24 196.32C297.24 195.776 297.528 195.392 298.104 195.2C300.152 194.496 302.328 193.184 303.448 191.36C304.504 189.664 305.208 186.816 305.208 182.464C305.208 181.632 305.208 180.8 305.176 179.936C303.544 180.064 301.912 180.128 300.216 180.128C298.456 180.128 296.344 180.096 295.16 180C294.52 179.936 294.04 179.456 294.04 178.752C294.04 178.752 294.04 178.72 294.04 178.688C294.072 177.952 294.552 177.504 295.192 177.504C295.224 177.504 295.224 177.504 295.256 177.504C296.376 177.568 298.52 177.632 300.056 177.632C301.784 177.632 303.48 177.6 305.112 177.472C305.048 175.232 304.92 172.992 304.792 171.36C304.792 171.296 304.792 171.264 304.792 171.2C304.792 170.432 305.24 170.08 306.04 170.016C306.072 170.016 306.104 170.016 306.136 170.016C306.872 170.016 307.32 170.4 307.384 171.2C307.512 172.8 307.64 174.944 307.704 177.184C309.016 177.056 310.36 176.832 311.448 176.608C311.576 176.576 311.672 176.576 311.768 176.576C312.408 176.576 312.824 176.992 312.888 177.6C312.92 177.696 312.92 177.792 312.92 177.888C312.92 178.496 312.536 178.976 311.928 179.072C310.68 179.296 309.336 179.52 307.768 179.68ZM290.584 170.368C291.288 170.464 291.672 170.944 291.672 171.584C291.672 171.712 291.64 171.84 291.608 172C290.68 176.32 290.072 180.8 290.072 184.32C290.072 187.776 290.488 191.552 291.256 194.784C291.32 194.976 291.352 195.168 291.352 195.36C291.352 195.968 291 196.352 290.424 196.512C290.296 196.544 290.136 196.576 289.976 196.576C289.4 196.576 288.856 196.256 288.632 195.52C287.8 192.224 287.352 188.192 287.352 184.352C287.352 180.64 287.992 176.128 288.888 171.52C289.016 170.72 289.592 170.368 290.328 170.368C290.392 170.368 290.488 170.368 290.584 170.368ZM336.28 174.848L336.248 174.656C334.68 174.976 333.304 175.136 332.248 175.232C327.672 175.616 323.192 176.032 319.128 176.352C319.064 176.352 319.032 176.352 318.968 176.352C318.136 176.352 317.656 175.872 317.592 175.136C317.592 175.072 317.592 175.04 317.592 175.008C317.592 174.304 318.072 173.728 318.776 173.664C326.584 173.056 335.032 172.512 342.776 172.16C342.808 172.16 342.84 172.16 342.872 172.16C343.768 172.16 344.184 172.672 344.248 173.408C344.248 173.44 344.248 173.472 344.248 173.504C344.248 174.176 343.928 174.784 343 174.88C342.456 174.944 341.944 175.008 341.208 175.136C334.296 176.288 329.464 180.896 329.464 186.048C329.464 189.248 331.256 191.168 333.56 192.224C335.256 193.024 337.4 193.376 339.544 193.408C340.472 193.408 340.952 193.984 340.952 194.72C340.952 194.784 340.952 194.816 340.952 194.88C340.888 195.808 340.376 196.32 339.416 196.32C336.76 196.32 334.232 195.808 332.216 194.848C328.92 193.248 326.712 190.336 326.712 186.272C326.712 181.44 330.104 177.056 336.28 174.848ZM350.52 173.76C350.52 172.928 351.064 172.416 351.96 172.416C352.984 172.416 353.24 172.96 353.24 173.76C353.24 175.104 353.24 176.512 353.24 177.856C353.24 179.904 353.272 181.824 353.368 183.296C353.688 187.136 354.232 189.6 355.192 191.52C355.608 192.352 356.44 192.96 357.144 192.96C357.88 192.96 358.488 192.704 358.968 191.968C359.64 190.976 360.216 189.312 360.536 187.104C360.664 186.304 361.016 185.952 361.688 185.952C361.784 185.952 361.912 185.952 362.008 185.984C362.744 186.08 363.224 186.464 363.224 187.232C363.224 187.328 363.224 187.424 363.192 187.52C362.744 190.496 361.912 192.672 360.856 194.048C359.768 195.392 358.52 195.936 357.304 195.936C355.96 195.936 354.52 195.328 353.432 193.696C352.056 191.616 351.064 188.128 350.744 183.488C350.552 180.928 350.52 177.184 350.52 173.76ZM368.856 174.272C369.112 174.112 369.368 174.048 369.624 174.048C370.04 174.048 370.424 174.24 370.712 174.688C373.784 178.848 376.056 185.312 376.504 190.784C376.504 190.88 376.504 190.944 376.504 191.008C376.504 191.84 376.184 192.384 375.384 192.544C375.256 192.576 375.128 192.576 375.032 192.576C374.296 192.576 373.784 192.128 373.72 191.328C373.272 185.952 371.32 180.192 368.44 176.128C368.28 175.872 368.184 175.584 368.184 175.328C368.184 174.88 368.44 174.464 368.856 174.272ZM397.208 187.68C398.072 187.936 398.776 188.192 399.512 188.512C402.072 189.6 404.952 191.2 407.192 193.152C407.544 193.504 407.736 193.92 407.736 194.304C407.736 194.592 407.64 194.88 407.448 195.136C407.16 195.52 406.744 195.712 406.328 195.712C405.976 195.712 405.656 195.584 405.368 195.328C403.416 193.536 401.048 192.096 398.84 190.976C398.392 190.784 397.88 190.528 397.368 190.304C397.4 190.752 397.4 191.264 397.4 191.68C397.4 195.648 395 197.184 390.648 197.184C386.328 197.184 383.48 195.136 383.48 192.032C383.48 188.928 386.072 186.752 391.352 186.752C392.408 186.752 393.56 186.88 394.744 187.104C394.616 185.632 394.52 184.192 394.456 182.72C393.176 182.784 391.96 182.784 390.68 182.784C388.44 182.784 386.712 182.784 384.312 182.624C383.64 182.56 383.224 182.08 383.224 181.44C383.224 181.408 383.224 181.376 383.224 181.312C383.288 180.608 383.704 180.16 384.376 180.16C384.408 180.16 384.408 180.16 384.44 180.16C386.744 180.288 388.408 180.352 390.584 180.352C391.832 180.352 393.08 180.352 394.328 180.288C394.264 179.04 394.232 177.696 394.2 176.288C393.208 176.32 392.248 176.32 391.224 176.32C388.088 176.32 385.464 176.256 383.8 176.16C383.064 176.096 382.744 175.552 382.744 174.944C382.744 174.912 382.744 174.848 382.744 174.784C382.808 174.144 383.224 173.696 383.928 173.696C383.96 173.696 383.96 173.696 383.992 173.696C385.688 173.792 388.28 173.856 391.064 173.856C392.088 173.856 393.112 173.856 394.136 173.824C394.136 172.928 394.136 171.904 394.136 170.848C394.136 170.08 394.552 169.696 395.416 169.696C396.216 169.696 396.6 170.048 396.6 170.912C396.6 171.936 396.6 172.864 396.632 173.792C399.896 173.696 402.808 173.472 405.72 173.088C405.848 173.056 405.944 173.056 406.04 173.056C406.68 173.056 407.032 173.44 407.128 174.08C407.16 174.176 407.16 174.272 407.16 174.368C407.16 174.912 406.808 175.36 406.168 175.456C403.096 175.872 400.056 176.128 396.632 176.256C396.632 177.504 396.696 178.752 396.76 180.224C399.864 180.064 402.712 179.808 405.688 179.392C405.752 179.392 405.816 179.392 405.88 179.392C406.488 179.392 406.872 179.808 406.968 180.448C406.968 180.544 406.968 180.608 406.968 180.672C406.968 181.312 406.552 181.728 405.944 181.824C402.968 182.24 400.088 182.496 396.856 182.624C396.952 184.352 397.08 185.952 397.208 187.68ZM394.872 189.632C393.656 189.28 392.344 189.088 391.16 189.088C387.576 189.088 386.04 190.208 386.04 192.064C386.04 193.792 387.896 194.72 390.488 194.72C393.496 194.72 394.936 193.888 394.904 190.976C394.904 190.528 394.904 190.08 394.872 189.632ZM429.72 186.688H429.56C428.728 189.472 426.776 190.4 424.248 190.4C420.92 190.4 418.552 188.128 418.552 184.928C418.552 181.568 421.208 179.2 424.856 179.2C426.424 179.2 427.736 179.712 428.664 180.672C428.632 179.52 428.632 177.888 428.632 176.384C423.928 176.48 419.032 176.672 414.392 176.96C414.36 176.96 414.296 176.96 414.264 176.96C413.528 176.96 413.112 176.448 413.08 175.712C413.08 175.68 413.08 175.648 413.08 175.648C413.08 174.976 413.496 174.464 414.232 174.432C418.744 174.176 423.736 174.016 428.6 173.92C428.6 172.8 428.568 171.68 428.568 170.72C428.568 170.016 428.984 169.568 429.784 169.568C430.712 169.568 431.128 169.952 431.128 170.784C431.128 171.68 431.128 172.736 431.128 173.888C432.856 173.856 434.552 173.824 436.184 173.824C437.336 173.824 438.488 173.824 439.576 173.856C440.44 173.856 440.888 174.272 440.888 175.136C440.888 175.168 440.888 175.2 440.888 175.232C440.888 176 440.44 176.352 439.704 176.352C437.816 176.32 435.832 176.288 433.752 176.288C432.888 176.288 432.024 176.288 431.128 176.32C431.128 178.464 431.128 180.736 431.128 182.944C431.768 184.256 432.056 185.632 432.056 187.136C432.056 191.296 430.264 193.984 426.872 195.776C425.432 196.544 423.704 197.12 421.784 197.472C421.688 197.504 421.592 197.504 421.464 197.504C420.824 197.504 420.312 197.152 420.184 196.448C420.152 196.32 420.152 196.192 420.152 196.096C420.152 195.424 420.536 194.944 421.176 194.816C426.904 193.76 429.72 191.072 429.72 187.296V186.688ZM428.44 184.224C428.44 182.496 427.064 181.344 425.016 181.344C422.84 181.344 421.176 182.784 421.176 184.8C421.176 186.944 422.648 188.064 424.664 188.064C426.904 188.064 428.44 186.496 428.44 184.224ZM446.877 188.416C449.629 188.416 451.869 190.656 451.869 193.408C451.869 196.16 449.629 198.4 446.877 198.4C444.125 198.4 441.885 196.16 441.885 193.408C441.885 190.656 444.125 188.416 446.877 188.416ZM446.877 190.432C445.277 190.432 443.901 191.808 443.901 193.408C443.901 195.008 445.277 196.384 446.877 196.384C448.477 196.384 449.853 195.008 449.853 193.408C449.853 191.808 448.477 190.432 446.877 190.432Z" fill="black"/>
<defs>
<clipPath id="clip0_417_3">
<rect width="616" height="264" fill="white"/>
</clipPath>
</defs>
</svg>
