<svg width="432" height="164" viewBox="0 0 432 164" fill="none" xmlns="http://www.w3.org/2000/svg">
<g clip-path="url(#clip0_417_2)">
<path d="M54.4983 85.8381V24.395C54.4983 11.2408 69.1902 0.569443 87.3354 0.569443H398.378C416.523 0.569443 431.215 11.2294 431.215 24.395V139.616C431.215 152.771 416.523 163.442 398.378 163.442H87.3197C69.1902 163.442 54.4826 152.782 54.4826 139.616L53.6978 128.706V128.022C51.1706 109.459 9.52768 116.611 1.20853 121.28C0.973083 121.406 0.659149 121.235 0.784729 121.041C7.42438 110.894 50.6526 97.6028 54.4826 84.8472" fill="#FFFAE3"/>
<path d="M54.4983 85.8381V24.395C54.4983 11.2408 69.1902 0.569443 87.3354 0.569443H398.378C416.523 0.569443 431.215 11.2294 431.215 24.395V139.616C431.215 152.771 416.523 163.442 398.378 163.442H87.3197C69.1902 163.442 54.4826 152.782 54.4826 139.616L53.6978 128.706V128.022C51.1706 109.459 9.52769 116.611 1.20852 121.28C0.973074 121.406 0.659161 121.235 0.784733 121.041C7.42437 110.894 50.6526 97.6028 54.4826 84.8472" stroke="#141414" stroke-miterlimit="10"/>
</g>
<path d="M98.896 54.832H104.912C106.576 54.832 107.504 55.664 107.504 56.848C107.504 57.36 107.312 57.936 106.928 58.576C105.36 61.168 103.12 63.536 100.432 65.584C103.664 67.6 107.472 69.008 111.44 69.776C112.112 69.904 112.464 70.32 112.464 70.928C112.464 71.088 112.432 71.248 112.4 71.408C112.24 72.144 111.76 72.528 111.12 72.528C110.96 72.528 110.832 72.496 110.672 72.464C106.288 71.536 101.968 69.712 98.32 67.088C94.512 69.552 90.096 71.408 85.488 72.432C85.328 72.464 85.168 72.464 85.04 72.464C84.4 72.464 83.888 72.144 83.728 71.472C83.696 71.312 83.664 71.184 83.664 71.056C83.664 70.416 84.048 69.936 84.72 69.808C88.784 68.976 92.752 67.472 96.208 65.456C94.448 63.92 92.848 62.16 91.536 60.208C90.864 59.216 90.352 58.16 89.84 57.072H86.608C86.032 57.072 85.712 56.624 85.712 55.952C85.712 55.28 86.032 54.832 86.608 54.832H96.464V50.096H84.72C84.144 50.096 83.76 49.616 83.76 48.912C83.76 48.208 84.144 47.728 84.72 47.728H96.464V43.92C96.464 43.344 96.912 42.96 97.68 42.96C98.48 42.96 98.896 43.344 98.896 43.92V47.728H111.28C111.888 47.728 112.24 48.208 112.24 48.912C112.24 49.616 111.888 50.096 111.28 50.096H98.896V54.832ZM103.856 57.072H92.496C93.808 59.888 95.888 62.192 98.288 64.112C100.784 62.352 102.896 60.272 104.368 57.968C104.496 57.744 104.56 57.584 104.56 57.456C104.56 57.2 104.336 57.072 103.856 57.072ZM130.704 61.072H140.272C141.712 61.072 142.48 61.68 142.48 62.576C142.48 63.088 142.256 63.664 141.776 64.304C140.72 65.744 139.344 67.024 137.808 68.144C139.728 69.104 141.84 69.84 144.24 70.416C144.816 70.512 145.104 70.896 145.104 71.44C145.104 71.568 145.072 71.728 145.04 71.888C144.88 72.496 144.496 72.784 143.984 72.784C143.856 72.784 143.728 72.752 143.568 72.72C140.656 71.888 138.064 70.832 135.792 69.456C133.392 70.864 130.704 71.92 128.08 72.592C127.888 72.624 127.728 72.656 127.568 72.656C127.088 72.656 126.768 72.432 126.544 71.888C126.512 71.728 126.48 71.6 126.48 71.472C126.48 71.024 126.768 70.64 127.28 70.512C129.584 69.936 131.792 69.136 133.776 68.112C132.208 66.928 130.8 65.488 129.648 63.856C128.24 66.992 126.32 69.712 124.08 71.824C123.824 72.08 123.504 72.208 123.184 72.208C122.928 72.208 122.64 72.112 122.416 71.888C122.16 71.632 122 71.312 122 71.024C122 70.736 122.128 70.448 122.384 70.224C125.584 67.408 127.92 63.408 129.04 58.608H125.712C125.232 58.608 124.944 58.16 124.944 57.584C124.944 57.008 125.232 56.56 125.712 56.56H129.456C129.584 55.76 129.68 54.928 129.712 54.096H126.064C125.584 54.096 125.296 53.68 125.296 53.104C125.296 52.592 125.584 52.176 126.064 52.176H137.776C138.992 50.384 139.792 48.688 140.432 47.184C140.624 46.704 141.008 46.448 141.424 46.448C141.584 46.448 141.776 46.48 141.936 46.544C142.448 46.768 142.736 47.088 142.736 47.504C142.736 47.664 142.704 47.856 142.608 48.016C142.032 49.232 141.2 50.672 140.144 52.176H143.344C143.824 52.176 144.112 52.56 144.112 53.104C144.112 53.68 143.824 54.096 143.344 54.096H132.08C132.016 54.928 131.92 55.728 131.792 56.56H143.92C144.4 56.56 144.688 57.008 144.688 57.584C144.688 58.16 144.4 58.608 143.92 58.608H131.408C131.184 59.44 130.96 60.272 130.704 61.072ZM139.216 62.992H131.376C132.656 64.528 134.096 65.872 135.76 66.96C137.296 66 138.608 64.848 139.568 63.6C139.696 63.44 139.76 63.312 139.76 63.216C139.76 63.056 139.6 62.992 139.216 62.992ZM121.488 49.232H123.696C124.24 49.232 124.56 49.68 124.56 50.32C124.56 50.992 124.24 51.44 123.696 51.44H121.488V57.008C122 56.752 122.48 56.528 122.928 56.272C123.088 56.176 123.28 56.144 123.44 56.144C123.792 56.144 124.112 56.368 124.272 56.752C124.368 56.944 124.4 57.136 124.4 57.328C124.4 57.712 124.24 58.064 123.76 58.32C123.088 58.704 122.32 59.088 121.488 59.472V69.584C121.488 71.536 120.688 72.368 118.576 72.368C117.808 72.368 117.008 72.272 116.464 72.144C115.952 72.016 115.632 71.664 115.632 71.088C115.632 70.992 115.632 70.864 115.664 70.736C115.792 70.192 116.176 69.936 116.528 69.936C116.592 69.936 116.624 69.936 116.688 69.968C117.136 70.064 117.776 70.16 118.224 70.16C118.992 70.16 119.152 70.032 119.152 69.168V60.496C118.192 60.88 117.264 61.232 116.4 61.552C116.24 61.584 116.08 61.616 115.952 61.616C115.504 61.616 115.184 61.328 114.992 60.752C114.928 60.56 114.896 60.4 114.896 60.24C114.896 59.76 115.152 59.408 115.632 59.28C116.752 58.928 117.968 58.512 119.152 58.032V51.44H116.016C115.408 51.44 115.12 50.992 115.12 50.352C115.12 49.712 115.408 49.232 116.016 49.232H119.152V43.824C119.152 43.216 119.6 42.896 120.336 42.896C121.072 42.896 121.488 43.216 121.488 43.824V49.232ZM141.936 43.12C142.032 43.088 142.128 43.088 142.256 43.088C142.736 43.088 143.088 43.408 143.216 43.92C143.248 44.08 143.28 44.208 143.28 44.368C143.28 44.848 142.992 45.2 142.448 45.328C137.328 46.512 131.056 46.992 125.584 47.088C124.848 47.088 124.528 46.64 124.528 46.032C124.528 46 124.528 46 124.528 45.968C124.528 45.392 124.912 44.944 125.456 44.944C130.704 44.912 137.04 44.336 141.936 43.12ZM127.376 47.728C127.568 47.632 127.76 47.6 127.92 47.6C128.304 47.6 128.592 47.792 128.88 48.176C129.296 48.752 129.712 49.552 129.968 50.224C130 50.384 130.032 50.544 130.032 50.672C130.032 51.088 129.776 51.376 129.296 51.568C129.136 51.632 128.944 51.664 128.816 51.664C128.368 51.664 128.016 51.44 127.856 50.992C127.632 50.384 127.216 49.616 126.864 49.008C126.768 48.848 126.736 48.688 126.736 48.56C126.736 48.176 126.96 47.856 127.376 47.728ZM133.136 47.312C133.296 47.28 133.456 47.248 133.616 47.248C134.032 47.248 134.352 47.44 134.576 47.792C135.056 48.528 135.44 49.392 135.632 50.096C135.664 50.288 135.696 50.416 135.696 50.576C135.696 51.024 135.44 51.344 134.96 51.472C134.8 51.536 134.608 51.568 134.48 51.568C134.064 51.568 133.744 51.344 133.584 50.864C133.392 50.224 132.976 49.36 132.592 48.688C132.496 48.496 132.432 48.336 132.432 48.176C132.432 47.792 132.688 47.472 133.136 47.312ZM162 52.944H164.976C168.016 50.64 170.48 48.016 172.656 45.072C172.912 44.752 173.232 44.56 173.616 44.56C173.84 44.56 174.096 44.624 174.32 44.784C174.736 45.008 174.896 45.392 174.896 45.776C174.896 46.064 174.8 46.32 174.608 46.544C172.624 48.944 170.64 50.992 168.368 52.944H175.664C176.24 52.944 176.592 53.392 176.592 54.064C176.592 54.736 176.24 55.184 175.664 55.184H165.552C163.792 56.464 161.808 57.584 159.792 58.416C160.944 58.256 162.096 58.224 163.248 58.224H170.064C172.048 58.224 172.88 58.928 172.88 60.656V69.52C172.88 71.248 172.048 71.952 170.064 71.952H156.944C154.928 71.952 154.128 71.248 154.128 69.52V64.848C154.128 63.92 154.256 62.672 154.384 61.584C152.56 62.512 150.704 63.28 148.88 63.92C148.688 63.984 148.496 64.016 148.336 64.016C147.824 64.016 147.408 63.728 147.216 63.184C147.152 63.024 147.12 62.864 147.12 62.704C147.12 62.192 147.44 61.744 148.016 61.584C151.856 60.432 157.296 57.936 161.712 55.184H148.624C148.048 55.184 147.696 54.736 147.696 54.064C147.696 53.424 148.048 52.944 148.624 52.944H159.6V49.168H151.632C151.088 49.168 150.736 48.752 150.736 48.08C150.736 47.44 151.088 46.992 151.632 46.992H159.6V43.888C159.6 43.312 160.048 42.96 160.816 42.96C161.52 42.96 162 43.312 162 43.888V46.992H167.632C168.176 46.992 168.56 47.472 168.56 48.112C168.56 48.752 168.176 49.168 167.536 49.168H162V52.944ZM156.56 63.792H170.448V61.072C170.448 60.432 170.16 60.272 169.52 60.272H157.456C156.848 60.272 156.56 60.432 156.56 61.072V63.792ZM156.56 65.84V69.008C156.56 69.648 156.848 69.84 157.456 69.84H169.52C170.16 69.84 170.448 69.648 170.448 69.008V65.84H156.56ZM192.496 53.936C195.664 52.592 199.408 51.312 202.256 50.576C202.448 50.544 202.608 50.512 202.768 50.512C203.408 50.512 203.824 50.832 204.016 51.472C204.048 51.632 204.08 51.792 204.08 51.952C204.08 52.528 203.728 53.008 202.992 53.2C199.664 54.032 195.12 55.504 191.728 57.04C187.568 58.928 185.392 61.328 185.392 63.664C185.392 66.448 187.44 67.856 194.224 67.856C197.36 67.856 200.88 67.504 203.312 66.992C203.44 66.96 203.568 66.96 203.696 66.96C204.4 66.96 204.88 67.376 204.976 68.112C205.008 68.24 205.008 68.336 205.008 68.464C205.008 69.136 204.56 69.68 203.792 69.84C201.328 70.384 197.84 70.608 194.096 70.608C186.256 70.64 182.64 68.464 182.64 63.632C182.64 60.4 185.328 57.264 189.936 55.024C188.976 52.144 188.208 48.816 187.6 45.584C187.568 45.488 187.568 45.392 187.568 45.296C187.568 44.592 188.08 44.176 188.72 44.048C188.848 44.016 188.944 44.016 189.072 44.016C189.712 44.016 190.256 44.368 190.352 45.104C190.896 48.144 191.568 51.248 192.496 53.936ZM239.44 59.248H212.528C211.856 59.248 211.472 58.512 211.472 57.84C211.472 57.136 211.856 56.464 212.528 56.464H239.44C240.112 56.464 240.496 57.136 240.496 57.84C240.496 58.512 240.112 59.248 239.44 59.248ZM262.576 55.088H255.76C255.184 55.088 254.896 54.672 254.896 54.032C254.896 53.36 255.184 52.944 255.76 52.944H260.752V49.008H256.752C256.208 49.008 255.888 48.592 255.888 47.952C255.888 47.312 256.208 46.896 256.752 46.896H260.752V44.048C260.752 43.44 261.2 43.12 261.904 43.12C262.64 43.12 263.056 43.44 263.056 44.048V46.896H266.768C267.344 46.896 267.632 47.312 267.632 47.952C267.632 48.592 267.344 49.008 266.8 49.008H263.056V52.944H264.752C266.576 50.96 268.496 48.496 270.224 45.296C270.48 44.848 270.768 44.624 271.12 44.624C271.344 44.624 271.568 44.688 271.856 44.848C272.24 45.072 272.432 45.392 272.432 45.776C272.432 46 272.368 46.256 272.208 46.48C270.64 49.04 269.168 51.12 267.632 52.944H272.048C272.624 52.944 272.944 53.328 272.944 54C272.944 54.672 272.688 55.088 272.112 55.088H265.648C265.52 55.248 265.36 55.376 265.2 55.536C264.08 56.624 262.928 57.616 261.712 58.544C262.64 58.352 263.632 58.32 265.136 58.32H268.368C270.256 58.32 271.12 58.992 271.12 60.752V69.616C271.12 71.344 270.256 72.048 268.368 72.048H260.208C258.288 72.048 257.424 71.344 257.424 69.616V65.04C257.424 63.728 257.456 62.384 257.712 61.392C257.264 61.68 256.816 61.968 256.368 62.256C256.176 62.384 255.952 62.448 255.76 62.448C255.376 62.448 255.024 62.256 254.832 61.84C254.736 61.648 254.672 61.424 254.672 61.232C254.672 60.848 254.896 60.496 255.28 60.272C257.84 58.8 260.368 57.072 262.576 55.088ZM259.728 63.952H268.816V61.072C268.816 60.496 268.496 60.304 267.92 60.304H260.656C260.048 60.304 259.728 60.496 259.728 61.072V63.952ZM259.728 66V69.232C259.728 69.808 260.048 70 260.656 70H267.92C268.496 70 268.816 69.808 268.816 69.232V66H259.728ZM248.656 71.888V59.056C247.12 59.152 245.616 59.248 244.176 59.28C244.144 59.28 244.144 59.28 244.112 59.28C243.504 59.28 243.152 58.864 243.152 58.16C243.152 58.128 243.152 58.096 243.152 58.096C243.152 57.488 243.504 57.104 244.112 57.104C244.752 57.104 245.424 57.104 246.128 57.072C246.8 56.144 247.472 55.184 248.112 54.224C246.832 52.528 245.104 50.672 243.728 49.424C243.504 49.2 243.408 48.944 243.408 48.688C243.408 48.4 243.504 48.144 243.696 47.92C243.952 47.632 244.24 47.472 244.56 47.472C244.752 47.472 244.944 47.536 245.136 47.696C245.424 47.952 245.712 48.24 246.032 48.56C247.088 47.024 248.048 45.136 248.688 43.6C248.88 43.184 249.168 42.992 249.552 42.992C249.712 42.992 249.904 43.024 250.096 43.088C250.512 43.248 250.8 43.568 250.8 43.984C250.8 44.144 250.768 44.304 250.672 44.496C249.872 46.224 248.784 48.208 247.472 50.128C248.112 50.864 248.752 51.6 249.328 52.368C250.512 50.512 251.568 48.688 252.336 47.152C252.56 46.736 252.88 46.544 253.264 46.544C253.424 46.544 253.616 46.576 253.808 46.672C254.256 46.864 254.48 47.216 254.48 47.6C254.48 47.76 254.416 47.952 254.32 48.144C252.784 50.928 250.576 54.384 248.56 56.976C249.488 56.944 250.416 56.848 251.312 56.784C251.824 56.752 252.304 56.688 252.816 56.656C252.56 56.016 252.24 55.344 251.92 54.768C251.824 54.608 251.792 54.448 251.792 54.288C251.792 53.936 252.016 53.616 252.336 53.424C252.528 53.328 252.72 53.296 252.88 53.296C253.232 53.296 253.52 53.488 253.68 53.776C254.416 55.12 255.248 57.04 255.632 58.16C255.728 58.448 255.76 58.64 255.76 58.832C255.76 59.248 255.536 59.504 255.152 59.664C254.96 59.76 254.768 59.792 254.608 59.792C254.192 59.792 253.872 59.536 253.68 58.96C253.648 58.864 253.584 58.736 253.552 58.608C252.784 58.672 252.048 58.768 251.28 58.832C251.152 58.832 251.024 58.864 250.896 58.864V71.888C250.896 72.432 250.48 72.72 249.776 72.72C249.136 72.72 248.656 72.432 248.656 71.888ZM246.064 61.072C246.608 61.104 247.088 61.392 247.088 61.968C247.088 62 247.088 62 247.088 62.032C246.896 64.496 246.352 67.728 245.552 69.84C245.392 70.288 244.912 70.544 244.464 70.544C244.336 70.544 244.208 70.512 244.08 70.48C243.6 70.32 243.248 69.968 243.248 69.52C243.248 69.424 243.28 69.296 243.312 69.168C244.176 67.152 244.688 64.208 244.912 61.808C244.944 61.328 245.424 61.072 245.968 61.072C246 61.072 246.032 61.072 246.064 61.072ZM252.944 61.008C253.104 60.976 253.232 60.944 253.36 60.944C253.776 60.944 254 61.2 254.192 61.776C254.672 63.376 255.088 65.648 255.344 67.632C255.344 67.664 255.344 67.728 255.344 67.76C255.344 68.272 254.928 68.56 254.384 68.624C254.288 68.656 254.224 68.656 254.16 68.656C253.68 68.656 253.264 68.4 253.2 67.824C253.008 66 252.624 63.856 252.24 62.224C252.208 62.064 252.176 61.936 252.176 61.84C252.176 61.392 252.464 61.136 252.944 61.008ZM281.52 44.464C282.16 44.56 282.608 44.944 282.608 45.552C282.608 45.68 282.576 45.808 282.544 45.968C281.392 50.224 280.784 55.28 280.784 59.952C280.784 63.12 281.072 66.512 281.616 69.488C281.648 69.648 281.648 69.808 281.648 69.968C281.648 70.704 281.232 71.088 280.56 71.248C280.432 71.28 280.304 71.28 280.208 71.28C279.6 71.28 279.12 70.928 278.96 70.064C278.352 67.12 278.064 63.664 278.064 60.08C278.064 55.088 278.672 49.904 279.888 45.392C280.08 44.72 280.592 44.432 281.168 44.432C281.296 44.432 281.392 44.432 281.52 44.464ZM300.592 47.888C300.688 47.888 300.752 47.888 300.848 47.888C301.648 47.888 302.064 48.336 302.16 49.072C302.16 49.104 302.16 49.136 302.16 49.168C302.16 49.904 301.84 50.512 300.912 50.608C298.224 50.928 294.384 51.088 290.896 51.088C289.712 51.088 288.56 51.056 287.504 51.024C286.512 50.992 286.16 50.352 286.16 49.616C286.192 48.912 286.64 48.272 287.472 48.272C287.504 48.272 287.504 48.272 287.536 48.272C288.56 48.304 289.712 48.336 290.896 48.336C294.288 48.336 298 48.176 300.592 47.888ZM289.52 58.192C289.808 58.48 289.936 58.768 289.936 59.056C289.936 59.376 289.776 59.664 289.52 59.92C288.176 61.2 287.664 62.416 287.664 63.632C287.664 65.616 289.392 66.64 293.872 66.64C296.624 66.64 299.568 66.352 301.744 65.872C301.872 65.84 302 65.84 302.128 65.84C302.768 65.84 303.248 66.256 303.376 66.896C303.408 67.024 303.408 67.12 303.408 67.248C303.408 67.888 303.024 68.496 302.32 68.624C299.952 69.104 297.136 69.328 294.192 69.328C288.304 69.328 285.168 67.664 285.168 63.632C285.168 61.68 285.968 59.856 287.6 58.32C287.952 58 288.336 57.84 288.688 57.84C288.976 57.84 289.264 57.968 289.52 58.192ZM308.272 64.304C308.56 64.048 308.912 63.92 309.264 63.92C309.616 63.92 309.968 64.048 310.288 64.304C312.048 65.68 314.288 68.08 315.6 70.032C315.824 70.352 315.92 70.672 315.92 70.992C315.92 71.376 315.728 71.76 315.344 72.048C315.056 72.272 314.704 72.4 314.352 72.4C313.904 72.4 313.456 72.176 313.168 71.728C311.952 70 309.968 67.728 308.112 66.16C307.888 65.968 307.76 65.68 307.76 65.36C307.76 65.008 307.952 64.592 308.272 64.304ZM99.248 97.4V116.376C99.248 117.208 98.576 117.592 97.808 117.592C97.04 117.592 96.496 117.208 96.496 116.376V97.4H85.776C85.104 97.4 84.656 96.856 84.656 96.12C84.656 95.416 85.104 94.808 85.776 94.808H96.496V91.064C96.496 90.232 97.04 89.848 97.808 89.848C98.576 89.848 99.248 90.232 99.248 91.064V94.808H110.544C111.216 94.808 111.664 95.416 111.664 96.12C111.664 96.856 111.216 97.4 110.544 97.4H99.248ZM88.944 101.752C89.072 101.016 89.584 100.664 90.192 100.664C90.32 100.664 90.48 100.696 90.64 100.728C91.248 100.824 91.696 101.304 91.696 102.008C91.696 102.136 91.664 102.232 91.664 102.36C90.768 106.712 89.04 110.968 86.896 114.008C86.576 114.488 86.096 114.712 85.648 114.712C85.36 114.712 85.104 114.648 84.88 114.488C84.432 114.232 84.208 113.816 84.208 113.368C84.208 113.08 84.304 112.76 84.496 112.504C86.576 109.688 88.208 105.624 88.944 101.752ZM105.232 100.728C105.36 100.696 105.488 100.696 105.616 100.696C106.224 100.696 106.768 101.016 106.928 101.784C107.696 105.688 109.328 109.624 111.632 112.472C111.792 112.728 111.888 113.048 111.888 113.336C111.888 113.816 111.664 114.264 111.312 114.488C111.024 114.648 110.736 114.744 110.448 114.744C110 114.744 109.584 114.52 109.232 114.04C107.056 111.128 105.104 106.68 104.24 102.36C104.208 102.232 104.176 102.104 104.176 101.976C104.176 101.304 104.624 100.824 105.232 100.728ZM110.096 87.096C112.08 87.096 113.712 88.696 113.712 90.68C113.712 92.696 112.08 94.296 110.096 94.296C108.08 94.296 106.448 92.696 106.448 90.68C106.448 88.696 108.08 87.096 110.096 87.096ZM110.096 88.568C108.912 88.568 107.952 89.528 107.952 90.68C107.952 91.832 108.912 92.824 110.096 92.824C111.248 92.824 112.208 91.832 112.208 90.68C112.208 89.528 111.248 88.568 110.096 88.568ZM135.216 93.976L119.92 94.168C119.152 94.168 118.736 93.624 118.736 92.76C118.736 91.992 119.184 91.48 119.92 91.48L136.208 91.32C137.584 91.32 138.48 91.768 139.056 92.6C139.312 93.048 139.472 93.56 139.472 94.2C139.472 94.744 139.344 95.384 139.12 96.056C138.064 98.904 136.272 101.624 134.032 104.376C137.616 107.16 140.24 109.24 142.928 112.344C143.216 112.696 143.376 113.08 143.376 113.464C143.376 113.848 143.216 114.2 142.96 114.488C142.672 114.808 142.256 114.968 141.84 114.968C141.424 114.968 141.008 114.808 140.688 114.456C138.288 111.576 135.792 109.176 132.24 106.392C128.688 110.296 123.664 113.4 118.704 115.256C118.448 115.352 118.192 115.416 117.936 115.416C117.392 115.416 116.944 115.16 116.752 114.616C116.688 114.456 116.656 114.264 116.656 114.072C116.656 113.496 117.008 112.92 117.616 112.696C121.488 111.224 125.552 108.92 128.976 105.784C132.304 102.712 134.96 98.968 136.208 95.384C136.304 95.096 136.368 94.872 136.368 94.68C136.368 94.2 136.016 93.976 135.216 93.976ZM161.552 101.368H149.52C148.784 101.368 148.4 100.792 148.4 100.056C148.4 99.352 148.784 98.808 149.552 98.808H174.512C175.312 98.808 175.664 99.352 175.664 100.056C175.664 100.792 175.312 101.368 174.544 101.368H164.4C164.368 105.208 163.536 108.312 161.904 110.808C160.208 113.496 157.424 115.352 154.192 116.216C153.936 116.28 153.712 116.312 153.488 116.312C152.944 116.312 152.496 116.056 152.304 115.544C152.24 115.352 152.208 115.16 152.208 114.968C152.208 114.392 152.528 113.848 153.136 113.688C155.952 112.984 158.32 111.352 159.632 109.144C160.88 107.128 161.52 104.696 161.552 101.368ZM152.272 90.744H171.728C172.528 90.744 172.88 91.32 172.88 92.056C172.88 92.76 172.464 93.4 171.728 93.4H152.272C151.536 93.4 151.12 92.76 151.12 92.056C151.12 91.32 151.504 90.744 152.272 90.744ZM195.055 102.712V115.416C195.055 116.088 194.351 116.536 193.711 116.536C193.071 116.536 192.431 116.12 192.431 115.384V104.184C189.519 105.976 186.287 107.48 183.663 108.376C183.439 108.44 183.247 108.472 183.055 108.472C182.511 108.472 182.127 108.184 181.967 107.704C181.903 107.512 181.871 107.32 181.871 107.128C181.871 106.584 182.159 106.136 182.735 105.944C185.679 104.952 189.007 103.416 192.463 101.208C195.247 99.416 197.359 97.624 199.375 95.32C199.599 95.032 199.887 94.904 200.207 94.904C200.527 94.904 200.847 95.064 201.167 95.32C201.455 95.608 201.615 95.928 201.615 96.28C201.615 96.568 201.487 96.888 201.263 97.176C199.695 98.968 197.423 100.92 195.055 102.712ZM215.503 91.832C217.839 93.304 220.751 95.576 222.607 97.848C222.863 98.168 222.991 98.52 222.991 98.872C222.991 99.256 222.831 99.64 222.543 99.96C222.287 100.248 221.935 100.408 221.551 100.408C221.167 100.408 220.751 100.216 220.367 99.8C218.607 97.784 215.983 95.512 213.679 93.944C213.327 93.688 213.167 93.304 213.167 92.92C213.167 92.6 213.295 92.248 213.519 91.992C213.807 91.64 214.159 91.512 214.543 91.512C214.895 91.512 215.215 91.64 215.503 91.832ZM236.943 94.168C237.615 94.36 238.031 94.808 238.031 95.48C238.031 95.672 237.999 95.864 237.967 96.056C236.655 101.496 233.615 106.68 229.167 110.04C225.295 112.952 219.375 114.84 214.415 115.032C214.383 115.032 214.383 115.032 214.351 115.032C213.519 115.032 212.911 114.552 212.847 113.752C212.847 113.688 212.847 113.656 212.847 113.592C212.847 112.824 213.327 112.216 214.127 112.184C218.863 111.96 224.303 110.104 227.503 107.64C231.247 104.728 234.031 100.056 235.183 95.32C235.407 94.456 235.887 94.104 236.463 94.104C236.623 94.104 236.783 94.136 236.943 94.168ZM262.863 95.736L252.559 95.896C250.703 98.776 248.143 101.432 245.327 103.288C245.039 103.48 244.783 103.544 244.495 103.544C244.079 103.544 243.695 103.352 243.407 102.968C243.247 102.744 243.151 102.456 243.151 102.168C243.151 101.72 243.343 101.272 243.823 100.952C246.991 98.904 250.191 95.384 252.335 90.04C252.559 89.464 252.943 89.112 253.583 89.112C253.743 89.112 253.935 89.144 254.159 89.208C254.831 89.4 255.151 89.848 255.151 90.392C255.151 90.52 255.119 90.648 255.087 90.776C254.895 91.448 254.447 92.344 253.839 93.4L263.855 93.208C265.903 93.176 267.183 94.328 267.183 96.408C267.183 96.792 267.151 97.176 267.055 97.624C265.135 106.68 258.767 114.008 247.855 116.632C247.727 116.664 247.599 116.664 247.471 116.664C246.863 116.664 246.351 116.344 246.159 115.736C246.127 115.576 246.095 115.416 246.095 115.288C246.095 114.68 246.479 114.2 247.151 114.04C256.495 111.576 262.223 105.88 264.143 97.208C264.175 96.984 264.207 96.792 264.207 96.632C264.207 96.024 263.887 95.736 262.991 95.736H262.863ZM264.015 89.24C264.015 88.824 264.431 88.376 264.943 88.376C265.295 88.376 265.519 88.472 265.775 88.728C266.767 89.72 267.919 91.256 268.527 92.312C268.623 92.504 268.751 92.728 268.751 93.144C268.751 93.624 268.303 94.04 267.695 94.04C267.311 94.04 267.055 93.88 266.863 93.496C266.191 92.312 265.231 91 264.335 90.008C264.143 89.784 264.015 89.528 264.015 89.24ZM268.015 87.768C268.015 87.352 268.495 86.936 268.943 86.936C269.295 86.936 269.519 87.064 269.807 87.32C270.639 88.12 271.855 89.784 272.431 90.808C272.527 91 272.623 91.256 272.623 91.608C272.623 91.992 272.239 92.504 271.631 92.504C271.247 92.504 271.023 92.344 270.799 91.992C270.095 90.776 269.263 89.528 268.399 88.6C268.111 88.312 268.015 88.152 268.015 87.768ZM290.159 93.528C289.871 98.392 289.167 102.872 288.047 106.296C286.927 109.592 285.999 111.032 284.879 112.088C283.855 113.08 282.511 113.496 281.199 113.496C277.871 113.496 275.215 110.264 275.215 104.888C275.215 96.92 280.783 91.16 289.519 91.16C297.071 91.16 302.063 96.088 302.063 103.128C302.063 107.64 300.111 111.064 296.783 113.176C294.927 114.36 292.623 115.096 290.063 115.48C289.935 115.512 289.807 115.512 289.711 115.512C289.039 115.512 288.495 115.192 288.367 114.392C288.335 114.296 288.335 114.168 288.335 114.072C288.335 113.432 288.751 112.952 289.487 112.824C291.823 112.504 294.287 111.704 295.887 110.52C297.903 109.016 299.375 106.424 299.375 103.064C299.375 97.656 295.823 93.72 290.159 93.528ZM287.503 93.624C281.647 94.168 277.807 98.648 277.807 104.856C277.807 108.696 279.439 110.712 281.135 110.712C281.871 110.712 282.607 110.456 283.279 109.784C283.983 109.112 284.719 107.736 285.487 105.4C286.479 102.392 287.279 98.008 287.503 93.624ZM322.319 95H321.263C320.015 97.56 318.511 100.024 316.911 102.008C316.655 102.328 316.303 102.488 315.951 102.488C315.663 102.488 315.343 102.392 315.087 102.168C314.831 101.912 314.671 101.56 314.671 101.176C314.671 100.888 314.767 100.6 314.959 100.344C317.615 97.368 319.951 92.92 321.039 88.76C321.199 88.216 321.583 87.928 322.127 87.928C322.255 87.928 322.383 87.96 322.543 87.992C323.215 88.152 323.535 88.536 323.535 89.016C323.535 89.144 323.503 89.272 323.471 89.4C323.151 90.488 322.735 91.608 322.287 92.728H334.511C335.119 92.728 335.407 93.208 335.407 93.848C335.407 94.552 335.119 95 334.511 95H324.751V99.928H333.455C334.031 99.928 334.351 100.44 334.351 101.048C334.351 101.72 334.031 102.2 333.455 102.2H324.751V107.16H333.583C334.159 107.16 334.447 107.64 334.447 108.28C334.447 108.952 334.159 109.432 333.583 109.432H324.751V116.76C324.751 117.336 324.271 117.656 323.535 117.656C322.767 117.656 322.319 117.336 322.319 116.76V95ZM310.575 116.664V103.064C310.575 101.72 310.639 100.216 310.863 98.776C309.999 100.28 308.943 101.688 307.887 102.808C307.631 103.096 307.311 103.224 307.023 103.224C306.703 103.224 306.415 103.096 306.127 102.84C305.839 102.584 305.711 102.264 305.711 101.912C305.711 101.624 305.839 101.304 306.063 101.08C309.263 97.848 311.951 93.56 313.359 88.728C313.519 88.216 313.935 87.96 314.447 87.96C314.607 87.96 314.767 87.992 314.927 88.024C315.567 88.184 315.919 88.568 315.919 89.048C315.919 89.176 315.887 89.336 315.823 89.464C315.119 91.576 314.223 93.688 313.071 95.736V116.664C313.071 117.272 312.559 117.592 311.791 117.592C311.055 117.592 310.575 117.272 310.575 116.664ZM345.807 95.16H338.991C338.447 95.16 338.127 94.776 338.127 94.136C338.127 93.496 338.447 93.08 338.991 93.08H343.631C343.119 92.152 342.383 91.16 341.775 90.424C341.615 90.232 341.519 90.008 341.519 89.816C341.519 89.496 341.743 89.208 342.159 88.984C342.383 88.888 342.607 88.824 342.831 88.824C343.183 88.824 343.503 89.016 343.791 89.336C344.655 90.424 345.519 91.8 346.159 93.08H348.527V88.856C348.527 88.216 349.007 87.928 349.679 87.928C350.447 87.928 350.831 88.216 350.831 88.856V93.08H354.063V88.888C354.063 88.248 354.511 87.96 355.215 87.96C355.983 87.96 356.367 88.248 356.367 88.888V93.08H359.119C360.079 91.864 360.847 90.584 361.423 89.496C361.679 89.016 361.999 88.824 362.415 88.824C362.575 88.824 362.767 88.856 362.959 88.92C363.439 89.08 363.695 89.496 363.695 89.88C363.695 90.04 363.663 90.2 363.567 90.328C363.087 91.128 362.415 92.088 361.647 93.08H366.447C366.991 93.08 367.311 93.496 367.311 94.136C367.311 94.776 366.991 95.16 366.447 95.16H359.343C358.895 96.344 358.319 97.496 357.679 98.584H365.231C365.743 98.584 366.031 98.968 366.031 99.544C366.031 100.152 365.743 100.536 365.231 100.536H353.679V102.744H363.311C363.823 102.744 364.111 103.128 364.111 103.704C364.111 104.28 363.823 104.696 363.311 104.696H353.679V106.936H366.383C366.895 106.936 367.215 107.32 367.215 107.928C367.215 108.536 366.895 108.92 366.383 108.92H355.375C358.447 111.448 362.223 113.112 366.767 114.136C367.375 114.264 367.663 114.744 367.663 115.256C367.663 115.416 367.631 115.544 367.599 115.672C367.439 116.28 367.023 116.632 366.447 116.632C366.319 116.632 366.191 116.632 366.063 116.568C361.295 115.32 356.335 112.856 353.359 109.592C353.551 110.264 353.679 111.096 353.679 111.896V116.984C353.679 117.528 353.231 117.912 352.495 117.912C351.823 117.912 351.375 117.528 351.375 116.984V111.896C351.375 111.096 351.471 110.328 351.727 109.592C348.847 112.664 344.623 115.096 339.599 116.536C339.439 116.568 339.279 116.6 339.119 116.6C338.575 116.6 338.159 116.28 337.999 115.736C337.935 115.544 337.903 115.384 337.903 115.256C337.903 114.744 338.191 114.392 338.671 114.264C343.311 113.048 346.991 111.288 349.743 108.92H338.991C338.511 108.92 338.159 108.536 338.159 107.928C338.159 107.32 338.511 106.936 338.991 106.936H351.375V104.696H342.063C341.551 104.696 341.263 104.28 341.263 103.704C341.263 103.128 341.551 102.744 342.063 102.744H351.375V100.536H340.239C339.727 100.536 339.439 100.152 339.439 99.544C339.439 98.968 339.727 98.584 340.239 98.584H347.375C346.959 97.4 346.447 96.248 345.807 95.16ZM356.847 95.16H348.303C348.911 96.248 349.359 97.4 349.775 98.584H355.215C355.855 97.496 356.399 96.344 356.847 95.16ZM383.183 93.688V88.952C383.183 88.312 383.727 87.96 384.495 87.96C385.263 87.96 385.743 88.312 385.743 88.952V93.688H394.927C396.975 93.688 397.871 94.52 397.871 96.568V104.728C397.871 106.744 396.975 107.608 394.927 107.608H385.743V116.664C385.743 117.304 385.263 117.656 384.495 117.656C383.727 117.656 383.183 117.304 383.183 116.664V107.608H374.479C372.431 107.608 371.535 106.744 371.535 104.728V96.568C371.535 94.52 372.431 93.688 374.479 93.688H383.183ZM383.183 96.056H375.503C374.447 96.056 374.095 96.376 374.095 97.272V103.992C374.095 104.92 374.447 105.24 375.503 105.24H383.183V96.056ZM385.743 105.24H393.903C394.959 105.24 395.311 104.92 395.311 103.992V97.272C395.311 96.376 394.959 96.056 393.903 96.056H385.743V105.24Z" fill="black"/>
<defs>
<clipPath id="clip0_417_2">
<rect width="432" height="164" fill="white" transform="matrix(-1 0 0 1 432 0)"/>
</clipPath>
</defs>
</svg>
