<svg width="324" height="180" viewBox="0 0 324 180" fill="none" xmlns="http://www.w3.org/2000/svg">
<g clip-path="url(#clip0_237_103)">
<path d="M151.85 74.84L121.97 171.99L104 171.5L134.65 69.55L151.85 74.84Z" fill="#485E13"/>
<path d="M212.85 74.84L182.97 171.99L165 171.5L195.65 69.55L212.85 74.84Z" fill="#485E13"/>
<path d="M135.5 0H46.5V18H71.31L47.82 94.39L65.02 99.68L90.14 18H135.5V0Z" fill="#485E13"/>
<path d="M46 179.5C20.64 179.5 0 158.86 0 133.5C0 108.14 20.64 87.5 46 87.5C71.36 87.5 92 108.14 92 133.5C92 158.86 71.36 179.5 46 179.5ZM46 107.07C31.43 107.07 19.57 118.92 19.57 133.5C19.57 148.08 31.42 159.93 46 159.93C60.58 159.93 72.43 148.08 72.43 133.5C72.43 118.92 60.58 107.07 46 107.07Z" fill="#74A45E"/>
<path d="M268 179.5C242.64 179.5 222 158.86 222 133.5C222 108.14 242.64 87.5 268 87.5C293.36 87.5 314 108.14 314 133.5C314 158.86 293.36 179.5 268 179.5ZM268 107.07C253.43 107.07 241.57 118.92 241.57 133.5C241.57 148.08 253.42 159.93 268 159.93C282.58 159.93 294.43 148.08 294.43 133.5C294.43 118.92 282.58 107.07 268 107.07Z" fill="#74A45E"/>
<path d="M102 101.5C102 101.5 119.56 61.78 168.74 59.5C211.93 57.5 236.31 71.22 263.95 68.5C294.38 65.5 308.4 57.17 314.99 49.5C321.58 41.83 320.88 30.5 320.88 30.5C320.88 30.5 327.15 40.68 321.92 51.68C312.04 72.5 291.39 78.35 277.69 82.5C241.37 93.5 197.21 75.5 173.65 75.5C155.98 75.5 143.22 78.5 129.48 83.5C121.1 86.55 102.66 100.07 102 101.5Z" fill="#8EC31F"/>
<path d="M157.19 5.97021L153.84 13.5102V29.4202H151.92V17.7902L151.35 19.0802H149.17L155.02 5.97021H157.2H157.19ZM171 11.5402H163.64V15.4402H169.83V17.4402H163.64V21.3402H169.83V23.3702H163.64V29.4302H161.69V11.5402H159.82L157.61 16.4802H155.4L160.11 5.97021H162.29L160.73 9.51022H171V11.5402Z" fill="#485E13"/>
<path d="M196.79 21.2801V23.2601H189.9L196.74 27.0501V29.3801L186.91 23.9501V29.4401H184.96V24.1201L175.16 29.4701V27.1901L182.34 23.2701H175.22V21.2901H184.97V19.7301H177.2V17.7301H184.97V16.1701H176.08V14.1901H181.7L180.58 11.4201H175.35V9.3901H179.41L176.99 6.0701H179.38L181.82 9.3901H182.96V5.8501H184.91V9.3901H187.2V5.8501H189.15V9.3901H190.24L192.68 6.0701H195.1L192.66 9.3901H196.66V11.4201H191.36L190.24 14.1901H195.96V16.1701H186.91V17.7301H194.84V19.7301H186.91V21.2901H196.79V21.2801ZM182.67 11.4001L183.81 14.1701H188.1L189.22 11.4001H182.67Z" fill="#485E13"/>
<path d="M211.22 10.6602V20.2602H204.72L203.03 29.4202H201L202.79 19.8202V10.6602H211.21H211.22ZM212.08 6.84022V8.90021H201.32V6.84022H212.08ZM209.3 18.2602V12.6602H204.72V18.2602H209.3ZM223 13.8402V15.8702H220.09V29.4202H218.19V15.8702H214.55V26.2402L213.04 29.1502H210.86L212.58 25.8302V9.29022L222.41 6.22021V8.33021L214.56 10.7702V13.8402H223.01H223Z" fill="#485E13"/>
<path d="M240.5 10.8099C242.93 9.34988 245.51 8.03988 246.91 7.21988C248.04 6.54988 248.9 6.02988 249.67 5.35988L251.72 8.88988C250.83 9.43988 249.88 9.95988 248.78 10.5399C246.94 11.4799 243.2 13.2499 240.5 15.0499C238.04 16.7299 236.38 18.4599 236.38 20.5899C236.38 22.7199 238.43 23.9399 242.55 23.9399C245.61 23.9399 249.61 23.4799 252.25 22.8099L252.19 27.1999C249.67 27.6599 246.52 27.9599 242.67 27.9599C236.77 27.9599 232.29 26.2799 232.29 21.0499C232.29 17.6999 234.37 15.1699 237.21 13.0099C235.85 10.4199 234.42 7.15988 233.09 3.92988L236.8 2.37988C237.93 5.54988 239.32 8.46988 240.51 10.8199L240.5 10.8099Z" fill="#74A45E"/>
<path d="M264.05 12.9398C266.07 12.2998 271.11 10.5598 274.7 10.5598C279.39 10.5598 282.53 13.4198 282.53 18.0198C282.53 23.5298 277.81 27.2798 268.38 27.8898L266.81 24.1398C273.6 23.9598 278.59 22.0998 278.59 17.9598C278.59 15.6798 276.93 14.0898 274.35 14.0898C270.91 14.0898 264.98 16.6198 262.45 17.7098L260.91 13.7498C261.8 13.5698 263.16 13.1998 264.05 12.9298V12.9398Z" fill="#74A45E"/>
<path d="M299.83 10.8099C302.26 9.34988 304.84 8.03988 306.24 7.21988C307.37 6.54988 308.23 6.02988 309 5.35988L311.05 8.88988C310.16 9.43988 309.21 9.95988 308.11 10.5399C306.27 11.4799 302.53 13.2499 299.83 15.0499C297.37 16.7299 295.71 18.4599 295.71 20.5899C295.71 22.7199 297.76 23.9399 301.88 23.9399C304.94 23.9399 308.94 23.4799 311.58 22.8099L311.52 27.1999C309 27.6599 305.85 27.9599 302 27.9599C296.1 27.9599 291.62 26.2799 291.62 21.0499C291.62 17.6999 293.7 15.1699 296.54 13.0099C295.18 10.4199 293.75 7.15988 292.42 3.92988L296.13 2.37988C297.26 5.54988 298.65 8.46988 299.84 10.8199L299.83 10.8099Z" fill="#74A45E"/>
</g>
<defs>
<clipPath id="clip0_237_103">
<rect width="324" height="179.5" fill="white"/>
</clipPath>
</defs>
</svg>
