<svg width="228" height="65" viewBox="0 0 228 65" fill="none" xmlns="http://www.w3.org/2000/svg">
<path d="M30.208 32.648V33.992C30.208 34.216 30.176 34.248 29.952 34.248C29.792 34.248 28.832 34.184 25.888 34.184H20.288V38.952H25.28C27.552 38.952 28.256 38.92 28.416 38.92C28.64 38.92 28.672 38.952 28.672 39.144V40.488C28.672 40.712 28.64 40.744 28.416 40.744C28.256 40.744 27.552 40.68 25.28 40.68H20.288V45.544H25.28C27.616 45.544 28.32 45.48 28.512 45.48C28.736 45.48 28.768 45.512 28.768 45.736V47.08C28.768 47.304 28.736 47.336 28.512 47.336C28.32 47.336 27.616 47.272 25.28 47.272H20.288V50.056C20.288 53.384 20.352 54.888 20.352 55.048C20.352 55.24 20.32 55.272 20.096 55.272H18.56C18.336 55.272 18.304 55.24 18.304 55.048C18.304 54.856 18.368 53.384 18.368 50.056V34.184H15.744C14.656 36.296 13.28 38.504 11.776 40.296C11.584 40.552 11.488 40.68 11.36 40.68C11.264 40.68 11.168 40.552 11.008 40.296C10.688 39.848 10.368 39.56 10.048 39.368C12.768 36.232 15.2 31.656 16.128 28.68C16.384 27.848 16.512 27.08 16.544 26.44C17.344 26.632 17.92 26.792 18.496 27.016C18.752 27.112 18.912 27.208 18.912 27.368C18.912 27.56 18.848 27.688 18.656 27.848C18.464 28.008 18.24 28.424 17.984 29.16C17.632 30.152 17.152 31.272 16.608 32.456H25.888C28.832 32.456 29.792 32.392 29.952 32.392C30.176 32.392 30.208 32.424 30.208 32.648ZM6.432 49.96V41.64C6.432 40.392 6.464 38.504 6.496 36.904C5.472 38.472 4.32 40.008 2.976 41.416C2.784 41.608 2.688 41.704 2.592 41.704C2.496 41.704 2.4 41.608 2.304 41.384C1.984 40.744 1.728 40.392 1.408 40.104C4.992 36.52 7.296 32.296 8.64 28.456C8.928 27.688 9.056 26.92 9.12 26.312C9.92 26.536 10.528 26.728 11.072 26.984C11.328 27.112 11.424 27.208 11.424 27.368C11.424 27.528 11.36 27.624 11.168 27.784C10.976 27.944 10.784 28.264 10.528 29C9.888 30.6 9.184 32.2 8.352 33.768V49.96C8.352 53.32 8.416 54.792 8.416 54.952C8.416 55.176 8.384 55.208 8.192 55.208H6.624C6.4 55.208 6.368 55.176 6.368 54.952C6.368 54.792 6.432 53.32 6.432 49.96ZM57.472 46.984H50.176C53.248 49.448 56.928 51.08 62.4 52.36C62.112 52.648 61.824 53.064 61.568 53.512C61.248 54.12 61.248 54.12 60.64 53.928C55.52 52.52 51.84 50.6 48.608 47.592C48.608 52.424 48.768 54.44 48.768 54.984C48.768 55.208 48.736 55.24 48.512 55.24H46.976C46.752 55.24 46.72 55.208 46.72 54.984C46.72 54.44 46.848 52.488 46.88 47.656C43.712 50.792 40.192 52.552 35.296 54.088C34.72 54.28 34.656 54.28 34.368 53.704C34.144 53.256 33.856 52.904 33.504 52.616C38.752 51.24 42.56 49.544 45.28 46.984H38.624C35.584 46.984 34.592 47.048 34.432 47.048C34.176 47.048 34.144 47.016 34.144 46.792V45.64C34.144 45.416 34.176 45.384 34.432 45.384C34.592 45.384 35.584 45.448 38.624 45.448H46.816V42.888H42.048C38.784 42.888 37.664 42.952 37.504 42.952C37.28 42.952 37.248 42.92 37.248 42.728V41.608C37.248 41.352 37.28 41.32 37.504 41.32C37.664 41.32 38.784 41.384 42.048 41.384H46.816V38.92H40.48C37.28 38.92 36.224 38.984 36.064 38.984C35.808 38.984 35.776 38.952 35.776 38.728V37.576C35.776 37.352 35.808 37.32 36.064 37.32C36.224 37.32 37.28 37.384 40.48 37.384H43.04C42.656 36.296 42.176 35.336 41.696 34.632C41.536 34.408 41.6 34.344 41.952 34.216L42.784 33.928C43.104 33.8 43.168 33.8 43.296 33.992C43.904 34.856 44.48 36.072 44.992 37.384H50.912C51.36 36.648 51.68 35.976 52.096 35.048C52.256 34.664 52.352 34.312 52.48 33.768C53.056 33.896 53.536 34.024 54.176 34.216C54.368 34.28 54.528 34.408 54.528 34.568C54.528 34.728 54.368 34.856 54.24 34.952C54.08 35.08 53.92 35.368 53.792 35.624C53.504 36.168 53.184 36.712 52.736 37.384H55.52C58.752 37.384 59.776 37.32 59.968 37.32C60.192 37.32 60.224 37.352 60.224 37.576V38.728C60.224 38.952 60.192 38.984 59.968 38.984C59.776 38.984 58.752 38.92 55.52 38.92H48.672V41.384H54.08C57.344 41.384 58.432 41.32 58.624 41.32C58.848 41.32 58.88 41.352 58.88 41.608V42.728C58.88 42.92 58.848 42.952 58.624 42.952C58.432 42.952 57.344 42.888 54.08 42.888H48.672V45.448H57.472C60.512 45.448 61.504 45.384 61.696 45.384C61.92 45.384 61.952 45.416 61.952 45.64V46.792C61.952 47.016 61.92 47.048 61.696 47.048C61.504 47.048 60.512 46.984 57.472 46.984ZM61.952 32.104V33.256C61.952 33.48 61.92 33.512 61.696 33.512C61.504 33.512 60.512 33.448 57.472 33.448H38.624C35.584 33.448 34.592 33.512 34.432 33.512C34.176 33.512 34.144 33.48 34.144 33.256V32.104C34.144 31.848 34.176 31.816 34.432 31.816C34.592 31.816 35.584 31.88 38.624 31.88H39.744C39.04 30.472 38.336 29.448 37.472 28.488C37.344 28.328 37.344 28.232 37.664 28.072L38.528 27.624C38.752 27.496 38.848 27.496 38.976 27.656C39.776 28.52 40.576 29.672 41.28 30.888C41.376 31.08 41.344 31.144 41.088 31.304L40.032 31.88H44.256V29.48C44.256 28.328 44.256 27.4 44.064 26.568C44.736 26.6 45.504 26.664 46.016 26.728C46.208 26.76 46.336 26.856 46.336 27.016C46.336 27.176 46.304 27.272 46.208 27.464C46.08 27.688 46.016 28.264 46.016 29.48V31.88H49.44V29.512C49.44 28.36 49.44 27.432 49.216 26.6C49.888 26.632 50.688 26.696 51.2 26.76C51.392 26.792 51.52 26.888 51.52 27.048C51.52 27.176 51.456 27.304 51.392 27.464C51.296 27.72 51.2 28.264 51.2 29.48V31.88H54.176C54.88 30.888 55.424 29.928 55.968 28.872C56.192 28.424 56.384 27.976 56.48 27.368C57.12 27.528 57.824 27.784 58.304 27.976C58.496 28.04 58.624 28.168 58.624 28.296C58.624 28.488 58.56 28.584 58.368 28.712C58.144 28.872 57.984 29.096 57.824 29.352C57.312 30.184 56.736 31.048 56.128 31.88H57.472C60.512 31.88 61.504 31.816 61.696 31.816C61.92 31.816 61.952 31.848 61.952 32.104ZM94.496 37.512V38.856C94.496 39.08 94.464 39.112 94.24 39.112C94.112 39.112 93.184 39.048 90.336 39.048H90.08V50.952C90.08 53.672 90.144 54.824 90.144 54.984C90.144 55.208 90.112 55.24 89.888 55.24H88.384C88.16 55.24 88.128 55.208 88.128 54.984C88.128 54.824 88.192 53.672 88.192 50.952V39.048H83.168C83.168 42.952 82.976 45.288 82.08 48.04C81.216 50.536 79.936 52.52 77.984 54.376C77.76 54.6 77.632 54.728 77.504 54.728C77.408 54.728 77.312 54.6 77.12 54.376C76.768 53.96 76.352 53.672 75.904 53.448C78.08 51.752 79.584 49.672 80.384 46.952C80.928 45.16 81.28 43.176 81.28 38.952V33.992C81.28 32.136 81.248 30.984 81.088 29.832C81.824 29.96 82.464 30.152 83.168 30.472C85.472 29.992 88.128 29.096 90.272 27.944C90.912 27.592 91.36 27.272 91.808 26.856C92.352 27.24 92.896 27.752 93.28 28.232C93.44 28.424 93.472 28.52 93.472 28.68C93.472 28.808 93.28 28.936 93.056 28.968C92.704 29 92.384 29.128 91.904 29.352C88.832 30.664 86.016 31.624 83.168 32.264V37.32H90.336C93.184 37.32 94.112 37.256 94.24 37.256C94.464 37.256 94.496 37.288 94.496 37.512ZM78.176 37.192V41.512C78.176 43.56 78.24 44.232 78.24 44.424C78.24 44.648 78.208 44.68 77.984 44.68H76.544C76.32 44.68 76.288 44.648 76.288 44.424V43.176H69.984C69.856 47.528 69.248 50.984 67.2 54.312C67.04 54.6 66.944 54.76 66.816 54.76C66.72 54.76 66.592 54.632 66.4 54.408C66.048 53.992 65.632 53.704 65.248 53.544C68.16 49.8 68.192 44.744 68.192 39.368C68.192 35.88 68.128 34.376 68.128 34.216C68.128 33.992 68.16 33.96 68.384 33.96C68.544 33.96 69.248 34.024 71.52 34.024H74.88C77.12 34.024 77.824 33.96 77.984 33.96C78.208 33.96 78.24 33.992 78.24 34.216C78.24 34.376 78.176 35.144 78.176 37.192ZM76.288 41.48V35.72H70.048V39.464C70.048 40.168 70.048 40.84 70.016 41.48H76.288ZM79.712 28.776V30.088C79.712 30.312 79.68 30.344 79.456 30.344C79.264 30.344 78.4 30.312 75.68 30.312H70.464C67.744 30.312 66.848 30.344 66.688 30.344C66.464 30.344 66.432 30.312 66.432 30.088V28.776C66.432 28.552 66.464 28.52 66.688 28.52C66.848 28.52 67.744 28.584 70.464 28.584H75.68C78.4 28.584 79.264 28.52 79.456 28.52C79.68 28.52 79.712 28.552 79.712 28.776Z" fill="black"/>
<path d="M139.784 28.84V31.208H132.392V52.424H129.576V31.208H122.248V28.84H139.784ZM152.431 28.424C158.095 28.424 162.159 32.84 162.159 40.616C162.159 48.36 158.063 52.872 152.431 52.872C146.767 52.872 142.703 48.424 142.703 40.68C142.703 32.904 146.831 28.424 152.431 28.424ZM152.431 30.728C148.431 30.728 145.647 34.12 145.647 40.648C145.647 47.144 148.431 50.568 152.431 50.568C156.463 50.568 159.215 47.144 159.215 40.648C159.215 34.12 156.463 30.728 152.431 30.728ZM182.628 28.84V31.208H175.236V52.424H172.42V31.208H165.092V28.84H182.628ZM202.659 28.84V31.208H195.267V52.424H192.451V31.208H185.123V28.84H202.659ZM215.306 28.424C220.97 28.424 225.034 32.84 225.034 40.616C225.034 48.36 220.938 52.872 215.306 52.872C209.642 52.872 205.578 48.424 205.578 40.68C205.578 32.904 209.706 28.424 215.306 28.424ZM215.306 30.728C211.306 30.728 208.522 34.12 208.522 40.648C208.522 47.144 211.306 50.568 215.306 50.568C219.338 50.568 222.09 47.144 222.09 40.648C222.09 34.12 219.338 30.728 215.306 30.728Z" fill="black"/>
<path d="M10.245 8.135C9.99 7.505 9.825 7.085 9.555 6.38C9.315 5.765 9.195 5.54 8.925 5.21C9.39 5.135 9.855 5.075 10.11 5.075C10.32 5.075 10.425 5.165 10.425 5.3C10.425 5.39 10.41 5.54 10.44 5.69C10.47 5.9 10.545 6.245 10.71 6.695C10.875 7.145 11.01 7.49 11.205 7.955C12.42 7.67 13.65 7.325 14.49 6.995C14.58 6.965 14.655 6.965 14.7 7.07C14.775 7.235 14.85 7.49 14.895 7.73C14.91 7.835 14.895 7.895 14.82 7.925C13.89 8.24 12.795 8.54 11.58 8.825C12.12 9.995 12.915 11.225 14.07 12.485C14.22 12.635 14.34 12.725 14.475 12.815C14.55 12.86 14.58 12.905 14.58 12.95C14.58 13.01 14.565 13.07 14.535 13.115C14.43 13.295 14.25 13.565 14.145 13.715C14.07 13.805 14.01 13.865 13.95 13.865C13.89 13.865 13.86 13.835 13.77 13.775C13.575 13.64 13.41 13.55 13.23 13.445C12.33 12.98 11.265 12.635 9.825 12.635C8.025 12.635 7.035 13.28 7.035 14.345C7.035 15.725 8.895 16.295 11.085 16.295C11.85 16.295 12.63 16.235 13.245 16.115C13.215 16.445 13.125 16.865 13.05 17.09C13.005 17.195 12.975 17.21 12.855 17.24C12.585 17.27 11.79 17.315 11.13 17.315C8.385 17.315 6.075 16.43 6.075 14.42C6.075 12.68 7.725 11.81 9.795 11.81C11.19 11.81 12.165 12.125 12.975 12.485C11.985 11.42 11.295 10.34 10.665 9.02C9.51 9.215 8.475 9.32 7.44 9.395C6.99 9.425 6.54 9.455 6.165 9.44C6.06 9.44 6.03 9.38 5.985 9.26C5.925 9.08 5.865 8.81 5.82 8.48C6.33 8.51 6.795 8.51 7.305 8.48C8.175 8.435 9.09 8.33 10.245 8.135ZM24.6 7.55C24.48 7.205 24.375 6.875 24.21 6.395C24.075 5.975 23.955 5.735 23.715 5.435C24.15 5.36 24.6 5.33 24.885 5.33C25.035 5.33 25.14 5.405 25.14 5.51C25.14 5.57 25.11 5.66 25.11 5.75C25.11 5.885 25.14 6.02 25.23 6.38C25.335 6.77 25.425 7.04 25.515 7.355C26.58 7.13 27.45 6.935 28.65 6.53C28.74 6.5 28.785 6.485 28.815 6.59C28.875 6.77 28.92 6.98 28.95 7.145C28.965 7.265 28.92 7.325 28.815 7.355C27.705 7.7 26.835 7.91 25.77 8.15C25.95 8.69 26.19 9.26 26.475 9.845C27.585 9.62 28.545 9.35 29.46 8.99C29.58 8.945 29.625 8.96 29.67 9.065C29.73 9.26 29.775 9.44 29.805 9.635C29.82 9.74 29.805 9.8 29.685 9.845C28.77 10.145 27.78 10.415 26.835 10.625C27.42 11.72 28.245 12.905 29.175 13.685C29.265 13.775 29.295 13.82 29.235 13.94C29.145 14.15 29.01 14.36 28.875 14.525C28.755 14.66 28.68 14.675 28.545 14.555C28.245 14.345 27.855 14.165 27.48 14.015C26.685 13.715 25.8 13.565 24.615 13.565C23.055 13.565 22.05 14.015 22.05 15.05C22.05 16.205 23.46 16.625 25.845 16.625C26.385 16.625 26.88 16.58 27.375 16.535C27.495 16.52 27.51 16.595 27.495 16.7C27.465 16.91 27.405 17.195 27.33 17.42C27.3 17.54 27.27 17.585 27.135 17.6C26.745 17.63 26.385 17.66 25.815 17.66C22.815 17.66 21.09 16.85 21.09 15.125C21.09 13.655 22.365 12.755 24.555 12.755C25.83 12.755 26.895 12.935 27.66 13.31C27.075 12.665 26.52 11.84 25.965 10.82C24.45 11.09 23.025 11.27 21.63 11.315C21.51 11.315 21.495 11.3 21.45 11.165C21.39 10.985 21.33 10.685 21.315 10.46C22.86 10.415 24.225 10.265 25.59 10.01C25.35 9.5 25.095 8.915 24.855 8.315C23.64 8.54 22.245 8.705 20.91 8.75C20.79 8.75 20.745 8.735 20.715 8.6C20.685 8.48 20.625 8.18 20.58 7.91C22.005 7.895 23.505 7.715 24.6 7.55ZM28.935 5.585L29.49 5.18C29.535 5.15 29.58 5.15 29.64 5.195C30.24 5.615 30.9 6.35 31.335 7.01C31.38 7.07 31.365 7.13 31.305 7.175L30.87 7.535C30.795 7.595 30.72 7.58 30.675 7.505C30.24 6.77 29.61 6.065 28.935 5.585ZM30.255 4.58L30.735 4.205C30.795 4.16 30.84 4.145 30.9 4.19C31.5 4.655 32.175 5.315 32.61 5.945C32.655 6.02 32.64 6.065 32.565 6.125L32.16 6.485C32.1 6.545 32.04 6.545 31.98 6.455C31.605 5.84 30.96 5.105 30.255 4.58ZM39.1632 15.575V15.875C39.1632 16.97 38.3982 17.63 36.9732 17.63C35.4132 17.63 34.6932 16.955 34.6932 16.1C34.6932 15.08 35.6982 14.48 37.0182 14.48C37.3632 14.48 37.7982 14.48 38.2332 14.54C38.1582 13.715 38.0682 12.425 38.0382 11.135C38.0082 10.31 37.9932 9.575 37.9782 9.035C37.9782 8.69 37.9482 8.33 37.8582 8.06C38.2632 8.09 38.7132 8.15 38.9382 8.225C39.0282 8.255 39.1032 8.3 39.1032 8.36C39.1032 8.435 39.0732 8.51 39.0432 8.555C38.9532 8.72 38.9382 8.84 38.9232 9.095C38.8932 9.56 38.8932 10.13 38.9082 10.775C39.8532 10.715 40.8882 10.52 41.6982 10.25C41.8182 10.205 41.8632 10.22 41.8932 10.31C41.9532 10.49 42.0132 10.7 42.0582 10.895C42.0732 11 42.0582 11.045 41.9532 11.075C40.9482 11.375 39.9882 11.525 38.9232 11.63C38.9532 12.545 39.0432 13.775 39.1332 14.705C40.1982 14.99 41.2932 15.515 42.4782 16.265C42.5532 16.31 42.5532 16.355 42.5232 16.415C42.4482 16.61 42.2532 16.955 42.1482 17.09C42.1032 17.15 42.0582 17.165 41.9832 17.12C40.9182 16.34 40.0182 15.875 39.1632 15.575ZM38.2632 15.605V15.365C37.8282 15.29 37.3932 15.245 37.0182 15.245C36.0732 15.245 35.4732 15.545 35.4732 16.07C35.4732 16.49 35.9232 16.82 36.9432 16.82C37.7532 16.82 38.2632 16.43 38.2632 15.605ZM52.0932 4.985C53.3982 5.54 54.7332 5.885 56.1882 6.08C56.3082 6.095 56.3532 6.155 56.3382 6.275C56.3082 6.47 56.2182 6.83 56.1582 6.98C56.1132 7.1 56.0982 7.16 55.9932 7.145C54.4932 6.89 53.3532 6.62 51.8982 6.02C51.8532 6.005 51.8382 5.945 51.8532 5.81C51.8982 5.525 51.9882 5.27 52.0932 4.985ZM49.4832 9.725C50.0532 9.68 50.4882 9.56 51.1932 9.335C52.6032 8.885 53.4432 8.615 54.4482 8.615C55.9332 8.615 57.2232 9.635 57.2232 11.975C57.2232 13.385 56.7282 14.555 55.9932 15.44C55.2282 16.37 54.3282 17.015 53.3382 17.555C53.0382 17.72 52.9332 17.69 52.8282 17.555C52.6332 17.315 52.3782 17.18 52.0782 17.045C53.5482 16.355 54.5532 15.575 55.2732 14.6C55.7382 13.97 56.1282 13.1 56.1282 11.87C56.1282 10.07 55.1832 9.56 54.2682 9.56C53.7582 9.56 53.0382 9.74 52.0782 10.085C51.3882 10.37 51.0132 10.535 50.7282 10.7C50.5182 10.82 50.3982 10.925 50.2482 10.925C50.1432 10.925 50.0382 10.805 49.9632 10.685C49.8432 10.505 49.6332 10.085 49.4832 9.725ZM65.3832 5.375C65.8332 5.42 66.2982 5.48 66.5982 5.585C66.7632 5.63 66.8382 5.705 66.8382 5.81C66.8382 5.93 66.7782 6.05 66.7182 6.2C66.6582 6.38 66.5982 6.845 66.5382 7.745C66.4032 10.01 66.3132 12.065 66.3132 14.135C66.3132 15.815 66.7782 16.325 68.0832 16.325C69.9882 16.325 71.9382 15.17 73.4832 13.46C73.5282 13.805 73.6482 14.105 73.7382 14.33C73.7682 14.42 73.7982 14.48 73.7982 14.54C73.7982 14.63 73.7532 14.705 73.6182 14.825C72.0432 16.34 70.0482 17.345 67.9032 17.345C66.2082 17.345 65.2932 16.535 65.2932 14.33C65.2932 12.2 65.4282 9.755 65.5032 7.64C65.5332 6.71 65.5482 6.065 65.3832 5.375ZM84.1632 15.575V15.875C84.1632 16.97 83.3982 17.63 81.9732 17.63C80.4132 17.63 79.6932 16.955 79.6932 16.1C79.6932 15.08 80.6982 14.48 82.0182 14.48C82.3632 14.48 82.7982 14.48 83.2332 14.54C83.1582 13.715 83.0682 12.425 83.0382 11.135C83.0082 10.31 82.9932 9.575 82.9782 9.035C82.9782 8.69 82.9482 8.33 82.8582 8.06C83.2632 8.09 83.7132 8.15 83.9382 8.225C84.0282 8.255 84.1032 8.3 84.1032 8.36C84.1032 8.435 84.0732 8.51 84.0432 8.555C83.9532 8.72 83.9382 8.84 83.9232 9.095C83.8932 9.56 83.8932 10.13 83.9082 10.775C84.8532 10.715 85.8882 10.52 86.6982 10.25C86.8182 10.205 86.8632 10.22 86.8932 10.31C86.9532 10.49 87.0132 10.7 87.0582 10.895C87.0732 11 87.0582 11.045 86.9532 11.075C85.9482 11.375 84.9882 11.525 83.9232 11.63C83.9532 12.545 84.0432 13.775 84.1332 14.705C85.1982 14.99 86.2932 15.515 87.4782 16.265C87.5532 16.31 87.5532 16.355 87.5232 16.415C87.4482 16.61 87.2532 16.955 87.1482 17.09C87.1032 17.15 87.0582 17.165 86.9832 17.12C85.9182 16.34 85.0182 15.875 84.1632 15.575ZM83.2632 15.605V15.365C82.8282 15.29 82.3932 15.245 82.0182 15.245C81.0732 15.245 80.4732 15.545 80.4732 16.07C80.4732 16.49 80.9232 16.82 81.9432 16.82C82.7532 16.82 83.2632 16.43 83.2632 15.605Z" fill="black"/>
<path d="M156.95 5.255C157.4 5.27 157.865 5.315 158.18 5.39C158.3 5.42 158.36 5.51 158.36 5.585C158.36 5.735 158.285 5.87 158.285 6.11C158.3 6.44 158.33 6.74 158.375 7.07C158.51 8.15 158.69 9.155 158.96 10.1C159.845 9.665 160.745 9.245 161.63 8.75C162.11 8.48 162.29 8.33 162.5 8.06C162.8 8.345 163.07 8.63 163.265 8.9C163.385 9.08 163.355 9.29 163.085 9.32C162.71 9.38 162.215 9.59 161.765 9.8C160.67 10.31 159.38 10.925 158.36 11.51C156.845 12.395 156.14 13.175 156.14 14.225C156.14 15.56 157.4 15.89 159.665 15.875C161.06 15.86 162.41 15.725 163.52 15.56C163.655 15.545 163.7 15.575 163.73 15.695C163.775 15.935 163.805 16.22 163.82 16.475C163.835 16.61 163.775 16.67 163.61 16.685C162.38 16.82 161.3 16.895 159.62 16.895C157.025 16.895 155.15 16.325 155.15 14.27C155.15 12.83 156.17 11.72 158.075 10.565C157.745 9.455 157.43 7.91 157.28 6.725C157.19 6.035 157.115 5.66 156.95 5.255ZM169.595 11.345C170.18 11.27 170.705 11.135 171.89 10.775C173.51 10.28 174.785 9.92 175.94 9.92C177.8 9.92 179.06 11.075 179.06 12.845C179.06 14.285 178.43 15.215 177.08 15.95C176.255 16.4 175.235 16.745 173.975 16.955C173.81 16.985 173.75 16.94 173.675 16.805C173.6 16.655 173.39 16.385 173.105 16.175C174.53 15.98 175.625 15.665 176.54 15.185C177.515 14.675 178.04 13.955 178.04 12.785C178.04 11.45 177.155 10.79 175.82 10.79C174.71 10.79 173.09 11.3 171.395 11.99C171.02 12.14 170.825 12.275 170.69 12.365C170.585 12.425 170.48 12.5 170.405 12.5C170.315 12.5 170.225 12.44 170.135 12.335C169.94 12.08 169.745 11.675 169.595 11.345ZM186.95 5.255C187.4 5.27 187.865 5.315 188.18 5.39C188.3 5.42 188.36 5.51 188.36 5.585C188.36 5.735 188.285 5.87 188.285 6.11C188.3 6.44 188.33 6.74 188.375 7.07C188.51 8.15 188.69 9.155 188.96 10.1C189.845 9.665 190.745 9.245 191.63 8.75C192.11 8.48 192.29 8.33 192.5 8.06C192.8 8.345 193.07 8.63 193.265 8.9C193.385 9.08 193.355 9.29 193.085 9.32C192.71 9.38 192.215 9.59 191.765 9.8C190.67 10.31 189.38 10.925 188.36 11.51C186.845 12.395 186.14 13.175 186.14 14.225C186.14 15.56 187.4 15.89 189.665 15.875C191.06 15.86 192.41 15.725 193.52 15.56C193.655 15.545 193.7 15.575 193.73 15.695C193.775 15.935 193.805 16.22 193.82 16.475C193.835 16.61 193.775 16.67 193.61 16.685C192.38 16.82 191.3 16.895 189.62 16.895C187.025 16.895 185.15 16.325 185.15 14.27C185.15 12.83 186.17 11.72 188.075 10.565C187.745 9.455 187.43 7.91 187.28 6.725C187.19 6.035 187.115 5.66 186.95 5.255Z" fill="black"/>
</svg>
